<?xml version="1.0" encoding="UTF-8" standalone="no"?>
<!-- Created with Inkscape (http://www.inkscape.org/) -->

<svg
   width="300"
   height="300"
   viewBox="0 0 79.374998 79.375"
   version="1.1"
   id="svg1"
   xml:space="preserve"
   inkscape:version="1.3.2 (091e20e, 2023-11-25, custom)"
   sodipodi:docname="colony.svg"
   xmlns:inkscape="http://www.inkscape.org/namespaces/inkscape"
   xmlns:sodipodi="http://sodipodi.sourceforge.net/DTD/sodipodi-0.dtd"
   xmlns="http://www.w3.org/2000/svg"
   xmlns:svg="http://www.w3.org/2000/svg"><sodipodi:namedview
     id="namedview1"
     pagecolor="#000000"
     bordercolor="#000000"
     borderopacity="0.25"
     inkscape:showpageshadow="2"
     inkscape:pageopacity="0.0"
     inkscape:pagecheckerboard="0"
     inkscape:deskcolor="#d1d1d1"
     inkscape:document-units="mm"
     inkscape:zoom="4.4094972"
     inkscape:cx="167.70619"
     inkscape:cy="212.60927"
     inkscape:window-width="2560"
     inkscape:window-height="1057"
     inkscape:window-x="-8"
     inkscape:window-y="-8"
     inkscape:window-maximized="1"
     inkscape:current-layer="g40" /><defs
     id="defs1" /><g
     inkscape:label="Camada 1"
     inkscape:groupmode="layer"
     id="layer1"
     transform="matrix(0.28405242,0.16407733,-0.16399775,0.28419029,42.994226,-17.334705)"
     style="stroke-width:3.04809"><g
       id="g39"
       style="stroke-width:5.06686"
       transform="matrix(0.52085149,0.30071377,-0.30085974,0.52110426,85.095776,-21.401509)"
       inkscape:label="rocket"><g
         id="g34"
         transform="translate(0.73736852,-0.32015174)"
         style="stroke-width:5.06686"><path
           sodipodi:type="star"
           style="fill:#262626;fill-opacity:1;stroke:none;stroke-width:8.85676;stroke-linecap:round;stroke-opacity:0.5"
           id="path33"
           inkscape:flatsided="true"
           sodipodi:sides="3"
           sodipodi:cx="201.09138"
           sodipodi:cy="161.48247"
           sodipodi:r1="37.077843"
           sodipodi:r2="18.538921"
           sodipodi:arg1="0.52359878"
           sodipodi:arg2="1.5707963"
           inkscape:rounded="0"
           inkscape:randomized="0"
           d="m 233.20174,180.02139 -64.22071,0 32.11036,-55.61677 z"
           transform="matrix(0.2114851,-0.12210097,0.12204175,0.2113825,53.16615,143.52268)"
           inkscape:transform-center-y="-0.74245815" /><path
           sodipodi:type="star"
           style="fill:#262626;fill-opacity:1;stroke:none;stroke-width:8.85676;stroke-linecap:round;stroke-opacity:0.5"
           id="path34"
           inkscape:flatsided="true"
           sodipodi:sides="3"
           sodipodi:cx="201.09138"
           sodipodi:cy="161.48247"
           sodipodi:r1="37.077843"
           sodipodi:r2="18.538921"
           sodipodi:arg1="0.52359878"
           sodipodi:arg2="1.5707963"
           inkscape:rounded="0"
           inkscape:randomized="0"
           d="m 233.20174,180.02139 -64.22071,0 32.11036,-55.61677 z"
           transform="matrix(0.2114851,-0.12210097,0.12204175,0.2113825,68.77146,134.51295)"
           inkscape:transform-center-y="-0.74245815" /></g><path
         id="path32"
         style="fill:#bfbfbf;fill-opacity:1;stroke:none;stroke-width:2.16233;stroke-linecap:round;stroke-opacity:0.5"
         inkscape:transform-center-y="-1.2110653"
         d="M 65.455785,46.979938 61.242633,74.980559 80.195642,107.80812 110.76597,90.15834 91.812968,57.33077 Z" /><path
         id="rect32"
         style="fill:#d8d8d8;fill-opacity:1;stroke:none;stroke-width:2.6812;stroke-linecap:round;stroke-opacity:0.5"
         d="M 15.548838 132.91448 L 15.546949 189.8783 L 50.847482 189.87737 L 50.847102 132.91486 L 15.548838 132.91448 z "
         transform="rotate(-29.999998)" /><path
         sodipodi:type="star"
         style="fill:#f8ff83;fill-opacity:1;stroke:none;stroke-width:1.10314;stroke-linecap:round;stroke-opacity:0.5"
         id="path35"
         inkscape:flatsided="true"
         sodipodi:sides="3"
         sodipodi:cx="182.76154"
         sodipodi:cy="176.22276"
         sodipodi:r1="16.836826"
         sodipodi:r2="8.4184132"
         sodipodi:arg1="-0.52359878"
         sodipodi:arg2="0.52359878"
         inkscape:rounded="0"
         inkscape:randomized="0"
         d="m 197.34265,167.80435 -14.58111,25.25524 -14.58112,-25.25524 z"
         transform="matrix(0.94445037,-0.54527862,1.7615693,3.0511274,-341.7776,-259.74666)"
         inkscape:transform-center-y="4.8664207" /><path
         sodipodi:type="star"
         style="fill:#fcffca;fill-opacity:1;stroke:none;stroke-width:1.89295;stroke-linecap:round;stroke-opacity:0.5"
         id="path36"
         inkscape:flatsided="true"
         sodipodi:sides="3"
         sodipodi:cx="182.76154"
         sodipodi:cy="176.22276"
         sodipodi:r1="16.836826"
         sodipodi:r2="8.4184132"
         sodipodi:arg1="-0.52359878"
         sodipodi:arg2="0.52359878"
         inkscape:rounded="0"
         inkscape:randomized="0"
         d="m 197.34265,167.80435 -14.58111,25.25524 -14.58112,-25.25524 z"
         transform="matrix(0.55038717,-0.31776615,1.0265708,1.7780727,-144.6952,-84.712062)"
         inkscape:transform-center-y="2.8359549" /><path
         sodipodi:type="star"
         style="fill:#bfbfbf;fill-opacity:1;stroke:none;stroke-width:1.56143;stroke-linecap:round;stroke-opacity:0.5"
         id="path37"
         inkscape:flatsided="true"
         sodipodi:sides="3"
         sodipodi:cx="200.13618"
         sodipodi:cy="146.84213"
         sodipodi:r1="7.6036463"
         sodipodi:r2="3.8018234"
         sodipodi:arg1="0.52359878"
         sodipodi:arg2="1.5707963"
         inkscape:rounded="0"
         inkscape:randomized="0"
         d="m 206.72114,150.64396 -13.16991,0 6.58495,-11.40547 z"
         transform="matrix(0.69859465,-0.40333377,1.1886952,2.0588804,-194.87035,-81.032946)"
         inkscape:transform-center-y="-1.482997"
         inkscape:transform-center-x="2.3685004e-06" /><path
         sodipodi:type="star"
         style="fill:#bfbfbf;fill-opacity:1;stroke:none;stroke-width:1.56143;stroke-linecap:round;stroke-opacity:0.5"
         id="path38"
         inkscape:flatsided="true"
         sodipodi:sides="3"
         sodipodi:cx="200.13618"
         sodipodi:cy="146.84213"
         sodipodi:r1="7.6036463"
         sodipodi:r2="3.8018234"
         sodipodi:arg1="0.52359878"
         sodipodi:arg2="1.5707963"
         inkscape:rounded="0"
         inkscape:randomized="0"
         d="m 206.72114,150.64396 -13.16991,0 6.58495,-11.40547 z"
         transform="matrix(0.69859465,-0.40333377,1.1886952,2.0588804,-210.15551,-72.208055)"
         inkscape:transform-center-y="-1.482997"
         inkscape:transform-center-x="2.3685004e-06" /><path
         sodipodi:type="star"
         style="fill:#bfbfbf;fill-opacity:1;stroke:none;stroke-width:1.56143;stroke-linecap:round;stroke-opacity:0.5"
         id="path39"
         inkscape:flatsided="true"
         sodipodi:sides="3"
         sodipodi:cx="200.13618"
         sodipodi:cy="146.84213"
         sodipodi:r1="7.6036463"
         sodipodi:r2="3.8018234"
         sodipodi:arg1="0.52359878"
         sodipodi:arg2="1.5707963"
         inkscape:rounded="0"
         inkscape:randomized="0"
         d="m 206.72114,150.64396 -13.16991,0 6.58495,-11.40547 z"
         transform="matrix(0.69859465,-0.40333377,1.1886952,2.0588804,-179.58519,-89.857837)"
         inkscape:transform-center-y="-1.482997"
         inkscape:transform-center-x="2.3685004e-06" /></g><g
       id="g40"
       transform="matrix(0.85035598,0,0,0.85035598,-13.513815,4.4718738)"
       inkscape:label="habitat"
       style="stroke-width:3.58449"><path
         id="path48"
         style="fill:#a7e2ef;stroke-width:1.89678;stroke-linecap:round;stroke-opacity:0.5"
         d="M 79.521745 193.96211 A 57.681507 77.474533 60.000002 0 0 36.121063 252.48284 A 57.681507 77.474533 60.000002 0 0 39.1323 277.96786 L 172.46759 200.98671 A 57.681507 77.474533 60.000002 0 0 151.90252 185.63638 A 57.681507 77.474533 60.000002 0 0 79.521745 193.96211 z " /><path
         id="path58"
         style="stroke-width:1.89679;fill:#00e40c;fill-opacity:1;stroke:none;stroke-linecap:round;stroke-opacity:0.5"
         d="M -16.955755 233.29851 A 25.356863 8.2444429 0 0 0 -27.979797 234.13186 A 17.772835 8.5872898 5.0939127e-14 0 0 -34.036535 233.60037 A 17.772835 8.5872898 5.0939127e-14 0 0 -51.808402 242.18754 A 17.772835 8.5872898 5.0939127e-14 0 0 -34.036534 250.77471 A 17.772835 8.5872898 5.0939127e-14 0 0 -24.4169 249.40803 A 25.356863 8.2444429 0 0 0 -16.955754 249.78766 A 25.356863 8.2444429 0 0 0 8.4013941 241.54309 A 25.356863 8.2444429 0 0 0 -16.955755 233.29851 z "
         transform="rotate(-29.999998,-1.185995e-6,-4.1029453e-6)" /><path
         id="path56"
         style="stroke-width:1.89679;fill:#2bff36;fill-opacity:1;stroke:none;stroke-linecap:round;stroke-opacity:0.5"
         d="M -24.085253 234.01519 A 24.529547 8.6116171 0 0 0 -44.743751 238.0097 A 24.415453 11.179558 6.3438748e-14 0 0 -47.245005 237.93377 A 24.415453 11.179558 6.3438748e-14 0 0 -71.66094 249.11358 A 24.415453 11.179558 6.3438748e-14 0 0 -47.245003 260.29338 A 24.415453 11.179558 6.3438748e-14 0 0 -23.271882 251.22102 A 24.529547 8.6116171 0 0 0 -7.360206 248.91172 A 17.499895 8.8471708 9.6083579e-16 0 0 -7.4769311 249.81359 A 17.499895 8.8471708 9.6083579e-16 0 0 10.022578 258.66188 A 17.499895 8.8471708 9.6083579e-16 0 0 27.522086 249.81359 A 17.499895 8.8471708 9.6083579e-16 0 0 10.022577 240.96715 A 17.499895 8.8471708 9.6083579e-16 0 0 0.43443962 242.43569 A 24.529547 8.6116171 0 0 0 -24.085253 234.01519 z "
         transform="rotate(-29.999998,-1.185995e-6,-4.1029453e-6)" /><path
         id="path53"
         style="fill:#6bff73;fill-opacity:1;stroke:none;stroke-width:1.89679;stroke-linecap:round;stroke-opacity:0.5"
         d="M -1.1163375 240.52085 A 23.803978 12.256568 -180 0 0 -23.07734 248.0543 A 23.803978 12.256568 -180 0 0 -34.99998 246.40427 A 23.803978 12.256568 -180 0 0 -47.836041 248.36912 A 23.803978 12.256568 -180 0 0 -67.162391 243.232 A 23.803978 12.256568 -180 0 0 -90.965056 255.4896 A 23.803978 12.256568 -180 0 0 -90.963203 255.50627 A 23.803978 12.256568 -180 0 0 -97.622095 263.98974 A 23.803978 12.256568 -180 0 0 -73.817575 276.24734 A 23.803978 12.256568 -180 0 0 -51.106197 267.65647 A 23.803978 12.256568 -180 0 0 -34.999979 270.91763 A 23.803978 12.256568 -180 0 0 -13.035271 263.38603 A 23.803978 12.256568 -180 0 0 -6.6135347 264.6842 A 23.803978 12.256568 -180 0 0 -6.6153875 264.70271 A 23.803978 12.256568 -180 0 0 17.189132 276.95846 A 23.803978 12.256568 -180 0 0 40.991798 264.70271 A 23.803978 12.256568 -180 0 0 22.688182 252.79512 A 23.803978 12.256568 -180 0 0 22.688182 252.7766 A 23.803978 12.256568 -180 0 0 -1.1163375 240.52085 z "
         transform="rotate(-29.999998)" /><path
         id="rect27"
         style="stroke-width:1.89678;fill:#a0a0a0;fill-opacity:1;stroke:none;stroke-linecap:round;stroke-opacity:0.5"
         d="M -98.618893 258.66188 C -106.13994 258.66188 -112.19606 264.71697 -112.19606 272.23802 C -112.19606 279.75907 -106.13994 285.81416 -98.618891 285.81416 L 42.392499 285.81416 C 49.913548 285.81416 55.967818 279.75907 55.967818 272.23802 C 55.967818 264.71697 49.913547 258.66188 42.392497 258.66188 L -98.618893 258.66188 z "
         transform="rotate(-29.999998,-1.185995e-6,-4.1029453e-6)" /><ellipse
         style="stroke-width:1.89679;fill:#808080;fill-opacity:1;stroke:none;stroke-linecap:round;stroke-opacity:0.5"
         id="path52"
         cx="-28.113449"
         cy="274.49524"
         transform="rotate(-29.999998,-1.185995e-6,-4.1029453e-6)"
         rx="9.3986158"
         ry="9.4612112" /><g
         id="g62"
         transform="translate(1.783201,3.0846766)"
         style="stroke-width:3.58449"><rect
           style="fill:#bcbcbc;fill-opacity:1;stroke:none;stroke-width:1.89679;stroke-linecap:round;stroke-opacity:0.5"
           id="rect61"
           width="4.6242137"
           height="25.379414"
           x="241.94791"
           y="97.154411"
           transform="matrix(0.96598859,0.2585847,-0.25905344,0.96586299,0,0)"
           ry="0"
           rx="2.3121068" /><rect
           style="fill:#bcbcbc;fill-opacity:1;stroke:none;stroke-width:1.89679;stroke-linecap:round;stroke-opacity:0.5"
           id="rect62"
           width="4.6242132"
           height="25.379416"
           x="-91.54879"
           y="252.17772"
           transform="matrix(0.25905339,-0.965863,0.96598857,0.25858475,0,0)"
           ry="0"
           rx="2.3121066" /><rect
           style="fill:#bcbcbc;fill-opacity:1;stroke:none;stroke-width:1.89679;stroke-linecap:round;stroke-opacity:0.5"
           id="rect63"
           width="4.6253352"
           height="25.373257"
           x="107.33196"
           y="240.45493"
           transform="rotate(-29.999998)"
           ry="0"
           rx="2.3126676" /><g
           id="g64"><path
             id="rect64"
             style="stroke-width:1.89679;fill:#bcbcbc;fill-opacity:1;stroke:none;stroke-linecap:round;stroke-opacity:0.5"
             d="M 212.20401 127.2096 C 211.86021 127.44148 211.63593 127.83408 211.63593 128.28174 L 211.63586 152.30713 C 211.63586 153.02338 212.21146 153.59957 212.92771 153.59957 C 213.64396 153.59957 214.22207 153.02335 214.22207 152.3071 L 214.22214 128.28171 C 214.22214 127.56546 213.64401 126.9886 212.92776 126.9886 C 212.65916 126.9886 212.41028 127.07047 212.20401 127.2096 z "
             transform="matrix(0.99999998,-2.1006263e-4,-2.1018154e-4,0.99999998,-2.2815079e-6,1.2646731e-6)" /><path
             sodipodi:type="star"
             style="fill:#d0d0d0;fill-opacity:1;stroke:none;stroke-width:1.24256;stroke-linecap:round;stroke-opacity:0.5"
             id="path63"
             inkscape:flatsided="true"
             sodipodi:sides="3"
             sodipodi:cx="240.78047"
             sodipodi:cy="167.17525"
             sodipodi:r1="19.423094"
             sodipodi:r2="9.7115459"
             sodipodi:arg1="-0.52359878"
             sodipodi:arg2="0.52359878"
             inkscape:rounded="0"
             inkscape:randomized="0"
             d="M 257.60136,157.4637 240.78047,186.59834 223.95958,157.4637 Z"
             transform="matrix(2.2102816,-4.6432209e-4,-1.9925731e-4,0.94827827,-319.52453,-9.4118057)"
             inkscape:transform-center-y="-1.4801043"
             inkscape:transform-center-x="-1.2847552" /></g></g><path
         id="rect60"
         style="fill:#a0a0a0;fill-opacity:1;stroke:none;stroke-width:1.89678;stroke-linecap:round;stroke-opacity:0.5"
         d="M 86.038441 258.66188 C 78.517391 258.66188 72.463122 264.71697 72.463122 272.23802 C 72.463122 279.75907 78.517393 285.81416 86.038443 285.81416 L 133.25469 285.81416 C 140.77574 285.81416 146.83001 279.75907 146.83001 272.23802 C 146.83001 264.71697 140.77574 258.66188 133.25469 258.66188 L 86.038441 258.66188 z "
         transform="rotate(-29.999998)" /><path
         id="path87"
         style="fill:#000000;fill-opacity:0.15000001;stroke-width:1.89679;stroke-linecap:round;stroke-opacity:0.5"
         d="m 139.43226,21.510798 -0.0903,0.114136 -0.0105,41.984363 0.002,0.388232 -0.006,21.667239 -0.004,18.246822 1.1e-4,0.45968 2.70916,0.001 -1.78996,3.0991 11.09348,-0.003 -1.78892,-3.0985 6.11109,-0.002 -3.75288,-19.180611 6.8e-4,-0.0025 0.003,-21.19077 8.8e-4,-0.387554 0.006,-26.43179 z" /><path
         id="path63-2"
         style="fill:#000000;fill-opacity:0.15000001;stroke:none;stroke-width:1.79891;stroke-linecap:round;stroke-opacity:0.5"
         inkscape:transform-center-x="-1.6020165"
         inkscape:transform-center-y="-2.775488"
         d="m 251.59885,142.87267 -37.14777,27.60782 0.006,-27.59927 z" /><path
         id="path113"
         style="fill:#000000;fill-opacity:0.15000001;stroke:none;stroke-width:1.89679;stroke-linecap:round;stroke-opacity:0.5"
         d="M 101.96513 210.52032 A 8.2444429 25.356863 60.000002 0 0 92.834706 216.75404 A 8.5872898 17.772835 60.000002 0 0 92.710845 216.8063 L 92.733067 216.84479 L 99.138725 227.93972 L 100.78134 230.78482 A 8.5872898 17.772835 60.000002 0 0 102.06155 229.6672 A 8.5872898 17.772835 60.000002 0 1 100.78134 230.78482 L 103.63972 235.73568 L 104.98419 238.06436 L 110.83521 248.19862 L 118.56033 261.57893 L 179.62006 226.32608 C 186.13346 222.56556 188.34906 214.29454 184.58856 207.78114 C 180.82803 201.26772 172.55733 199.05101 166.04391 202.81151 L 161.97476 205.16084 A 12.256568 23.803978 60.000002 0 0 149.18789 206.43616 A 8.8471708 17.499895 60.000002 0 0 148.74161 202.58388 A 8.8471708 17.499895 60.000002 0 0 129.16337 203.67239 A 8.8471708 17.499895 60.000002 0 0 127.75545 204.58362 A 8.2444429 25.356863 60.000002 0 0 101.96513 210.52032 z M 98.241244 213.54918 A 8.6116171 24.529547 60.000002 0 1 98.995822 213.1627 A 8.6116171 24.529547 60.000002 0 0 98.241244 213.54918 z M 100.41858 212.44391 A 8.6116171 24.529547 60.000002 0 1 101.13798 212.10769 A 8.6116171 24.529547 60.000002 0 0 100.41858 212.44391 z M 102.54106 211.46227 A 8.6116171 24.529547 60.000002 0 1 103.38353 211.10204 A 8.6116171 24.529547 60.000002 0 0 102.54106 211.46227 z M 104.62677 210.5874 A 8.6116171 24.529547 60.000002 0 1 105.57379 210.22667 A 8.6116171 24.529547 60.000002 0 0 104.62677 210.5874 z M 106.68812 209.81854 A 8.6116171 24.529547 60.000002 0 1 107.60916 209.50917 A 8.6116171 24.529547 60.000002 0 0 106.68812 209.81854 z M 108.74231 209.15217 A 8.6116171 24.529547 60.000002 0 1 109.55177 208.92005 A 8.6116171 24.529547 60.000002 0 0 108.74231 209.15217 z M 110.65513 208.63372 A 8.6116171 24.529547 60.000002 0 1 111.49002 208.43823 A 8.6116171 24.529547 60.000002 0 0 110.65513 208.63372 z M 112.45866 208.24465 A 8.6116171 24.529547 60.000002 0 1 113.26529 208.10397 A 8.6116171 24.529547 60.000002 0 0 112.45866 208.24465 z M 114.23307 207.97931 A 8.6116171 24.529547 60.000002 0 1 114.90282 207.90911 A 8.6116171 24.529547 60.000002 0 0 114.23307 207.97931 z M 115.81396 207.8642 A 8.6116171 24.529547 60.000002 0 1 116.42625 207.84642 A 8.6116171 24.529547 60.000002 0 0 115.81396 207.8642 z M 117.28376 207.8902 A 8.6116171 24.529547 60.000002 0 1 117.78553 207.92554 A 8.6116171 24.529547 60.000002 0 0 117.28376 207.8902 z M 118.58164 208.06679 A 8.6116171 24.529547 60.000002 0 1 118.98226 208.14555 A 8.6116171 24.529547 60.000002 0 0 118.58164 208.06679 z M 119.29364 208.85534 A 12.256568 23.803978 60.000002 0 0 117.21859 210.13035 A 12.256568 23.803978 60.000002 0 1 119.29364 208.85534 z M 119.99021 208.49808 A 8.6116171 24.529547 60.000002 0 1 120.87776 209.01634 A 8.6116171 24.529547 60.000002 0 0 119.99021 208.49808 z M 116.54728 210.59064 A 12.256568 23.803978 60.000002 0 0 115.226 211.50744 A 12.256568 23.803978 60.000002 0 1 116.54728 210.59064 z M 114.46398 212.08852 A 12.256568 23.803978 60.000002 0 0 113.35711 212.95424 A 12.256568 23.803978 60.000002 0 1 114.46398 212.08852 z M 126.06309 205.72108 A 12.256568 23.803978 60.000002 0 1 128.05686 205.00193 A 12.256568 23.803978 60.000002 0 1 130.10848 204.43114 A 12.256568 23.803978 60.000002 0 0 128.05686 205.00193 A 12.256568 23.803978 60.000002 0 0 126.06309 205.72108 z M 126.06309 205.72108 A 8.8471708 17.499895 60.000002 0 0 124.48629 206.95862 A 8.8471708 17.499895 60.000002 0 1 126.06309 205.72108 z M 112.56652 213.62666 A 12.256568 23.803978 60.000002 0 0 111.58512 214.49479 A 12.256568 23.803978 60.000002 0 1 112.56652 213.62666 z M 124.35509 207.06858 A 8.8471708 17.499895 60.000002 0 0 123.01687 208.27101 A 8.8471708 17.499895 60.000002 0 1 124.35509 207.06858 z M 120.94208 209.06474 A 8.6116171 24.529547 60.000002 0 1 121.59407 209.73825 A 8.8471708 17.499895 60.000002 0 1 122.87086 208.41091 A 8.8471708 17.499895 60.000002 0 0 121.59407 209.73825 A 8.6116171 24.529547 60.000002 0 0 120.94208 209.06474 z M 110.8768 215.16889 A 12.256568 23.803978 60.000002 0 0 109.9778 216.06856 A 12.256568 23.803978 60.000002 0 1 110.8768 215.16889 z M 130.64312 204.3085 A 12.256568 23.803978 60.000002 0 1 132.14573 203.99481 A 12.256568 23.803978 60.000002 0 0 130.64312 204.3085 z M 109.31651 216.77966 A 12.256568 23.803978 60.000002 0 0 108.52348 217.68872 A 12.256568 23.803978 60.000002 0 1 109.31651 216.77966 z M 132.72321 203.89448 A 12.256568 23.803978 60.000002 0 1 134.16565 203.69892 A 12.256568 23.803978 60.000002 0 0 132.72321 203.89448 z M 107.92206 218.4294 A 12.256568 23.803978 60.000002 0 0 107.27659 219.29389 A 12.256568 23.803978 60.000002 0 1 107.92206 218.4294 z M 134.68839 203.64089 A 12.256568 23.803978 60.000002 0 1 136.49868 203.54516 A 12.256568 23.803978 60.000002 0 0 134.68839 203.64089 z M 106.73048 220.07108 A 12.256568 23.803978 60.000002 0 0 106.16925 220.97032 A 12.256568 23.803978 60.000002 0 1 106.73048 220.07108 z M 136.77376 203.55099 A 12.256568 23.803978 60.000002 0 1 138.21542 203.60607 A 12.256568 23.803978 60.000002 0 0 136.77376 203.55099 z M 105.75175 221.67753 A 12.256568 23.803978 60.000002 0 0 105.26324 222.65454 A 12.256568 23.803978 60.000002 0 1 105.75175 221.67753 z M 138.72645 203.65745 A 12.256568 23.803978 60.000002 0 1 139.83559 203.81469 A 12.256568 23.803978 60.000002 0 0 138.72645 203.65745 z M 104.96466 223.2824 A 12.256568 23.803978 60.000002 0 0 104.59002 224.2899 A 12.256568 23.803978 60.000002 0 1 104.96466 223.2824 z M 140.33854 203.91136 A 12.256568 23.803978 60.000002 0 1 141.54306 204.2338 A 12.256568 23.803978 60.000002 0 0 140.33854 203.91136 z M 104.39 224.85871 A 12.256568 23.803978 60.000002 0 0 104.04158 226.36 A 12.256568 23.803978 60.000002 0 1 104.39 224.85871 z M 141.7492 204.2944 A 12.256568 23.803978 60.000002 0 1 143.03255 204.83862 A 12.256568 23.803978 60.000002 0 0 141.7492 204.2944 z M 118.08173 219.24398 A 8.8471708 17.499895 60.000002 0 0 118.1834 219.48679 A 8.8471708 17.499895 60.000002 0 1 118.08173 219.24398 z M 118.08173 219.24398 A 8.6116171 24.529547 60.000002 0 1 116.85603 220.48195 A 8.2444429 25.356863 60.000002 0 1 114.96663 221.80802 A 8.2444429 25.356863 60.000002 0 0 116.85603 220.48195 A 8.6116171 24.529547 60.000002 0 0 118.08173 219.24398 z M 143.28524 204.98355 A 12.256568 23.803978 60.000002 0 1 144.13818 205.51966 A 12.256568 23.803978 60.000002 0 0 143.28524 204.98355 z M 103.55835 228.20214 A 8.2444429 25.356863 60.000002 0 0 105.55808 227.26357 A 8.2444429 25.356863 60.000002 0 1 103.55835 228.20214 z M 103.55835 228.20214 A 8.5872898 17.772835 60.000002 0 1 102.40121 229.35135 A 8.5872898 17.772835 60.000002 0 0 103.55835 228.20214 z M 114.35302 222.22002 A 8.2444429 25.356863 60.000002 0 1 112.85573 223.1914 A 8.2444429 25.356863 60.000002 0 0 114.35302 222.22002 z M 106.124 226.98388 A 8.2444429 25.356863 60.000002 0 0 107.72579 226.16387 A 8.2444429 25.356863 60.000002 0 1 106.124 226.98388 z M 108.16667 225.93071 A 8.2444429 25.356863 60.000002 0 0 110.20971 224.80034 A 8.2444429 25.356863 60.000002 0 0 112.27433 223.55915 A 8.2444429 25.356863 60.000002 0 1 110.20971 224.80034 A 8.2444429 25.356863 60.000002 0 1 108.16667 225.93071 z M 115.16478 222.09563 A 8.6116171 24.529547 60.000002 0 1 114.80907 222.42075 A 8.6116171 24.529547 60.000002 0 0 115.16478 222.09563 z M 144.44364 205.756 A 12.256568 23.803978 60.000002 0 1 145.09625 206.35645 A 12.256568 23.803978 60.000002 0 0 144.44364 205.756 z M 112.94032 224.00861 A 8.6116171 24.529547 60.000002 0 1 112.62953 224.25219 A 8.6116171 24.529547 60.000002 0 0 112.94032 224.00861 z M 110.74064 225.69771 A 8.6116171 24.529547 60.000002 0 1 110.44103 225.91987 A 8.6116171 24.529547 60.000002 0 0 110.74064 225.69771 z M 108.29151 227.40681 A 8.6116171 24.529547 60.000002 0 1 107.75324 227.76035 A 8.6116171 24.529547 60.000002 0 0 108.29151 227.40681 z M 119.32586 221.15801 A 8.8471708 17.499895 60.000002 0 0 119.677 221.43642 A 8.8471708 17.499895 60.000002 0 1 119.32586 221.15801 z M 145.34228 206.61214 A 12.256568 23.803978 60.000002 0 1 146.03683 207.56687 A 12.256568 23.803978 60.000002 0 0 145.34228 206.61214 z M 105.45494 230.51998 A 11.179558 24.415453 60.000002 0 1 105.42208 230.84474 A 11.179558 24.415453 60.000002 0 0 105.45494 230.51998 z M 120.61171 222.02154 A 8.8471708 17.499895 60.000002 0 0 121.04783 222.23591 A 8.8471708 17.499895 60.000002 0 1 120.61171 222.02154 z M 148.68951 208.0668 A 8.8471708 17.499895 60.000002 0 1 148.46738 208.57139 A 8.8471708 17.499895 60.000002 0 0 148.68951 208.0668 z M 104.60823 233.77802 A 11.179558 24.415453 60.000002 0 1 104.44095 234.159 A 11.179558 24.415453 60.000002 0 0 104.60823 233.77802 z M 124.6134 222.94224 A 8.8471708 17.499895 60.000002 0 0 125.20762 222.94131 A 8.8471708 17.499895 60.000002 0 1 124.6134 222.94224 z M 147.84571 209.79208 A 8.8471708 17.499895 60.000002 0 1 147.50028 210.37214 A 8.8471708 17.499895 60.000002 0 0 147.84571 209.79208 z M 126.84053 222.84962 A 8.8471708 17.499895 60.000002 0 0 127.488 222.78158 A 8.8471708 17.499895 60.000002 0 1 126.84053 222.84962 z M 146.57275 211.69671 A 8.8471708 17.499895 60.000002 0 1 146.26248 212.11534 A 8.8471708 17.499895 60.000002 0 0 146.57275 211.69671 z M 144.73115 213.83556 A 8.8471708 17.499895 60.000002 0 1 144.34965 214.20122 A 8.8471708 17.499895 60.000002 0 0 144.73115 213.83556 z M 132.27518 221.61293 A 8.8471708 17.499895 60.000002 0 0 133.03366 221.33326 A 8.8471708 17.499895 60.000002 0 1 132.27518 221.61293 z M 142.92091 215.51366 A 8.8471708 17.499895 60.000002 0 1 142.31823 216.0113 A 8.8471708 17.499895 60.000002 0 0 142.92091 215.51366 z M 134.86208 220.58341 A 8.8471708 17.499895 60.000002 0 0 135.57488 220.26168 A 8.8471708 17.499895 60.000002 0 1 134.86208 220.58341 z M 140.80542 217.16699 A 8.8471708 17.499895 60.000002 0 1 140.23019 217.58249 A 8.8471708 17.499895 60.000002 0 0 140.80542 217.16699 z M 224.28764 169.18448 L 237.86379 192.69905 L 258.30902 180.89499 C 264.82244 177.13446 267.03805 168.86346 263.27752 162.35004 C 259.51702 155.83664 251.24628 153.61989 244.73288 157.38042 L 224.28764 169.18448 z " /><path
         id="rect59"
         style="stroke-width:1.89679;display:inline;fill:#bcbcbc;fill-opacity:1;stroke:none;stroke-linecap:round;stroke-opacity:0.5"
         d="M 47.506171 264.71197 C 43.336791 264.71197 39.980178 268.06864 39.980178 272.23802 C 39.980178 276.4074 43.336792 279.76406 47.506172 279.76406 L 79.031226 279.76406 C 83.200605 279.76406 86.557218 276.4074 86.557218 272.23802 C 86.557218 268.06864 83.200604 264.71197 79.031225 264.71197 L 47.506171 264.71197 z "
         transform="rotate(-29.999998,-1.185995e-6,-4.1029453e-6)" /></g><g
       id="g47"
       style="stroke-width:3.04809;display:inline"
       transform="matrix(2.6403578,-1.5244112,1.5236718,2.6390768,-66.684385,122.66548)"
       inkscape:label="solar panels"><g
         id="g7"
         inkscape:label="painel solar"
         transform="matrix(0.69337833,0,0,0.69337833,33.821247,25.416508)"
         style="stroke-width:1.44221"><path
           id="rect5"
           style="fill:#a0a0a0;fill-opacity:1;stroke-width:0.86533;stroke-linecap:round;stroke-dasharray:0.86533, 1.73066"
           d="m 16.274704,60.243058 c -0.290865,0 -0.524681,0.233816 -0.524681,0.52468 v 2.670356 h -2.640544 c -0.290864,0 -0.52468,0.234561 -0.52468,0.525426 0,0.290864 0.233816,0.52468 0.52468,0.52468 h 18.331025 c 0.290864,0 0.52468,-0.233816 0.52468,-0.52468 0,-0.290865 -0.233816,-0.525426 -0.52468,-0.525426 H 28.79996 v -2.670356 c 0,-0.290864 -0.233816,-0.52468 -0.524681,-0.52468 -0.290864,0 -0.52468,0.233816 -0.52468,0.52468 v 2.670356 H 16.799384 v -2.670356 c 0,-0.290864 -0.233816,-0.52468 -0.52468,-0.52468 z" /><path
           id="rect1"
           style="fill:#004097;fill-opacity:1;stroke-width:0.86533;stroke-linecap:round;stroke-dasharray:0.86533, 1.73066"
           d="m 14.064934,56.472662 c -1.727647,0 -3.118271,1.390624 -3.118271,3.118272 0,1.727647 1.390624,3.118271 3.118271,3.118271 h 16.420115 c 1.727647,0 3.118271,-1.390624 3.118271,-3.118271 0,-1.727648 -1.390624,-3.118272 -3.118271,-3.118272 z" /></g><g
         id="g14"
         inkscape:label="painel solar"
         transform="matrix(0.69337833,0,0,0.69337833,50.119403,25.251977)"
         style="stroke-width:1.44221"><path
           id="rect11"
           style="fill:#a0a0a0;fill-opacity:1;stroke-width:0.86533;stroke-linecap:round;stroke-dasharray:0.86533, 1.73066"
           d="m 16.274812,60.243343 c -0.290865,0 -0.525426,0.233816 -0.525426,0.524681 v 2.670355 h -2.639799 c -0.290864,0 -0.525426,0.233816 -0.525426,0.524681 0,0.290864 0.234562,0.525426 0.525426,0.525426 h 18.331025 c 0.290864,0 0.52468,-0.234562 0.52468,-0.525426 0,-0.290865 -0.233816,-0.524681 -0.52468,-0.524681 h -2.640544 v -2.670355 c 0,-0.290865 -0.233816,-0.524681 -0.524681,-0.524681 -0.290864,0 -0.525425,0.233816 -0.525425,0.524681 v 2.670355 h -10.95047 v -2.670355 c 0,-0.290865 -0.233816,-0.524681 -0.52468,-0.524681 z" /><path
           id="rect14"
           style="fill:#004097;fill-opacity:1;stroke-width:0.86533;stroke-linecap:round;stroke-dasharray:0.86533, 1.73066"
           d="m 14.065042,56.472202 c -1.727647,0 -3.118271,1.39137 -3.118271,3.119017 0,1.727647 1.390624,3.118272 3.118271,3.118272 h 16.420115 c 1.727647,0 3.118271,-1.390625 3.118271,-3.118272 0,-1.727647 -1.390624,-3.119017 -3.118271,-3.119017 z" /></g><g
         id="g18"
         inkscape:label="painel solar"
         transform="matrix(0.69337833,0,0,0.69337833,41.676134,18.720949)"
         style="stroke-width:1.44221"><path
           id="rect15"
           style="fill:#a0a0a0;fill-opacity:1;stroke-width:0.86533;stroke-linecap:round;stroke-dasharray:0.86533, 1.73066"
           d="m 16.274604,60.242832 c -0.290865,0 -0.52468,0.234562 -0.52468,0.525426 v 2.66961 H 13.10938 c -0.290865,0 -0.524681,0.234562 -0.524681,0.525426 0,0.290865 0.233816,0.524681 0.524681,0.524681 h 18.331024 c 0.290865,0 0.525426,-0.233816 0.525426,-0.524681 0,-0.290864 -0.234561,-0.525426 -0.525426,-0.525426 h -2.639799 v -2.66961 c 0,-0.290864 -0.234561,-0.525426 -0.525425,-0.525426 -0.290865,0 -0.524681,0.234562 -0.524681,0.525426 v 2.66961 H 16.80003 v -2.66961 c 0,-0.290864 -0.234561,-0.525426 -0.525426,-0.525426 z" /><path
           id="rect18"
           style="fill:#004097;fill-opacity:1;stroke-width:0.86533;stroke-linecap:round;stroke-dasharray:0.86533, 1.73066"
           d="m 14.064835,56.472437 c -1.727648,0 -3.118272,1.390624 -3.118272,3.118271 0,1.727647 1.390624,3.119017 3.118272,3.119017 h 16.420114 c 1.727647,0 3.118272,-1.39137 3.118272,-3.119017 0,-1.727647 -1.390625,-3.118271 -3.118272,-3.118271 z" /></g><path
         id="path40"
         style="fill:#a0a0a0;fill-opacity:1;stroke-width:0.600001;stroke-linecap:round;stroke-dasharray:0.600001, 1.2"
         d="m 11.373983,67.102881 c -0.201679,0 -0.363802,0.162123 -0.363802,0.363802 V 69.31825 H 9.1792846 c -0.2016788,0 -0.3638017,0.162639 -0.3638017,0.364319 0,0.201678 0.1621229,0.363801 0.3638017,0.363801 H 21.88962 c 0.201679,0 0.363802,-0.162123 0.363802,-0.363801 0,-0.20168 -0.162123,-0.364319 -0.363802,-0.364319 h -1.830896 v -1.851567 c 0,-0.201679 -0.162123,-0.363802 -0.363802,-0.363802 -0.201679,0 -0.363802,0.162123 -0.363802,0.363802 v 1.851567 h -7.593335 v -1.851567 c 0,-0.201679 -0.162123,-0.363802 -0.363802,-0.363802 z" /><path
         id="path41"
         style="fill:#004097;fill-opacity:1;stroke-width:0.600001;stroke-linecap:round;stroke-dasharray:0.600001, 1.2"
         d="m 9.8417764,64.48857 c -1.197913,0 -2.1621415,0.964229 -2.1621415,2.162142 0,1.197913 0.9642285,2.162142 2.1621415,2.162142 H 21.227128 c 1.197913,0 2.162142,-0.964229 2.162142,-2.162142 0,-1.197913 -0.964229,-2.162142 -2.162142,-2.162142 z" /><path
         id="path42"
         style="fill:#a0a0a0;fill-opacity:1;stroke-width:0.600001;stroke-linecap:round;stroke-dasharray:0.600001, 1.2"
         d="m 27.672213,66.93855 c -0.20168,0 -0.364319,0.162123 -0.364319,0.363802 v 1.851566 h -1.830379 c -0.201679,0 -0.364319,0.162123 -0.364319,0.363803 0,0.201679 0.16264,0.364319 0.364319,0.364319 H 38.18785 c 0.201679,0 0.363802,-0.16264 0.363802,-0.364319 0,-0.20168 -0.162123,-0.363803 -0.363802,-0.363803 h -1.830896 v -1.851566 c 0,-0.201679 -0.162123,-0.363802 -0.363802,-0.363802 -0.201679,0 -0.364319,0.162123 -0.364319,0.363802 v 1.851566 h -7.592818 v -1.851566 c 0,-0.201679 -0.162123,-0.363802 -0.363802,-0.363802 z" /><path
         id="path43"
         style="fill:#004097;fill-opacity:1;stroke-width:0.600001;stroke-linecap:round;stroke-dasharray:0.600001, 1.2"
         d="m 26.140006,64.323722 c -1.197913,0 -2.162141,0.964746 -2.162141,2.162659 0,1.197913 0.964228,2.162142 2.162141,2.162142 h 11.385352 c 1.197913,0 2.162142,-0.964229 2.162142,-2.162142 0,-1.197913 -0.964229,-2.162659 -2.162142,-2.162659 z" /><path
         id="path44"
         style="fill:#a0a0a0;fill-opacity:1;stroke-width:0.600001;stroke-linecap:round;stroke-dasharray:0.600001, 1.2"
         d="m 19.2288,60.407165 c -0.201679,0 -0.363801,0.16264 -0.363801,0.364319 v 1.85105 h -1.830896 c -0.20168,0 -0.363803,0.16264 -0.363803,0.364319 0,0.201679 0.162123,0.363802 0.363803,0.363802 h 12.710335 c 0.201679,0 0.364319,-0.162123 0.364319,-0.363802 0,-0.201679 -0.16264,-0.364319 -0.364319,-0.364319 h -1.83038 v -1.85105 c 0,-0.201679 -0.162639,-0.364319 -0.364318,-0.364319 -0.20168,0 -0.363803,0.16264 -0.363803,0.364319 v 1.85105 h -7.592818 v -1.85105 c 0,-0.201679 -0.162639,-0.364319 -0.364319,-0.364319 z" /><path
         id="path45"
         style="fill:#004097;fill-opacity:1;stroke-width:0.600001;stroke-linecap:round;stroke-dasharray:0.600001, 1.2"
         d="m 17.696595,57.792855 c -1.197914,0 -2.162143,0.964229 -2.162143,2.162142 0,1.197913 0.964229,2.162658 2.162143,2.162658 h 11.385351 c 1.197913,0 2.162142,-0.964745 2.162142,-2.162658 0,-1.197913 -0.964229,-2.162142 -2.162142,-2.162142 z" /><path
         id="path46"
         style="fill:#a0a0a0;fill-opacity:1;stroke-width:0.600001;stroke-linecap:round;stroke-dasharray:0.600001, 1.2"
         d="m 36.094696,60.242575 c -0.20168,0 -0.363802,0.16264 -0.363802,0.364319 v 1.85105 h -1.830896 c -0.201679,0 -0.363802,0.16264 -0.363802,0.364319 0,0.201679 0.162123,0.363802 0.363802,0.363802 h 12.710335 c 0.201679,0 0.364319,-0.162123 0.364319,-0.363802 0,-0.201679 -0.16264,-0.364319 -0.364319,-0.364319 h -1.83038 v -1.85105 c 0,-0.201679 -0.162639,-0.364319 -0.364318,-0.364319 -0.201679,0 -0.363802,0.16264 -0.363802,0.364319 v 1.85105 h -7.592818 v -1.85105 c 0,-0.201679 -0.16264,-0.364319 -0.364319,-0.364319 z" /><path
         id="path47"
         style="fill:#004097;fill-opacity:1;stroke-width:0.600001;stroke-linecap:round;stroke-dasharray:0.600001, 1.2"
         d="m 34.56249,57.628265 c -1.197914,0 -2.162142,0.964229 -2.162142,2.162142 0,1.197913 0.964228,2.162658 2.162142,2.162658 h 11.385351 c 1.197913,0 2.162142,-0.964745 2.162142,-2.162658 0,-1.197913 -0.964229,-2.162142 -2.162142,-2.162142 z" /></g></g></svg>
