<?xml version="1.0" encoding="UTF-8" standalone="no"?>
<!-- Created with Inkscape (http://www.inkscape.org/) -->

<svg
   width="300"
   height="300"
   viewBox="0 0 79.374998 79.375"
   version="1.1"
   id="svg1"
   xml:space="preserve"
   inkscape:version="1.3.2 (091e20e, 2023-11-25, custom)"
   sodipodi:docname="development.svg"
   xmlns:inkscape="http://www.inkscape.org/namespaces/inkscape"
   xmlns:sodipodi="http://sodipodi.sourceforge.net/DTD/sodipodi-0.dtd"
   xmlns="http://www.w3.org/2000/svg"
   xmlns:svg="http://www.w3.org/2000/svg"><sodipodi:namedview
     id="namedview1"
     pagecolor="#000000"
     bordercolor="#000000"
     borderopacity="0.25"
     inkscape:showpageshadow="2"
     inkscape:pageopacity="0.0"
     inkscape:pagecheckerboard="0"
     inkscape:deskcolor="#d1d1d1"
     inkscape:document-units="mm"
     inkscape:zoom="45.254834"
     inkscape:cx="11.75565"
     inkscape:cy="58.391552"
     inkscape:window-width="2560"
     inkscape:window-height="1057"
     inkscape:window-x="-8"
     inkscape:window-y="-8"
     inkscape:window-maximized="1"
     inkscape:current-layer="g18" /><defs
     id="defs1"><filter
       inkscape:collect="always"
       style="color-interpolation-filters:sRGB"
       id="filter21"
       x="-0.17318203"
       y="-0.12681625"
       width="1.3463641"
       height="1.2536325"><feGaussianBlur
         inkscape:collect="always"
         stdDeviation="0.37542855"
         id="feGaussianBlur21" /></filter></defs><g
     inkscape:label="frame"
     inkscape:groupmode="layer"
     id="layer1"
     transform="matrix(1.036468,0,0,1.036468,-0.06288812,-2.6856734)"
     style="stroke-width:0.964815"><rect
       style="fill:#353535;fill-opacity:1;stroke:none;stroke-width:1.27637;stroke-linecap:round;stroke-linejoin:round;stroke-miterlimit:15;stroke-dasharray:none;stroke-opacity:1"
       id="rect1"
       width="76.582199"
       height="52.200703"
       x="0.060675997"
       y="14.781927"
       ry="2.6095834"
       inkscape:label="frame" /><g
       id="g9"
       inkscape:label="bar"
       transform="translate(-3.9458572)"
       style="stroke-width:0.964815"><path
         id="rect2"
         style="fill:#262626;fill-opacity:1;stroke:none;stroke-width:1.27637;stroke-linecap:round;stroke-linejoin:round;stroke-miterlimit:15;stroke-dasharray:none;stroke-opacity:1;paint-order:stroke fill markers"
         d="m 6.3195708,14.782043 c -1.2814787,0 -2.3130972,0.961298 -2.3130972,2.155424 v 2.155424 h 2.3130972 71.9561202 2.313097 v -2.155424 c 0,-1.194126 -1.031618,-2.155424 -2.313097,-2.155424 z" /><path
         id="rect3"
         style="fill:#a8a8a8;fill-opacity:1;stroke:none;stroke-width:1.27637;stroke-linecap:round;stroke-linejoin:round;stroke-miterlimit:15;stroke-dasharray:none;stroke-opacity:1;paint-order:stroke fill markers"
         d="m 77.007286,15.729272 c -0.105448,0 -0.211173,0.04012 -0.291972,0.120923 -0.1616,0.161599 -0.1616,0.421827 0,0.583426 l 0.503845,0.503846 -0.503845,0.503845 c -0.1616,0.1616 -0.1616,0.421828 0,0.583427 0.1616,0.1616 0.421827,0.161599 0.583426,0 l 0.503846,-0.503845 0.503845,0.503845 c 0.161599,0.161599 0.421827,0.161599 0.583427,0 0.161599,-0.161599 0.161599,-0.421827 0,-0.583427 l -0.503846,-0.503845 0.503846,-0.503846 c 0.161599,-0.161599 0.1616,-0.421826 0,-0.583426 -0.1616,-0.1616 -0.421828,-0.1616 -0.583427,0 L 77.802586,16.35404 77.29874,15.850195 c -0.0808,-0.0808 -0.186006,-0.120923 -0.291454,-0.120923 z" /><rect
         style="fill:#a8a8a8;fill-opacity:1;stroke:none;stroke-width:1.27637;stroke-linecap:round;stroke-linejoin:round;stroke-miterlimit:15;stroke-dasharray:none;stroke-opacity:1;paint-order:stroke fill markers"
         id="rect5"
         width="0.82504213"
         height="2.5235856"
         x="16.524933"
         y="-72.590912"
         ry="0"
         rx="0.41252106"
         transform="rotate(90)" /><path
         id="rect6"
         style="fill:#a8a8a8;fill-opacity:1;stroke:none;stroke-width:1.27637;stroke-linecap:round;stroke-linejoin:round;stroke-miterlimit:15;stroke-dasharray:none;stroke-opacity:1;paint-order:stroke fill markers"
         d="m 73.743209,15.729276 c -0.228536,0 -0.412378,0.183842 -0.412378,0.412378 v 1.591635 c 0,0.228536 0.183842,0.412377 0.412378,0.412377 h 1.698604 c 0.01428,0 0.02847,-6.63e-4 0.04238,-0.0021 0.208521,-0.02105 0.370003,-0.196058 0.370003,-0.41031 v -1.591635 c 0,-0.228536 -0.183841,-0.412378 -0.412378,-0.412378 z m 0.412895,0.824756 h 0.873331 v 0.766879 h -0.873331 z" /><g
         id="g18"
         style="stroke-width:0.964815"
         inkscape:label="logo do ink"><path
           sodipodi:type="star"
           style="fill:#4b4b4b;fill-opacity:1;stroke:none;stroke-width:1.27637;stroke-linecap:round;stroke-linejoin:round;stroke-miterlimit:15;stroke-dasharray:none;stroke-opacity:1;paint-order:stroke fill markers"
           id="path9"
           inkscape:flatsided="true"
           sodipodi:sides="3"
           sodipodi:cx="5.2427673"
           sodipodi:cy="15.848309"
           sodipodi:r1="1.7288016"
           sodipodi:r2="0.8644008"
           sodipodi:arg1="0.52359878"
           sodipodi:arg2="1.5707963"
           inkscape:rounded="0"
           inkscape:randomized="0"
           d="m 6.7399534,16.712709 -2.9943722,0 1.4971861,-2.593202 z"
           inkscape:transform-center-y="-0.43220059"
           transform="translate(1.2596227,1.5213588)" /><path
           sodipodi:type="star"
           style="fill:#808080;fill-opacity:1;stroke:none;stroke-width:1.82549;stroke-linecap:round;stroke-linejoin:round;stroke-miterlimit:15;stroke-dasharray:none;stroke-opacity:1;paint-order:stroke fill markers"
           id="path10"
           inkscape:flatsided="true"
           sodipodi:sides="3"
           sodipodi:cx="5.2427673"
           sodipodi:cy="15.848309"
           sodipodi:r1="1.7288016"
           sodipodi:r2="0.8644008"
           sodipodi:arg1="0.52359878"
           sodipodi:arg2="1.5707963"
           inkscape:rounded="0"
           inkscape:randomized="0"
           d="m 6.7399534,16.712709 -2.9943722,0 1.4971861,-2.593202 z"
           inkscape:transform-center-y="-0.30219387"
           transform="matrix(0.69919826,0,0,0.69919826,2.8366562,5.7685311)" /><path
           sodipodi:type="star"
           style="fill:#9e9e9e;fill-opacity:1;stroke:none;stroke-width:2.16596;stroke-linecap:round;stroke-linejoin:round;stroke-miterlimit:15;stroke-dasharray:none;stroke-opacity:1;paint-order:stroke fill markers"
           id="path11"
           inkscape:flatsided="true"
           sodipodi:sides="3"
           sodipodi:cx="5.2427673"
           sodipodi:cy="15.848309"
           sodipodi:r1="1.7288016"
           sodipodi:r2="0.8644008"
           sodipodi:arg1="0.52359878"
           sodipodi:arg2="1.5707963"
           inkscape:rounded="0"
           inkscape:randomized="0"
           d="m 6.7399534,16.712709 -2.9943722,0 1.4971861,-2.593202 z"
           inkscape:transform-center-y="-0.25469146"
           transform="matrix(0.58928993,0,0,0.58928993,3.41288,7.3203825)" /><path
           sodipodi:type="star"
           style="fill:#d3d3d3;fill-opacity:1;stroke:none;stroke-width:2.67871;stroke-linecap:round;stroke-linejoin:round;stroke-miterlimit:15;stroke-dasharray:none;stroke-opacity:1;paint-order:stroke fill markers"
           id="path12"
           inkscape:flatsided="true"
           sodipodi:sides="3"
           sodipodi:cx="5.2427673"
           sodipodi:cy="15.848309"
           sodipodi:r1="1.7288016"
           sodipodi:r2="0.8644008"
           sodipodi:arg1="0.52359878"
           sodipodi:arg2="1.5707963"
           inkscape:rounded="0"
           inkscape:randomized="0"
           d="m 6.7399534,16.712709 -2.9943722,0 1.4971861,-2.593202 z"
           inkscape:transform-center-y="-0.20593891"
           transform="matrix(0.47648928,0,0,0.47648928,4.0042676,8.9130721)" /></g><rect
         style="fill:#c3c3c3;fill-opacity:1;stroke:none;stroke-width:1.27637;stroke-linecap:round;stroke-linejoin:round;stroke-miterlimit:15;stroke-dasharray:none;stroke-opacity:1;paint-order:stroke fill markers"
         id="rect18"
         width="13.470687"
         height="1.9219083"
         x="8.9049082"
         y="16.208059"
         rx="0.41252106" /></g><g
       id="g36"
       inkscape:label="drawing"
       style="stroke-width:0.964815"><rect
         style="fill:#eaeaea;fill-opacity:1;stroke:none;stroke-width:0.255274;stroke-linecap:round;stroke-linejoin:round;stroke-miterlimit:15;stroke-dasharray:none;stroke-opacity:1;paint-order:stroke fill markers"
         id="rect21"
         width="53.546848"
         height="38.849823"
         x="4.1545558"
         y="22.021124"
         ry="1.7585107"
         inkscape:label="draw frame" /><rect
         style="fill:#2b2b2b;fill-opacity:1;stroke:none;stroke-width:0.255274;stroke-linecap:round;stroke-linejoin:round;stroke-miterlimit:15;stroke-dasharray:none;stroke-opacity:1;paint-order:stroke fill markers"
         id="rect36"
         width="29.867201"
         height="29.867201"
         x="11.243571"
         y="26.987087"
         ry="1.3708735" /><g
         inkscape:label="uses"
         id="layer1-1"
         transform="matrix(0.28254669,0,0,0.28254669,13.938562,30.911747)"
         style="stroke-width:3.41472"><g
           id="g67"
           inkscape:label="glonass-m"
           transform="rotate(15,105.42687,53.140701)"
           style="display:inline;stroke-width:3.41472"><path
             id="rect6-9"
             style="fill:#7e7e7e;fill-opacity:1;stroke-width:4.51738"
             d="m 35.168913,19.595703 c -0.137607,0 -0.274898,0.05269 -0.380339,0.15813 l -3.386873,3.386357 c -0.210882,0.210882 -0.210882,0.550311 0,0.761193 0.210882,0.210883 0.550828,0.210883 0.76171,0 l 2.744536,-2.744535 2.484603,9.271269 c 0.07719,0.28807 0.37132,0.458043 0.659391,0.380855 0.288071,-0.07719 0.457527,-0.37132 0.380338,-0.659391 L 35.711515,19.994645 c -0.06134,-0.228939 -0.260262,-0.38092 -0.483691,-0.395841 -0.01954,-0.0021 -0.03928,-0.0031 -0.05891,-0.0031 z m -8.747787,14.297319 c -0.172248,0.01204 -0.335716,0.106777 -0.428914,0.2682 -0.149116,0.258277 -0.06087,0.58624 0.197404,0.735356 l 7.364925,4.252454 H 17.362764 c -0.298231,0 -0.538468,0.240235 -0.538468,0.538468 0,0.298233 0.240237,0.538468 0.538468,0.538468 h 16.191777 l -7.364925,4.252454 c -0.258277,0.149116 -0.34652,0.477079 -0.197404,0.735356 0.149116,0.258276 0.477078,0.346003 0.735356,0.196887 l 8.98033,-5.184697 h 8.457882 l 8.979813,5.184697 c 0.258277,0.149116 0.58624,0.06139 0.735356,-0.196887 0.149116,-0.258277 0.06139,-0.58624 -0.196887,-0.735356 L 46.31862,40.225968 h 15.693616 c 0.298231,0 0.538468,-0.240235 0.538468,-0.538468 0,-0.298233 -0.240237,-0.538468 -0.538468,-0.538468 H 46.31862 l 7.365442,-4.252454 c 0.258276,-0.149116 0.346003,-0.477079 0.196887,-0.735356 -0.149116,-0.258276 -0.477079,-0.346003 -0.735356,-0.196887 l -8.979813,5.184697 h -8.457882 l -8.98033,-5.184697 c -0.09685,-0.05592 -0.203093,-0.07854 -0.306442,-0.07131 z"
             inkscape:label="structs" /><path
             id="rect1-1"
             style="fill:#ffcc00;stroke-width:4.51738"
             inkscape:label="body"
             d="m 27.281106,-33.907238 c 0.248105,0.801031 0.992601,1.379627 1.877282,1.379627 l 21.058424,-8e-6 c 1.088838,0 1.965285,-0.876892 1.965285,-1.96573 l -1.9e-5,-10.388505 c 0,-1.088838 -0.876891,-1.965285 -1.96573,-1.965285 l -21.057924,-1.26e-4 c -1.088839,0 -1.965419,0.876392 -1.965419,1.965231 l 1.52e-4,10.389004 c 0,0.204157 0.03069,0.400938 0.08795,0.585792 z"
             transform="rotate(90)" /><g
             id="g15"
             inkscape:label="solar panels"
             style="stroke-width:3.41472"><path
               id="rect2-1"
               style="fill:#003399;stroke-width:4.51738"
               d="m 51.660096,32.181415 c -0.679697,0.210524 -1.170687,0.842178 -1.170687,1.592855 l 1.42e-4,11.826534 c 0,0.92391 0.743738,1.667451 1.667648,1.667451 l 5.986035,-4.2e-5 c 0.92391,0 1.667949,-0.743871 1.667949,-1.667781 l -8e-6,-11.826036 c 0,-0.92391 -0.743872,-1.66795 -1.667782,-1.66795 l -5.986533,1.76e-4 c -0.173234,0 -0.33991,0.02621 -0.496764,0.07479 z" /><path
               id="rect3-5"
               style="fill:#003399;stroke-width:4.51738"
               d="m 20.734754,32.181316 c -0.679698,0.210525 -1.170688,0.842178 -1.170688,1.592855 l 1.43e-4,11.826535 c 0,0.92391 0.743737,1.667451 1.667648,1.667451 l 5.986168,4.57e-4 c 0.92391,0 1.66745,-0.743738 1.66745,-1.667648 l 3.57e-4,-11.826668 c 0,-0.92391 -0.743871,-1.66795 -1.667781,-1.66795 l -5.986534,1.75e-4 c -0.173233,0 -0.33991,0.02621 -0.496763,0.07479 z" /><path
               id="rect4"
               style="fill:#003399;stroke-width:4.51738"
               d="M 10.099554,32.181098 C 9.4198559,32.391622 8.929,33.023775 8.929,33.774452 l 8.4e-6,11.826035 c 0,0.923911 0.7438714,1.66795 1.6677816,1.66795 l 5.986034,-4.2e-5 c 0.923911,0 1.667451,-0.743737 1.667451,-1.667647 l 3.57e-4,-11.826669 c 0,-0.92391 -0.743738,-1.667451 -1.667648,-1.667451 l -5.986533,1.76e-4 c -0.173234,0 -0.340044,0.02571 -0.496897,0.07429 z" /><path
               id="rect5-9"
               style="fill:#003399;stroke-width:4.51738"
               d="m 62.295163,32.181134 c -0.679698,0.210525 -1.170554,0.842677 -1.170554,1.593354 l 9e-6,11.826036 c 0,0.92391 0.743871,1.66795 1.667781,1.66795 l 5.986035,-4.2e-5 c 0.92391,0 1.667949,-0.743872 1.667949,-1.667782 l -1.42e-4,-11.826535 c 0,-0.92391 -0.743737,-1.66745 -1.667648,-1.66745 l -5.986533,1.75e-4 c -0.173233,0 -0.340044,0.02571 -0.496897,0.07429 z" /></g><ellipse
             style="fill:#c0c0c0;fill-opacity:1;stroke-width:4.51738"
             id="path11-9"
             cx="39.6875"
             cy="39.6875"
             rx="4.6866083"
             ry="4.565208"
             inkscape:label="think that i dont know" /><g
             id="g14"
             inkscape:label="antena"
             style="stroke-width:3.41472"><circle
               style="fill:#e2e2e2;fill-opacity:1;stroke-width:4.51738"
               id="path10-5"
               cx="31.191942"
               cy="23.690138"
               r="2.9780607"
               inkscape:label="antena dish" /><g
               id="g13"
               inkscape:label="antena receptor"
               style="stroke-width:3.41472"><rect
                 style="fill:#7d7d7d;fill-opacity:1;stroke-width:4.51738"
                 id="rect12"
                 width="0.41166154"
                 height="1.4683313"
                 x="30.986111"
                 y="23.464706"
                 rx="0.20583077" /><ellipse
                 style="fill:#a3a3a3;fill-opacity:1;stroke-width:4.51738"
                 id="path12-5"
                 cx="31.191942"
                 cy="24.735125"
                 rx="0.63846296"
                 ry="0.60199666" /><circle
                 style="fill:#7d7d7d;fill-opacity:0;stroke-width:4.51738"
                 id="path13-4"
                 cx="31.191942"
                 cy="23.690138"
                 r="2.0572131" /></g></g><path
             id="path41"
             style="fill:#000000;fill-opacity:0.15;stroke-width:4.51738"
             d="m 31.191895,20.711914 a 2.9780607,2.9780607 0 0 0 -2.978113,2.978113 2.9780607,2.9780607 0 0 0 2.978113,2.978113 2.9780607,2.9780607 0 0 0 0.455786,-0.03721 2.9780607,2.9780607 0 0 1 -2.513025,-2.940906 2.9780607,2.9780607 0 0 1 2.517676,-2.939872 2.9780607,2.9780607 0 0 0 -0.460437,-0.03824 z m 8.495605,6.481258 v 7.929232 4.026628 1.076936 4.026628 7.929232 h 5.194515 c 1.088837,0 1.965255,-0.876418 1.965255,-1.965255 v -8.442379 l 3.642155,2.102714 v 1.723926 c 0,0.923908 0.74369,1.667599 1.667598,1.667599 h 5.986198 c 0.923908,0 1.667598,-0.743691 1.667598,-1.667599 v -5.374866 h 1.313615 v 5.374866 c 0,0.923908 0.743691,1.667599 1.667599,1.667599 h 5.986198 c 0.923908,0 1.668115,-0.743691 1.668115,-1.667599 V 33.774166 c 0,-0.923908 -0.744207,-1.667599 -1.668115,-1.667599 h -5.986198 c -0.923908,0 -1.667599,0.743691 -1.667599,1.667599 v 5.374866 h -1.313615 v -5.374866 c 0,-0.923908 -0.74369,-1.667599 -1.667598,-1.667599 h -5.986198 c -0.923908,0 -1.667598,0.743691 -1.667598,1.667599 v 1.723926 l -3.642155,2.102714 v -8.442379 c 0,-1.088837 -0.876418,-1.965255 -1.965255,-1.965255 z"
             inkscape:label="shadow" /></g><g
           id="g73"
           inkscape:label="planet"
           transform="translate(-12.021551)"
           style="stroke-width:3.41472"><ellipse
             style="fill:#008703;fill-opacity:1;stroke-width:4.51738"
             id="path67"
             cx="39.6875"
             cy="57.555866"
             rx="17.743597"
             ry="17.868366" /><path
             id="path67-9"
             style="fill:#000000;fill-opacity:0.15;stroke-width:4.51738"
             d="m 39.687477,39.687706 a 17.743597,17.868366 0 0 1 17.74362,17.86816 17.743597,17.868366 0 0 1 -17.74362,17.868677 z" /><g
             id="g69"
             transform="translate(3.0000001e-7,2.1943607)"
             inkscape:label="location symbol"
             style="stroke-width:3.41472"><path
               id="path68"
               style="fill:#db0000;fill-opacity:1;stroke-width:4.51738"
               inkscape:transform-center-y="1.5924696"
               d="m 36.8563,45.230476 c -3.046773,7e-6 -5.516619,1.512686 -5.516459,3.378605 0.100548,3.538601 3.363153,7.696335 5.516459,11.052555 2.153307,-3.575146 5.516459,-7.184174 5.516459,-11.052555 1.6e-4,-1.865919 -2.469686,-3.378598 -5.516459,-3.378605 z"
               sodipodi:nodetypes="ccccc"
               transform="translate(2.8311997,2.1495778)" /><circle
               style="fill:#940000;fill-opacity:1;stroke-width:4.51738"
               id="path69"
               cx="39.6875"
               cy="51.64769"
               r="2.1533065" /></g></g><g
           id="g75"
           inkscape:label="wifi"
           transform="rotate(75,53.45201,33.272256)"
           style="stroke-width:3.41472"><ellipse
             style="fill:#1155c2;fill-opacity:1;stroke-width:4.51738"
             id="path73"
             cx="53.420891"
             cy="46.103966"
             rx="0.8342585"
             ry="0.78370202" /><path
             style="fill:#1154c0;fill-opacity:0;stroke:#1154c0;stroke-width:4.51766;stroke-dasharray:none;stroke-opacity:1"
             id="ellipse73"
             sodipodi:type="arc"
             sodipodi:cx="52.586636"
             sodipodi:cy="45.320267"
             sodipodi:rx="3.6837423"
             sodipodi:ry="3.4605057"
             sodipodi:start="0"
             sodipodi:end="1.5707963"
             sodipodi:open="true"
             sodipodi:arc-type="arc"
             d="m 56.270378,45.320267 a 3.6837423,3.4605057 0 0 1 -3.683742,3.460505" /><path
             style="fill:#1154c0;fill-opacity:0;stroke:#1154c0;stroke-width:4.51766;stroke-dasharray:none;stroke-opacity:1"
             id="ellipse74"
             sodipodi:type="arc"
             sodipodi:cx="52.586632"
             sodipodi:cy="45.320263"
             sodipodi:rx="6.4574518"
             sodipodi:ry="6.0917153"
             sodipodi:start="0"
             sodipodi:end="1.5707963"
             sodipodi:open="true"
             sodipodi:arc-type="arc"
             d="m 59.044084,45.320263 a 6.4574518,6.0917153 0 0 1 -6.457452,6.091715" /><path
             style="fill:#1154c0;fill-opacity:0;stroke:#1154c0;stroke-width:4.51766;stroke-dasharray:none;stroke-opacity:1"
             id="ellipse75"
             sodipodi:type="arc"
             sodipodi:cx="52.586632"
             sodipodi:cy="45.320263"
             sodipodi:rx="9.1483192"
             sodipodi:ry="8.6443386"
             sodipodi:start="0"
             sodipodi:end="1.5707963"
             sodipodi:open="true"
             sodipodi:arc-type="arc"
             d="m 61.734951,45.320263 a 9.1483192,8.6443386 0 0 1 -9.148319,8.644339" /></g></g></g><g
       id="g38"
       inkscape:label="buttons"
       style="stroke-width:0.964815"><rect
         style="fill:#c3c3c3;fill-opacity:1;stroke:none;stroke-width:0.255274;stroke-linecap:round;stroke-linejoin:round;stroke-miterlimit:15;stroke-dasharray:none;stroke-opacity:1;paint-order:stroke fill markers"
         id="rect22-1"
         width="2.5043075"
         height="2.4866738"
         x="0.81524318"
         y="22.257587"
         ry="0.84506816" /><rect
         style="fill:#c3c3c3;fill-opacity:1;stroke:none;stroke-width:0.255274;stroke-linecap:round;stroke-linejoin:round;stroke-miterlimit:15;stroke-dasharray:none;stroke-opacity:1;paint-order:stroke fill markers"
         id="rect38"
         width="2.5043075"
         height="2.4866738"
         x="0.81524318"
         y="25.333658"
         ry="0.84506816" /><rect
         style="fill:#c3c3c3;fill-opacity:1;stroke:none;stroke-width:0.255274;stroke-linecap:round;stroke-linejoin:round;stroke-miterlimit:15;stroke-dasharray:none;stroke-opacity:1;paint-order:stroke fill markers"
         id="rect39"
         width="2.5043075"
         height="2.4866738"
         x="0.81524318"
         y="28.409729"
         ry="0.84506816" /><rect
         style="fill:#c3c3c3;fill-opacity:1;stroke:none;stroke-width:0.255274;stroke-linecap:round;stroke-linejoin:round;stroke-miterlimit:15;stroke-dasharray:none;stroke-opacity:1;paint-order:stroke fill markers"
         id="rect40"
         width="2.5043075"
         height="2.4866738"
         x="0.81524318"
         y="31.4858"
         ry="0.84506816" /><rect
         style="fill:#c3c3c3;fill-opacity:1;stroke:none;stroke-width:0.255274;stroke-linecap:round;stroke-linejoin:round;stroke-miterlimit:15;stroke-dasharray:none;stroke-opacity:1;paint-order:stroke fill markers"
         id="rect41"
         width="2.5043075"
         height="2.4866738"
         x="0.81524318"
         y="34.561867"
         ry="0.84506816" /><rect
         style="fill:#c3c3c3;fill-opacity:1;stroke:none;stroke-width:0.255274;stroke-linecap:round;stroke-linejoin:round;stroke-miterlimit:15;stroke-dasharray:none;stroke-opacity:1;paint-order:stroke fill markers"
         id="rect42"
         width="2.5043075"
         height="2.4866738"
         x="0.81524318"
         y="37.637939"
         ry="0.84506816" /><rect
         style="fill:#c3c3c3;fill-opacity:1;stroke:none;stroke-width:0.255274;stroke-linecap:round;stroke-linejoin:round;stroke-miterlimit:15;stroke-dasharray:none;stroke-opacity:1;paint-order:stroke fill markers"
         id="rect43"
         width="2.5043075"
         height="2.4866738"
         x="0.81524318"
         y="40.714012"
         ry="0.84506816" /><rect
         style="fill:#c3c3c3;fill-opacity:1;stroke:none;stroke-width:0.255274;stroke-linecap:round;stroke-linejoin:round;stroke-miterlimit:15;stroke-dasharray:none;stroke-opacity:1;paint-order:stroke fill markers"
         id="rect44"
         width="2.5043075"
         height="2.4866738"
         x="0.81524318"
         y="43.790081"
         ry="0.84506816" /><rect
         style="fill:#c3c3c3;fill-opacity:1;stroke:none;stroke-width:0.255274;stroke-linecap:round;stroke-linejoin:round;stroke-miterlimit:15;stroke-dasharray:none;stroke-opacity:1;paint-order:stroke fill markers"
         id="rect45"
         width="2.5043075"
         height="2.4866738"
         x="0.81524318"
         y="46.866154"
         ry="0.84506816" /><rect
         style="fill:#c3c3c3;fill-opacity:1;stroke:none;stroke-width:0.255274;stroke-linecap:round;stroke-linejoin:round;stroke-miterlimit:15;stroke-dasharray:none;stroke-opacity:1;paint-order:stroke fill markers"
         id="rect46"
         width="2.5043075"
         height="2.4866738"
         x="0.81524318"
         y="49.942226"
         ry="0.84506816" /><rect
         style="fill:#c3c3c3;fill-opacity:1;stroke:none;stroke-width:0.255274;stroke-linecap:round;stroke-linejoin:round;stroke-miterlimit:15;stroke-dasharray:none;stroke-opacity:1;paint-order:stroke fill markers"
         id="rect47"
         width="2.5043075"
         height="2.4866738"
         x="0.81524318"
         y="53.018295"
         ry="0.84506816" /><rect
         style="fill:#c3c3c3;fill-opacity:1;stroke:none;stroke-width:0.255274;stroke-linecap:round;stroke-linejoin:round;stroke-miterlimit:15;stroke-dasharray:none;stroke-opacity:1;paint-order:stroke fill markers"
         id="rect48"
         width="2.5043075"
         height="2.4866738"
         x="0.81524318"
         y="56.094368"
         ry="0.84506816" /><rect
         style="fill:#c3c3c3;fill-opacity:1;stroke:none;stroke-width:0.255274;stroke-linecap:round;stroke-linejoin:round;stroke-miterlimit:15;stroke-dasharray:none;stroke-opacity:1;paint-order:stroke fill markers"
         id="rect49"
         width="2.5043075"
         height="2.4866738"
         x="73.409424"
         y="22.257587"
         ry="0.84506816" /><rect
         style="fill:#3a7fee;fill-opacity:1;stroke:none;stroke-width:0.255274;stroke-linecap:round;stroke-linejoin:round;stroke-miterlimit:15;stroke-dasharray:none;stroke-opacity:1;paint-order:stroke fill markers"
         id="rect49-9"
         width="2.5043075"
         height="2.4866738"
         x="70.45401"
         y="19.534452"
         ry="0.84506816" /><rect
         style="fill:#c3c3c3;fill-opacity:1;stroke:none;stroke-width:0.255274;stroke-linecap:round;stroke-linejoin:round;stroke-miterlimit:15;stroke-dasharray:none;stroke-opacity:1;paint-order:stroke fill markers"
         id="rect50"
         width="2.5043075"
         height="2.4866738"
         x="73.409424"
         y="25.333658"
         ry="0.84506816" /><rect
         style="fill:#c3c3c3;fill-opacity:1;stroke:none;stroke-width:0.255274;stroke-linecap:round;stroke-linejoin:round;stroke-miterlimit:15;stroke-dasharray:none;stroke-opacity:1;paint-order:stroke fill markers"
         id="rect51"
         width="2.5043075"
         height="2.4866738"
         x="73.409424"
         y="28.409729"
         ry="0.84506816" /><rect
         style="fill:#c3c3c3;fill-opacity:1;stroke:none;stroke-width:0.255274;stroke-linecap:round;stroke-linejoin:round;stroke-miterlimit:15;stroke-dasharray:none;stroke-opacity:1;paint-order:stroke fill markers"
         id="rect52"
         width="2.5043075"
         height="2.4866738"
         x="73.409424"
         y="31.4858"
         ry="0.84506816" /><rect
         style="fill:#c3c3c3;fill-opacity:1;stroke:none;stroke-width:0.255274;stroke-linecap:round;stroke-linejoin:round;stroke-miterlimit:15;stroke-dasharray:none;stroke-opacity:1;paint-order:stroke fill markers"
         id="rect53"
         width="2.5043075"
         height="2.4866738"
         x="73.409424"
         y="34.561867"
         ry="0.84506816" /><rect
         style="fill:#c3c3c3;fill-opacity:1;stroke:none;stroke-width:0.255274;stroke-linecap:round;stroke-linejoin:round;stroke-miterlimit:15;stroke-dasharray:none;stroke-opacity:1;paint-order:stroke fill markers"
         id="rect54"
         width="2.5043075"
         height="2.4866738"
         x="73.409424"
         y="37.637939"
         ry="0.84506816" /><rect
         style="fill:#c3c3c3;fill-opacity:1;stroke:none;stroke-width:0.255274;stroke-linecap:round;stroke-linejoin:round;stroke-miterlimit:15;stroke-dasharray:none;stroke-opacity:1;paint-order:stroke fill markers"
         id="rect55"
         width="2.5043075"
         height="2.4866738"
         x="73.409424"
         y="40.714012"
         ry="0.84506816" /><rect
         style="fill:#c3c3c3;fill-opacity:1;stroke:none;stroke-width:0.255274;stroke-linecap:round;stroke-linejoin:round;stroke-miterlimit:15;stroke-dasharray:none;stroke-opacity:1;paint-order:stroke fill markers"
         id="rect56"
         width="2.5043075"
         height="2.4866738"
         x="73.409424"
         y="43.790081"
         ry="0.84506816" /><rect
         style="fill:#c3c3c3;fill-opacity:1;stroke:none;stroke-width:0.255274;stroke-linecap:round;stroke-linejoin:round;stroke-miterlimit:15;stroke-dasharray:none;stroke-opacity:1;paint-order:stroke fill markers"
         id="rect57"
         width="2.5043075"
         height="2.4866738"
         x="73.409424"
         y="46.866154"
         ry="0.84506816" /><rect
         style="fill:#c3c3c3;fill-opacity:1;stroke:none;stroke-width:0.255274;stroke-linecap:round;stroke-linejoin:round;stroke-miterlimit:15;stroke-dasharray:none;stroke-opacity:1;paint-order:stroke fill markers"
         id="rect58"
         width="2.5043075"
         height="2.4866738"
         x="73.409424"
         y="49.942226"
         ry="0.84506816" /><rect
         style="fill:#c3c3c3;fill-opacity:1;stroke:none;stroke-width:0.255274;stroke-linecap:round;stroke-linejoin:round;stroke-miterlimit:15;stroke-dasharray:none;stroke-opacity:1;paint-order:stroke fill markers"
         id="rect59"
         width="2.5043075"
         height="2.4866738"
         x="73.409424"
         y="53.018295"
         ry="0.84506816" /><rect
         style="fill:#c3c3c3;fill-opacity:1;stroke:none;stroke-width:0.255274;stroke-linecap:round;stroke-linejoin:round;stroke-miterlimit:15;stroke-dasharray:none;stroke-opacity:1;paint-order:stroke fill markers"
         id="rect60"
         width="2.5043075"
         height="2.4866738"
         x="73.409424"
         y="56.094368"
         ry="0.84506816" /><rect
         style="fill:#f6f6f6;fill-opacity:1;stroke:none;stroke-width:0.255274;stroke-linecap:round;stroke-linejoin:round;stroke-miterlimit:15;stroke-dasharray:none;stroke-opacity:1;paint-order:stroke fill markers"
         id="rect61"
         width="4.1921206"
         height="4.1626024"
         x="0.81524318"
         y="61.755482"
         ry="1.4146137" /><rect
         style="fill:#f6f6f6;fill-opacity:1;stroke:none;stroke-width:0.255274;stroke-linecap:round;stroke-linejoin:round;stroke-miterlimit:15;stroke-dasharray:none;stroke-opacity:1;paint-order:stroke fill markers"
         id="rect62"
         width="4.1921206"
         height="4.1626024"
         x="5.6945291"
         y="61.755482"
         ry="1.4146137" /><rect
         style="fill:#808080;fill-opacity:1;stroke:none;stroke-width:0.255274;stroke-linecap:round;stroke-linejoin:round;stroke-miterlimit:15;stroke-dasharray:none;stroke-opacity:1;paint-order:stroke fill markers"
         id="rect63"
         width="4.1921206"
         height="4.1626024"
         x="10.573815"
         y="61.755482"
         ry="1.4146137" /><rect
         style="fill:#000000;fill-opacity:1;stroke:none;stroke-width:0.255274;stroke-linecap:round;stroke-linejoin:round;stroke-miterlimit:15;stroke-dasharray:none;stroke-opacity:1;paint-order:stroke fill markers"
         id="rect64"
         width="4.1921206"
         height="4.1626024"
         x="15.453102"
         y="61.755482"
         ry="1.4146137" /><path
         id="rect65"
         style="fill:#ff2929;fill-opacity:1;stroke:none;stroke-width:0.255274;stroke-linecap:round;stroke-linejoin:round;stroke-miterlimit:15;stroke-dasharray:none;stroke-opacity:1;paint-order:stroke fill markers"
         d="m 2.1426164,62.654167 c -0.1056813,0 -0.2115098,0.04046 -0.2924883,0.12144 -0.1619586,0.161958 -0.1619572,0.422503 0,0.58446 l 0.476457,0.476457 -0.476457,0.476973 c -0.1619586,0.161959 -0.1619579,0.422503 0,0.584461 0.1619585,0.161959 0.4225019,0.161959 0.5844605,0 l 0.4769739,-0.476456 0.4764564,0.476456 c 0.1619578,0.161958 0.4225019,0.161959 0.5844605,0 0.1619571,-0.161957 0.1619578,-0.422503 0,-0.584461 L 3.4955062,63.836524 3.9724794,63.360067 c 0.1619571,-0.161957 0.1619578,-0.422501 -7e-7,-0.58446 -0.1619579,-0.161957 -0.4225027,-0.161957 -0.5844598,0 L 2.9115625,63.252581 2.4345886,62.775607 C 2.35361,62.694628 2.2482992,62.654167 2.1426164,62.654167 Z" /><rect
         style="fill:#bfbfbf;fill-opacity:1;stroke:none;stroke-width:0.255274;stroke-linecap:round;stroke-linejoin:round;stroke-miterlimit:15;stroke-dasharray:none;stroke-opacity:1;paint-order:stroke fill markers"
         id="rect66"
         width="1.9411561"
         height="1.9274879"
         x="20.33239"
         y="63.990597"
         ry="0.65503508" /><rect
         style="fill:#404040;fill-opacity:1;stroke:none;stroke-width:0.255274;stroke-linecap:round;stroke-linejoin:round;stroke-miterlimit:15;stroke-dasharray:none;stroke-opacity:1;paint-order:stroke fill markers"
         id="rect67"
         width="1.9411561"
         height="1.9274879"
         x="22.591736"
         y="63.990597"
         ry="0.65503508" /><rect
         style="fill:#6699ff;fill-opacity:1;stroke:none;stroke-width:0.255274;stroke-linecap:round;stroke-linejoin:round;stroke-miterlimit:15;stroke-dasharray:none;stroke-opacity:1;paint-order:stroke fill markers"
         id="rect68"
         width="1.9411561"
         height="1.9274879"
         x="24.851084"
         y="63.990597"
         ry="0.65503508" /><rect
         style="fill:#3366cc;fill-opacity:1;stroke:none;stroke-width:0.255274;stroke-linecap:round;stroke-linejoin:round;stroke-miterlimit:15;stroke-dasharray:none;stroke-opacity:1;paint-order:stroke fill markers"
         id="rect69"
         width="1.9411561"
         height="1.9274879"
         x="27.110432"
         y="63.990597"
         ry="0.65503508" /><rect
         style="fill:#99cc33;fill-opacity:1;stroke:none;stroke-width:0.255274;stroke-linecap:round;stroke-linejoin:round;stroke-miterlimit:15;stroke-dasharray:none;stroke-opacity:1;paint-order:stroke fill markers"
         id="rect70"
         width="1.9411561"
         height="1.9274879"
         x="29.369778"
         y="63.990597"
         ry="0.65503508" /><rect
         style="fill:#00cc00;fill-opacity:1;stroke:none;stroke-width:0.255274;stroke-linecap:round;stroke-linejoin:round;stroke-miterlimit:15;stroke-dasharray:none;stroke-opacity:1;paint-order:stroke fill markers"
         id="rect71"
         width="1.9411561"
         height="1.9274879"
         x="31.629126"
         y="63.990597"
         ry="0.65503508" /><rect
         style="fill:#669900;fill-opacity:1;stroke:none;stroke-width:0.255274;stroke-linecap:round;stroke-linejoin:round;stroke-miterlimit:15;stroke-dasharray:none;stroke-opacity:1;paint-order:stroke fill markers"
         id="rect72"
         width="1.9411561"
         height="1.9274879"
         x="33.888474"
         y="63.990597"
         ry="0.65503508" /><rect
         style="fill:#ffcc00;fill-opacity:1;stroke:none;stroke-width:0.255274;stroke-linecap:round;stroke-linejoin:round;stroke-miterlimit:15;stroke-dasharray:none;stroke-opacity:1;paint-order:stroke fill markers"
         id="rect73"
         width="1.9411561"
         height="1.9274879"
         x="36.14782"
         y="63.990597"
         ry="0.65503508" /><rect
         style="fill:#ff9900;fill-opacity:1;stroke:none;stroke-width:0.255274;stroke-linecap:round;stroke-linejoin:round;stroke-miterlimit:15;stroke-dasharray:none;stroke-opacity:1;paint-order:stroke fill markers"
         id="rect74"
         width="1.9411561"
         height="1.9274879"
         x="38.407166"
         y="63.990597"
         ry="0.65503508" /><rect
         style="fill:#ff6600;fill-opacity:1;stroke:none;stroke-width:0.255274;stroke-linecap:round;stroke-linejoin:round;stroke-miterlimit:15;stroke-dasharray:none;stroke-opacity:1;paint-order:stroke fill markers"
         id="rect75"
         width="1.9411561"
         height="1.9274879"
         x="40.666512"
         y="63.990597"
         ry="0.65503508" /><rect
         style="fill:#cc0000;fill-opacity:1;stroke:none;stroke-width:0.255274;stroke-linecap:round;stroke-linejoin:round;stroke-miterlimit:15;stroke-dasharray:none;stroke-opacity:1;paint-order:stroke fill markers"
         id="rect76"
         width="1.9411561"
         height="1.9274879"
         x="42.925858"
         y="63.990597"
         ry="0.65503508" /><rect
         style="fill:#c3c3c3;fill-opacity:1;stroke:none;stroke-width:0.255274;stroke-linecap:round;stroke-linejoin:round;stroke-miterlimit:15;stroke-dasharray:none;stroke-opacity:1;paint-order:stroke fill markers"
         id="rect77"
         width="2.5043075"
         height="2.4866738"
         x="-21.733892"
         y="0.82406002"
         ry="0.84506816"
         transform="rotate(-90)" /><rect
         style="fill:#c3c3c3;fill-opacity:1;stroke:none;stroke-width:0.255274;stroke-linecap:round;stroke-linejoin:round;stroke-miterlimit:15;stroke-dasharray:none;stroke-opacity:1;paint-order:stroke fill markers"
         id="rect78"
         width="2.5043075"
         height="2.4866738"
         x="-21.733892"
         y="3.9001305"
         ry="0.84506816"
         transform="rotate(-90)" /><rect
         style="fill:#c3c3c3;fill-opacity:1;stroke:none;stroke-width:0.255274;stroke-linecap:round;stroke-linejoin:round;stroke-miterlimit:15;stroke-dasharray:none;stroke-opacity:1;paint-order:stroke fill markers"
         id="rect79"
         width="2.5043075"
         height="2.4866738"
         x="-21.733892"
         y="6.9762015"
         ry="0.84506816"
         transform="rotate(-90)" /><rect
         style="fill:#c3c3c3;fill-opacity:1;stroke:none;stroke-width:0.255274;stroke-linecap:round;stroke-linejoin:round;stroke-miterlimit:15;stroke-dasharray:none;stroke-opacity:1;paint-order:stroke fill markers"
         id="rect80"
         width="2.5043075"
         height="2.4866738"
         x="-21.733892"
         y="10.052272"
         ry="0.84506816"
         transform="rotate(-90)" /><rect
         style="fill:#c3c3c3;fill-opacity:1;stroke:none;stroke-width:0.255274;stroke-linecap:round;stroke-linejoin:round;stroke-miterlimit:15;stroke-dasharray:none;stroke-opacity:1;paint-order:stroke fill markers"
         id="rect81"
         width="2.5043075"
         height="2.4866738"
         x="-21.733892"
         y="13.128341"
         ry="0.84506816"
         transform="rotate(-90)" /><rect
         style="fill:#c3c3c3;fill-opacity:1;stroke:none;stroke-width:0.255274;stroke-linecap:round;stroke-linejoin:round;stroke-miterlimit:15;stroke-dasharray:none;stroke-opacity:1;paint-order:stroke fill markers"
         id="rect82"
         width="2.5043075"
         height="2.4866738"
         x="-21.733892"
         y="16.204414"
         ry="0.84506816"
         transform="rotate(-90)" /><rect
         style="fill:#c3c3c3;fill-opacity:1;stroke:none;stroke-width:0.255274;stroke-linecap:round;stroke-linejoin:round;stroke-miterlimit:15;stroke-dasharray:none;stroke-opacity:1;paint-order:stroke fill markers"
         id="rect83"
         width="2.5043075"
         height="2.4866738"
         x="-21.733892"
         y="19.280487"
         ry="0.84506816"
         transform="rotate(-90)" /><rect
         style="fill:#c3c3c3;fill-opacity:1;stroke:none;stroke-width:0.255274;stroke-linecap:round;stroke-linejoin:round;stroke-miterlimit:15;stroke-dasharray:none;stroke-opacity:1;paint-order:stroke fill markers"
         id="rect84"
         width="2.5043075"
         height="2.4866738"
         x="-21.733892"
         y="22.356556"
         ry="0.84506816"
         transform="rotate(-90)" /><rect
         style="fill:#c3c3c3;fill-opacity:1;stroke:none;stroke-width:0.255274;stroke-linecap:round;stroke-linejoin:round;stroke-miterlimit:15;stroke-dasharray:none;stroke-opacity:1;paint-order:stroke fill markers"
         id="rect85"
         width="2.5043075"
         height="2.4866738"
         x="-21.733892"
         y="25.432629"
         ry="0.84506816"
         transform="rotate(-90)" /><rect
         style="fill:#c3c3c3;fill-opacity:1;stroke:none;stroke-width:0.255274;stroke-linecap:round;stroke-linejoin:round;stroke-miterlimit:15;stroke-dasharray:none;stroke-opacity:1;paint-order:stroke fill markers"
         id="rect86"
         width="2.5043075"
         height="2.4866738"
         x="-21.733892"
         y="28.508701"
         ry="0.84506816"
         transform="rotate(-90)" /><rect
         style="fill:#c3c3c3;fill-opacity:1;stroke:none;stroke-width:0.255274;stroke-linecap:round;stroke-linejoin:round;stroke-miterlimit:15;stroke-dasharray:none;stroke-opacity:1;paint-order:stroke fill markers"
         id="rect87"
         width="2.5043075"
         height="2.4866738"
         x="-21.733892"
         y="31.58477"
         ry="0.84506816"
         transform="rotate(-90)" /><rect
         style="fill:#c3c3c3;fill-opacity:1;stroke:none;stroke-width:0.255274;stroke-linecap:round;stroke-linejoin:round;stroke-miterlimit:15;stroke-dasharray:none;stroke-opacity:1;paint-order:stroke fill markers"
         id="rect88"
         width="2.5043075"
         height="2.4866738"
         x="73.409424"
         y="19.534452"
         ry="0.84506816" /><path
         style="fill:none;fill-opacity:1;stroke:#ffffff;stroke-width:0.382911;stroke-linecap:round;stroke-linejoin:round;stroke-miterlimit:15;stroke-dasharray:none;stroke-opacity:1;paint-order:stroke fill markers"
         id="path88"
         sodipodi:type="arc"
         sodipodi:cx="71.706161"
         sodipodi:cy="20.77779"
         sodipodi:rx="0.83608508"
         sodipodi:ry="0.71333039"
         sodipodi:start="4.1301528"
         sodipodi:end="2.1542746"
         sodipodi:open="true"
         sodipodi:arc-type="arc"
         d="m 71.246404,20.181992 a 0.83608508,0.71333039 0 0 1 1.089837,0.126908 0.83608508,0.71333039 0 0 1 -6.83e-4,0.938447 0.83608508,0.71333039 0 0 1 -1.090021,0.125754" /></g><g
       id="g20"
       transform="matrix(0.48279688,-0.12936503,0.12936503,0.48279688,22.038645,41.347127)"
       style="stroke-width:1.9303"
       inkscape:label="mouse"><path
         id="rect20"
         style="fill:#000000;fill-opacity:1;stroke:none;stroke-width:2.55363;stroke-linecap:round;stroke-linejoin:round;stroke-miterlimit:15;stroke-dasharray:none;stroke-opacity:1;paint-order:stroke fill markers;filter:url(#filter21)"
         d="m 37.851953,33.823775 -2.601391,5.202783 h 1.776635 v 1.51412 c 0,0.214852 0.172721,0.38809 0.387574,0.38809 h 0.874365 c 0.214852,0 0.38809,-0.173238 0.38809,-0.38809 v -1.51412 h 1.776119 z" /><path
         id="path18"
         style="fill:#000000;fill-opacity:1;stroke:none;stroke-width:3.35926;stroke-linecap:round;stroke-linejoin:round;stroke-miterlimit:15;stroke-dasharray:none;stroke-opacity:1;paint-order:stroke fill markers"
         inkscape:transform-center-y="-0.83333364"
         d="m 38.015794,33.171915 -3.534095,6.1206 h 2.474159 v 1.873821 c 0,0.239111 0.222091,0.43208 0.498192,0.43208 h 1.123489 c 0.2761,0 0.498922,-0.192969 0.498922,-0.43208 v -1.873821 h 2.473429 z"
         transform="matrix(0.7074245,0,0,0.81686345,10.958649,6.8849803)" /></g><g
       id="g37"
       inkscape:label="layers"
       style="stroke-width:0.964815"><g
         id="g23"
         transform="translate(-3.9458572)"
         style="stroke-width:0.964815"><rect
           style="fill:#3a7fee;fill-opacity:1;stroke:none;stroke-width:0.255274;stroke-linecap:round;stroke-linejoin:round;stroke-miterlimit:15;stroke-dasharray:none;stroke-opacity:1;paint-order:stroke fill markers"
           id="rect22"
           width="2.5043075"
           height="2.4866738"
           x="62.753757"
           y="22.021126"
           ry="0.84506816" /><rect
           style="fill:#c3c3c3;fill-opacity:1;stroke:none;stroke-width:0.255274;stroke-linecap:round;stroke-linejoin:round;stroke-miterlimit:15;stroke-dasharray:none;stroke-opacity:1;paint-order:stroke fill markers"
           id="rect23"
           width="6.1053114"
           height="2.4866736"
           x="65.973366"
           y="22.021126"
           ry="0.8450681" /></g><g
         id="g25"
         transform="translate(-2.6937034,3.1501597)"
         style="stroke-width:0.964815"><rect
           style="fill:#3a7fee;fill-opacity:1;stroke:none;stroke-width:0.255274;stroke-linecap:round;stroke-linejoin:round;stroke-miterlimit:15;stroke-dasharray:none;stroke-opacity:1;paint-order:stroke fill markers"
           id="rect24"
           width="2.5043075"
           height="2.4866738"
           x="62.753757"
           y="22.021126"
           ry="0.84506816" /><rect
           style="fill:#c3c3c3;fill-opacity:1;stroke:none;stroke-width:0.255274;stroke-linecap:round;stroke-linejoin:round;stroke-miterlimit:15;stroke-dasharray:none;stroke-opacity:1;paint-order:stroke fill markers"
           id="rect25"
           width="6.1053114"
           height="2.4866736"
           x="65.973366"
           y="22.021126"
           ry="0.8450681" /></g><g
         id="g27"
         transform="translate(-2.6937034,6.3003204)"
         style="stroke-width:0.964815"><rect
           style="fill:#3a7fee;fill-opacity:1;stroke:none;stroke-width:0.255274;stroke-linecap:round;stroke-linejoin:round;stroke-miterlimit:15;stroke-dasharray:none;stroke-opacity:1;paint-order:stroke fill markers"
           id="rect26"
           width="2.5043075"
           height="2.4866738"
           x="62.753757"
           y="22.021126"
           ry="0.84506816" /><rect
           style="fill:#c3c3c3;fill-opacity:1;stroke:none;stroke-width:0.255274;stroke-linecap:round;stroke-linejoin:round;stroke-miterlimit:15;stroke-dasharray:none;stroke-opacity:1;paint-order:stroke fill markers"
           id="rect27"
           width="6.1053114"
           height="2.4866736"
           x="65.973366"
           y="22.021126"
           ry="0.8450681" /></g><g
         id="g29"
         transform="translate(-2.6937034,9.4504811)"
         style="stroke-width:0.964815"><rect
           style="fill:#3a7fee;fill-opacity:1;stroke:none;stroke-width:0.255274;stroke-linecap:round;stroke-linejoin:round;stroke-miterlimit:15;stroke-dasharray:none;stroke-opacity:1;paint-order:stroke fill markers"
           id="rect28"
           width="2.5043075"
           height="2.4866738"
           x="62.753757"
           y="22.021126"
           ry="0.84506816" /><rect
           style="fill:#c3c3c3;fill-opacity:1;stroke:none;stroke-width:0.255274;stroke-linecap:round;stroke-linejoin:round;stroke-miterlimit:15;stroke-dasharray:none;stroke-opacity:1;paint-order:stroke fill markers"
           id="rect29"
           width="6.1053114"
           height="2.4866736"
           x="65.973366"
           y="22.021126"
           ry="0.8450681" /></g><g
         id="g31"
         transform="translate(-1.4415496,12.600642)"
         style="stroke-width:0.964815"><rect
           style="fill:#3a7fee;fill-opacity:1;stroke:none;stroke-width:0.255274;stroke-linecap:round;stroke-linejoin:round;stroke-miterlimit:15;stroke-dasharray:none;stroke-opacity:1;paint-order:stroke fill markers"
           id="rect30"
           width="2.5043075"
           height="2.4866738"
           x="62.753757"
           y="22.021126"
           ry="0.84506816" /><rect
           style="fill:#c3c3c3;fill-opacity:1;stroke:none;stroke-width:0.255274;stroke-linecap:round;stroke-linejoin:round;stroke-miterlimit:15;stroke-dasharray:none;stroke-opacity:1;paint-order:stroke fill markers"
           id="rect31"
           width="6.1053114"
           height="2.4866736"
           x="65.973366"
           y="22.021126"
           ry="0.8450681" /></g><g
         id="g33"
         transform="translate(-1.4415496,15.750803)"
         style="stroke-width:0.964815"><rect
           style="fill:#3a7fee;fill-opacity:1;stroke:none;stroke-width:0.255274;stroke-linecap:round;stroke-linejoin:round;stroke-miterlimit:15;stroke-dasharray:none;stroke-opacity:1;paint-order:stroke fill markers"
           id="rect32"
           width="2.5043075"
           height="2.4866738"
           x="62.753757"
           y="22.021126"
           ry="0.84506816" /><rect
           style="fill:#c3c3c3;fill-opacity:1;stroke:none;stroke-width:0.255274;stroke-linecap:round;stroke-linejoin:round;stroke-miterlimit:15;stroke-dasharray:none;stroke-opacity:1;paint-order:stroke fill markers"
           id="rect33"
           width="6.1053114"
           height="2.4866736"
           x="65.973366"
           y="22.021126"
           ry="0.8450681" /></g><g
         id="g35"
         transform="translate(-2.6937034,18.900964)"
         style="stroke-width:0.964815"><rect
           style="fill:#3a7fee;fill-opacity:1;stroke:none;stroke-width:0.255274;stroke-linecap:round;stroke-linejoin:round;stroke-miterlimit:15;stroke-dasharray:none;stroke-opacity:1;paint-order:stroke fill markers"
           id="rect34"
           width="2.5043075"
           height="2.4866738"
           x="62.753757"
           y="22.021126"
           ry="0.84506816" /><rect
           style="fill:#c3c3c3;fill-opacity:1;stroke:none;stroke-width:0.255274;stroke-linecap:round;stroke-linejoin:round;stroke-miterlimit:15;stroke-dasharray:none;stroke-opacity:1;paint-order:stroke fill markers"
           id="rect35"
           width="6.1053114"
           height="2.4866736"
           x="65.973366"
           y="22.021126"
           ry="0.8450681" /></g></g><circle
       style="fill:#11a511;fill-opacity:1;stroke:none;stroke-width:0.382911;stroke-linecap:round;stroke-linejoin:round;stroke-miterlimit:15;stroke-dasharray:none;stroke-opacity:1;paint-order:stroke fill markers"
       id="path89"
       cx="71.245537"
       cy="21.372252"
       r="0.23357746" /><circle
       style="fill:#11a511;fill-opacity:1;stroke:none;stroke-width:0.382911;stroke-linecap:round;stroke-linejoin:round;stroke-miterlimit:15;stroke-dasharray:none;stroke-opacity:1;paint-order:stroke fill markers"
       id="circle89"
       cx="71.245537"
       cy="20.173359"
       r="0.23357746" /><path
       id="path90"
       style="fill:#11a511;fill-opacity:1;stroke:none;stroke-width:0.382911;stroke-linecap:round;stroke-linejoin:round;stroke-miterlimit:15;stroke-dasharray:none;stroke-opacity:1;paint-order:stroke fill markers"
       inkscape:transform-center-y="-0.041774182"
       d="m 71.306918,20.485614 -0.216458,0.209286 0.01369,0.0079 -0.002,0.0019 0.11914,0.06618 -0.07217,0.289116 0.21627,-0.20896 -0.10334,-0.18615 z"
       inkscape:transform-center-x="-0.024002925" /></g></svg>
