<?xml version="1.0" encoding="UTF-8" standalone="no"?>
<!-- Created with Inkscape (http://www.inkscape.org/) -->

<svg
   width="100"
   height="100"
   viewBox="0 0 26.458333 26.458333"
   version="1.1"
   id="svg1"
   inkscape:version="1.3.2 (091e20e, 2023-11-25, custom)"
   sodipodi:docname="dwarf_planets.svg"
   xml:space="preserve"
   xmlns:inkscape="http://www.inkscape.org/namespaces/inkscape"
   xmlns:sodipodi="http://sodipodi.sourceforge.net/DTD/sodipodi-0.dtd"
   xmlns="http://www.w3.org/2000/svg"
   xmlns:svg="http://www.w3.org/2000/svg"><sodipodi:namedview
     id="namedview1"
     pagecolor="#000000"
     bordercolor="#000000"
     borderopacity="0.25"
     inkscape:showpageshadow="2"
     inkscape:pageopacity="0.0"
     inkscape:pagecheckerboard="0"
     inkscape:deskcolor="#d1d1d1"
     inkscape:document-units="mm"
     inkscape:zoom="2.535"
     inkscape:cx="-38.658777"
     inkscape:cy="57.790927"
     inkscape:window-width="1600"
     inkscape:window-height="837"
     inkscape:window-x="-8"
     inkscape:window-y="-8"
     inkscape:window-maximized="1"
     inkscape:current-layer="svg1" /><defs
     id="defs1" /><g
     id="g59"
     inkscape:label="dwarf planets"
     inkscape:highlight-color="#80d48f"
     transform="translate(-0.70914515)"><g
       inkscape:label="pluto"
       inkscape:groupmode="layer"
       id="layer1"
       transform="matrix(1.2674914,0,0,1.2674914,-3.8519243,-3.581409)"
       inkscape:highlight-color="#5e2269"><circle
         style="fill:#973232;fill-opacity:1;stroke-width:0.208746;paint-order:stroke fill markers"
         id="path30"
         cx="13.399232"
         cy="14.920198"
         r="5.3230224"
         inkscape:label="planet" /><path
         id="path44"
         style="display:inline;fill:#a24343;fill-opacity:1;stroke-width:0.208746;paint-order:stroke fill markers"
         d="m 13.399241,9.5971836 a 5.3230224,5.3230224 0 0 0 -5.0531131,3.6550874 1.3324822,1.4893711 0 0 0 0.9250858,0.443177 1.3324822,1.4893711 0 0 0 1.3209683,-1.309145 0.35434094,1.1359998 60 0 0 0.474163,-0.2275 0.35434094,1.1359998 60 0 0 0.308634,-0.200592 7.0666122,1.3653506 0 0 0 1.004996,0.04199 2.1310539,0.93175954 32.0982 0 0 1.02212,0.886354 2.1310539,0.93175954 32.0982 0 0 0.0073,0.0045 3.6762986,2.8414052 0 0 0 3.666096,2.721033 3.6762986,2.8414052 0 0 0 1.614925,-0.289472 5.3230224,5.3230224 0 0 0 0.0318,-0.402406 5.3230224,5.3230224 0 0 0 -5.323014,-5.3230144 z M 8.3192193,15.242286 a 3.293447,1.6052095 56.005595 0 0 -0.2144535,0.04444 5.3230224,5.3230224 0 0 0 3.9058272,4.757526 3.293447,1.6052095 56.005595 0 0 -0.926309,-2.82989 3.293447,1.6052095 56.005595 0 0 -2.7650647,-1.972076 z m 10.0805397,1.472228 a 1.079365,1.7897162 55.378177 0 0 -0.678423,0.343289 1.079365,1.7897162 55.378177 0 0 -0.716748,0.722048 2.15873,2.1771808 0 0 0 -0.847214,-0.175314 2.15873,2.1771808 0 0 0 -2.158805,2.177152 2.15873,2.1771808 0 0 0 0.05341,0.410152 5.3230224,5.3230224 0 0 0 4.34778,-3.477327 z"
         inkscape:label="details1" /><path
         id="path56"
         style="fill:#b46262;fill-opacity:1;stroke-width:0.208746;paint-order:stroke fill markers"
         d="m 13.399241,9.5971836 a 5.3230224,5.3230224 0 0 0 -2.91347,0.8716764 3.0724752,1.0465971 0 0 0 2.944863,0.765265 3.0724752,1.0465971 0 0 0 0.674754,-0.02691 3.3081105,1.3111837 32.494936 0 0 1.22475,1.021712 0.78932559,0.39598516 64.828274 0 0 0.114566,0.686986 0.78932559,0.39598516 64.828274 0 0 0.499848,0.545103 1.390393,1.0766568 0 0 0 1.348692,0.820305 1.390393,1.0766568 0 0 0 1.267559,-0.659261 5.3230224,5.3230224 0 0 0 -5.161562,-4.0248774 z M 9.000089,17.210692 a 1.8200012,1.1821451 61.541871 0 0 -0.3392117,0.09459 1.8200012,1.1821451 61.541871 0 0 -0.00612,0.0049 5.3230224,5.3230224 0 0 0 2.2236307,2.283156 1.8200012,1.1821451 61.541871 0 0 -0.310672,-1.251251 1.8200012,1.1821451 61.541871 0 0 -1.4428733,-1.13057 1.8200012,1.1821451 61.541871 0 0 -0.1247581,-8.16e-4 z m 7.803092,1.531753 a 1.3959866,0.92971313 0 0 0 -1.395986,0.929571 1.3959866,0.92971313 0 0 0 0.03058,0.154521 5.3230224,5.3230224 0 0 0 1.625117,-1.06126 1.3959866,0.92971313 0 0 0 -0.259709,-0.02283 z"
         inkscape:label="details2" /><path
         d="m 14.051979,20.191841 a 5.3230224,5.3230224 0 0 0 4.66783,-5.276128 5.3230224,5.3230224 0 0 0 -4.943847,-5.30793 5.3230224,5.3230224 0 0 0 -4.7510028,5.282245 5.3230224,5.3230224 0 0 0 5.0270198,5.301813 z"
         style="fill:#000000;fill-opacity:0.2;stroke-width:0.208746;paint-order:stroke fill markers"
         id="path59"
         inkscape:label="shadow" /></g><g
       id="g60"
       inkscape:highlight-color="#636363"
       inkscape:label="ceres"
       transform="translate(0.7625904,-0.14203768)"><ellipse
         style="fill:#636363;fill-opacity:1;stroke-width:0.271095;paint-order:stroke fill markers"
         id="path60"
         cx="5.1800175"
         cy="21.690594"
         rx="3.4494474"
         ry="3.2857447"
         inkscape:label="planet" /><path
         id="path91"
         style="fill:#727272;stroke-width:0.264583;paint-order:stroke fill markers"
         inkscape:label="details"
         d="m 5.1800456,18.405078 a 3.4494474,3.2857447 0 0 0 -3.3408814,2.495455 0.33072916,0.18190104 0 0 0 0.3188436,-0.180351 0.33072916,0.18190104 0 0 0 -0.00207,-0.01912 0.59531248,1.9306315 53.247023 0 0 0.8366414,-0.293005 0.75447589,0.29352212 0 0 0 0.5772257,0.10542 0.75447589,0.29352212 0 0 0 0.2666504,-0.01912 0.8769781,0.76881748 0 0 0 0.6480225,0.260966 0.8769781,0.76881748 0 0 0 0.874882,-0.746207 0.16370259,0.72204536 0 0 0 0.090434,-0.483175 A 0.52618688,0.47649145 0 0 0 5.5774346,19.214849 0.52618688,0.47649145 0 0 0 5.4120701,18.867583 0.16370259,0.72204536 0 0 0 5.3557431,18.6924 0.50436199,0.28111979 0 0 0 5.4404921,18.537371 0.50436199,0.28111979 0 0 0 5.3857151,18.41128 3.4494474,3.2857447 0 0 0 5.1800429,18.40508 Z m 1.4267863,0.295073 a 0.59531248,0.69039714 0 0 0 -0.1142049,0.371553 0.81442058,0.58704424 29.423038 0 0 -0.3849895,0.239779 0.81442058,0.58704424 29.423038 0 0 0.421163,0.911055 0.81442058,0.58704424 29.423038 0 0 0.9224243,-0.01602 0.54983723,0.76481122 0 0 0 0.3994588,0.240812 0.54983723,0.76481122 0 0 0 0.3994588,-0.252181 3.4494474,3.2857447 0 0 0 -1.6433105,-1.494999 z m -0.4563029,2.93212 a 0.61973119,0.57880557 0 0 0 -0.4635376,0.195337 0.81851292,0.75420117 0 0 0 -0.4526856,0.484725 0.61388463,0.62557769 0 0 0 -0.2413289,0.49506 0.61388463,0.62557769 0 0 0 0.613916,0.625285 0.61388463,0.62557769 0 0 0 0.4128947,-0.163297 0.81851292,0.75420117 0 0 0 0.00207,0 0.81851292,0.75420117 0 0 0 0.8185546,-0.754476 0.81851292,0.75420117 0 0 0 -0.07028,-0.304891 0.61973119,0.57880557 0 0 0 -0.6196004,-0.577743 z m -3.4840251,0.154513 a 0.55810547,0.78134763 0 0 0 -0.4919596,0.414445 0.54156899,0.62838542 0 0 1 -5.168e-4,0 0.54156899,0.62838542 0 0 0 -0.1276408,-0.01757 0.54156899,0.62838542 0 0 0 -0.2557983,0.0832 3.4494474,3.2857447 0 0 0 0.4464844,1.128096 0.54156899,0.62838542 0 0 0 0.1193725,-0.06925 0.45475259,0.43821615 0 0 0 0.3472656,0.156063 0.45475259,0.43821615 0 0 0 0.4547526,-0.438216 0.45475259,0.43821615 0 0 0 -0.00879,-0.08527 0.55810547,0.78134763 0 0 0 0.074931,-0.390157 0.55810547,0.78134763 0 0 0 -0.5581055,-0.781348 z m 4.0628011,1.891874 a 0.68404293,0.60803813 0 0 0 -0.6320028,0.378272 2.1580079,0.69659829 0 0 0 -1.4133504,-0.170016 2.1580079,0.69659829 0 0 0 -0.023771,5.17e-4 0.50572407,0.25140041 0 0 0 -0.4888591,-0.185519 0.50572407,0.25140041 0 0 0 -0.5053955,0.251148 0.50572407,0.25140041 0 0 0 0.00207,0.0186 2.1580079,0.69659829 0 0 0 -0.7358724,0.209807 3.4494474,3.2857447 0 0 0 2.2479248,0.794783 3.4494474,3.2857447 0 0 0 2.2184692,-0.773596 0.68404293,0.60803813 0 0 0 -0.6692098,-0.523999 z" /><g
         id="g64"
         inkscape:label="craters"
         transform="rotate(14.510067,5.0627629,20.818537)"><ellipse
           style="fill:#5e5e5e;fill-opacity:1;stroke-width:0.264583;paint-order:stroke fill markers"
           id="path64"
           cx="13.101703"
           cy="15.460052"
           rx="0.22367983"
           ry="0.82342833"
           transform="rotate(31.794425)"
           inkscape:label="crater" /><ellipse
           style="fill:#5e5e5e;fill-opacity:1;stroke-width:0.264583;paint-order:stroke fill markers"
           id="path65"
           cx="16.70911"
           cy="16.200844"
           rx="0.46479839"
           ry="0.57588232"
           transform="rotate(30.169809)" /><ellipse
           style="fill:#5e5e5e;fill-opacity:1;stroke-width:0.264583;paint-order:stroke fill markers"
           id="path66"
           cx="13.497983"
           cy="15.16085"
           rx="0.56711251"
           ry="0.19585843"
           transform="rotate(22.58969)"
           inkscape:label="path66" /><ellipse
           style="fill:#5e5e5e;fill-opacity:1;stroke-width:0.195358;paint-order:stroke fill markers"
           id="path67"
           cx="-21.148521"
           cy="12.824944"
           rx="0.14908627"
           ry="0.30986562"
           transform="rotate(-82.478304,-1.425077,3.8491916)" /></g><path
         d="m 5.7112969,18.44428 a 3.4494474,3.2857447 0 0 0 -2.928503,3.246314 3.4494474,3.2857447 0 0 0 2.923336,3.244763 3.4494474,3.2857447 0 0 0 2.923335,-3.244763 3.4494474,3.2857447 0 0 0 -2.918168,-3.246314 z"
         style="display:inline;fill:#000000;fill-opacity:0.15;stroke-width:0.271095;paint-order:stroke fill markers"
         id="path63"
         inkscape:label="shadow" /></g><g
       id="g4"
       inkscape:label="eris"
       inkscape:highlight-color="#a6bdbe"
       transform="translate(-0.97203391,-0.83509135)"><circle
         style="fill:#98c4cc;fill-opacity:1;stroke-width:0.472276"
         id="path1"
         cx="21.539616"
         cy="21.387947"
         r="4.7379141"
         inkscape:label="planet it self" /><path
         id="path21"
         style="fill:#a6bdbe;fill-opacity:1;stroke-width:0.264583"
         d="m 21.862231,16.662032 a 2.2333708,0.91790438 29.910291 0 0 1.168921,1.627291 0.74250811,0.94129014 0 0 0 -0.05426,0.352433 0.74250811,0.94129014 0 0 0 0.02429,0.237712 2.256757,1.9001192 0 0 0 -0.320394,0.890385 3.1395817,2.8180227 0 0 0 -0.2651,1.125512 3.1395817,2.8180227 0 0 0 3.139343,2.817916 3.1395817,2.8180227 0 0 0 0.104903,-0.0093 4.7379141,4.7379141 0 0 0 0.617534,-2.316137 4.7379141,4.7379141 0 0 0 -4.415235,-4.72581 z m -2.418457,0.481624 a 4.7379141,4.7379141 0 0 0 -2.516125,3.222543 1.0694443,0.7169919 0 0 0 0.628385,0.136942 1.0694443,0.7169919 0 0 0 0.925525,-0.357601 1.918229,1.5544269 0 0 0 0.198955,0.03462 1.5515838,1.2575572 0 0 0 -0.05478,0.322977 1.5515838,1.2575572 0 0 0 1.551327,1.257805 1.5515838,1.2575572 0 0 0 1.551843,-1.257805 1.5515838,1.2575572 0 0 0 -0.363802,-0.808736 1.0087241,0.38033852 67.5872 0 0 -0.160714,-0.593762 1.0087241,0.38033852 67.5872 0 0 -0.270267,-0.489376 1.918229,1.5544269 0 0 0 -1.490349,-1.467611 z m -1.666565,5.908167 a 2.1009052,1.7032557 0 0 0 -0.624768,0.08733 4.7379141,4.7379141 0 0 0 4.38733,2.986898 4.7379141,4.7379141 0 0 0 2.125451,-0.506429 2.2450638,1.5200953 11.90072 0 0 -1.894975,-1.662948 2.2450638,1.5200953 11.90072 0 0 -1.123962,-0.03411 1.0523736,0.63772523 0 0 0 -1.002006,-0.442867 1.0523736,0.63772523 0 0 0 -0.407727,0.05013 2.1009052,1.7032557 0 0 0 -1.459343,-0.478007 z"
         inkscape:label="details1" /><path
         id="path36"
         style="fill:#bac3c4;stroke-width:0.264583"
         inkscape:label="details2"
         d="m 23.021851,16.888892 a 0.90537101,0.65861613 0 0 0 -0.234611,0.432015 0.90537101,0.65861613 0 0 0 0.05013,0.211356 1.5420246,0.55810547 21.696352 0 0 1.194759,0.946712 0.43934742,0.8886711 0 0 0 -0.01757,0.247014 0.43934742,0.8886711 0 0 0 0.304891,0.843876 1.8190103,2.1414714 0 0 0 -0.192753,0.935343 1.8190103,2.1414714 0 0 0 1.81901,2.141472 1.8190103,2.1414714 0 0 0 0.150895,-0.0078 4.7379141,4.7379141 0 0 0 0.180868,-1.251086 4.7379141,4.7379141 0 0 0 -3.255615,-4.49895 z m -4.348055,0.735355 a 4.7379141,4.7379141 0 0 0 -1.411801,1.749247 0.51415694,0.50676143 0 0 0 0.476974,0.324528 0.51415694,0.50676143 0 0 0 0.393258,-0.19482 0.94428974,0.33325166 0 0 0 0.802018,0.158647 0.94428974,0.33325166 0 0 0 0.284737,-0.01602 0.79838669,1.2598438 0 0 0 0.785482,1.107426 0.79838669,1.2598438 0 0 0 0.798401,-1.259871 0.79838669,1.2598438 0 0 0 -0.361219,-1.054199 0.74168348,0.41940516 0 0 0 -0.52865,-0.346749 0.47214484,0.2864795 6.7660772 0 0 -0.350366,-0.147278 0.47214484,0.2864795 6.7660772 0 0 -0.26665,0.01809 1.335319,0.84335929 14.222553 0 0 -0.622184,-0.338998 z m 6.219258,1.099675 a 1.5420246,0.55810547 21.696352 0 0 0.03824,0.0072 1.8190103,2.1414714 0 0 0 -0.03979,0.03824 0.43934742,0.8886711 0 0 0 0.0015,-0.04341 0.43934742,0.8886711 0 0 0 0,-0.0021 z m -5.236889,5.644616 a 2.5841622,1.5376348 0 0 0 -1.523938,0.302308 4.7379141,4.7379141 0 0 0 3.407544,1.455208 4.7379141,4.7379141 0 0 0 0.683162,-0.05374 2.5841622,1.5376348 0 0 0 0.01705,-0.166398 2.5841622,1.5376348 0 0 0 -2.583821,-1.537374 z" /><path
         d="m 22.006989,16.673506 a 4.7379141,4.7379141 0 0 0 -4.410066,4.714441 4.7379141,4.7379141 0 0 0 4.340303,4.70979 4.7379141,4.7379141 0 0 0 4.340304,-4.70979 4.7379141,4.7379141 0 0 0 -4.270541,-4.714441 z"
         style="fill:#000000;fill-opacity:0.15;stroke-width:0.472276"
         id="path4"
         inkscape:label="shadow" /></g><g
       id="g39"
       inkscape:label="haumea"
       inkscape:highlight-color="#d0e66e"><ellipse
         style="fill:#636363;fill-opacity:1;stroke-width:0.28831"
         id="path39"
         cx="-0.84519643"
         cy="27.012747"
         rx="2.778125"
         ry="1.7550787"
         transform="rotate(-29.801277)"
         inkscape:label="planet it self" /><path
         id="path68"
         style="fill:#727272;stroke-width:0.264583"
         d="m 13.636363,21.808819 a 1.7550787,2.778125 60.198723 0 0 -1.824694,0.529167 1.7550787,2.778125 60.198723 0 0 -0.816488,0.611849 0.64492184,1.0425667 74.202015 0 0 1.07487,0.158129 0.64492184,1.0425667 74.202015 0 0 0.827339,-0.675927 1.3247725,0.39758584 0 0 0 0.66921,0.05529 1.3247725,0.39758584 0 0 0 1.277958,-0.29869 1.7550787,2.778125 60.198723 0 0 -1.208195,-0.379822 z m 1.568897,0.943095 a 0.67799443,0.66145831 0 0 0 -0.492476,0.487825 1.2411619,0.99632156 0 0 0 -1.146184,0.990638 1.2411619,0.99632156 0 0 0 0.511597,0.801501 1.7550787,2.778125 60.198723 0 0 1.127063,-2.279964 z m -3.93206,0.920357 a 0.49276385,0.46225724 0 0 0 -0.449585,0.274402 0.65732419,0.34726563 0 0 1 -5.17e-4,0 0.65732419,0.34726563 0 0 0 -0.251664,-0.02636 0.65732419,0.34726563 0 0 0 -0.30024,0.04031 1.7550787,2.778125 60.198723 0 0 -0.143144,0.561206 0.65732419,0.34726563 0 0 0 0.443384,0.09302 0.65732419,0.34726563 0 0 0 0.438733,-0.08992 0.49276385,0.46225724 0 0 0 0.263033,0.07183 0.49276385,0.46225724 0 0 0 0.492993,-0.461987 0.49276385,0.46225724 0 0 0 -0.492993,-0.462504 z m 1.447457,1.016992 a 0.66722405,0.67573524 0 0 0 -0.588595,0.361735 1.1699544,0.7614882 0 0 0 -0.61805,-0.115238 1.1699544,0.7614882 0 0 0 -1.09399,0.505395 1.7550787,2.778125 60.198723 0 0 3.136243,-0.05736 1.7550787,2.778125 60.198723 0 0 0.04806,-0.02842 0.85066873,0.4414123 0 0 0 -0.229443,-0.123507 0.66722405,0.67573524 0 0 0 -0.654224,-0.542603 z"
         inkscape:label="details1" /><g
         id="g73"
         inkscape:label="craters"><ellipse
           style="fill:#5e5e5e;fill-opacity:1;stroke-width:0.165983"
           id="path69"
           cx="1.3115102"
           cy="25.547676"
           rx="0.46508777"
           ry="0.19569275"
           transform="rotate(-25.396166)" /><ellipse
           style="fill:#5e5e5e;fill-opacity:1;stroke-width:0.264583"
           id="path70"
           cx="13.397073"
           cy="24.90789"
           rx="0.59053248"
           ry="0.19310072"
           transform="rotate(3.0009111)" /><ellipse
           style="fill:#5e5e5e;fill-opacity:1;stroke-width:0.264583"
           id="path71"
           cx="13.344021"
           cy="22.886894"
           rx="0.14645131"
           ry="0.25946099"
           transform="rotate(6.7709704)" /><ellipse
           style="fill:#5e5e5e;fill-opacity:1;stroke-width:0.264583"
           id="path72"
           cx="20.163698"
           cy="19.011074"
           rx="0.10274131"
           ry="0.26256111"
           transform="rotate(13.966894)" /><ellipse
           style="fill:#5e5e5e;fill-opacity:1;stroke-width:0.264583"
           id="path73"
           cx="-8.1518717"
           cy="26.847462"
           rx="0.65721822"
           ry="0.16471225"
           transform="rotate(-47.750021)" /></g><path
         d="m 13.876696,21.817802 a 1.7550787,2.778125 60.198723 0 0 -1.599385,0.519865 1.7550787,2.778125 60.198723 0 0 -1.538408,2.903698 1.7550787,2.778125 60.198723 0 0 1.223698,0.661975 1.7550787,2.778125 60.198723 0 0 1.601453,-0.519864 1.7550787,2.778125 60.198723 0 0 1.538407,-2.903699 1.7550787,2.778125 60.198723 0 0 -1.225765,-0.661975 z"
         style="fill:#000000;fill-opacity:0.15;stroke-width:0.28831"
         id="path42"
         inkscape:label="shadow" /></g></g></svg>
