<?xml version="1.0" encoding="UTF-8" standalone="no"?>
<!-- Created with Inkscape (http://www.inkscape.org/) -->

<svg
   width="100"
   height="100"
   viewBox="0 0 26.458333 26.458333"
   version="1.1"
   id="svg1"
   inkscape:version="1.3.2 (091e20e, 2023-11-25, custom)"
   sodipodi:docname="dwarf_planets.svg"
   xml:space="preserve"
   xmlns:inkscape="http://www.inkscape.org/namespaces/inkscape"
   xmlns:sodipodi="http://sodipodi.sourceforge.net/DTD/sodipodi-0.dtd"
   xmlns="http://www.w3.org/2000/svg"
   xmlns:svg="http://www.w3.org/2000/svg"><sodipodi:namedview
     id="namedview1"
     pagecolor="#000000"
     bordercolor="#000000"
     borderopacity="0.25"
     inkscape:showpageshadow="2"
     inkscape:pageopacity="0.0"
     inkscape:pagecheckerboard="0"
     inkscape:deskcolor="#d1d1d1"
     inkscape:document-units="mm"
     inkscape:zoom="11.313709"
     inkscape:cx="33.189824"
     inkscape:cy="60.325047"
     inkscape:window-width="2560"
     inkscape:window-height="1057"
     inkscape:window-x="-8"
     inkscape:window-y="-8"
     inkscape:window-maximized="1"
     inkscape:current-layer="g64" /><defs
     id="defs1" /><g
     id="g59"
     inkscape:label="dwarf planets"
     inkscape:highlight-color="#80d48f"><g
       inkscape:label="pluto"
       inkscape:groupmode="layer"
       id="layer1"
       transform="matrix(1.2674914,0,0,1.2674914,-3.8519242,-3.5814091)"
       inkscape:highlight-color="#5e2269"><circle
         style="fill:#973232;fill-opacity:1;stroke-width:0.208746;paint-order:stroke fill markers"
         id="path30"
         cx="13.399232"
         cy="14.920198"
         r="5.3230224"
         inkscape:label="planet" /><path
         id="path44"
         style="display:inline;fill:#a24343;fill-opacity:1;stroke-width:0.208746;paint-order:stroke fill markers"
         d="m 13.399241,9.5971836 a 5.3230224,5.3230224 0 0 0 -5.0531131,3.6550874 1.3324822,1.4893711 0 0 0 0.9250858,0.443177 1.3324822,1.4893711 0 0 0 1.3209683,-1.309145 0.35434094,1.1359998 60 0 0 0.474163,-0.2275 0.35434094,1.1359998 60 0 0 0.308634,-0.200592 7.0666122,1.3653506 0 0 0 1.004996,0.04199 2.1310539,0.93175954 32.0982 0 0 1.02212,0.886354 2.1310539,0.93175954 32.0982 0 0 0.0073,0.0045 3.6762986,2.8414052 0 0 0 3.666096,2.721033 3.6762986,2.8414052 0 0 0 1.614925,-0.289472 5.3230224,5.3230224 0 0 0 0.0318,-0.402406 5.3230224,5.3230224 0 0 0 -5.323014,-5.3230144 z M 8.3192193,15.242286 a 3.293447,1.6052095 56.005595 0 0 -0.2144535,0.04444 5.3230224,5.3230224 0 0 0 3.9058272,4.757526 3.293447,1.6052095 56.005595 0 0 -0.926309,-2.82989 3.293447,1.6052095 56.005595 0 0 -2.7650647,-1.972076 z m 10.0805397,1.472228 a 1.079365,1.7897162 55.378177 0 0 -0.678423,0.343289 1.079365,1.7897162 55.378177 0 0 -0.716748,0.722048 2.15873,2.1771808 0 0 0 -0.847214,-0.175314 2.15873,2.1771808 0 0 0 -2.158805,2.177152 2.15873,2.1771808 0 0 0 0.05341,0.410152 5.3230224,5.3230224 0 0 0 4.34778,-3.477327 z"
         inkscape:label="details1" /><path
         id="path56"
         style="fill:#b46262;stroke-width:0.208746;paint-order:stroke fill markers;fill-opacity:1"
         d="m 13.399241,9.5971836 a 5.3230224,5.3230224 0 0 0 -2.91347,0.8716764 3.0724752,1.0465971 0 0 0 2.944863,0.765265 3.0724752,1.0465971 0 0 0 0.674754,-0.02691 3.3081105,1.3111837 32.494936 0 0 1.22475,1.021712 0.78932559,0.39598516 64.828274 0 0 0.114566,0.686986 0.78932559,0.39598516 64.828274 0 0 0.499848,0.545103 1.390393,1.0766568 0 0 0 1.348692,0.820305 1.390393,1.0766568 0 0 0 1.267559,-0.659261 5.3230224,5.3230224 0 0 0 -5.161562,-4.0248774 z M 9.000089,17.210692 a 1.8200012,1.1821451 61.541871 0 0 -0.3392117,0.09459 1.8200012,1.1821451 61.541871 0 0 -0.00612,0.0049 5.3230224,5.3230224 0 0 0 2.2236307,2.283156 1.8200012,1.1821451 61.541871 0 0 -0.310672,-1.251251 1.8200012,1.1821451 61.541871 0 0 -1.4428733,-1.13057 1.8200012,1.1821451 61.541871 0 0 -0.1247581,-8.16e-4 z m 7.803092,1.531753 a 1.3959866,0.92971313 0 0 0 -1.395986,0.929571 1.3959866,0.92971313 0 0 0 0.03058,0.154521 5.3230224,5.3230224 0 0 0 1.625117,-1.06126 1.3959866,0.92971313 0 0 0 -0.259709,-0.02283 z"
         inkscape:label="details2" /><path
         d="m 14.051979,20.191841 a 5.3230224,5.3230224 0 0 0 4.66783,-5.276128 5.3230224,5.3230224 0 0 0 -4.943847,-5.30793 5.3230224,5.3230224 0 0 0 -4.7510028,5.282245 5.3230224,5.3230224 0 0 0 5.0270198,5.301813 z"
         style="fill:#000000;fill-opacity:0.2;stroke-width:0.208746;paint-order:stroke fill markers"
         id="path59"
         inkscape:label="shadow" /></g><g
       id="g60"
       inkscape:highlight-color="#636363"
       inkscape:label="ceres"><ellipse
         style="fill:#636363;fill-opacity:1;stroke-width:0.271095;paint-order:stroke fill markers"
         id="path60"
         cx="5.1800175"
         cy="21.690594"
         rx="3.4494474"
         ry="3.2857447"
         inkscape:label="planet" /><path
         id="path91"
         style="fill:#727272;stroke-width:0.264583;paint-order:stroke fill markers"
         inkscape:label="details"
         d="M 5.1800456 18.405078 A 3.4494474 3.2857447 0 0 0 1.8391642 20.900533 A 0.33072916 0.18190104 0 0 0 2.1580078 20.720182 A 0.33072916 0.18190104 0 0 0 2.1559408 20.701062 A 0.59531248 1.9306315 53.247023 0 0 2.9925822 20.408057 A 0.75447589 0.29352212 0 0 0 3.5698079 20.513477 A 0.75447589 0.29352212 0 0 0 3.8364583 20.494356 A 0.8769781 0.76881748 0 0 0 4.4844808 20.755322 A 0.8769781 0.76881748 0 0 0 5.3593628 20.009115 A 0.16370259 0.72204536 0 0 0 5.4497965 19.52594 A 0.52618688 0.47649145 0 0 0 5.5774373 19.214848 A 0.52618688 0.47649145 0 0 0 5.4120728 18.867582 A 0.16370259 0.72204536 0 0 0 5.3557454 18.692399 A 0.50436199 0.28111979 0 0 0 5.4404948 18.53737 A 0.50436199 0.28111979 0 0 0 5.3857178 18.411279 A 3.4494474 3.2857447 0 0 0 5.1800456 18.405078 z M 6.6068319 18.700151 A 0.59531248 0.69039714 0 0 0 6.492627 19.071704 A 0.81442058 0.58704424 29.423038 0 0 6.1076375 19.311483 A 0.81442058 0.58704424 29.423038 0 0 6.5288005 20.222538 A 0.81442058 0.58704424 29.423038 0 0 7.4512248 20.206519 A 0.54983723 0.76481122 0 0 0 7.8506836 20.447331 A 0.54983723 0.76481122 0 0 0 8.2501424 20.19515 A 3.4494474 3.2857447 0 0 0 6.6068319 18.700151 z M 6.150529 21.632271 A 0.61973119 0.57880557 0 0 0 5.6869914 21.827608 A 0.81851292 0.75420117 0 0 0 5.2343058 22.312333 A 0.61388463 0.62557769 0 0 0 4.9929769 22.807393 A 0.61388463 0.62557769 0 0 0 5.6068929 23.432678 A 0.61388463 0.62557769 0 0 0 6.0197876 23.269381 A 0.81851292 0.75420117 0 0 0 6.0218547 23.269381 A 0.81851292 0.75420117 0 0 0 6.8404093 22.514905 A 0.81851292 0.75420117 0 0 0 6.7701294 22.210014 A 0.61973119 0.57880557 0 0 0 6.150529 21.632271 z M 2.6665039 21.786784 A 0.55810547 0.78134763 0 0 0 2.1745443 22.201229 A 0.54156899 0.62838542 0 0 1 2.1740275 22.201229 A 0.54156899 0.62838542 0 0 0 2.0463867 22.183659 A 0.54156899 0.62838542 0 0 0 1.7905884 22.266858 A 3.4494474 3.2857447 0 0 0 2.2370728 23.394954 A 0.54156899 0.62838542 0 0 0 2.3564453 23.325708 A 0.45475259 0.43821615 0 0 0 2.7037109 23.481771 A 0.45475259 0.43821615 0 0 0 3.1584635 23.043555 A 0.45475259 0.43821615 0 0 0 3.1496785 22.958289 A 0.55810547 0.78134763 0 0 0 3.2246094 22.568132 A 0.55810547 0.78134763 0 0 0 2.6665039 21.786784 z M 6.729305 23.678658 A 0.68404293 0.60803813 0 0 0 6.0973022 24.05693 A 2.1580079 0.69659829 0 0 0 4.6839518 23.886914 A 2.1580079 0.69659829 0 0 0 4.6601807 23.887431 A 0.50572407 0.25140041 0 0 0 4.1713216 23.701912 A 0.50572407 0.25140041 0 0 0 3.6659261 23.95306 A 0.50572407 0.25140041 0 0 0 3.6679932 23.971663 A 2.1580079 0.69659829 0 0 0 2.9321208 24.18147 A 3.4494474 3.2857447 0 0 0 5.1800456 24.976253 A 3.4494474 3.2857447 0 0 0 7.3985148 24.202657 A 0.68404293 0.60803813 0 0 0 6.729305 23.678658 z " /><g
         id="g64"
         inkscape:label="craters"
         transform="rotate(14.510067,5.0627629,20.818537)"><ellipse
           style="fill:#5e5e5e;fill-opacity:1;stroke-width:0.264583;paint-order:stroke fill markers"
           id="path64"
           cx="13.101703"
           cy="15.460052"
           rx="0.22367983"
           ry="0.82342833"
           transform="rotate(31.794425)"
           inkscape:label="crater" /><ellipse
           style="fill:#5e5e5e;fill-opacity:1;stroke-width:0.264583;paint-order:stroke fill markers"
           id="path65"
           cx="15.962455"
           cy="17.125427"
           rx="0.46479839"
           ry="0.57588232"
           transform="rotate(13.963511,-10.417593,-19.671288)" /><ellipse
           style="fill:#5e5e5e;fill-opacity:1;stroke-width:0.264583;paint-order:stroke fill markers"
           id="path66"
           cx="13.497983"
           cy="15.16085"
           rx="0.56711251"
           ry="0.19585843"
           transform="rotate(22.58969)"
           inkscape:label="path66" /><ellipse
           style="fill:#5e5e5e;fill-opacity:1;stroke-width:0.195358;paint-order:stroke fill markers"
           id="path67"
           cx="-21.148521"
           cy="12.824944"
           rx="0.14908627"
           ry="0.30986562"
           transform="rotate(-82.478304,-1.425077,3.8491916)" /></g><path
         d="m 5.7112969,18.44428 a 3.4494474,3.2857447 0 0 0 -2.928503,3.246314 3.4494474,3.2857447 0 0 0 2.923336,3.244763 3.4494474,3.2857447 0 0 0 2.923335,-3.244763 3.4494474,3.2857447 0 0 0 -2.918168,-3.246314 z"
         style="display:inline;fill:#000000;fill-opacity:0.15;stroke-width:0.271095;paint-order:stroke fill markers"
         id="path63"
         inkscape:label="shadow" /></g></g></svg>
