<?xml version="1.0" encoding="UTF-8" standalone="no"?>
<!-- Created with Inkscape (http://www.inkscape.org/) -->

<svg
   width="200"
   height="200"
   viewBox="0 0 52.916665 52.916666"
   version="1.1"
   id="svg1"
   inkscape:version="1.3.2 (091e20e, 2023-11-25, custom)"
   sodipodi:docname="formula.svg"
   xml:space="preserve"
   xmlns:inkscape="http://www.inkscape.org/namespaces/inkscape"
   xmlns:sodipodi="http://sodipodi.sourceforge.net/DTD/sodipodi-0.dtd"
   xmlns="http://www.w3.org/2000/svg"
   xmlns:svg="http://www.w3.org/2000/svg"><sodipodi:namedview
     id="namedview1"
     pagecolor="#000000"
     bordercolor="#000000"
     borderopacity="0.25"
     inkscape:showpageshadow="2"
     inkscape:pageopacity="0.0"
     inkscape:pagecheckerboard="0"
     inkscape:deskcolor="#d1d1d1"
     inkscape:document-units="mm"
     inkscape:zoom="4"
     inkscape:cx="55.249999"
     inkscape:cy="100.125"
     inkscape:window-width="2560"
     inkscape:window-height="1057"
     inkscape:window-x="-8"
     inkscape:window-y="-8"
     inkscape:window-maximized="1"
     inkscape:current-layer="layer1" /><defs
     id="defs1" /><g
     inkscape:label="formula"
     inkscape:groupmode="layer"
     id="layer1"
     style="display:inline;stroke-width:0.488531"
     transform="matrix(2.046953,0,0,2.046953,-17.281883,-26.999005)"><path
       id="text19"
       style="font-style:normal;font-variant:normal;font-weight:normal;font-stretch:normal;font-size:4.11136px;font-family:Arial;-inkscape-font-specification:'Arial, Normal';font-variant-ligatures:normal;font-variant-caps:normal;font-variant-numeric:normal;font-variant-east-asian:normal;fill:#ffffff;fill-opacity:1;stroke-width:0.258514;stroke-linecap:round"
       d="M 17.331942 22.341106 C 17.038849 22.341106 16.779977 22.401162 16.555137 22.521612 C 16.330297 22.642062 16.157549 22.826822 16.037099 23.075752 C 15.917987 23.323342 15.85836 23.59039 15.85836 23.876793 C 15.85836 24.165871 15.918668 24.427469 16.039118 24.661676 C 16.159568 24.895885 16.337515 25.075194 16.573062 25.199659 C 16.809945 25.322785 17.072905 25.384456 17.361985 25.384456 C 17.576117 25.384456 17.784901 25.346126 17.988326 25.269841 C 18.191753 25.192219 18.389205 25.077305 18.580587 24.924735 L 18.580587 23.832613 L 17.333962 23.834633 L 17.333962 24.179739 L 18.199127 24.179739 L 18.199127 24.72782 C 18.11615 24.801428 17.994424 24.871022 17.833824 24.9366 C 17.673224 25.00084 17.508651 25.033038 17.340021 25.033038 C 17.145963 25.033038 16.962566 24.990191 16.789921 24.904539 C 16.617276 24.818885 16.48533 24.687873 16.394323 24.511213 C 16.304655 24.334553 16.260017 24.11487 16.260017 23.852557 C 16.260017 23.639762 16.297414 23.442562 16.372359 23.260549 C 16.416524 23.154821 16.478195 23.057544 16.557157 22.969216 C 16.637457 22.880886 16.742403 22.810181 16.872221 22.756648 C 17.002039 22.701776 17.155964 22.674348 17.333962 22.674348 C 17.482517 22.674348 17.617618 22.700414 17.739405 22.752609 C 17.861194 22.803465 17.955062 22.871697 18.020641 22.95735 C 18.086219 23.043003 18.141077 23.160642 18.185242 23.310535 L 18.536407 23.21435 C 18.485551 23.016277 18.411187 22.855539 18.313489 22.732412 C 18.215791 22.609286 18.080689 22.513624 17.908046 22.445371 C 17.736739 22.375777 17.544737 22.341106 17.331942 22.341106 z M 8.780016 22.391093 L 8.780016 25.334218 L 9.1695547 25.334218 L 9.1695547 23.997214 L 10.550486 23.997214 L 10.550486 23.649835 L 9.1695547 23.649835 L 9.1695547 22.738471 L 10.765325 22.738471 L 10.765325 22.391093 L 8.780016 22.391093 z M 23.504982 23.154013 C 23.363119 23.154013 23.236623 23.186211 23.125541 23.250451 C 23.01446 23.313352 22.925612 23.397003 22.858696 23.501391 L 22.858696 23.202232 L 22.535301 23.202232 L 22.535301 25.334218 L 22.896817 25.334218 L 22.896817 24.227958 C 22.896817 24.0339 22.91607 23.885426 22.954881 23.782374 C 22.993693 23.679323 23.056045 23.601124 23.141698 23.547591 C 23.22869 23.494058 23.322988 23.46731 23.424701 23.46731 C 23.558534 23.46731 23.654876 23.507431 23.713762 23.587731 C 23.772649 23.668031 23.802122 23.788395 23.802122 23.948995 L 23.802122 25.334218 L 24.163385 25.334218 L 24.163385 24.095419 C 24.163385 23.875933 24.213045 23.71681 24.312082 23.617773 C 24.411117 23.5174 24.53557 23.46731 24.685463 23.46731 C 24.76844 23.46731 24.840759 23.486563 24.902322 23.525375 C 24.963886 23.564186 25.006051 23.615637 25.028802 23.679877 C 25.052892 23.742779 25.064904 23.846615 25.064904 23.991155 L 25.064904 25.334218 L 25.424148 25.334218 L 25.424148 23.870734 C 25.424148 23.627157 25.367246 23.447167 25.253488 23.330732 C 25.13973 23.212958 24.9772 23.154013 24.765744 23.154013 C 24.495401 23.154013 24.27597 23.278466 24.10734 23.527394 C 24.065852 23.409621 23.994214 23.318049 23.892501 23.25247 C 23.792126 23.186893 23.662905 23.154013 23.504982 23.154013 z M 30.356621 23.154013 C 30.214758 23.154013 30.088261 23.186211 29.977181 23.250451 C 29.866099 23.313352 29.776999 23.397003 29.710083 23.501391 L 29.710083 23.202232 L 29.38694 23.202232 L 29.38694 25.334218 L 29.748456 25.334218 L 29.748456 24.227958 C 29.748456 24.0339 29.767709 23.885426 29.806521 23.782374 C 29.845332 23.679323 29.907684 23.601124 29.993338 23.547591 C 30.080329 23.494058 30.174627 23.46731 30.27634 23.46731 C 30.410173 23.46731 30.506515 23.507431 30.565402 23.587731 C 30.624288 23.668031 30.653761 23.788395 30.653761 23.948995 L 30.653761 25.334218 L 31.015025 25.334218 L 31.015025 24.095419 C 31.015025 23.875933 31.064684 23.71681 31.163721 23.617773 C 31.262758 23.5174 31.38721 23.46731 31.537102 23.46731 C 31.620079 23.46731 31.692146 23.486563 31.753709 23.525375 C 31.815272 23.564186 31.857438 23.615637 31.880189 23.679877 C 31.904279 23.742779 31.916543 23.846615 31.916543 23.991155 L 31.916543 25.334218 L 32.275787 25.334218 L 32.275787 23.870734 C 32.275787 23.627157 32.218885 23.447167 32.105127 23.330732 C 31.991369 23.212958 31.82884 23.154013 31.617383 23.154013 C 31.347041 23.154013 31.127608 23.278466 30.95898 23.527394 C 30.917491 23.409621 30.845853 23.318049 30.74414 23.25247 C 30.643765 23.186893 30.514544 23.154013 30.356621 23.154013 z M 12.325247 23.266355 L 12.325247 23.603636 L 14.268396 23.603636 L 14.268396 23.266355 L 12.325247 23.266355 z M 12.325247 24.159795 L 12.325247 24.497076 L 14.268396 24.497076 L 14.268396 24.159795 L 12.325247 24.159795 z M 26.25826 24.488997 C 26.230357 24.545397 26.182962 24.603734 26.115875 24.663696 C 26.048789 24.723658 25.970486 24.774532 25.880839 24.816684 L 25.880839 24.971692 C 25.930709 24.953287 25.986638 24.925695 26.048975 24.888886 C 26.111905 24.852078 26.162868 24.815372 26.201458 24.778563 L 26.201458 25.799998 L 26.361767 25.799998 L 26.361767 24.488997 L 26.25826 24.488997 z M 33.020278 24.488997 C 32.896198 24.488997 32.797512 24.521481 32.723895 24.586192 C 32.650278 24.65031 32.607685 24.743778 32.596405 24.86667 L 32.761259 24.883585 C 32.761852 24.801656 32.785386 24.737521 32.831694 24.691214 C 32.878001 24.644906 32.939565 24.621788 33.016744 24.621788 C 33.089766 24.621788 33.148847 24.643747 33.193967 24.687679 C 33.239681 24.731018 33.262635 24.784464 33.262635 24.847989 C 33.262635 24.908543 33.237778 24.972843 33.187908 25.041117 C 33.138039 25.108797 33.042 25.200941 32.900109 25.317303 C 32.808682 25.392107 32.738748 25.457982 32.690066 25.514976 C 32.641978 25.571969 32.607011 25.62989 32.585045 25.688665 C 32.57139 25.724286 32.564923 25.761408 32.566111 25.799998 L 33.429256 25.799998 L 33.429256 25.645748 L 32.788776 25.645748 C 32.806587 25.616657 32.829125 25.587905 32.856434 25.559408 C 32.883744 25.530317 32.94556 25.475548 33.041737 25.394807 C 33.15691 25.297443 33.23911 25.220878 33.288386 25.165073 C 33.338254 25.109266 33.374054 25.055984 33.395427 25.005521 C 33.416799 24.955058 33.427488 24.903767 33.427488 24.851523 C 33.427488 24.748816 33.390946 24.662722 33.317923 24.593261 C 33.2449 24.5238 33.145545 24.488997 33.020278 24.488997 z M 20.353329 24.922715 L 20.353329 25.334218 L 20.764831 25.334218 L 20.764831 24.922715 L 20.353329 24.922715 z M 27.204715 24.922715 L 27.204715 25.334218 L 27.61647 25.334218 L 27.61647 24.922715 L 27.204715 24.922715 z M 21.809996 25.94314 C 21.700061 25.94314 21.611566 26.031634 21.611566 26.14157 C 21.611566 26.251505 21.700061 26.34 21.809996 26.34 L 33.758457 26.34 C 33.868393 26.34 33.956887 26.251505 33.956887 26.14157 C 33.956887 26.031634 33.868393 25.94314 33.758457 25.94314 L 21.809996 25.94314 z M 29.06102 26.527574 C 28.93694 26.527574 28.838254 26.559806 28.764637 26.624517 C 28.69102 26.688635 28.648427 26.782102 28.637147 26.904995 L 28.802001 26.92191 C 28.802594 26.839981 28.825876 26.776098 28.872183 26.729791 C 28.918491 26.683484 28.980307 26.660113 29.057486 26.660113 C 29.130509 26.660113 29.189589 26.682072 29.234709 26.726004 C 29.280423 26.769343 29.303377 26.822789 29.303377 26.886313 C 29.303377 26.946869 29.278267 27.011421 29.228398 27.079694 C 29.178528 27.147374 29.082742 27.239266 28.940851 27.355628 C 28.849424 27.430432 28.77949 27.496307 28.730808 27.553301 C 28.68272 27.610293 28.647501 27.668215 28.625534 27.72699 C 28.61188 27.762611 28.605665 27.799733 28.606853 27.838323 L 29.469745 27.838323 L 29.469745 27.684325 L 28.829518 27.684325 C 28.847329 27.655234 28.869867 27.626482 28.897176 27.597985 C 28.924486 27.568895 28.986302 27.513873 29.082479 27.433132 C 29.197653 27.335768 29.279852 27.259204 29.329128 27.203397 C 29.378997 27.147591 29.414544 27.094561 29.435916 27.044098 C 29.457289 26.993635 29.467978 26.942092 29.467978 26.889848 C 29.467978 26.78714 29.431436 26.701299 29.358412 26.631838 C 29.285389 26.562377 29.186287 26.527574 29.06102 26.527574 z M 27.78814 26.898936 L 27.78814 27.954957 C 27.725238 27.867965 27.643381 27.79769 27.543006 27.744157 C 27.442631 27.689285 27.328399 27.661856 27.199919 27.661856 C 27.024597 27.661856 26.865904 27.708109 26.72404 27.800454 C 26.582178 27.892799 26.475868 28.025856 26.404937 28.199839 C 26.334005 28.372484 26.298401 28.565167 26.298401 28.777962 C 26.298401 28.996109 26.337412 29.189474 26.415035 29.358104 C 26.493997 29.525396 26.604394 29.65598 26.746256 29.749662 C 26.889458 29.843346 27.045855 29.890028 27.215824 29.890028 C 27.478136 29.890028 27.676952 29.784399 27.812123 29.572944 L 27.812123 29.842061 L 28.147384 29.842061 L 28.147384 26.898936 L 27.78814 26.898936 z M 27.234 27.961016 C 27.398615 27.961016 27.537122 28.029247 27.649542 28.165757 C 27.761962 28.302267 27.818182 28.516247 27.818182 28.808004 C 27.818182 29.072994 27.762642 29.270446 27.651562 29.400264 C 27.541818 29.528744 27.408081 29.59314 27.250157 29.59314 C 27.093574 29.59314 26.957539 29.525337 26.842442 29.390166 C 26.727345 29.254994 26.669762 29.05098 26.669762 28.777962 C 26.669762 28.495574 26.72351 28.288835 26.830577 28.157679 C 26.93898 28.026522 27.0734 27.961016 27.234 27.961016 z " /></g></svg>
