<?xml version="1.0" encoding="UTF-8" standalone="no"?>
<!-- Created with Inkscape (http://www.inkscape.org/) -->

<svg
   width="200"
   height="200"
   viewBox="0 0 52.916665 52.916666"
   version="1.1"
   id="svg1"
   inkscape:version="1.3.2 (091e20e, 2023-11-25, custom)"
   sodipodi:docname="galileo_atm.svg"
   xmlns:inkscape="http://www.inkscape.org/namespaces/inkscape"
   xmlns:sodipodi="http://sodipodi.sourceforge.net/DTD/sodipodi-0.dtd"
   xmlns="http://www.w3.org/2000/svg"
   xmlns:svg="http://www.w3.org/2000/svg">
  <sodipodi:namedview
     id="namedview1"
     pagecolor="#000000"
     bordercolor="#000000"
     borderopacity="0.25"
     inkscape:showpageshadow="2"
     inkscape:pageopacity="0.0"
     inkscape:pagecheckerboard="0"
     inkscape:deskcolor="#d1d1d1"
     inkscape:document-units="mm"
     inkscape:zoom="5.6568542"
     inkscape:cx="116.31907"
     inkscape:cy="93.07293"
     inkscape:window-width="2560"
     inkscape:window-height="1057"
     inkscape:window-x="-8"
     inkscape:window-y="-8"
     inkscape:window-maximized="1"
     inkscape:current-layer="layer1" />
  <defs
     id="defs1" />
  <g
     inkscape:groupmode="layer"
     id="layer1"
     inkscape:label="galileo atmosferic probe"
     transform="matrix(1.4521042,-0.83837275,0.83837275,1.4521042,-38.679976,-0.77243237)"
     style="stroke-width:0.596391">
    <path
       id="path26"
       style="fill:#5a5a5a;stroke-width:0.315591;stroke-linecap:round"
       d="m 30.517263,27.515492 a 10.818945,5.7401991 45.000002 0 0 -11.640928,-3.64361 10.818945,5.7401991 45.000002 0 0 -0.06798,0.05199 l -0.360762,5.862168 -0.428458,6.962733 -0.022,0.356763 a 3.0376766,3.0376766 45 0 0 0.877198,2.052887 3.0376766,3.0376766 45 0 0 2.052886,0.877197 l 0.356763,-0.02199 6.962734,-0.428458 5.862167,-0.360762 a 10.818945,5.7401991 45.000002 0 0 0.05713,-0.06284 10.818945,5.7401991 45.000002 0 0 -3.648751,-11.646069 z m -6.993869,7.783946 a 3.0376766,3.0376766 45 0 1 0.07684,0.11854 3.0376766,3.0376766 45 0 0 -0.07684,-0.11854 z m -0.790363,-0.786364 a 3.0376766,3.0376766 45 0 0 -0.11654,-0.07484 3.0376766,3.0376766 45 0 1 0.11654,0.07484 z m 1.268523,1.95177 a 3.0376766,3.0376766 45 0 1 0.02142,0.133394 3.0376766,3.0376766 45 0 0 -0.02142,-0.133394 z m -2.427931,-2.422789 a 3.0376766,3.0376766 45 0 0 -0.132251,-0.02085 3.0376766,3.0376766 45 0 1 0.132251,0.02085 z m 2.366233,3.776718 a 3.0376766,3.0376766 45 0 1 -0.03399,0.122539 3.0376766,3.0376766 45 0 0 0.03399,-0.122539 z M 20.21741,34.101468 a 3.0376766,3.0376766 45 0 0 -0.115398,0.03085 3.0376766,3.0376766 45 0 1 0.115398,-0.03085 z m 3.42938,4.424547 a 3.0376766,3.0376766 45 0 1 -0.0677,0.107114 3.0376766,3.0376766 45 0 0 0.0677,-0.107114 z m -4.137194,-4.136623 a 3.0376766,3.0376766 45 0 0 -0.1054,0.06598 3.0376766,3.0376766 45 0 1 0.1054,-0.06598 z m -1.022016,0.974029 a 3.0376766,3.0376766 45 0 0 -0.06255,0.09854 3.0376766,3.0376766 45 0 1 0.06255,-0.09854 z m 4.181754,4.181753 a 3.0376766,3.0376766 45 0 1 -0.09855,0.06255 3.0376766,3.0376766 45 0 0 0.09855,-0.06255 z m -4.495671,-3.527926 a 3.0376766,3.0376766 45 0 0 -0.03256,0.109685 3.0376766,3.0376766 45 0 1 0.03256,-0.109685 z m 3.841843,3.841843 a 3.0376766,3.0376766 45 0 1 -0.109685,0.03256 3.0376766,3.0376766 45 0 0 0.109685,-0.03256 z" />
    <path
       d="m 26.427776,39.697134 -8.09215,-8.09215 -0.316488,5.143785 -0.022,0.356763 a 3.0376766,3.0376766 0 0 0 0.877198,2.052887 3.0376766,3.0376766 0 0 0 2.052886,0.877197 l 0.356763,-0.02199 z"
       style="fill:#9a7200;stroke-width:0.315591;stroke-linecap:round"
       id="path32" />
    <path
       id="rect32"
       style="fill:#505050;fill-opacity:1;stroke-width:0.315591;stroke-linecap:round"
       d="m 30.216244,2.2474052 c -0.243063,0 -0.438695,0.1956321 -0.438695,0.4386945 v 0.7250982 c 0,0.2430625 0.195632,0.4386945 0.438695,0.4386945 l 21.638221,-7e-7 c 0.243063,0 0.438695,-0.195632 0.438695,-0.4386945 V 2.6860991 c 0,-0.2430625 -0.195632,-0.4386945 -0.438695,-0.4386945 z"
       transform="rotate(45.000002)" />
    <path
       id="path10"
       style="fill:#000000;stroke-width:0.315592;stroke-linecap:round;stroke-opacity:0.5;fill-opacity:0.15000001"
       d="m 30.105613,27.140576 -3.071971,3.071604 -1.132864,1.133134 -3.912509,3.912301 -3.455687,3.455761 a 3.0376766,3.0376766 0 0 0 0.341682,0.444958 3.0376766,3.0376766 0 0 0 2.052872,0.877396 l 0.356873,-0.02207 5.143585,-0.316478 1.819122,-0.11201 5.552156,-0.341801 0.145495,0.145567 c 0.17187,0.171872 0.448365,0.171957 0.620236,8.6e-5 l 0.512809,-0.512829 c 0.17187,-0.171871 0.171689,-0.448519 -1.81e-4,-0.620391 l -0.248404,-0.248398 a 10.818945,5.7401991 45.000002 0 1 -0.174179,0.42435 10.818945,5.7401991 45.000002 0 1 -0.221408,0.385339 10.818945,5.7401991 45.000002 0 1 -0.26729,0.344613 10.818945,5.7401991 45.000002 0 0 0.26729,-0.344613 10.818945,5.7401991 45.000002 0 0 0.221408,-0.385339 10.818945,5.7401991 45.000002 0 0 0.174179,-0.42435 10.818945,5.7401991 45.000002 0 0 -4.311609,-10.491819 10.818945,5.7401991 45.000002 0 0 -0.411605,-0.375007 z"
       inkscape:label="shadow" />
  </g>
</svg>
