<?xml version="1.0" encoding="UTF-8" standalone="no"?>
<!-- Created with Inkscape (http://www.inkscape.org/) -->

<svg
   width="200"
   height="200"
   viewBox="0 0 52.916665 52.916666"
   version="1.1"
   id="svg1"
   inkscape:version="1.3.2 (091e20e, 2023-11-25, custom)"
   sodipodi:docname="gravity.svg"
   xml:space="preserve"
   xmlns:inkscape="http://www.inkscape.org/namespaces/inkscape"
   xmlns:sodipodi="http://sodipodi.sourceforge.net/DTD/sodipodi-0.dtd"
   xmlns="http://www.w3.org/2000/svg"
   xmlns:svg="http://www.w3.org/2000/svg"><sodipodi:namedview
     id="namedview1"
     pagecolor="#000000"
     bordercolor="#000000"
     borderopacity="0.25"
     inkscape:showpageshadow="2"
     inkscape:pageopacity="0.0"
     inkscape:pagecheckerboard="0"
     inkscape:deskcolor="#d1d1d1"
     inkscape:document-units="mm"
     inkscape:zoom="4"
     inkscape:cx="42.75"
     inkscape:cy="104.125"
     inkscape:window-width="2560"
     inkscape:window-height="1057"
     inkscape:window-x="-8"
     inkscape:window-y="-8"
     inkscape:window-maximized="1"
     inkscape:current-layer="layer1" /><defs
     id="defs1" /><g
     inkscape:label="gravidade"
     inkscape:groupmode="layer"
     id="layer1"
     style="display:inline;stroke-width:0.942819"
     transform="matrix(1.0606485,0,0,1.0606485,2.208078,-3.256589)"><g
       id="g4"
       inkscape:label="apple"
       transform="matrix(0.98451811,0.26380083,-0.26380083,0.98451811,4.5247207,-14.878275)"
       style="stroke-width:0.925014"><path
         id="path2"
         style="fill:#ee3a3a;fill-opacity:1;stroke-width:0.489487;stroke-linecap:round"
         d="m 26.458955,13.201217 c -2.081298,-0.598616 -2.942316,0.968861 -2.865315,2.37042 0.07182,1.307187 1.28285,2.370436 2.865315,2.37042 1.582465,1.7e-5 2.809042,-1.062472 2.865316,-2.37042 0.05907,-1.37289 -0.623812,-3.081506 -2.865316,-2.37042 z"
         sodipodi:nodetypes="cscsc" /><path
         d="m 26.458813,17.942035 c 1.582464,1.7e-5 2.809184,-1.062451 2.865458,-2.370398 0.05907,-1.372888 -0.623956,-3.081483 -2.865458,-2.370398 z"
         style="display:inline;fill:#000000;fill-opacity:0.15;stroke-width:0.489487;stroke-linecap:round"
         id="path7" /><path
         sodipodi:type="star"
         style="fill:#3aee48;fill-opacity:1;stroke-width:1.14259;stroke-linecap:round"
         id="path4"
         inkscape:flatsided="true"
         sodipodi:sides="3"
         sodipodi:cx="25.854752"
         sodipodi:cy="10.351823"
         sodipodi:r1="1.7861097"
         sodipodi:r2="0.89305484"
         sodipodi:arg1="1.5707963"
         sodipodi:arg2="2.6179939"
         inkscape:rounded="0"
         inkscape:randomized="0"
         d="m 25.854752,12.137933 -1.546817,-2.6791649 3.093633,-1e-7 z"
         transform="matrix(0.08175371,-0.30510899,0.56121658,0.15037753,19.519612,17.978157)"
         inkscape:transform-center-x="-0.18736957"
         inkscape:transform-center-y="-0.13429507" /><path
         id="rect4"
         style="fill:#a10e0e;fill-opacity:1;stroke-width:0.489487;stroke-linecap:round"
         d="m 28.936161,3.6784549 c -0.03187,0.021496 -0.05292,0.058049 -0.05292,0.099548 l 2.93e-4,2.3561636 c 0,0.066399 0.05343,0.11959 0.119826,0.11959 0.0664,0 0.119829,-0.053013 0.119829,-0.119412 l 1.21e-4,-2.3564026 c 0,-0.066399 -0.05367,-0.120004 -0.120065,-0.120004 -0.0249,0 -0.04796,0.00762 -0.06709,0.020517 z"
         transform="rotate(15)" /></g><g
       id="g7"
       inkscape:label="earth"
       transform="matrix(1.0192482,0,0,1.0192482,-0.44008474,2.0827312)"
       style="stroke-width:0.925014"><circle
         style="fill:#3aee48;fill-opacity:1;stroke-width:0.489487;stroke-linecap:round"
         id="path1"
         cx="26.458334"
         cy="38.496872"
         r="11.377083"
         inkscape:label="earth" /><path
         id="path1-6"
         style="display:inline;fill:#000000;fill-opacity:0.15;stroke-width:0.489487;stroke-linecap:round"
         inkscape:label="shadow"
         d="M 26.458333,49.873954 A 11.377083,11.377083 0 0 0 37.835417,38.496872 11.377083,11.377083 0 0 0 26.458333,27.119788 Z" /></g><g
       id="g8"
       transform="matrix(1.0192482,0,0,1.0192482,-0.44008398,-0.53925329)"
       style="stroke-width:0.925014"><path
         id="rect7"
         style="fill:#3a7fee;fill-opacity:1;stroke-width:0.489487;stroke-linecap:round"
         d="m 26.45837,10.570707 c -0.172946,0 -0.312143,0.139198 -0.312143,0.312144 v 6.064092 c 0,0.172946 0.139197,0.312144 0.312143,0.312144 0.172946,0 0.312143,-0.139198 0.312143,-0.312144 v -6.064092 c 0,-0.172946 -0.139197,-0.312144 -0.312143,-0.312144 z" /><path
         sodipodi:type="star"
         style="fill:#3a7fee;fill-opacity:1;stroke-width:0.489487;stroke-linecap:round"
         id="path8"
         inkscape:flatsided="true"
         sodipodi:sides="3"
         sodipodi:cx="25.788607"
         sodipodi:cy="17.404621"
         sodipodi:r1="1.1356122"
         sodipodi:r2="0.56780607"
         sodipodi:arg1="-0.52359878"
         sodipodi:arg2="0.52359878"
         inkscape:rounded="0"
         inkscape:randomized="0"
         d="m 26.772076,16.836815 -0.983469,1.703418 -0.983469,-1.703418 z"
         inkscape:transform-center-y="0.28390281"
         transform="translate(0.66972688,-0.11575521)" /></g><g
       id="g9"
       transform="matrix(1.0192482,0,0,-1.0192482,-0.44008418,40.121513)"
       style="stroke-width:0.925014"><path
         id="rect8"
         style="fill:#3a7fee;fill-opacity:1;stroke-width:0.489487;stroke-linecap:round"
         d="m 26.45837,17.259018 c -0.172946,0 -0.312143,-0.139198 -0.312143,-0.312144 v -6.064092 c 0,-0.172946 0.139197,-0.312143 0.312143,-0.312143 0.172946,0 0.312144,0.139197 0.312144,0.312143 v 6.064092 c 0,0.172946 -0.139198,0.312144 -0.312144,0.312144 z" /><path
         sodipodi:type="star"
         style="fill:#3a7fee;fill-opacity:1;stroke-width:0.489487;stroke-linecap:round"
         id="path9"
         inkscape:flatsided="true"
         sodipodi:sides="3"
         sodipodi:cx="25.788607"
         sodipodi:cy="17.404621"
         sodipodi:r1="1.1356122"
         sodipodi:r2="0.56780607"
         sodipodi:arg1="-0.52359878"
         sodipodi:arg2="0.52359878"
         inkscape:rounded="0"
         inkscape:randomized="0"
         d="m 26.772076,16.836815 -0.983469,1.703418 -0.983469,-1.703418 z"
         inkscape:transform-center-y="0.28390281"
         transform="translate(0.66972688,-0.11575521)" /></g><g
       id="g14"
       transform="matrix(1.0192482,0,0,-1.0192482,-15.619286,38.761763)"
       style="display:inline;stroke-width:0.925014"><path
         id="rect14"
         style="fill:#3a7fee;fill-opacity:1;stroke-width:0.489489;stroke-linecap:round"
         d="m 25.488005,30.896839 c -0.172946,0 -0.312143,-0.139197 -0.312143,-0.312143 0,-0.172946 0.139197,-0.312144 0.312143,-0.312144 h 0.658226 V -1.8739242 h -0.658226 c -0.172946,0 -0.312143,-0.1391975 -0.312143,-0.3121435 0,-0.172946 0.139197,-0.3121434 0.312143,-0.3121434 h 0.97037 0.970369 c 0.172946,0 0.312144,0.1391974 0.312144,0.3121434 0,0.172946 -0.139198,0.3121435 -0.312144,0.3121435 H 26.770518 V 30.272552 h 0.658226 c 0.172946,0 0.312144,0.139198 0.312144,0.312144 0,0.172946 -0.139198,0.312143 -0.312144,0.312143 z" /></g><g
       id="g16"
       transform="matrix(1.0192482,0,0,1.0192482,-0.23216475,-0.53925329)"
       style="stroke-width:0.925014"><path
         id="text11"
         style="font-style:normal;font-variant:normal;font-weight:normal;font-stretch:normal;font-size:2.91989px;font-family:'Segoe Print';-inkscape-font-specification:'Segoe Print, Normal';font-variant-ligatures:normal;font-variant-caps:normal;font-variant-numeric:normal;font-variant-east-asian:normal;fill:#ffffff;fill-opacity:1;stroke-width:0.489489;stroke-linecap:round"
         d="m 26.945586,6.5692479 c -0.04657,0 -0.23375,0.2258667 -0.561667,0.6773466 -0.29465,0.4068072 -0.465869,0.6152657 -0.514343,0.625721 -0.01141,0 -0.0264,-0.013545 -0.04446,-0.041109 -0.01711,-0.028515 -0.06306,-0.1523279 -0.138146,-0.3709392 L 25.495768,6.9258467 c -0.01711,-0.044673 -0.03162,-0.085297 -0.04398,-0.1214156 -0.0095,-0.036118 -0.02981,-0.077716 -0.06023,-0.1252398 -0.03041,-0.048475 -0.05944,-0.072658 -0.087,-0.072658 -0.130216,0 -0.19503,0.041114 -0.19503,0.1238058 0,0.079841 -0.0092,0.1891473 -0.02725,0.327918 -0.01806,0.1387706 -0.06498,0.3554497 -0.141015,0.6500997 l -0.124283,0.4679762 c -0.05513,0.208156 -0.0827,0.3537407 -0.0827,0.4373833 0,0.032317 0.01451,0.065688 0.04302,0.099905 0.02947,0.034218 0.06139,0.051148 0.0956,0.051148 0.01806,0 0.04128,-0.00968 0.06979,-0.029637 0.02946,-0.01996 0.04494,-0.038819 0.04685,-0.055928 0.01331,-0.1378202 0.06893,-0.4188293 0.166827,-0.8436956 0.05038,-0.2214628 0.091,-0.4091227 0.121416,-0.5631011 0.01426,-0.073187 0.02683,-0.1263844 0.03824,-0.1587009 0.03137,0.055128 0.108263,0.2640646 0.229925,0.6261991 0.05893,0.1777405 0.106813,0.2962347 0.143882,0.3551648 0.03707,0.05798 0.0748,0.086521 0.113768,0.086521 0.05133,0 0.117101,-0.038212 0.196942,-0.1152015 0.07984,-0.076989 0.218166,-0.2496532 0.414916,-0.5176897 0.19675,-0.268987 0.342329,-0.4556798 0.436427,-0.5602331 0.0048,0.010455 0.0067,0.031254 0.0067,0.06262 0,0.032316 -0.0039,0.072457 -0.01243,0.1199817 -0.01141,0.056079 -0.01721,0.087999 -0.01721,0.095603 0,0.011406 -0.0024,0.040909 -0.0072,0.088433 -0.06558,0.5921515 -0.09847,0.9640864 -0.09847,1.1161639 0,0.1663347 0.04982,0.2495236 0.149619,0.2495236 0.01901,0 0.04416,-0.00435 0.07553,-0.012906 0.03232,-0.00855 0.05359,-0.03709 0.0631,-0.085565 0.0095,-0.049425 0.01386,-0.087148 0.01386,-0.1128115 0,-0.032316 -0.0073,-0.074881 -0.02247,-0.1281078 -0.01711,-0.059881 -0.02581,-0.1140503 -0.02581,-0.162525 0,-0.026613 0.0087,-0.1455914 0.02581,-0.3565988 0.01711,-0.211958 0.03549,-0.3933316 0.05545,-0.5444586 0.05513,-0.4077576 0.0827,-0.6162161 0.0827,-0.625721 0,-0.021861 -0.02322,-0.047495 -0.06979,-0.07696 -0.04562,-0.030416 -0.0877,-0.045889 -0.125718,-0.045889 z" /><path
         id="text12"
         style="font-style:normal;font-variant:normal;font-weight:normal;font-stretch:normal;font-size:1.04812px;font-family:'Segoe Print';-inkscape-font-specification:'Segoe Print, Normal';font-variant-ligatures:normal;font-variant-caps:normal;font-variant-numeric:normal;font-variant-east-asian:normal;fill:#ffffff;fill-opacity:1;stroke-width:0.48949;stroke-linecap:round"
         d="m 27.523028,8.0477468 c -0.0058,0 -0.04102,0.019149 -0.105163,0.057362 -0.06414,0.038213 -0.11735,0.066663 -0.159657,0.085087 -0.04231,0.018083 -0.06624,0.029504 -0.0717,0.033939 -0.0051,0.00444 -0.0076,0.013121 -0.0076,0.026769 0,0.021495 0.0076,0.032505 0.02294,0.032505 0.04743,0 0.102478,-0.020722 0.164915,-0.061664 0.03514,-0.023883 0.06291,-0.035851 0.0827,-0.035851 l -0.02916,0.2160626 c -0.0116,0.084273 -0.01967,0.1590225 -0.02342,0.2241888 -0.01262,0.00751 -0.05523,0.018927 -0.128586,0.033939 -0.02286,0.00409 -0.05022,0.010113 -0.08126,0.018643 -0.03071,0.00819 -0.04589,0.021592 -0.04589,0.039675 0,0.00989 0.0047,0.020016 0.01386,0.030593 0.0096,0.010577 0.02207,0.015774 0.03776,0.015774 0.01672,0 0.04571,-0.00629 0.087,-0.019599 0.0065,-0.00273 0.02632,-0.00895 0.05975,-0.018165 0.03378,-0.00921 0.05265,-0.013862 0.05641,-0.013862 0.0041,-0.00136 0.01045,0.00342 0.01864,0.01434 0.0089,0.0116 0.01578,0.017686 0.02055,0.017686 0.0447,0 0.06692,-0.00903 0.06692,-0.026769 l -0.0019,-0.030115 c 0.02252,-0.010918 0.06766,-0.021518 0.136234,-0.031071 0.04674,-0.00614 0.07984,-0.01216 0.09895,-0.018643 0.01911,-0.00648 0.03053,-0.011407 0.03394,-0.014819 0.0034,-0.00341 0.0048,-0.010866 0.0048,-0.022467 0,-0.010918 -0.0038,-0.024459 -0.01195,-0.040153 -0.04128,0 -0.09579,0.00916 -0.163003,0.027247 -0.04879,0.013647 -0.08592,0.020965 -0.111855,0.021989 -0.0038,-0.012965 -0.0031,-0.058307 0.0024,-0.1357561 0.0055,-0.07779 0.02488,-0.1895392 0.05832,-0.3355662 0.0099,-0.00989 0.01482,-0.019606 0.01482,-0.029159 0,-0.011259 -0.0036,-0.024663 -0.01147,-0.039675 -0.0078,-0.015012 -0.01729,-0.022467 -0.0282,-0.022467 z" /></g><path
       id="text13"
       style="font-style:normal;font-variant:normal;font-weight:normal;font-stretch:normal;font-size:4.44465px;font-family:'Segoe Print';-inkscape-font-specification:'Segoe Print, Normal';font-variant-ligatures:normal;font-variant-caps:normal;font-variant-numeric:normal;font-variant-east-asian:normal;display:inline;fill:#ffffff;fill-opacity:1;stroke-width:0.498909;stroke-linecap:round"
       d="m 30.233323,24.747607 c -0.151917,0 -0.431468,0.02438 -0.839473,0.07357 -0.240172,0.02894 -0.404805,0.04336 -0.493062,0.04336 l -0.286482,-0.03216 c -0.03907,0 -0.08035,0.02289 -0.123753,0.06919 -0.0434,0.04485 -0.0648,0.08664 -0.0648,0.125701 0,0.02749 0.01144,0.07673 0.03459,0.147626 0.01736,0.05643 0.02631,0.0987 0.02631,0.126189 0,0.01881 -0.01989,0.154103 -0.05895,0.405851 -0.164938,1.079331 -0.247018,1.786647 -0.247018,2.12231 0,0.08536 0.02786,0.153505 0.08429,0.204143 0.05643,0.05064 0.118101,0.07601 0.184655,0.07601 0.107065,0 0.160294,-0.07411 0.160294,-0.221683 l -0.0083,-0.268943 c 0,-0.117193 0.007,-0.268906 0.02144,-0.455546 0.01447,-0.188088 0.02839,-0.293039 0.04141,-0.314742 0.01302,-0.02315 0.0543,-0.04553 0.123753,-0.06724 0.07089,-0.02315 0.294234,-0.05647 0.670408,-0.09988 0.306727,-0.03328 0.499724,-0.05864 0.579299,-0.07601 0.08102,-0.01736 0.14568,-0.0472 0.193425,-0.08916 0.04919,-0.04196 0.07357,-0.07678 0.07357,-0.104265 0,-0.138895 -0.08506,-0.208041 -0.255788,-0.208041 -0.04774,0 -0.137769,0.01741 -0.26943,0.05213 -0.130214,0.03472 -0.231194,0.05711 -0.303535,0.06724 l -0.456034,0.05213 c -0.105618,0.01158 -0.208089,0.02501 -0.30792,0.04093 0,-0.180853 0.02587,-0.404192 0.07795,-0.670408 0.05209,-0.267663 0.09188,-0.42633 0.119368,-0.475522 0.04196,-0.03472 0.1862,-0.06557 0.43216,-0.09306 0.247407,-0.02894 0.448363,-0.04336 0.603173,-0.04336 0.08247,0 0.202348,0.01293 0.360052,0.03898 0.02894,0.0058 0.05579,0.0088 0.08039,0.0088 0.05353,0 0.103764,-0.02486 0.150062,-0.07406 0.04775,-0.05064 0.07113,-0.110335 0.07113,-0.179783 0,-0.03906 -0.02885,-0.07886 -0.08672,-0.119368 -0.05787,-0.04051 -0.153375,-0.0609 -0.286482,-0.0609 z" /><path
       id="text14"
       style="font-style:normal;font-variant:normal;font-weight:normal;font-stretch:normal;font-size:4.44465px;font-family:'Segoe Print';-inkscape-font-specification:'Segoe Print, Normal';font-variant-ligatures:normal;font-variant-caps:normal;font-variant-numeric:normal;font-variant-east-asian:normal;display:inline;fill:#ffffff;fill-opacity:1;stroke-width:0.498909;stroke-linecap:round"
       d="m 30.233323,11.962587 c -0.151917,0 -0.431468,0.02438 -0.839473,0.07357 -0.240172,0.02894 -0.404805,0.04336 -0.493062,0.04336 l -0.286482,-0.03264 c -0.03907,0 -0.08035,0.02337 -0.123753,0.06967 -0.0434,0.04485 -0.0648,0.08664 -0.0648,0.125702 0,0.02749 0.01144,0.07673 0.03459,0.147626 0.01736,0.05643 0.02631,0.0987 0.02631,0.126189 0,0.01881 -0.01989,0.154103 -0.05895,0.40585 -0.164938,1.079332 -0.247018,1.786647 -0.247018,2.122311 0,0.08536 0.02786,0.153504 0.08429,0.204143 0.05643,0.05064 0.118101,0.07601 0.184655,0.07601 0.107065,0 0.160294,-0.07411 0.160294,-0.221683 l -0.0083,-0.268943 c 0,-0.117193 0.007,-0.269393 0.02144,-0.456034 0.01447,-0.188087 0.02839,-0.292551 0.04141,-0.314254 0.01302,-0.02315 0.0543,-0.04602 0.123753,-0.06772 0.07089,-0.02315 0.294234,-0.05599 0.670408,-0.09939 0.306727,-0.03328 0.499724,-0.05864 0.579299,-0.07601 0.08102,-0.01736 0.14568,-0.0472 0.193425,-0.08916 0.04919,-0.04196 0.07357,-0.07677 0.07357,-0.104264 0,-0.138895 -0.08506,-0.208041 -0.255788,-0.208041 -0.04774,0 -0.137769,0.01741 -0.26943,0.05213 -0.130214,0.03472 -0.231194,0.05711 -0.303535,0.06724 l -0.456034,0.05164 c -0.105618,0.01157 -0.208089,0.0255 -0.30792,0.04141 0,-0.180853 0.02587,-0.404193 0.07795,-0.670408 0.05209,-0.267663 0.09188,-0.426331 0.119368,-0.475523 0.04196,-0.03472 0.1862,-0.06557 0.43216,-0.09306 0.247407,-0.02894 0.448363,-0.04336 0.603173,-0.04336 0.08247,0 0.202348,0.01293 0.360052,0.03898 0.02894,0.0058 0.05579,0.0088 0.08039,0.0088 0.05353,0 0.103764,-0.02487 0.150062,-0.07406 0.04775,-0.05064 0.07113,-0.110822 0.07113,-0.180269 0,-0.03906 -0.02885,-0.07886 -0.08672,-0.119368 -0.05787,-0.04051 -0.153375,-0.06042 -0.286482,-0.06042 z" /><path
       id="text16"
       style="font-style:normal;font-variant:normal;font-weight:normal;font-stretch:normal;font-size:4.44465px;font-family:'Segoe Print';-inkscape-font-specification:'Segoe Print, Normal';font-variant-ligatures:normal;font-variant-caps:normal;font-variant-numeric:normal;font-variant-east-asian:normal;display:inline;fill:#ffffff;fill-opacity:1;stroke-width:0.498909;stroke-linecap:round"
       d="m 9.9934189,22.405076 c -0.033277,0 -0.079537,0.01691 -0.1388564,0.05018 -0.057873,0.03328 -0.097665,0.09844 -0.1193678,0.195373 L 9.4311723,24.069891 C 9.3024049,23.941123 9.1626368,23.876953 9.012167,23.876953 c -0.3443443,0 -0.665179,0.192008 -0.9632249,0.576864 -0.2965991,0.384855 -0.4453149,0.760395 -0.4453149,1.126442 0,0.179406 0.040782,0.323648 0.1218039,0.43216 0.082469,0.107065 0.1938877,0.160294 0.3342297,0.160294 0.1823,0 0.3817641,-0.08357 0.5987878,-0.251404 0.2170237,-0.169278 0.422453,-0.409524 0.6163275,-0.720591 -0.00723,0.07958 -0.010719,0.158171 -0.010719,0.236299 0,0.460091 0.1193773,0.690385 0.3581033,0.690385 0.1360016,0 0.2683132,-0.04874 0.3970803,-0.145678 0.130215,-0.09694 0.195374,-0.182 0.195374,-0.255788 0,-0.06077 -0.02337,-0.09111 -0.06967,-0.09111 -0.03183,0 -0.06566,0.01293 -0.101828,0.03898 -0.08681,0.05353 -0.1708683,0.08039 -0.2518905,0.08039 -0.1258738,0 -0.1885524,-0.144744 -0.1885524,-0.434109 0,-0.280684 0.046762,-0.65274 0.1408053,-1.115724 0.09549,-0.46443 0.1964554,-0.855887 0.3020736,-1.174189 0.06655,-0.205449 0.09939,-0.323837 0.09939,-0.355667 0,-0.179406 -0.05025,-0.26943 -0.1515241,-0.26943 z m -1.0026894,1.779798 c 0.085363,0 0.1569891,0.03383 0.214862,0.101828 0.05932,0.06655 0.088673,0.131713 0.088673,0.195373 0,0.130214 -0.085063,0.325692 -0.2557881,0.58612 -0.1707254,0.258982 -0.3373515,0.447992 -0.4993959,0.566632 -0.1605975,0.118639 -0.297383,0.177833 -0.4102354,0.177833 -0.1200864,0 -0.1797825,-0.09052 -0.1797825,-0.271379 0,-0.269109 0.1149034,-0.562082 0.3449486,-0.878936 0.2300451,-0.318302 0.4623324,-0.477471 0.696718,-0.477471 z" /><g
       id="g18"
       transform="matrix(2.8071403,0,0,2.8071403,-47.172094,19.797929)"
       style="stroke-width:0.335864"><path
         id="text17"
         style="font-style:normal;font-variant:normal;font-weight:normal;font-stretch:normal;font-size:2.91989px;font-family:'Segoe Print';-inkscape-font-specification:'Segoe Print, Normal';font-variant-ligatures:normal;font-variant-caps:normal;font-variant-numeric:normal;font-variant-east-asian:normal;fill:#ffffff;fill-opacity:1;stroke-width:0.17773;stroke-linecap:round"
         d="m 26.945829,6.5693764 c -0.04657,0 -0.233906,0.225589 -0.561823,0.6770689 -0.29465,0.4068072 -0.46614,0.6155861 -0.514614,0.6260414 -0.01141,0 -0.0262,-0.013917 -0.04426,-0.041481 -0.01711,-0.028515 -0.06324,-0.1519455 -0.138329,-0.3705569 L 25.495884,6.925701 c -0.01711,-0.044673 -0.0319,-0.085028 -0.04426,-0.1211469 -0.0095,-0.036118 -0.02946,-0.077962 -0.05988,-0.125486 -0.03042,-0.048475 -0.05939,-0.072723 -0.08695,-0.072723 -0.130217,0 -0.195259,0.041405 -0.195259,0.1240975 0,0.079841 -0.0092,0.1890896 -0.02725,0.3278603 -0.01806,0.1387707 -0.06507,0.3555166 -0.141107,0.6501666 l -0.123924,0.4675785 c -0.05513,0.208156 -0.08279,0.3540831 -0.08279,0.4377257 0,0.032316 0.01436,0.065581 0.04287,0.099799 0.02947,0.034217 0.06124,0.051375 0.09546,0.051375 0.01806,0 0.04126,-0.010066 0.06977,-0.030026 0.02947,-0.01996 0.04531,-0.038431 0.04721,-0.05554 0.01331,-0.1378202 0.06889,-0.4191701 0.166794,-0.8440365 0.05038,-0.2214628 0.09073,-0.4092332 0.121147,-0.5632116 0.01426,-0.073187 0.02712,-0.1257994 0.03853,-0.1581158 0.03137,0.055128 0.107788,0.2637334 0.22945,0.6258678 0.05893,0.1777406 0.106988,0.2960062 0.144057,0.3549362 0.03707,0.057979 0.07506,0.086955 0.114031,0.086955 0.05133,0 0.11698,-0.03843 0.19682,-0.1154193 0.07984,-0.076989 0.218065,-0.2495281 0.414816,-0.5175646 0.19675,-0.268987 0.342239,-0.4557079 0.436337,-0.5602611 0.0048,0.010455 0.0071,0.03129 0.0071,0.062656 0,0.032317 -0.0043,0.072234 -0.01284,0.1197584 -0.01141,0.056079 -0.01718,0.087856 -0.01718,0.09546 0,0.011406 -0.0024,0.040993 -0.0071,0.088517 -0.06558,0.5921516 -0.09841,0.9642792 -0.09841,1.1163566 0,0.1663347 0.04998,0.2494099 0.149785,0.2494099 0.01901,0 0.04413,-0.00429 0.0755,-0.012844 0.03232,-0.00855 0.05332,-0.037092 0.06283,-0.085567 0.0095,-0.049425 0.01423,-0.086979 0.01423,-0.1126424 0,-0.032316 -0.0077,-0.075036 -0.02291,-0.128263 -0.01711,-0.05988 -0.02551,-0.1139802 -0.02551,-0.1624548 0,-0.026614 0.0084,-0.1454908 0.02551,-0.3564983 0.01711,-0.2119579 0.03575,-0.3935134 0.05571,-0.5446404 0.05513,-0.4077576 0.08262,-0.616363 0.08262,-0.6258678 0,-0.021861 -0.0232,-0.047597 -0.06977,-0.077062 -0.04562,-0.030416 -0.08747,-0.045473 -0.125486,-0.045473 z" /><path
         id="text18"
         style="font-style:normal;font-variant:normal;font-weight:normal;font-stretch:normal;font-size:1.04812px;font-family:'Segoe Print';-inkscape-font-specification:'Segoe Print, Normal';font-variant-ligatures:normal;font-variant-caps:normal;font-variant-numeric:normal;font-variant-east-asian:normal;fill:#ffffff;fill-opacity:1;stroke-width:0.17773;stroke-linecap:round"
         d="m 27.489602,8.0602818 c -0.04128,0 -0.07509,0.00432 -0.101361,0.013191 -0.02627,0.00887 -0.05253,0.021819 -0.0788,0.038878 -0.02593,0.016718 -0.05524,0.036679 -0.088,0.059879 -0.03241,0.023201 -0.0495,0.035969 -0.0512,0.038357 -0.0017,0.00239 -0.0024,0.00688 -0.0024,0.013364 0,0.00887 0.0036,0.020736 0.01111,0.035407 0.0075,0.014671 0.01452,0.021869 0.021,0.021869 0.02729,0 0.04761,-0.00774 0.06092,-0.023431 0.02047,-0.024224 0.05176,-0.049396 0.09372,-0.075326 0.04197,-0.026271 0.07326,-0.039399 0.09407,-0.039399 0.02422,0 0.05048,0.012583 0.0788,0.03749 0.02832,0.024565 0.04252,0.048666 0.04252,0.072549 0,0.0174 -0.0045,0.036463 -0.01371,0.057276 -0.0089,0.020471 -0.02379,0.043848 -0.04461,0.070119 -0.02081,0.026271 -0.05138,0.057738 -0.09164,0.094245 -0.03992,0.036507 -0.0642,0.058448 -0.07307,0.065954 -0.0089,0.00751 -0.03368,0.021352 -0.07428,0.041481 -0.06926,0.035142 -0.118534,0.066609 -0.147876,0.094245 -0.02934,0.027295 -0.04408,0.058767 -0.04408,0.094592 0,0.023542 0.01331,0.035407 0.03992,0.035407 0.01331,0 0.02374,-0.00251 0.03124,-0.00729 0.0078,-0.00444 0.01953,-0.015768 0.03489,-0.034192 0.01365,-0.016377 0.04332,-0.031844 0.08904,-0.046515 0.04572,-0.014671 0.09877,-0.022042 0.159157,-0.022042 0.07062,0 0.12961,0.00629 0.177034,0.018918 0.01535,0.00444 0.03945,0.0066 0.0722,0.0066 h 0.01892 c 0.01808,0 0.03876,-0.00611 0.06196,-0.018398 0.0232,-0.012624 0.03471,-0.030065 0.03471,-0.052242 0,-0.00614 -0.004,-0.013513 -0.0118,-0.022043 -0.0075,-0.00887 -0.01416,-0.013191 -0.01996,-0.013191 -0.0072,0 -0.01777,0.0027 -0.03176,0.00816 -0.01297,0.00512 -0.0234,0.00782 -0.03159,0.00816 -0.0078,3.412e-4 -0.02601,-1.973e-4 -0.05432,-0.00156 -0.10372,-0.00648 -0.177986,-0.00972 -0.222681,-0.00972 -0.03617,0 -0.06297,7.18e-4 -0.08071,0.00208 0.08257,-0.044695 0.158633,-0.1083526 0.228235,-0.1909192 C 27.645111,8.3496604 27.68,8.2850996 27.68,8.2383573 c 0,-0.00409 -0.0076,-0.0201 -0.02256,-0.048077 -0.01501,-0.028318 -0.03803,-0.057087 -0.06908,-0.086087 -0.03071,-0.029342 -0.06362,-0.043911 -0.09876,-0.043911 z" /></g></g></svg>
