<?xml version="1.0" encoding="UTF-8" standalone="no"?>
<!-- Created with Inkscape (http://www.inkscape.org/) -->

<svg
   width="300"
   height="300"
   viewBox="0 0 79.374998 79.375"
   version="1.1"
   id="svg1"
   xml:space="preserve"
   inkscape:version="1.3.2 (091e20e, 2023-11-25, custom)"
   sodipodi:docname="interstellar.svg"
   xmlns:inkscape="http://www.inkscape.org/namespaces/inkscape"
   xmlns:sodipodi="http://sodipodi.sourceforge.net/DTD/sodipodi-0.dtd"
   xmlns:xlink="http://www.w3.org/1999/xlink"
   xmlns="http://www.w3.org/2000/svg"
   xmlns:svg="http://www.w3.org/2000/svg"><sodipodi:namedview
     id="namedview1"
     pagecolor="#000000"
     bordercolor="#000000"
     borderopacity="0.25"
     inkscape:showpageshadow="2"
     inkscape:pageopacity="0.0"
     inkscape:pagecheckerboard="0"
     inkscape:deskcolor="#d1d1d1"
     inkscape:document-units="mm"
     inkscape:zoom="1.6151358"
     inkscape:cx="160.97717"
     inkscape:cy="127.23388"
     inkscape:window-width="1600"
     inkscape:window-height="837"
     inkscape:window-x="-8"
     inkscape:window-y="-8"
     inkscape:window-maximized="1"
     inkscape:current-layer="layer1" /><defs
     id="defs1"><linearGradient
       id="linearGradient45"
       inkscape:collect="always"><stop
         style="stop-color:#b364ff;stop-opacity:1;"
         offset="0"
         id="stop45" /><stop
         style="stop-color:#7fd1fa;stop-opacity:0;"
         offset="1"
         id="stop46" /></linearGradient><linearGradient
       inkscape:collect="always"
       xlink:href="#linearGradient45"
       id="linearGradient46"
       x1="-95.731514"
       y1="20.468328"
       x2="-90.982294"
       y2="20.468328"
       gradientUnits="userSpaceOnUse"
       gradientTransform="matrix(3.9748423,0,0,0.3473195,464.55177,-50.122888)" /></defs><g
     inkscape:label="interstellar ship"
     inkscape:groupmode="layer"
     id="layer1"
     inkscape:highlight-color="#b1e87a"
     transform="rotate(45,59.534057,43.203976)"><g
       id="g45"
       inkscape:label="structure"
       transform="rotate(90,43.013932,47.95704)"><path
         d="m 79.09099,38.68496 -19.462378,5.684632 c 0.01759,0.05115 0.03101,0.103089 0.03101,0.156861 v 6.861348 c 0,0.05377 -0.01342,0.105712 -0.03101,0.156861 l 19.462378,5.684632 z"
         style="fill:#515151;fill-opacity:1;stroke-width:0"
         id="path35"
         inkscape:label="engine" /><path
         id="path32"
         style="fill:#9ea6ca;fill-opacity:1;stroke-width:0"
         inkscape:label="structure"
         d="M 12.940295,37.155355 A 10.801579,10.801579 0 0 0 2.1388875,47.957279 10.801579,10.801579 0 0 0 12.940295,58.758687 10.801579,10.801579 0 0 0 23.333459,50.865112 h 32.744772 v 3.873149 c 0,0.992019 0.798569,1.790588 1.790588,1.790588 0.992019,0 1.790589,-0.798569 1.790589,-1.790588 v -13.56248 c 0,-0.992019 -0.79857,-1.790588 -1.790589,-1.790588 -0.992019,0 -1.790588,0.798569 -1.790588,1.790588 V 45.04893 H 23.339661 A 10.801579,10.801579 0 0 0 12.940295,37.155355 Z" /><path
         id="path43"
         style="fill:#000000;fill-opacity:0.15;stroke-width:0"
         d="M 12.940505,37.155203 A 10.801579,10.801579 0 0 0 2.139098,47.957127 h 57.52052 19.431372 v -9.272302 l -19.431372,5.675106 v 0.166398 c 0,-0.05377 -0.01342,-0.105946 -0.03101,-0.157096 l 0.03101,-0.0093 v -3.184302 c 0,-0.992017 -0.798572,-1.790588 -1.790589,-1.790588 -0.992017,0 -1.790588,0.798571 -1.790588,1.790588 v 3.873147 H 23.339871 A 10.801579,10.801579 0 0 0 12.940505,37.155203 Z"
         inkscape:label="shadow" /></g><g
       id="g27"
       inkscape:label="balls bottom"
       transform="rotate(90,43.013932,47.95704)"><g
         id="g24"
         inkscape:label="the ball"
         transform="matrix(0.62962965,0,0,0.62962965,18.424472,28.740413)"><circle
           style="fill:#d1d5e6;fill-opacity:1;stroke-width:0"
           id="circle24"
           cx="-47.301552"
           cy="34.769714"
           r="12.163258"
           inkscape:label="ball"
           transform="rotate(-90)" /><path
           d="M 46.932796,47.301376 A 12.163258,12.163258 0 0 0 34.769715,35.138294 12.163258,12.163258 0 0 0 22.606633,47.301376 Z"
           style="fill:#000000;fill-opacity:0.15;stroke-width:0"
           id="path24"
           inkscape:label="shadow" /></g><g
         id="g25"
         inkscape:label="the ball"
         transform="matrix(0,-0.62962965,0.62962965,0,-4.78264,80.414916)"><circle
           style="fill:#d1d5e6;fill-opacity:1;stroke-width:0"
           id="circle25"
           cx="34.769714"
           cy="47.301552"
           r="12.163258"
           inkscape:label="ball" /><path
           d="M 34.76989,59.464633 A 12.163258,12.163258 0 0 0 46.932972,47.301552 12.163258,12.163258 0 0 0 34.76989,35.13847 Z"
           style="fill:#000000;fill-opacity:0.15;stroke-width:0"
           id="path25"
           inkscape:label="shadow" /></g><g
         id="g26"
         inkscape:label="the ball"
         transform="matrix(0,-0.62962965,0.62962965,0,25.850751,80.414916)"><circle
           style="fill:#d1d5e6;fill-opacity:1;stroke-width:0"
           id="circle26"
           cx="34.769714"
           cy="47.301552"
           r="12.163258"
           inkscape:label="ball" /><path
           d="M 34.76989,59.464633 A 12.163258,12.163258 0 0 0 46.932972,47.301552 12.163258,12.163258 0 0 0 34.76989,35.13847 Z"
           style="fill:#000000;fill-opacity:0.15;stroke-width:0"
           id="path26"
           inkscape:label="shadow" /></g></g><g
       id="g28"
       inkscape:label="balls top"
       transform="rotate(90,43.013932,47.95704)"><g
         id="g21"
         inkscape:label="the ball"
         transform="matrix(0,-0.62962965,0.62962965,0,9.9050406,58.70944)"><circle
           style="fill:#d1d5e6;fill-opacity:1;stroke-width:0"
           id="circle21"
           cx="34.769714"
           cy="47.301552"
           r="12.163258"
           inkscape:label="ball" /><path
           d="M 34.76989,59.464633 A 12.163258,12.163258 0 0 0 46.932972,47.301552 12.163258,12.163258 0 0 0 34.76989,35.13847 Z"
           style="fill:#000000;fill-opacity:0.15;stroke-width:0"
           id="path21"
           inkscape:label="shadow" /></g><g
         id="g22"
         inkscape:label="the ball"
         transform="matrix(0,-0.62962965,0.62962965,0,-5.4116546,58.70944)"><circle
           style="fill:#d1d5e6;fill-opacity:1;stroke-width:0"
           id="circle22"
           cx="34.769714"
           cy="47.301552"
           r="12.163258"
           inkscape:label="ball" /><path
           d="M 34.76989,59.464633 A 12.163258,12.163258 0 0 0 46.932972,47.301552 12.163258,12.163258 0 0 0 34.76989,35.13847 Z"
           style="fill:#000000;fill-opacity:0.15;stroke-width:0"
           id="path22"
           inkscape:label="shadow" /></g><g
         id="g23"
         inkscape:label="the ball"
         transform="matrix(0,-0.62962965,0.62962965,0,25.221736,58.70944)"><circle
           style="fill:#d1d5e6;fill-opacity:1;stroke-width:0"
           id="circle23"
           cx="34.769714"
           cy="47.301552"
           r="12.163258"
           inkscape:label="ball" /><path
           d="M 34.76989,59.464633 A 12.163258,12.163258 0 0 0 46.932972,47.301552 12.163258,12.163258 0 0 0 34.76989,35.13847 Z"
           style="fill:#000000;fill-opacity:0.15;stroke-width:0"
           id="path23"
           inkscape:label="shadow" /></g></g><g
       id="g29"
       inkscape:label="balls middle"
       transform="rotate(90,42.213881,48.101406)"><g
         id="g17"
         inkscape:label="the ball"
         transform="matrix(0,-0.62962965,0.62962965,0,2.8757076,69.193595)"><circle
           style="fill:#d1d5e6;fill-opacity:1;stroke-width:0"
           id="path14"
           cx="34.769714"
           cy="47.301552"
           r="12.163258"
           inkscape:label="ball" /><path
           d="M 34.76989,59.464633 A 12.163258,12.163258 0 0 0 46.932972,47.301552 12.163258,12.163258 0 0 0 34.76989,35.13847 Z"
           style="fill:#000000;fill-opacity:0.15;stroke-width:0"
           id="path17"
           inkscape:label="shadow" /></g><g
         id="g19"
         inkscape:label="the ball"
         transform="matrix(0.62962965,0,0,0.62962965,-4.5505711,17.519092)"><circle
           style="fill:#d1d5e6;fill-opacity:1;stroke-width:0"
           id="circle19"
           cx="-47.699776"
           cy="34.221355"
           r="12.163258"
           inkscape:label="ball"
           transform="rotate(-90.66143)" /><path
           d="M 46.931983,47.160967 A 12.163258,12.163258 0 0 0 34.629303,35.139105 12.163258,12.163258 0 0 0 22.607441,47.441785 Z"
           style="fill:#000000;fill-opacity:0.15;stroke-width:0"
           id="path19"
           inkscape:label="shadow" /></g><g
         id="g20"
         inkscape:label="the ball"
         transform="matrix(0,-0.62962965,0.62962965,0,18.192403,69.193595)"><circle
           style="fill:#d1d5e6;fill-opacity:1;stroke-width:0"
           id="circle20"
           cx="34.769714"
           cy="47.301552"
           r="12.163258"
           inkscape:label="ball" /><path
           d="M 34.76989,59.464633 A 12.163258,12.163258 0 0 0 46.932972,47.301552 12.163258,12.163258 0 0 0 34.76989,35.13847 Z"
           style="fill:#000000;fill-opacity:0.15;stroke-width:0"
           id="path20"
           inkscape:label="shadow" /></g></g><rect
       style="fill:url(#linearGradient46);stroke-width:0"
       id="rect45"
       width="18.877399"
       height="7.9658628"
       x="84.034096"
       y="-46.996777"
       inkscape:label="flame"
       transform="rotate(90)" /></g></svg>
