<?xml version="1.0" encoding="UTF-8" standalone="no"?>
<!-- Created with Inkscape (http://www.inkscape.org/) -->

<svg
   width="200"
   height="200"
   viewBox="0 0 52.916665 52.916666"
   version="1.1"
   id="svg1"
   inkscape:version="1.3.2 (091e20e, 2023-11-25, custom)"
   sodipodi:docname="jupiter.svg"
   xmlns:inkscape="http://www.inkscape.org/namespaces/inkscape"
   xmlns:sodipodi="http://sodipodi.sourceforge.net/DTD/sodipodi-0.dtd"
   xmlns:xlink="http://www.w3.org/1999/xlink"
   xmlns="http://www.w3.org/2000/svg"
   xmlns:svg="http://www.w3.org/2000/svg">
  <sodipodi:namedview
     id="namedview1"
     pagecolor="#000000"
     bordercolor="#000000"
     borderopacity="0.25"
     inkscape:showpageshadow="2"
     inkscape:pageopacity="0.0"
     inkscape:pagecheckerboard="0"
     inkscape:deskcolor="#d1d1d1"
     inkscape:document-units="mm"
     inkscape:zoom="4.3389452"
     inkscape:cx="80.203825"
     inkscape:cy="116.2725"
     inkscape:window-width="2560"
     inkscape:window-height="1057"
     inkscape:window-x="-8"
     inkscape:window-y="-8"
     inkscape:window-maximized="1"
     inkscape:current-layer="g30" />
  <defs
     id="defs1">
    <linearGradient
       id="linearGradient35"
       inkscape:collect="always">
      <stop
         style="stop-color:#dab176;stop-opacity:1;"
         offset="0.76991153"
         id="stop35" />
      <stop
         style="stop-color:#dab176;stop-opacity:0;"
         offset="1"
         id="stop36" />
    </linearGradient>
    <radialGradient
       inkscape:collect="always"
       xlink:href="#linearGradient35"
       id="radialGradient36"
       cx="26.458334"
       cy="26.458334"
       fx="26.458334"
       fy="26.458334"
       r="20.765768"
       gradientUnits="userSpaceOnUse"
       gradientTransform="matrix(1.2741323,0,0,1.2741323,-7.2530824,-7.2530824)" />
  </defs>
  <g
     inkscape:label="Camada 1"
     inkscape:groupmode="layer"
     id="layer1">
    <circle
       style="fill:url(#radialGradient36);fill-opacity:1;stroke-width:0.110195"
       id="circle35"
       cx="26.458334"
       cy="26.458334"
       r="26.458332"
       inkscape:label="atm" />
    <circle
       style="fill:#dab176;fill-opacity:1;stroke-width:0.101135"
       id="path1"
       cx="37.058517"
       cy="5.1723628"
       r="24.282875"
       inkscape:label="planeta"
       transform="rotate(37.054394)" />
    <g
       id="g30"
       inkscape:label="listras"
       transform="matrix(1.2741323,0,0,1.2741323,-7.2530819,-7.2530819)"
       style="display:inline">
      <path
         d="m 42.416925,16.070497 h -31.88113 a 19.058362,19.058362 0 0 0 -1.5278251,2.84272 H 43.943533 a 19.058362,19.058362 0 0 0 -1.526608,-2.84272 z"
         style="display:inline;fill:#c8a988;stroke-width:0.415315;stroke-linecap:round"
         id="path58" />
      <path
         id="path62"
         style="display:inline;fill:#da9a76;stroke-width:0.415315;stroke-linecap:round"
         d="m 9.0079699,18.913217 a 19.058362,19.058362 0 0 0 -0.4510065,1.034232 19.058362,19.058362 0 0 0 -0.7888558,2.84272 H 45.146082 a 19.058362,19.058362 0 0 0 -0.788856,-2.84272 19.058362,19.058362 0 0 0 -0.413693,-1.034232 z" />
      <path
         d="M 45.226792,29.684241 H 7.7007811 a 19.058362,19.058362 0 0 0 0.7158511,2.84272 H 44.508508 a 19.058362,19.058362 0 0 0 0.718284,-2.84272 z"
         style="display:inline;fill:#da9a76;stroke-width:0.415315;stroke-linecap:round"
         id="path69" />
      <path
         d="M 45.374424,28.650009 H 7.5434155 a 19.058362,19.058362 0 0 0 0.1573656,1.034232 H 45.226792 a 19.058362,19.058362 0 0 0 0.147632,-1.034232 z"
         style="display:inline;fill:#c8a988;stroke-width:0.415315;stroke-linecap:round"
         id="path67" />
      <path
         d="M 45.492448,25.807289 H 7.4197132 a 19.058362,19.058362 0 0 0 0.1237023,2.84272 H 45.374424 a 19.058362,19.058362 0 0 0 0.118024,-2.84272 z"
         style="display:inline;fill:#c8a988;stroke-width:0.415315;stroke-linecap:round"
         id="path65" />
      <path
         d="M 43.195235,35.544081 H 9.7473447 a 19.058362,19.058362 0 0 0 1.9086663,2.84272 h 29.605412 a 19.058362,19.058362 0 0 0 0.39382,-0.444518 19.058362,19.058362 0 0 0 1.539992,-2.398202 z"
         style="display:inline;fill:#c8a988;stroke-width:0.415315;stroke-linecap:round"
         id="path72" />
      <path
         id="path76"
         style="display:inline;fill:#da9a76;stroke-width:0.415315;stroke-linecap:round"
         d="m 11.656011,38.386801 a 19.058362,19.058362 0 0 0 0.85091,1.034232 19.058362,19.058362 0 0 0 2.454578,2.246921 19.058362,19.058362 0 0 0 0.933243,0.595799 h 21.15553 a 19.058362,19.058362 0 0 0 3.294132,-2.84272 19.058362,19.058362 0 0 0 0.917019,-1.034232 z" />
    </g>
    <ellipse
       style="display:inline;fill:#cd7d47;fill-opacity:1;stroke-width:0.10705"
       id="path32"
       cx="38.038219"
       cy="32.75983"
       rx="2.743603"
       ry="1.0391541"
       inkscape:label="jovian tempest" />
    <path
       d="M 40.424082,6.6472252 A 24.282875,24.282875 0 0 1 43.955374,39.669362 24.282875,24.282875 0 0 1 10.935933,45.059784 24.282875,24.282875 0 0 0 11.826297,45.837596 24.282875,24.282875 0 0 0 45.837618,41.090537 24.282875,24.282875 0 0 0 41.090561,7.0792177 24.282875,24.282875 0 0 0 40.424082,6.6472252 Z"
       style="fill:#000000;fill-opacity:0.15000001;stroke-width:0.101135"
       id="path38"
       inkscape:label="sombra" />
  </g>
</svg>
