<?xml version="1.0" encoding="UTF-8" standalone="no"?>
<!-- Created with Inkscape (http://www.inkscape.org/) -->

<svg
   width="200"
   height="200"
   viewBox="0 0 52.916665 52.916666"
   version="1.1"
   id="svg1"
   inkscape:version="1.3.2 (091e20e, 2023-11-25, custom)"
   sodipodi:docname="kepler.svg"
   xml:space="preserve"
   xmlns:inkscape="http://www.inkscape.org/namespaces/inkscape"
   xmlns:sodipodi="http://sodipodi.sourceforge.net/DTD/sodipodi-0.dtd"
   xmlns="http://www.w3.org/2000/svg"
   xmlns:svg="http://www.w3.org/2000/svg"><sodipodi:namedview
     id="namedview1"
     pagecolor="#000000"
     bordercolor="#000000"
     borderopacity="0.25"
     inkscape:showpageshadow="2"
     inkscape:pageopacity="0.0"
     inkscape:pagecheckerboard="0"
     inkscape:deskcolor="#d1d1d1"
     inkscape:document-units="mm"
     inkscape:zoom="11.313709"
     inkscape:cx="163.34167"
     inkscape:cy="58.468891"
     inkscape:window-width="2560"
     inkscape:window-height="1057"
     inkscape:window-x="-8"
     inkscape:window-y="-8"
     inkscape:window-maximized="1"
     inkscape:current-layer="layer1" /><defs
     id="defs1" /><g
     inkscape:label="kepler"
     inkscape:groupmode="layer"
     id="layer1"
     style="display:inline;stroke-width:0.401107"
     transform="matrix(2.1590875,-1.2465498,1.2465498,2.1590875,-54.623338,-6.1887063)"><circle
       style="fill:#feff64;fill-opacity:1;stroke-width:0.212253;stroke-linecap:round"
       id="path24"
       cx="16.318678"
       cy="26.115566"
       r="2.3802507" /><ellipse
       style="fill:none;fill-opacity:1;stroke:#397eef;stroke-width:0.200553;stroke-linecap:round;stroke-dasharray:none;stroke-opacity:1"
       id="path25"
       cx="21.368452"
       cy="26.115566"
       rx="10.311419"
       ry="5.6667142" /><g
       id="g3"
       transform="rotate(135,23.691921,20.348841)"
       style="stroke-width:0.401107"><circle
         style="fill:#3aee48;fill-opacity:1;stroke-width:0.212253;stroke-linecap:round"
         id="path2"
         cx="24.08185"
         cy="20.448853"
         r="0.7254765" /><path
         id="path2-9"
         style="display:inline;fill:#000000;fill-opacity:0.15;stroke-width:0.212253;stroke-linecap:round"
         d="m 24.08193,19.723296 a 0.7254765,0.7254765 0 0 0 -0.725557,0.725556 0.7254765,0.7254765 0 0 0 0.725557,0.725305 z" /></g><rect
       style="fill:#397eef;fill-opacity:1;stroke-width:0.200553;stroke-linecap:round;stroke-dasharray:none"
       id="rect4"
       width="5.2616448"
       height="0.2442655"
       x="11.057034"
       y="25.993433"
       ry="0.12213275" /><rect
       style="fill:#397eef;fill-opacity:1;stroke-width:0.200553;stroke-linecap:round;stroke-dasharray:none"
       id="rect5"
       width="5.0047688"
       height="0.2442655"
       x="-30.998201"
       y="16.074413"
       ry="0.12213275"
       transform="rotate(-90)" /><path
       id="path15"
       style="display:inline;fill:#397eef;stroke-width:0.200554;stroke-linecap:round"
       d="m 16.196548,25.993447 c -0.02924,0.0014 -0.0564,0.01396 -0.07776,0.03358 -0.01237,0.01137 -0.02349,0.02426 -0.0308,0.03989 -0.0016,0.0033 -0.0028,0.007 -0.004,0.0106 0.0012,-0.0036 0.0026,-0.0072 0.004,-0.0106 0.0041,-0.0097 0.0094,-0.01867 0.01565,-0.02676 -0.01942,0.01958 -0.03354,0.04473 -0.0361,0.07448 -0.0058,0.06741 0.04367,0.126476 0.111081,0.132286 l 0.06008,0.0053 13.036292,3.492973 a 10.311419,5.6667142 0 0 0 0.252455,-0.185303 L 17.630242,26.37213 31.328724,27.552359 a 10.311419,5.6667142 0 0 0 0.09366,-0.237056 l -15.140759,-1.304689 -0.04999,-0.01338 c -0.01182,-0.0032 -0.02365,-0.0043 -0.03509,-0.0038 z m -0.07851,0.212315 c 0.0051,0.0046 0.01071,0.0091 0.01666,0.01288 0.0034,0.0021 0.007,0.004 0.0106,0.0058 0.0036,0.0018 0.0072,0.0036 0.01111,0.005 -0.0039,-0.0015 -0.0075,-0.0032 -0.01111,-0.005 -0.0036,-0.0018 -0.0072,-0.0037 -0.0106,-0.0058 -0.006,-0.0038 -0.01149,-0.0082 -0.01666,-0.01288 z" /><text
       xml:space="preserve"
       style="font-size:3.01549px;font-family:'Segoe Print';-inkscape-font-specification:'Segoe Print, Normal';fill:#ffffff;fill-opacity:1;stroke-width:0.200553;stroke-linecap:round;stroke-dasharray:none"
       x="23.913578"
       y="18.23362"
       id="text15"
       transform="rotate(30)"><tspan
         sodipodi:role="line"
         id="tspan15"
         style="fill:#ffffff;fill-opacity:1;stroke-width:0.200554"
         x="23.913578"
         y="18.23362">A</tspan></text><text
       xml:space="preserve"
       style="font-size:2.43953px;font-family:'Segoe Print';-inkscape-font-specification:'Segoe Print, Normal';fill:#ffffff;fill-opacity:1;stroke-width:0.200553;stroke-linecap:round;stroke-dasharray:none"
       x="38.065933"
       y="10.927901"
       id="text16"
       transform="rotate(30)"><tspan
         sodipodi:role="line"
         id="tspan16"
         style="fill:#ffffff;fill-opacity:1;stroke-width:0.200554"
         x="38.065933"
         y="10.927901">A</tspan></text><path
       style="fill:none;fill-opacity:1;stroke:#397eef;stroke-width:0.200552;stroke-linecap:round;stroke-dasharray:none;stroke-opacity:1"
       id="ellipse22"
       sodipodi:type="arc"
       sodipodi:cx="21.368452"
       sodipodi:cy="26.115566"
       sodipodi:rx="10.791262"
       sodipodi:ry="6.2372093"
       sodipodi:start="2.0734094"
       sodipodi:end="3.1415927"
       sodipodi:open="true"
       sodipodi:arc-type="arc"
       d="M 16.170117,31.5814 A 10.791262,6.2372093 0 0 1 10.57719,26.115566" /><rect
       style="fill:#397eef;fill-opacity:1;stroke-width:0.200553;stroke-linecap:round;stroke-dasharray:none"
       id="rect22"
       width="0.5746097"
       height="0.2442655"
       x="10.291954"
       y="25.993433"
       ry="0.12213275" /><rect
       style="fill:#397eef;fill-opacity:1;stroke-width:0.200553;stroke-linecap:round;stroke-dasharray:none"
       id="rect23"
       width="0.5746097"
       height="0.2442655"
       x="-31.877544"
       y="16.047983"
       ry="0.12213275"
       transform="rotate(-90)" /><text
       xml:space="preserve"
       style="font-size:2.30832px;font-family:'Segoe Print';-inkscape-font-specification:'Segoe Print, Normal';fill:#ffffff;fill-opacity:1;stroke-width:0.200553;stroke-linecap:round;stroke-dasharray:none"
       x="24.294817"
       y="21.423782"
       id="text23"
       transform="rotate(30)"><tspan
         sodipodi:role="line"
         id="tspan23"
         style="fill:#ffffff;fill-opacity:1;stroke-width:0.200554"
         x="24.294817"
         y="21.423782">t</tspan></text><path
       style="fill:none;fill-opacity:1;stroke:#397eef;stroke-width:0.200552;stroke-linecap:round;stroke-dasharray:none;stroke-opacity:1"
       id="path23"
       sodipodi:type="arc"
       sodipodi:cx="21.368452"
       sodipodi:cy="26.115566"
       sodipodi:rx="10.791262"
       sodipodi:ry="6.2372093"
       sodipodi:start="0.23000434"
       sodipodi:end="0.6463953"
       sodipodi:open="true"
       sodipodi:arc-type="arc"
       d="m 31.87553,27.537536 a 10.791262,6.2372093 0 0 1 -1.892844,2.334781" /><rect
       style="fill:#397eef;fill-opacity:1;stroke-width:0.200553;stroke-linecap:round;stroke-dasharray:none"
       id="rect24"
       width="0.5746097"
       height="0.2442655"
       x="-37.925232"
       y="-19.464361"
       ry="0.12213275"
       transform="rotate(-162.30362)" /><rect
       style="fill:#397eef;fill-opacity:1;stroke-width:0.200553;stroke-linecap:round;stroke-dasharray:none"
       id="rect25"
       width="0.5746097"
       height="0.2442655"
       x="-36.137619"
       y="-22.202097"
       ry="0.12213275"
       transform="rotate(-170.81089)" /><text
       xml:space="preserve"
       style="font-size:2.30832px;font-family:'Segoe Print';-inkscape-font-specification:'Segoe Print, Normal';fill:#ffffff;fill-opacity:1;stroke-width:0.200553;stroke-linecap:round;stroke-dasharray:none"
       x="41.963356"
       y="10.20091"
       id="text25"
       transform="rotate(30)"><tspan
         sodipodi:role="line"
         id="tspan25"
         style="fill:#ffffff;fill-opacity:1;stroke-width:0.200554"
         x="41.963356"
         y="10.20091">t</tspan></text></g></svg>
