<?xml version="1.0" encoding="UTF-8" standalone="no"?>
<!-- Created with Inkscape (http://www.inkscape.org/) -->

<svg
   width="300"
   height="300"
   viewBox="0 0 79.374998 79.375"
   version="1.1"
   id="svg1"
   inkscape:version="1.3.2 (091e20e, 2023-11-25, custom)"
   sodipodi:docname="manouver.svg"
   xmlns:inkscape="http://www.inkscape.org/namespaces/inkscape"
   xmlns:sodipodi="http://sodipodi.sourceforge.net/DTD/sodipodi-0.dtd"
   xmlns="http://www.w3.org/2000/svg"
   xmlns:svg="http://www.w3.org/2000/svg">
  <sodipodi:namedview
     id="namedview1"
     pagecolor="#000000"
     bordercolor="#000000"
     borderopacity="0.25"
     inkscape:showpageshadow="2"
     inkscape:pageopacity="0.0"
     inkscape:pagecheckerboard="0"
     inkscape:deskcolor="#d1d1d1"
     inkscape:document-units="mm"
     inkscape:zoom="2"
     inkscape:cx="116"
     inkscape:cy="147.75"
     inkscape:window-width="1920"
     inkscape:window-height="1046"
     inkscape:window-x="-11"
     inkscape:window-y="-11"
     inkscape:window-maximized="1"
     inkscape:current-layer="layer1" />
  <defs
     id="defs1">
    <filter
       inkscape:collect="always"
       style="color-interpolation-filters:sRGB"
       id="filter18"
       x="-0.7485845"
       y="-0.7485845"
       width="2.497169"
       height="2.497169">
      <feGaussianBlur
         inkscape:collect="always"
         stdDeviation="0.64555064"
         id="feGaussianBlur18" />
    </filter>
  </defs>
  <g
     inkscape:label="manover"
     inkscape:groupmode="layer"
     id="layer1"
     inkscape:highlight-color="#813ee3">
    <circle
       style="fill:#279500;stroke-width:0.255;fill-opacity:1"
       id="path1"
       cx="26.924381"
       cy="53.02533"
       r="12.763118"
       inkscape:label="earth" />
    <circle
       style="fill:#1e55ff;fill-opacity:1;stroke-width:0.255"
       id="path2"
       cx="58.77771"
       cy="13.488448"
       r="5.731595"
       inkscape:label="moon" />
    <g
       id="g5"
       inkscape:label="ship"
       transform="matrix(0.3642056,0.3642056,-0.3642056,0.3642056,51.562113,22.575728)"
       style="stroke-width:1.9415">
      <g
         id="g7"
         inkscape:label="rocket flame"
         transform="matrix(1.9415044,0,0,1.9415044,-45.705183,-65.266818)"
         style="stroke-width:1.9415">
        <path
           sodipodi:type="star"
           style="fill:#d2b9ff;fill-opacity:1;stroke-width:0.17171"
           id="path6"
           inkscape:flatsided="true"
           sodipodi:sides="3"
           sodipodi:cx="47.153793"
           sodipodi:cy="74.028961"
           sodipodi:r1="1.5391394"
           sodipodi:r2="0.76956969"
           sodipodi:arg1="-2.6179939"
           sodipodi:arg2="-1.5707963"
           inkscape:rounded="0"
           inkscape:randomized="0"
           d="m 45.82086,73.259392 2.665867,-1e-6 -1.332934,2.30871 z"
           inkscape:transform-center-y="0.84861038"
           transform="matrix(1,0,0,2.2054113,1.3910479,-87.53813)" />
        <path
           sodipodi:type="star"
           style="fill:#eadeff;fill-opacity:1;stroke-width:0.353933"
           id="path7"
           inkscape:flatsided="true"
           sodipodi:sides="3"
           sodipodi:cx="47.153793"
           sodipodi:cy="74.028961"
           sodipodi:r1="1.5391394"
           sodipodi:r2="0.76956969"
           sodipodi:arg1="-2.6179939"
           sodipodi:arg2="-1.5707963"
           inkscape:rounded="0"
           inkscape:randomized="0"
           d="m 45.82086,73.259392 2.665867,-1e-6 -1.332934,2.30871 z"
           inkscape:transform-center-y="0.41170158"
           transform="matrix(0.48514846,0,0,1.0699519,25.668251,-4.1096368)" />
      </g>
      <path
         sodipodi:type="star"
         style="fill:#313131;fill-opacity:1;stroke-width:0.482807"
         id="path5"
         inkscape:flatsided="true"
         sodipodi:sides="3"
         sodipodi:cx="47.099571"
         sodipodi:cy="78.366768"
         sodipodi:r1="5.3328471"
         sodipodi:r2="2.6664236"
         sodipodi:arg1="-1.5707963"
         sodipodi:arg2="-0.52359878"
         inkscape:rounded="0"
         inkscape:randomized="0"
         d="m 47.099571,73.033921 4.618381,7.999271 -9.236762,-10e-7 z"
         inkscape:transform-center-y="-2.3972767"
         transform="matrix(0.58477683,0,0,1.7981229,21.002103,-67.24691)" />
      <path
         id="path3"
         style="fill:#ffffff;fill-opacity:1;stroke-width:0.495084"
         inkscape:transform-center-y="-0.88535961"
         d="m 48.544841,60.182953 -6.766512,5.312338 v 1.970422 0.840259 4.5899 c 0,1.091625 0.878797,1.970423 1.970422,1.970423 h 9.59218 c 1.091625,0 1.970422,-0.878798 1.970422,-1.970423 v -4.5899 -0.840259 -1.970422 z" />
      <circle
         style="fill:#3491ff;fill-opacity:1;stroke-width:0.495084"
         id="path4"
         cx="48.544842"
         cy="63.890354"
         r="1.0348341" />
      <path
         id="path18"
         style="fill:#000000;fill-opacity:0.15;stroke-width:0.495084"
         d="m 48.545097,60.183156 v 2.672792 a 1.0348341,1.0348341 0 0 1 1.034402,1.034402 1.0348341,1.0348341 0 0 1 -0.880898,1.004305 1.0348341,1.0348341 0 0 1 -0.153504,0.0311 v 9.940698 3.594825 h 2.700884 L 50.57076,74.866452 h 2.770112 c 1.091621,0 1.970481,-0.878858 1.970481,-1.970481 V 68.305872 67.46611 65.495628 Z" />
      <circle
         style="fill:#66acff;fill-opacity:1;stroke-width:0.495084;filter:url(#filter18)"
         id="circle18"
         cx="48.544842"
         cy="63.890354"
         r="1.0348341" />
    </g>
    <path
       id="path32"
       style="fill:#000000;stroke-width:0.255;fill-opacity:0.15000001"
       d="M 58.777808 7.7566325 L 58.777808 19.220015 A 5.7316273 5.7316273 0 0 0 64.509241 13.488582 A 5.7316273 5.7316273 0 0 0 58.777808 7.7566325 z M 26.924455 40.262142 L 26.924455 65.788232 A 12.763118 12.763118 0 0 0 39.6875 53.025187 A 12.763118 12.763118 0 0 0 26.924455 40.262142 z "
       inkscape:label="shadows" />
    <path
       id="path36"
       style="fill:#ffc801;fill-opacity:1;stroke:none;stroke-width:1.32292;stroke-dasharray:none;stroke-opacity:1"
       inkscape:label="trajectory"
       inkscape:transform-center-x="-0.048981167"
       inkscape:transform-center-y="-0.61011562"
       d="M 68.196147 -1.2064669 L 65.934554 2.7117414 L 67.528865 2.7115913 A 76.022003 76.022003 0 0 1 67.645163 5.0554439 A 76.022003 76.022003 0 0 1 43.126116 58.128559 L 44.214091 59.301386 A 76.675194 76.675194 0 0 0 68.926126 5.7571703 A 76.675194 76.675194 0 0 0 68.95148 2.7117199 L 70.458404 2.7113928 L 68.196147 -1.2064669 z "
       transform="rotate(-2.1493842,123.19199,-66.399957)" />
  </g>
</svg>
