<?xml version="1.0" encoding="UTF-8" standalone="no"?>
<!-- Created with Inkscape (http://www.inkscape.org/) -->

<svg
   width="300"
   height="300"
   viewBox="0 0 79.374998 79.375"
   version="1.1"
   id="svg1"
   inkscape:version="1.3.2 (091e20e, 2023-11-25, custom)"
   sodipodi:docname="mariner1.svg"
   xmlns:inkscape="http://www.inkscape.org/namespaces/inkscape"
   xmlns:sodipodi="http://sodipodi.sourceforge.net/DTD/sodipodi-0.dtd"
   xmlns="http://www.w3.org/2000/svg"
   xmlns:svg="http://www.w3.org/2000/svg">
  <sodipodi:namedview
     id="namedview1"
     pagecolor="#000000"
     bordercolor="#000000"
     borderopacity="0.25"
     inkscape:showpageshadow="2"
     inkscape:pageopacity="0.0"
     inkscape:pagecheckerboard="0"
     inkscape:deskcolor="#d1d1d1"
     inkscape:document-units="mm"
     inkscape:zoom="2.9540684"
     inkscape:cx="107.64815"
     inkscape:cy="167.73478"
     inkscape:window-width="2560"
     inkscape:window-height="1057"
     inkscape:window-x="-8"
     inkscape:window-y="-8"
     inkscape:window-maximized="1"
     inkscape:current-layer="layer1" />
  <defs
     id="defs1" />
  <g
     inkscape:label="mariner 1"
     inkscape:groupmode="layer"
     id="layer1"
     transform="matrix(1.3740444,0.7933049,-0.7933049,1.3740444,28.340101,-51.468296)"
     style="stroke-width:0.630275">
    <rect
       style="fill:#727272;fill-opacity:1;stroke-width:0.333521;stroke-linecap:round"
       id="rect10"
       width="0.43872735"
       height="1.3561974"
       x="33.363239"
       y="52.379166"
       ry="0"
       rx="0.21936367" />
    <g
       id="g6"
       inkscape:label="antenna"
       transform="rotate(-135,26.338948,41.316864)"
       style="stroke-width:0.630275">
      <rect
         style="fill:#646464;fill-opacity:1;stroke-width:0.333521;stroke-linecap:round"
         id="rect6"
         width="0.53739446"
         height="7.6354795"
         x="12.302812"
         y="27.474291"
         ry="0.26869723" />
      <path
         sodipodi:type="star"
         style="fill:#929292;fill-opacity:1;stroke-width:0.228438;stroke-linecap:round"
         id="path5"
         inkscape:flatsided="true"
         sodipodi:sides="3"
         sodipodi:cx="12.571509"
         sodipodi:cy="33.534584"
         sodipodi:r1="4.1424952"
         sodipodi:r2="2.0712476"
         sodipodi:arg1="-0.52359878"
         sodipodi:arg2="0.52359878"
         inkscape:rounded="0"
         inkscape:randomized="0"
         d="M 16.159015,31.463336 12.571509,37.677079 8.9840033,31.463336 Z"
         inkscape:transform-center-y="1.1027971"
         transform="matrix(2.0017735,0,0,1.0648636,-12.593805,-2.0408258)" />
      <path
         id="path5-4"
         style="fill:#000000;fill-opacity:0.15;stroke-width:0.333521;stroke-linecap:round"
         inkscape:transform-center-y="1.1027971"
         d="m 5.3901348,31.463336 7.1809572,6.617166 v -6.617166 z" />
    </g>
    <rect
       style="fill:#616161;fill-opacity:1;stroke-width:0.333521;stroke-linecap:round"
       id="rect4"
       width="13.999273"
       height="0.88115638"
       x="-44.359238"
       y="35.074059"
       ry="0.236012"
       transform="rotate(-90)" />
    <rect
       style="fill:#8e8e8e;fill-opacity:1;stroke-width:0.333521;stroke-linecap:round"
       id="rect1"
       width="11.464416"
       height="11.464416"
       x="-52.94141"
       y="29.782427"
       ry="1.5576651"
       transform="rotate(-90)" />
    <g
       id="g1"
       style="fill:#0057b6;fill-opacity:1">
      <rect
         style="fill:#0057b6;fill-opacity:1;stroke-width:0.333521;stroke-linecap:round"
         id="rect2"
         width="7.3465748"
         height="20.519745"
         x="-50.882488"
         y="41.757828"
         ry="2.2391436"
         transform="rotate(-90)" />
      <rect
         style="fill:#0057b6;fill-opacity:1;stroke-width:0.333521;stroke-linecap:round"
         id="rect3"
         width="7.3465748"
         height="20.519745"
         x="-50.882488"
         y="8.7516994"
         ry="2.2391436"
         transform="rotate(-90)" />
    </g>
    <rect
       style="fill:#606060;fill-opacity:1;stroke-width:0.333521;stroke-linecap:round"
       id="rect5"
       width="5.4635105"
       height="1.9256636"
       x="-31.8971"
       y="34.551807"
       ry="0.9628318"
       transform="rotate(-90)" />
    <path
       id="path10"
       style="fill:#000000;fill-opacity:0.15;stroke-width:0.333521;stroke-linecap:round"
       d="m 35.514628,26.433529 v 5.463749 c 0.533408,0 0.962732,-0.429841 0.962732,-0.963249 v -3.537768 c 0,-0.533409 -0.429324,-0.962732 -0.962732,-0.962732 z m 0,15.043526 v 11.464416 h 4.174422 c 0.862944,0 1.558045,-0.694584 1.558045,-1.557527 v -8.349361 c 0,-0.862946 -0.695101,-1.557528 -1.558045,-1.557528 z m 8.48217,2.058789 c -1.240483,0 -2.23914,0.998657 -2.23914,2.23914 v 2.868558 c 0,1.240483 0.998657,2.23914 2.23914,2.23914 h 16.041398 c 1.240482,0 2.23914,-0.998657 2.23914,-2.23914 v -2.868558 c 0,-1.240483 -0.998658,-2.23914 -2.23914,-2.23914 z" />
  </g>
</svg>
