<?xml version="1.0" encoding="UTF-8" standalone="no"?>
<!-- Created with Inkscape (http://www.inkscape.org/) -->

<svg
   width="200"
   height="200"
   viewBox="0 0 52.916667 52.916666"
   version="1.1"
   id="svg1"
   inkscape:version="1.3.2 (091e20e, 2023-11-25, custom)"
   sodipodi:docname="marte_2.svg"
   xmlns:inkscape="http://www.inkscape.org/namespaces/inkscape"
   xmlns:sodipodi="http://sodipodi.sourceforge.net/DTD/sodipodi-0.dtd"
   xmlns:xlink="http://www.w3.org/1999/xlink"
   xmlns="http://www.w3.org/2000/svg"
   xmlns:svg="http://www.w3.org/2000/svg">
  <sodipodi:namedview
     id="namedview1"
     pagecolor="#000000"
     bordercolor="#000000"
     borderopacity="0.25"
     inkscape:showpageshadow="2"
     inkscape:pageopacity="0.0"
     inkscape:pagecheckerboard="0"
     inkscape:deskcolor="#d1d1d1"
     inkscape:document-units="mm"
     inkscape:zoom="4.3389453"
     inkscape:cx="107.1689"
     inkscape:cy="114.6592"
     inkscape:window-width="1920"
     inkscape:window-height="1046"
     inkscape:window-x="-11"
     inkscape:window-y="-11"
     inkscape:window-maximized="1"
     inkscape:current-layer="layer1"
     showgrid="false" />
  <defs
     id="defs1">
    <linearGradient
       id="linearGradient10"
       inkscape:collect="always">
      <stop
         style="stop-color:#d25d3c;stop-opacity:1;"
         offset="1"
         id="stop10" />
      <stop
         style="stop-color:#d35c3b;stop-opacity:0;"
         offset="1"
         id="stop11" />
    </linearGradient>
    <radialGradient
       inkscape:collect="always"
       xlink:href="#linearGradient10"
       id="radialGradient11"
       cx="29.222198"
       cy="23.369852"
       fx="29.222198"
       fy="23.369852"
       r="17.65498"
       gradientUnits="userSpaceOnUse"
       gradientTransform="matrix(1.113979,0,0,1.113979,-3.3307184,-2.6636735)" />
    <filter
       inkscape:collect="always"
       style="color-interpolation-filters:sRGB"
       id="filter1"
       x="-0.44742736"
       y="-0.44742736"
       width="1.8948547"
       height="1.8948547">
      <feGaussianBlur
         inkscape:collect="always"
         stdDeviation="7.3330647"
         id="feGaussianBlur1" />
    </filter>
  </defs>
  <g
     inkscape:label="Camada 1"
     inkscape:groupmode="layer"
     id="layer1">
    <circle
       style="mix-blend-mode:normal;fill:url(#radialGradient11);fill-opacity:1;stroke-width:0.1394;filter:url(#filter1)"
       id="circle10"
       cx="29.222197"
       cy="23.36985"
       r="19.667276"
       inkscape:label="atm"
       transform="matrix(0.63753683,0.07094392,-0.07094392,0.63753683,9.4860544,9.486054)" />
    <circle
       style="fill:#b32828;fill-opacity:1;stroke-width:0.079375"
       id="path1"
       cx="29.222198"
       cy="23.369852"
       r="15.671531"
       inkscape:label="planeta"
       transform="rotate(6.3496451)" />
    <path
       d="m 36.306433,14.271988 a 15.671531,15.671531 0 0 0 -8.114778,-3.388898 15.671531,15.671531 0 0 0 -8.519499,1.462994 12.698388,2.9751742 6.3496451 0 0 8.419619,1.728809 12.698388,2.9751742 6.3496451 0 0 8.214658,0.197095 z"
       style="fill:#ffffff;stroke-width:0.079375"
       id="path7"
       inkscape:label="neve-CO2" />
    <g
       id="g10"
       inkscape:label="crateras">
      <ellipse
         style="fill:#942525;fill-opacity:1;stroke-width:0.079375"
         id="path2"
         cx="22.433798"
         cy="10.635921"
         rx="1.5522648"
         ry="3.4494772"
         transform="rotate(27.019961)" />
      <circle
         style="fill:#942525;fill-opacity:1;stroke-width:0.079375"
         id="path4"
         cx="24.706882"
         cy="29.536148"
         r="3.0182927" />
      <circle
         style="fill:#942525;fill-opacity:1;stroke-width:0.079375"
         id="path5"
         cx="28.889374"
         cy="23.499563"
         r="2.0265679" />
      <ellipse
         style="fill:#942525;fill-opacity:1;stroke-width:0.079375"
         id="path6"
         cx="-19.449955"
         cy="37.687943"
         rx="1.4660279"
         ry="2.9104965"
         transform="rotate(-54.91748)" />
      <ellipse
         style="fill:#942525;fill-opacity:1;stroke-width:0.079375"
         id="path8"
         cx="16.729965"
         cy="28.673782"
         rx="1.2935539"
         ry="2.9320557" />
      <ellipse
         style="fill:#942525;fill-opacity:1;stroke-width:0.079375"
         id="path9"
         cx="49.704952"
         cy="11.540688"
         rx="1.0348432"
         ry="3.0182927"
         transform="rotate(30.387694)" />
      <ellipse
         style="fill:#942525;fill-opacity:1;stroke-width:0.0954934"
         id="path10"
         cx="24.949722"
         cy="31.423441"
         rx="0.75457317"
         ry="1.1857578"
         transform="rotate(-24.063429)" />
    </g>
    <path
       d="m 27.532823,42.04998 a 15.671531,15.671531 0 0 1 -0.103869,-0.0072 15.671531,15.671531 0 0 0 14.700911,-15.602149 15.671531,15.671531 0 0 0 -14.458549,-15.619718 15.671531,15.671531 0 0 1 0.478007,-0.03411 15.671531,15.671531 0 0 0 -15.325679,13.920598 15.671531,15.671531 0 0 0 13.842049,17.308504 15.671531,15.671531 0 0 0 0.86713,0.03411 z"
       style="fill:#000000;fill-opacity:0.15000001;stroke-width:0.079375"
       id="path32" />
  </g>
</svg>
