<?xml version="1.0" encoding="UTF-8" standalone="no"?>
<!-- Created with Inkscape (http://www.inkscape.org/) -->

<svg
   width="300"
   height="300"
   viewBox="0 0 79.374998 79.375"
   version="1.1"
   id="svg1"
   xml:space="preserve"
   inkscape:version="1.3.2 (091e20e, 2023-11-25, custom)"
   sodipodi:docname="miner.svg"
   xmlns:inkscape="http://www.inkscape.org/namespaces/inkscape"
   xmlns:sodipodi="http://sodipodi.sourceforge.net/DTD/sodipodi-0.dtd"
   xmlns="http://www.w3.org/2000/svg"
   xmlns:svg="http://www.w3.org/2000/svg"><sodipodi:namedview
     id="namedview1"
     pagecolor="#000000"
     bordercolor="#000000"
     borderopacity="0.25"
     inkscape:showpageshadow="2"
     inkscape:pageopacity="0.0"
     inkscape:pagecheckerboard="0"
     inkscape:deskcolor="#d1d1d1"
     inkscape:document-units="mm"
     inkscape:zoom="3.1179854"
     inkscape:cx="81.302497"
     inkscape:cy="179.76351"
     inkscape:window-width="2560"
     inkscape:window-height="1057"
     inkscape:window-x="-8"
     inkscape:window-y="-8"
     inkscape:window-maximized="1"
     inkscape:current-layer="layer1-1" /><defs
     id="defs1" /><g
     inkscape:label="Camada 1"
     inkscape:groupmode="layer"
     id="layer1"
     transform="matrix(0.28405242,0.16407733,-0.16399775,0.28419029,-20.940728,3.7863721)"
     style="stroke-width:3.04809"><g
       inkscape:label="Asteroid"
       id="layer1-1"
       inkscape:highlight-color="#2c2c2c"
       style="stroke-width:3.04809"
       transform="matrix(3.0484527,-6.4031505e-4,-6.404259e-4,3.0477131,108.25929,-182.98556)"><path
         id="path1"
         style="fill:#808080;fill-opacity:1;stroke-width:0.264583"
         d="m 42.350957,24.856435 c -20.225849,2.499225 -22.602714,8.727734 -22.602755,19.493901 2.8e-5,7.325099 6.950666,4.710717 12.92425,8.041688 2.806175,1.564771 6.044833,2.656651 9.480068,2.45638 5.672938,-0.33077 15.789693,-7.074088 16.583484,-10.498068 1.407983,-6.073479 1.471448,-14.741767 -2.221333,-17.542833 -2.6706,-2.025716 -7.038905,-2.831396 -14.163714,-1.951068 z"
         sodipodi:nodetypes="ccsccsc"
         inkscape:label="asteroid it self" /><g
         id="g11"
         inkscape:label="craters"><ellipse
           style="fill:#6b6b6b;fill-opacity:1;stroke-width:0.264583"
           id="path5"
           cx="40.911037"
           cy="-13.122387"
           rx="1.6370258"
           ry="5.3554134"
           transform="rotate(64.48216)" /><ellipse
           style="fill:#6b6b6b;fill-opacity:1;stroke-width:0.264583"
           id="path6"
           cx="42.086349"
           cy="51.709808"
           rx="5.1363339"
           ry="1.7571324" /><ellipse
           style="fill:#6b6b6b;fill-opacity:1;stroke-width:0.264583"
           id="path7"
           cx="44.660378"
           cy="46.101822"
           rx="1.9176589"
           ry="5.0401993"
           transform="rotate(-16.121877)" /><ellipse
           style="fill:#6b6b6b;fill-opacity:1;stroke-width:0.264583"
           id="path8"
           cx="44.379375"
           cy="42.069405"
           rx="5.2778454"
           ry="5.3108015" /><ellipse
           style="fill:#6b6b6b;fill-opacity:1;stroke-width:0.264583"
           id="path9"
           cx="13.026991"
           cy="49.621033"
           rx="1.4265511"
           ry="2.5023112"
           transform="rotate(-12.497596)" /><ellipse
           style="fill:#6b6b6b;fill-opacity:1;stroke-width:0.264583"
           id="path10"
           cx="51.410538"
           cy="19.710463"
           rx="4.209497"
           ry="2.3173823"
           transform="rotate(31.806684)" /><ellipse
           style="fill:#6b6b6b;fill-opacity:1;stroke-width:0.264583"
           id="path11"
           cx="42.398968"
           cy="31.267195"
           rx="4.8876915"
           ry="1.3697712" /></g><path
         id="path143"
         style="stroke-width:1.61294;fill:#000000;stroke-linecap:round;stroke-opacity:0.5;fill-opacity:0.15000001"
         d="m 213.49858,-103.12707 20.4254,35.377826 15.95309,27.631562 9.56587,16.568572 c 13.56088,-7.190212 26.31958,-17.745647 27.84228,-24.306525 4.29605,-18.511087 4.49466,-44.930082 -6.7608,-53.464535 -8.13988,-6.17209 -21.45652,-8.62457 -43.17668,-5.93702 -9.09186,1.12505 -16.97209,2.50339 -23.84916,4.13012 z m 11.08754,13.324321 a 4.1746695,14.899897 89.985914 0 1 0.11587,-0.04508 4.1746695,14.899897 89.985914 0 0 -0.23358,0.118494 4.1746695,14.899897 89.985914 0 1 0.11771,-0.07341 z m 1.69971,-0.657658 a 4.1746695,14.899897 89.985914 0 1 0.37723,-0.112327 4.1746695,14.899897 89.985914 0 0 -0.37723,0.112327 z m -3.45114,2.019795 a 4.1746695,14.899897 89.985914 0 0 -0.0811,0.143178 4.1746695,14.899897 89.985914 0 1 0.0811,-0.143178 z m 0.10603,1.595321 a 4.1746695,14.899897 89.985914 0 0 0.0529,0.08219 4.1746695,14.899897 89.985914 0 1 -0.0529,-0.08219 z m 8.21359,-4.642107 a 4.1746695,14.899897 89.985914 0 1 0.47689,-0.06259 4.1746695,14.899897 89.985914 0 0 -0.47689,0.06259 z m -7.16958,5.517683 a 4.1746695,14.899897 89.985914 0 0 0.16124,0.09966 4.1746695,14.899897 89.985914 0 1 -0.16124,-0.09966 z m 10.21281,-5.814541 a 4.1746695,14.899897 89.985914 0 1 0.49385,-0.02692 4.1746695,14.899897 89.985914 0 0 -0.49385,0.02692 z m -8.48601,6.612311 a 4.1746695,14.899897 89.985914 0 0 0.27554,0.09913 4.1746695,14.899897 89.985914 0 1 -0.27554,-0.09913 z m 2.34276,0.676711 a 4.1746695,14.899897 89.985914 0 0 0.34833,0.0771 4.1746695,14.899897 89.985914 0 1 -0.34833,-0.0771 z m 12.73068,-7.295507 a 4.1746695,14.899897 89.985914 0 1 0.36921,0.02504 4.1746695,14.899897 89.985914 0 0 -0.36921,-0.02504 z m -9.90579,7.808417 a 4.1746695,14.899897 89.985914 0 0 0.40118,0.05205 4.1746695,14.899897 89.985914 0 1 -0.40118,-0.05205 z m 14.24079,-7.323645 a 4.1746695,14.899897 89.985914 0 1 0.18322,0.0306 4.1746695,14.899897 89.985914 0 0 -0.18322,-0.0306 z m 1.01686,0.185726 a 4.1746695,14.899897 89.985914 0 1 0.16427,0.03244 4.1746695,14.899897 89.985914 0 0 -0.16427,-0.03244 z m -12.06073,7.463316 a 4.1746695,14.899897 89.985914 0 0 0.32209,0.01588 4.1746695,14.899897 89.985914 0 1 -0.32209,-0.01588 z m 15.43295,-6.531783 a 4.1746695,14.899897 89.985914 0 1 0.10334,0.04035 4.1746695,14.899897 89.985914 0 0 -0.10334,-0.04035 z m -9.82084,6.597435 a 4.1746695,14.899897 89.985914 0 0 0.22389,-0.0092 4.1746695,14.899897 89.985914 0 1 -0.22389,0.0092 z m 2.28982,-0.149177 a 4.1746695,14.899897 89.985914 0 0 0.26252,-0.02428 4.1746695,14.899897 89.985914 0 1 -0.26252,0.02428 z m 9.64717,-5.300673 a 4.1746695,14.899897 89.985914 0 1 0.0626,0.0548 4.1746695,14.899897 89.985914 0 0 -0.0626,-0.0548 z m 0.33198,0.322929 a 4.1746695,14.899897 89.985914 0 1 0.0395,0.04631 4.1746695,14.899897 89.985914 0 0 -0.0395,-0.04631 z m -7.75835,4.724766 a 4.1746695,14.899897 89.985914 0 0 0.19801,-0.02886 4.1746695,14.899897 89.985914 0 1 -0.19801,0.02886 z m 7.99204,-4.405091 a 4.1746695,14.899897 89.985914 0 1 0.0317,0.05807 4.1746695,14.899897 89.985914 0 0 -0.0317,-0.05807 z m 0.14934,0.337455 a 4.1746695,14.899897 89.985914 0 1 0.008,0.032 4.1746695,14.899897 89.985914 0 0 -0.008,-0.032 z m 0.009,0.638755 a 4.1746695,14.899897 89.985914 0 1 -0.008,0.0393 4.1746695,14.899897 89.985914 0 0 0.008,-0.0393 z m -0.1276,0.32097 a 4.1746695,14.899897 89.985914 0 1 -0.0273,0.05033 4.1746695,14.899897 89.985914 0 0 0.0273,-0.05033 z m -3.43634,2.102163 a 4.1746695,14.899897 89.985914 0 0 0.0775,-0.02654 4.1746695,14.899897 89.985914 0 1 -0.0775,0.02654 z m 3.20251,-1.763508 a 4.1746695,14.899897 89.985914 0 1 -0.0237,0.02824 4.1746695,14.899897 89.985914 0 0 0.0237,-0.02824 z m -0.3074,0.312039 a 4.1746695,14.899897 89.985914 0 1 -0.0477,0.04027 4.1746695,14.899897 89.985914 0 0 0.0477,-0.04027 z m -0.39809,0.306212 a 4.1746695,14.899897 89.985914 0 1 -0.0746,0.05036 4.1746695,14.899897 89.985914 0 0 0.0746,-0.05036 z m -0.56598,0.343134 a 4.1746695,14.899897 89.985914 0 0 0.0684,-0.03587 4.1746695,14.899897 89.985914 0 1 -0.0684,0.03587 z m -13.84692,16.289944 a 16.089143,16.185918 2.0089115 0 1 0.21658,-0.07231 16.089143,16.185918 2.0089115 0 0 -0.5144,0.249711 16.089143,16.185918 2.0089115 0 1 0.29782,-0.177399 z m 3.03859,-1.023343 a 16.089143,16.185918 2.0089115 0 1 0.54197,-0.10743 16.089143,16.185918 2.0089115 0 0 -0.54197,0.10743 z m 4.70364,-0.408135 a 16.089143,16.185918 2.0089115 0 1 0.19839,0.01275 16.089143,16.185918 2.0089115 0 0 -0.19839,-0.01275 z m 1.2472,0.130931 a 16.089143,16.185918 2.0089115 0 1 0.16033,0.02563 16.089143,16.185918 2.0089115 0 0 -0.16033,-0.02563 z m 2.30574,0.518065 a 16.089143,16.185918 2.0089115 0 1 0.17393,0.05232 16.089143,16.185918 2.0089115 0 0 -0.17393,-0.05232 z m 1.1653,0.401873 a 16.089143,16.185918 2.0089115 0 1 0.17283,0.06933 16.089143,16.185918 2.0089115 0 0 -0.17283,-0.06933 z m 2.13534,1.020127 a 16.089143,16.185918 2.0089115 0 1 0.17236,0.09687 16.089143,16.185918 2.0089115 0 0 -0.17236,-0.09687 z m 1.0452,0.647597 a 16.089143,16.185918 2.0089115 0 1 0.2048,0.143605 16.089143,16.185918 2.0089115 0 0 -0.2048,-0.143605 z m 1.86196,1.476177 a 16.089143,16.185918 2.0089115 0 1 0.14712,0.135082 16.089143,16.185918 2.0089115 0 0 -0.14712,-0.135082 z m 0.88378,0.875347 a 16.089143,16.185918 2.0089115 0 1 0.14057,0.155234 16.089143,16.185918 2.0089115 0 0 -0.14057,-0.155234 z m 1.48644,1.852999 a 16.089143,16.185918 2.0089115 0 1 0.11659,0.167263 16.089143,16.185918 2.0089115 0 0 -0.11659,-0.167263 z m 0.68339,1.076515 a 16.089143,16.185918 2.0089115 0 1 0.0742,0.131711 16.089143,16.185918 2.0089115 0 0 -0.0742,-0.131711 z m 1.03077,2.12881 a 16.089143,16.185918 2.0089115 0 1 0.0656,0.163983 16.089143,16.185918 2.0089115 0 0 -0.0656,-0.163983 z m 0.40917,1.153002 a 16.089143,16.185918 2.0089115 0 1 0.0698,0.234291 16.089143,16.185918 2.0089115 0 0 -0.0698,-0.234291 z m 0.54412,2.335219 a 16.089143,16.185918 2.0089115 0 1 0.0291,0.179587 16.089143,16.185918 2.0089115 0 0 -0.0291,-0.179587 z m 0.14872,1.247009 a 16.089143,16.185918 2.0089115 0 1 0.0101,0.168735 16.089143,16.185918 2.0089115 0 0 -0.0101,-0.168735 z m -0.38008,4.689004 a 16.089143,16.185918 2.0089115 0 1 -0.0871,0.419432 16.089143,16.185918 2.0089115 0 0 0.0871,-0.419432 z m -1.22581,3.482556 a 16.089143,16.185918 2.0089115 0 1 -0.24293,0.493025 16.089143,16.185918 2.0089115 0 0 0.24293,-0.493025 z m -2.02566,3.184274 a 16.089143,16.185918 2.0089115 0 1 -0.3605,0.415433 16.089143,16.185918 2.0089115 0 0 0.3605,-0.415433 z m -2.74382,2.658809 a 16.089143,16.185918 2.0089115 0 1 -0.32615,0.222853 16.089143,16.185918 2.0089115 0 0 0.32615,-0.222853 z"
         transform="matrix(0.32803527,6.892563e-5,6.8925775e-5,0.32811488,-35.500253,60.032826)"
         inkscape:label="shadow" /></g><g
       id="g49"
       inkscape:label="mining ship"
       inkscape:highlight-color="#ffcc00"
       transform="matrix(2.9444149,0.78818193,-0.78961053,2.9440321,204.25112,-132.45304)"
       style="stroke-width:3.04809"><path
         sodipodi:type="star"
         style="fill:#515151;fill-opacity:1;stroke-width:0.264583"
         id="path39"
         inkscape:flatsided="true"
         sodipodi:sides="3"
         sodipodi:cx="13.891333"
         sodipodi:cy="75.057632"
         sodipodi:r1="2.0414994"
         sodipodi:r2="1.0207496"
         sodipodi:arg1="0.52359878"
         sodipodi:arg2="1.5707963"
         inkscape:rounded="0"
         inkscape:randomized="0"
         d="m 15.659323,76.078382 -3.535981,0 1.767991,-3.062249 z"
         inkscape:transform-center-y="-0.51037576"
         transform="translate(1.4967108,1.4733233)"
         inkscape:label="thruster" /><g
         id="g136"
         inkscape:label="flame"
         style="stroke-width:3.04809"
         transform="matrix(0.2840521,0.16407788,-0.1639983,0.28418996,-27.309043,15.362699)"><path
           sodipodi:type="star"
           style="fill:#7ddcfc;fill-opacity:1;stroke:none;stroke-width:1.75778;stroke-linecap:round;stroke-opacity:0.5"
           id="path135"
           inkscape:flatsided="true"
           sodipodi:sides="3"
           sodipodi:cx="43.229115"
           sodipodi:cy="247.80119"
           sodipodi:r1="15.380744"
           sodipodi:r2="7.690372"
           sodipodi:arg1="1.5707963"
           sodipodi:arg2="2.6179939"
           inkscape:rounded="0"
           inkscape:randomized="0"
           d="m 43.229115,263.18194 -13.320116,-23.07112 26.64023,0 z"
           transform="matrix(0.32088659,-0.18526395,0.73898087,1.2799524,16.319935,-200.05052)"
           inkscape:transform-center-y="1.8649195"
           inkscape:transform-center-x="2.5650524e-06" /><path
           sodipodi:type="star"
           style="fill:#b6ebfd;fill-opacity:1;stroke:none;stroke-width:3.06373;stroke-linecap:round;stroke-opacity:0.5"
           id="path136"
           inkscape:flatsided="true"
           sodipodi:sides="3"
           sodipodi:cx="43.229115"
           sodipodi:cy="247.80119"
           sodipodi:r1="15.380744"
           sodipodi:r2="7.690372"
           sodipodi:arg1="1.5707963"
           sodipodi:arg2="2.6179939"
           inkscape:rounded="0"
           inkscape:randomized="0"
           d="m 43.229115,263.18194 -13.320116,-23.07112 26.64023,0 z"
           transform="matrix(0.18410529,-0.10629323,0.42398246,0.73435916,98.472779,-71.412964)"
           inkscape:transform-center-y="1.0699778"
           inkscape:transform-center-x="2.0441717e-06" /></g><rect
         style="fill:#ffcc00;fill-opacity:1;stroke-width:0.264583"
         id="rect39"
         width="7.5770912"
         height="11.318865"
         x="11.599498"
         y="64.358505"
         inkscape:label="body" /><g
         id="g42"
         inkscape:label="solar panel"><rect
           style="fill:#002c84;fill-opacity:1;stroke-width:0.264583"
           id="rect40"
           width="10.45358"
           height="4.4901299"
           x="0.60803807"
           y="70.894913" /><rect
           style="fill:#002c84;fill-opacity:1;stroke-width:0.264583"
           id="rect41"
           width="10.45358"
           height="4.4901299"
           x="0.60803807"
           y="66.030609" /><rect
           style="fill:#6d9dff;fill-opacity:1;stroke-width:0.264583"
           id="rect42"
           width="10.617282"
           height="0.37417734"
           x="0.98221546"
           y="70.520737" /></g><g
         id="g45"
         inkscape:label="solar panel"
         transform="matrix(-1,0,0,1,30.776087,0)"><rect
           style="fill:#002c84;fill-opacity:1;stroke-width:0.264583"
           id="rect43"
           width="10.45358"
           height="4.4901299"
           x="0.60803807"
           y="70.894913" /><rect
           style="fill:#002c84;fill-opacity:1;stroke-width:0.264583"
           id="rect44"
           width="10.45358"
           height="4.4901299"
           x="0.60803807"
           y="66.030609" /><rect
           style="fill:#6d9dff;fill-opacity:1;stroke-width:0.264583"
           id="rect45"
           width="10.617282"
           height="0.37417734"
           x="0.98221546"
           y="70.520737" /></g><g
         id="g48"
         inkscape:label="grabbers"><rect
           style="fill:#6d9dff;fill-opacity:1;stroke-width:0.264583"
           id="rect46"
           width="0.65232116"
           height="4.2664061"
           x="15.061883"
           y="61.118748" /><rect
           style="fill:#6d9dff;fill-opacity:1;stroke-width:0.264583"
           id="rect47"
           width="0.65232116"
           height="4.2664061"
           x="19.17659"
           y="61.118748" /><rect
           style="fill:#6d9dff;fill-opacity:1;stroke-width:0.264583"
           id="rect48"
           width="0.65232116"
           height="4.2664061"
           x="10.947177"
           y="61.118748"
           inkscape:label="rect20" /></g><path
         id="path48"
         style="fill:#000000;fill-opacity:0.15;stroke-width:0.264583"
         d="m 15.388118,61.118745 v 3.239596 1.02681 9.104354 1.188041 1.874304 h 1.767851 l -1.082105,-1.874304 h 3.102653 v -4.782654 h 0.537952 v 4.490166 h 10.453625 v -4.490166 h -0.374137 v -0.374137 h 0.374137 V 66.03059 H 19.714469 v 4.490165 h -0.537952 v -5.135604 h 0.652157 v -4.266406 h -0.652157 v 3.239596 h -3.462321 v -3.239596 z"
         inkscape:label="shadow" /></g></g></svg>
