<?xml version="1.0" encoding="UTF-8" standalone="no"?>
<!-- Created with Inkscape (http://www.inkscape.org/) -->

<svg
   width="32"
   height="32"
   viewBox="0 0 8.4666665 8.4666667"
   version="1.1"
   id="svg1"
   inkscape:version="1.3.2 (091e20e, 2023-11-25, custom)"
   sodipodi:docname="mouse_normal_antes_alteracao.svg"
   xmlns:inkscape="http://www.inkscape.org/namespaces/inkscape"
   xmlns:sodipodi="http://sodipodi.sourceforge.net/DTD/sodipodi-0.dtd"
   xmlns="http://www.w3.org/2000/svg"
   xmlns:svg="http://www.w3.org/2000/svg">
  <sodipodi:namedview
     id="namedview1"
     pagecolor="#000000"
     bordercolor="#000000"
     borderopacity="0.25"
     inkscape:showpageshadow="2"
     inkscape:pageopacity="0.0"
     inkscape:pagecheckerboard="0"
     inkscape:deskcolor="#d1d1d1"
     inkscape:document-units="mm"
     inkscape:zoom="24.544781"
     inkscape:cx="16.928242"
     inkscape:cy="16.806017"
     inkscape:window-width="2560"
     inkscape:window-height="1057"
     inkscape:window-x="-8"
     inkscape:window-y="-8"
     inkscape:window-maximized="1"
     inkscape:current-layer="layer1" />
  <defs
     id="defs1" />
  <g
     inkscape:label="Camada 1"
     inkscape:groupmode="layer"
     id="layer1">
    <path
       id="rect1"
       style="fill:#404040;stroke-width:0.122642"
       d="m 0.34830166,0.4083088 c -0.004924,0.005202 -0.009271,0.0110952 -0.0141124,0.0163752 C 0.0296821,0.74334738 -0.10655431,1.2076244 0.01632524,1.6662173 L 1.1630048,5.9452418 c 0.065778,0.2454877 0.1977202,0.4547221 0.3698063,0.6159677 0.018317,0.017164 0.036667,0.034206 0.0559,0.050243 0.5146221,0.4597011 1.2988673,0.4434565 1.7931369,-0.050813 L 4.0237871,5.9187013 6.231898,8.1268122 C 6.7440784,8.6389926 7.5687496,8.6395571 8.0809299,8.1273768 8.5931102,7.6151966 8.5925457,6.7905254 8.0803653,6.2783451 L 5.8722539,4.0702337 6.5141926,3.4282948 C 6.8570327,3.0854547 6.9690851,2.6024319 6.8529433,2.1670046 6.7495268,1.7089896 6.4018925,1.323509 5.9151578,1.1930888 L 1.636131,0.04640671 C 1.1775381,-0.07647339 0.71382573,0.0592005 0.39516269,0.36370628 c -0.01064,0.00974 -0.0207719,0.0198542 -0.0310522,0.029923 -0.005041,0.005142 -0.0108484,0.00945 -0.0158088,0.0146795 z"
       inkscape:label="base" />
    <path
       id="path20"
       style="fill:#000000;fill-opacity:0.2;stroke-width:0.122642"
       d="m 0.37240552,0.38554449 2.74334228,2.74334231 0.029359,0.029359 1.819673,1.8196732 3.1329093,3.1329092 C 8.6098692,7.5986484 8.6093042,6.7739762 8.0971245,6.2617964 L 5.8890134,4.0536852 6.5309522,3.4117464 C 6.8737953,3.0689033 6.985848,2.5858794 6.869706,2.1504528 c 0.00565,0.025041 0.010496,0.050213 0.014679,0.075655 -0.00418,-0.025446 -0.00902,-0.050611 -0.014679,-0.075655 C 6.8338537,2.0160369 6.777117,1.8863465 6.6980711,1.7665314 c -0.015814,-0.02396 -0.032668,-0.047456 -0.050251,-0.070572 -0.017592,-0.023107 -0.036528,-0.04613 -0.055903,-0.068306 -0.019361,-0.02219 -0.039239,-0.043765 -0.060406,-0.064932 0.021168,0.021168 0.041007,0.042746 0.060406,0.064932 0.019438,0.02221 0.038225,0.045169 0.055903,0.068306 0.017582,0.023027 0.034409,0.046713 0.050251,0.070572 0.072538,0.1092468 0.1269453,0.2264395 0.1631668,0.3483513 C 6.7482186,1.6725604 6.4060148,1.303568 5.9319177,1.1765398 L 1.6528953,0.02985284 C 1.1943028,-0.0930272 0.73058961,0.04264692 0.41192684,0.34715241 c -0.0103786,0.00992 -0.0209857,0.0196446 -0.0310522,0.0299231 -0.00286,0.002811 -0.005638,0.005648 -0.00846,0.00846 z m 2.74729508,2.73938961 0.01299,-0.012989 5.622e-4,0.0017 c -0.0042,0.00406 -0.00916,0.00749 -0.013552,0.011289 z M 6.8945435,2.3028958 c 0.00268,0.025781 0.0045,0.051849 0.00565,0.077914 0.00114,0.026064 0.00214,0.052188 0.0017,0.078477 -4.427e-4,0.02629 -0.00189,0.05315 -0.00396,0.079607 0.00206,-0.026456 0.00351,-0.053319 0.00396,-0.079607 4.412e-4,-0.026287 -5.565e-4,-0.052414 -0.0017,-0.078477 -0.00114,-0.026065 -0.00296,-0.052132 -0.00565,-0.077914 z m -1.096994,1.4278436 c 0.035371,-0.0055 0.069866,-0.012559 0.1044503,-0.020889 0.034585,-0.00833 0.069118,-0.018283 0.1027546,-0.029358 0.033638,-0.01107 0.06627,-0.022971 0.098803,-0.036698 0.032537,-0.013725 0.06471,-0.02888 0.095979,-0.045167 0.031275,-0.016282 0.061615,-0.034315 0.091465,-0.053072 0.029854,-0.018752 0.059248,-0.038141 0.087511,-0.059282 0.028267,-0.021139 0.05534,-0.043758 0.081864,-0.067187 0.026525,-0.023428 0.052162,-0.047764 0.076781,-0.073402 -0.024627,0.025625 -0.050259,0.04997 -0.076781,0.073402 -0.026524,0.023427 -0.053599,0.046048 -0.081864,0.067187 -0.028266,0.021139 -0.057659,0.040526 -0.087511,0.059282 -0.029854,0.018753 -0.060193,0.036785 -0.091465,0.053072 -0.031275,0.016283 -0.063445,0.031442 -0.095979,0.045167 -0.032537,0.013725 -0.065165,0.025624 -0.098803,0.036698 -0.033638,0.011071 -0.068171,0.021026 -0.1027546,0.029358 -0.034584,0.00833 -0.06908,0.015389 -0.1044503,0.020889 z M 6.8753523,2.6981052 c -0.0054,0.02662 -0.011501,0.052993 -0.018632,0.079607 0.00713,-0.026619 0.013226,-0.052989 0.018632,-0.079607 z"
       inkscape:label="sombra" />
  </g>
</svg>
