<?xml version="1.0" encoding="UTF-8" standalone="no"?>
<!-- Created with Inkscape (http://www.inkscape.org/) -->

<svg
   width="32"
   height="32"
   viewBox="0 0 8.4666665 8.4666667"
   version="1.1"
   id="svg1"
   inkscape:version="1.3.2 (091e20e, 2023-11-25, custom)"
   sodipodi:docname="mouse_normal.svg"
   xmlns:inkscape="http://www.inkscape.org/namespaces/inkscape"
   xmlns:sodipodi="http://sodipodi.sourceforge.net/DTD/sodipodi-0.dtd"
   xmlns="http://www.w3.org/2000/svg"
   xmlns:svg="http://www.w3.org/2000/svg">
  <sodipodi:namedview
     id="namedview1"
     pagecolor="#000000"
     bordercolor="#000000"
     borderopacity="0.25"
     inkscape:showpageshadow="2"
     inkscape:pageopacity="0.0"
     inkscape:pagecheckerboard="0"
     inkscape:deskcolor="#d1d1d1"
     inkscape:document-units="mm"
     inkscape:zoom="22.627417"
     inkscape:cx="12.529048"
     inkscape:cy="14.120039"
     inkscape:window-width="2560"
     inkscape:window-height="1057"
     inkscape:window-x="-8"
     inkscape:window-y="-8"
     inkscape:window-maximized="1"
     inkscape:current-layer="layer1" />
  <defs
     id="defs1" />
  <g
     inkscape:label="Camada 1"
     inkscape:groupmode="layer"
     id="layer1">
    <g
       id="g48"
       inkscape:label="rocket"
       transform="rotate(-45,4.2330406,4.2333319)"
       style="stroke:#000000;stroke-opacity:1">
      <rect
         style="fill:#ff9600;fill-opacity:1;stroke-width:0.128518;stroke:#000000;stroke-opacity:1"
         id="rect1"
         width="2.655916"
         height="7.3955784"
         x="2.9054611"
         y="1.4039173"
         rx="1.1330947"
         inkscape:label="MainStage" />
      <path
         id="rect2"
         style="fill:#cfcfcf;fill-opacity:1;stroke-width:0.106287;stroke:#000000;stroke-opacity:1"
         d="M 3.1082439,4.842199 2.8446042,5.3286521 v 0.2428807 l 0.00138,1e-7 c -5.445e-4,0.00695 -0.00137,0.014367 -0.00138,0.021451 l -2e-7,3.1290773 c 0,0.1462323 0.1174087,0.2636391 0.2636397,0.2636395 0.1462324,-1e-7 0.2643316,-0.1174082 0.2643316,-0.2636395 l -7e-7,-3.1290779 c 0,-0.00709 -8.315e-4,-0.014507 -0.00138,-0.021451 l 0.00138,3e-7 V 5.3286522 Z"
         inkscape:label="SRB" />
      <path
         id="path3"
         style="fill:#cfcfcf;fill-opacity:1;stroke-width:0.106287;stroke:#000000;stroke-opacity:1"
         d="m 5.3579028,4.8421991 -0.2636398,0.4864532 1e-7,0.2428806 h 0.00138 c -5.444e-4,0.00695 -0.00137,0.014367 -0.00138,0.021451 l -1e-7,3.1290774 c 1e-7,0.1462324 0.1174087,0.2636393 0.2636396,0.2636396 0.1462321,0 0.2643315,-0.1174081 0.2643314,-0.2636394 l -7e-7,-3.1290781 c 0,-0.00709 -8.315e-4,-0.014507 -0.00138,-0.02145 l 0.00138,-8e-7 10e-8,-0.2428801 z"
         inkscape:label="SRB" />
      <path
         id="path6"
         style="fill:#cccccc;fill-opacity:1;stroke-width:0.226009;stroke:#000000;stroke-opacity:1"
         inkscape:transform-center-y="-0.76138941"
         d="m 3.362544,-0.21020451 -2.3128676,4.56802731 1.7141539,-1e-7 2.9115809,1e-7 H 7.3895647 L 5.0766973,-0.21020437 4.2196206,1.4829279 Z"
         inkscape:label="Wings" />
      <path
         id="rect3"
         style="fill:#ffffff;fill-opacity:1;stroke-width:0.106287;stroke:#000000;stroke-opacity:1"
         d="m 4.2334191,-1.5432764 c -0.4769069,0 -0.8608075,0.74562082 -0.8608076,1.67179347 l -1e-7,2.41081503 1.1e-6,0.1466973 -10e-8,1.6717936 H 4.23342 l 0.8608069,-10e-8 -10e-8,-1.6717936 2e-7,-0.1466973 -2e-7,-2.41081486 c 0,-0.92617265 -0.3839008,-1.67179354 -0.8608077,-1.67179354 z"
         inkscape:label="ShuttleBody" />
      <path
         sodipodi:type="star"
         style="fill:#93b7eb;fill-opacity:1;stroke-width:0.079375;stroke:#000000;stroke-opacity:1"
         id="path7"
         inkscape:flatsided="true"
         sodipodi:sides="3"
         sodipodi:cx="4.0307617"
         sodipodi:cy="0.91363931"
         sodipodi:r1="0.3291752"
         sodipodi:r2="0.16458762"
         sodipodi:arg1="0.52359878"
         sodipodi:arg2="1.5707963"
         inkscape:rounded="0"
         inkscape:randomized="0"
         d="m 4.3158358,1.0782269 -0.5701482,0 0.2850741,-0.4937628 z"
         inkscape:transform-center-y="-0.11019471"
         transform="matrix(2.3390969,0,0,1.3390389,-5.1949234,-2.1383686)"
         inkscape:label="vidro" />
    </g>
    <path
       id="path46"
       style="fill-opacity:0.1;stroke-width:0.079375;stroke:#000000;stroke-opacity:1"
       d="m 0.14853759,0.14871394 0.13227755,0.13227755 0.46772166,0.46772165 1.4839201,1.48392006 0.036541,0.036541 2.0521288,2.0521288 3.140678,3.140678 0.1377587,-0.1377587 C 7.7759915,7.1477932 7.8816559,6.9284571 7.9178328,6.7004711 l 0.097929,0.097929 c 0.1034019,0.1034017 0.2693148,0.1034005 0.3727157,0 0.1034018,-0.1034014 0.1041321,-0.2700454 7.31e-4,-0.3734463 L 6.1766661,4.2124114 c -0.00501,-0.00501 -0.010779,-0.00936 -0.016077,-0.013885 l 0.0011,-0.0011 L 5.9899428,4.0256881 5.8675313,3.9895127 5.2602239,3.3822054 5.340979,3.3014502 6.5530359,2.0893934 1.6872688,0.49475489 C 1.0912739,0.01218795 0.44347452,-0.14622299 0.14853759,0.14871394 Z"
       inkscape:label="sombra" />
  </g>
</svg>
