<?xml version="1.0" encoding="UTF-8" standalone="no"?>
<!-- Created with Inkscape (http://www.inkscape.org/) -->

<svg
   width="32"
   height="32"
   viewBox="0 0 8.4666665 8.4666667"
   version="1.1"
   id="svg1"
   inkscape:version="1.3.2 (091e20e, 2023-11-25, custom)"
   sodipodi:docname="mouse_grab.svg"
   xmlns:inkscape="http://www.inkscape.org/namespaces/inkscape"
   xmlns:sodipodi="http://sodipodi.sourceforge.net/DTD/sodipodi-0.dtd"
   xmlns="http://www.w3.org/2000/svg"
   xmlns:svg="http://www.w3.org/2000/svg">
  <sodipodi:namedview
     id="namedview1"
     pagecolor="#000000"
     bordercolor="#000000"
     borderopacity="0.25"
     inkscape:showpageshadow="2"
     inkscape:pageopacity="0.0"
     inkscape:pagecheckerboard="0"
     inkscape:deskcolor="#d1d1d1"
     inkscape:document-units="mm"
     inkscape:zoom="22.627417"
     inkscape:cx="10.915961"
     inkscape:cy="15.269087"
     inkscape:window-width="1920"
     inkscape:window-height="1046"
     inkscape:window-x="-11"
     inkscape:window-y="-11"
     inkscape:window-maximized="1"
     inkscape:current-layer="layer1" />
  <defs
     id="defs1" />
  <g
     inkscape:label="Camada 1"
     inkscape:groupmode="layer"
     id="layer1">
    <g
       id="g48"
       inkscape:label="rocket"
       transform="rotate(-59.72399,6.5409136,3.0624188)"
       style="stroke:#3c3c3c;stroke-opacity:1">
      <g
         id="g8"
         inkscape:label="braço"
         transform="matrix(0.88317143,1.5128206,-1.5128206,0.88317143,6.0276228,-3.4879339)"
         style="stroke:#3c3c3c;stroke-opacity:1">
        <path
           id="rect4"
           style="fill:#ffffff;fill-opacity:1;stroke:#000000;stroke-width:0.132292;stroke-dasharray:none;stroke-opacity:1"
           d="m 0.32085863,-0.25161169 c -0.0426703,0.009624 -0.0788845,0.0335674 -0.10095804,0.0699853 -0.0504538,0.08324078 -0.006834,0.20138396 0.0979514,0.2648964 l 0.33998659,0.2060723 c -0.0330861,0.038287 -0.0528335,0.0880973 -0.0532819,0.14289351 -3.2134e-4,0.0392732 0.009419,0.0757346 0.0269647,0.10778378 l -0.433635,0.1063437 C 0.07888184,0.67554771 0.00174082,0.77514985 0.02492471,0.86968621 0.0481086,0.96422256 0.16257828,1.0168345 0.28158286,0.98765009 L 0.72525571,0.87884472 C 0.84405369,0.84971096 0.92113657,0.75041325 0.8983405,0.65602369 l 0.6050957,0.004846 -4.172e-4,0.67956461 c 0,0.1225309 0.098697,0.2208303 0.2212281,0.2208303 0.1225309,0 0.2214553,-0.098318 0.2214553,-0.2208493 L 1.9453429,0.4428894 c 0,-0.0536073 -0.018378,-0.10227081 -0.04988,-0.1404737 -2.391e-4,-2.9e-4 -5.074e-4,-5.9195e-4 -7.48e-4,-8.807e-4 -0.00431,-0.005313 -0.00907,-0.010341 -0.013844,-0.0152277 -1.69e-4,-1.6904e-4 -4.554e-4,-2.1031e-4 -6.25e-4,-3.7881e-4 -0.0016,-0.001622 -0.00322,-0.003087 -0.00487,-0.004659 -0.00345,-0.003222 -0.00671,-0.006699 -0.010359,-0.009697 -0.037944,-0.0318135 -0.08729,-0.051205 -0.1408955,-0.0516436 l -0.714384,-0.005712 C 1.0128041,0.14347826 0.96846276,0.06656504 0.89066888,0.0194127 l -0.3906096,-0.23675585 c -0.0589418,-0.0357257 -0.12433883,-0.0466426 -0.17920065,-0.0342685 z"
           transform="rotate(13.779155)"
           inkscape:label="corpo" />
        <circle
           style="fill:#cccccc;fill-opacity:1;stroke:#000000;stroke-width:0.0661458;stroke-dasharray:none;stroke-opacity:1"
           id="path8"
           cx="0.7163896"
           cy="0.61977684"
           r="0.15902652"
           inkscape:label="junta" />
        <circle
           style="fill:#cccccc;fill-opacity:1;stroke:#000000;stroke-width:0.0661458;stroke-dasharray:none;stroke-opacity:1"
           id="circle8"
           cx="1.5582886"
           cy="0.85082811"
           r="0.15902652"
           inkscape:label="junta" />
      </g>
      <path
         id="path6"
         style="fill:#cccccc;fill-opacity:1;stroke:#000000;stroke-width:0.226009;stroke-opacity:1"
         inkscape:transform-center-y="-0.76138941"
         d="m 3.362544,-0.21020451 -2.3128676,4.56802731 1.7141539,-1e-7 2.9115809,1e-7 H 7.3895647 L 5.0766973,-0.21020437 4.2196206,1.4829279 Z"
         inkscape:label="Wings" />
      <path
         id="rect3"
         style="fill:#ffffff;fill-opacity:1;stroke:#000000;stroke-width:0.106287;stroke-opacity:1"
         d="m 4.2334191,-1.5432764 c -0.4769069,0 -0.8608075,0.74562082 -0.8608076,1.67179347 l -1e-7,2.41081503 1.1e-6,0.1466973 -10e-8,1.6717936 H 4.23342 l 0.8608069,-10e-8 -10e-8,-1.6717936 2e-7,-0.1466973 -2e-7,-2.41081486 c 0,-0.92617265 -0.3839008,-1.67179354 -0.8608077,-1.67179354 z"
         inkscape:label="ShuttleBody" />
      <path
         sodipodi:type="star"
         style="fill:#93b7eb;fill-opacity:1;stroke:#000000;stroke-width:0.079375;stroke-opacity:1"
         id="path7"
         inkscape:flatsided="true"
         sodipodi:sides="3"
         sodipodi:cx="4.0307617"
         sodipodi:cy="0.91363931"
         sodipodi:r1="0.3291752"
         sodipodi:r2="0.16458762"
         sodipodi:arg1="0.52359878"
         sodipodi:arg2="1.5707963"
         inkscape:rounded="0"
         inkscape:randomized="0"
         d="m 4.3158358,1.0782269 -0.5701482,0 0.2850741,-0.4937628 z"
         inkscape:transform-center-y="-0.11019471"
         transform="matrix(2.3390969,0,0,1.3390389,-5.1949234,-2.1383686)"
         inkscape:label="vidro" />
    </g>
    <path
       d="M 6.4551473,5.7786499 6.4964194,5.7081984 7.2231254,4.4629468 8.087341,2.9826214 3.5196293,2.7096092 3.7502109,1.7686612 c 0.022366,-0.091203 0.011123,-0.1818298 -0.026533,-0.2599687 -2.859e-4,-5.932e-4 -5.339e-4,-0.00108 -8.263e-4,-0.00166 -0.00512,-0.010839 -0.011213,-0.021755 -0.017288,-0.032063 -2.17e-4,-3.582e-4 -4.184e-4,-6.069e-4 -6.326e-4,-9.589e-4 -0.00204,-0.00343 -0.00422,-0.00628 -0.00636,-0.00965 -0.00453,-0.00692 -0.0086,-0.014332 -0.013556,-0.020957 C 3.6337191,1.373444 3.5577159,1.3195904 3.4666983,1.2964781 L 2.2539326,0.98892016 C 2.2886644,0.86984996 2.2452417,0.72064156 2.132562,0.60796189 L 1.5666668,0.04196223 c -0.085373,-0.08537369 -0.1921642,-0.13136924 -0.2906651,-0.13320691 -0.076611,-0.00143 -0.1482199,0.0245548 -0.200969,0.077304 -0.015071,0.0150716 -0.027606,0.0317405 -0.038166,0.0495698 -0.0739271,0.12480339 -0.0382403,0.30905621 0.094563,0.44185971 L 1.6234921,0.96983216 C 1.551227,1.0211665 1.4967862,1.0979004 1.4731607,1.1909397 c -0.016933,0.066683 -0.015422,0.1326932 0.00106,0.1945402 l -0.78230861,4.21e-5 c -0.21464267,0 -0.38704352,0.1370998 -0.38704353,0.3076104 -3e-8,0.1705106 0.17273731,0.3077897 0.38738,0.3077898 l 0.80012684,1.015e-4 c 0.21427,0 0.3866341,-0.1368055 0.3872326,-0.3069046 l 1.0277928,0.26103 -0.1555591,0.6322046 C 2.1388985,2.369327 1.5878434,2.4118219 1.4002734,2.7331183 c -0.018806,0.032213 -0.031994,0.066994 -0.042505,0.1025588 z"
       style="opacity:1;fill:#000000;fill-opacity:0.2;stroke-width:0.264583"
       id="path29"
       inkscape:label="sombra" />
  </g>
</svg>
