<?xml version="1.0" encoding="UTF-8" standalone="no"?>
<!-- Created with Inkscape (http://www.inkscape.org/) -->

<svg
   width="300"
   height="300"
   viewBox="0 0 79.374998 79.375"
   version="1.1"
   id="svg1"
   xml:space="preserve"
   inkscape:version="1.3.2 (091e20e, 2023-11-25, custom)"
   sodipodi:docname="new-shepard.svg"
   xmlns:inkscape="http://www.inkscape.org/namespaces/inkscape"
   xmlns:sodipodi="http://sodipodi.sourceforge.net/DTD/sodipodi-0.dtd"
   xmlns="http://www.w3.org/2000/svg"
   xmlns:svg="http://www.w3.org/2000/svg"><sodipodi:namedview
     id="namedview1"
     pagecolor="#000000"
     bordercolor="#000000"
     borderopacity="0.25"
     inkscape:showpageshadow="2"
     inkscape:pageopacity="0.0"
     inkscape:pagecheckerboard="0"
     inkscape:deskcolor="#d1d1d1"
     inkscape:document-units="mm"
     inkscape:zoom="4.4094972"
     inkscape:cx="133.34854"
     inkscape:cy="140.71899"
     inkscape:window-width="2560"
     inkscape:window-height="1057"
     inkscape:window-x="-8"
     inkscape:window-y="-8"
     inkscape:window-maximized="1"
     inkscape:current-layer="layer1" /><defs
     id="defs1" /><g
     inkscape:label="Camada 1"
     inkscape:groupmode="layer"
     id="layer1"
     transform="matrix(0.31162653,0.17991766,-0.17991766,0.31162653,45.529249,-2.0174907)"
     style="stroke-width:2.77905"><path
       sodipodi:type="star"
       style="fill:#262626;fill-opacity:1;stroke-width:0.937884;stroke-linecap:round"
       id="path3"
       inkscape:flatsided="true"
       sodipodi:sides="3"
       sodipodi:cx="129.15305"
       sodipodi:cy="258.53287"
       sodipodi:r1="14.978427"
       sodipodi:r2="7.4892135"
       sodipodi:arg1="-1.5707963"
       sodipodi:arg2="-0.52359878"
       inkscape:rounded="0"
       inkscape:randomized="0"
       d="m 129.15305,243.55444 12.97169,22.46764 -25.94339,0 z"
       transform="matrix(0.73529006,0,0,1.8077473,-55.296882,-310.67049)"
       inkscape:transform-center-y="-2.4358362" /><path
       id="rect2"
       style="fill:#cccccc;fill-opacity:1;stroke-width:1.47058;stroke-linecap:round"
       d="M 17.859776 30.593606 C 15.507255 32.180326 13.965052 34.869947 13.965052 37.933148 L 13.966369 153.12321 C 13.966369 158.02433 17.911019 161.97054 22.81214 161.97054 L 56.523366 161.9706 C 61.424488 161.9706 65.369974 158.0247 65.369974 153.12358 L 65.3699 37.932799 C 65.3699 33.031677 61.424007 29.086191 56.522886 29.086191 L 22.81166 29.086133 C 20.973739 29.086133 19.271288 29.641574 17.859776 30.593606 z " /><g
       inkscape:label="shepard capsule"
       id="layer1-7"
       transform="translate(-2.7143278,-7.3726466)"
       style="stroke-width:2.77905"><ellipse
         style="fill:#959595;fill-opacity:1;stroke:none;stroke-width:0"
         id="path2"
         cx="42.382397"
         cy="47.085159"
         rx="25.70228"
         ry="14.075527"
         inkscape:label="capsule heatshield" /><path
         id="path1"
         style="fill:#cccccc;fill-opacity:1;stroke:none;stroke-width:0"
         d="M 42.395345,8.8758488 C 16.644484,8.8758751 16.680443,40.59499 16.680119,46.593056 16.679718,52.591338 28.192924,57.454001 42.395345,57.454015 56.597766,57.454001 68.110972,52.591338 68.110571,46.593056 68.110247,40.59499 68.146204,8.8758751 42.395345,8.8758488 Z"
         sodipodi:nodetypes="ccccc"
         inkscape:label="capsule body" /><g
         id="g23"
         inkscape:label="window"
         style="stroke-width:2.77905"><rect
           style="fill:#979fed;fill-opacity:1;stroke:none;stroke-width:0"
           id="rect3"
           width="7.1817479"
           height="17.375195"
           x="46.615742"
           y="39.10009"
           ry="5.5021453"
           transform="rotate(-15)" /><rect
           style="fill:#979fed;fill-opacity:1;stroke:none;stroke-width:0"
           id="rect6"
           width="7.1817479"
           height="17.375195"
           x="-35.285774"
           y="17.154644"
           ry="5.5021453"
           transform="matrix(-0.96592583,-0.25881905,-0.25881905,0.96592583,0,0)" /></g><g
         id="g21"
         inkscape:label="the flag"
         inkscape:highlight-color="#003399"
         transform="translate(0.55190098,3.5710882)"
         style="stroke-width:2.77905"><rect
           style="fill:#f4f4f4;fill-opacity:1;stroke:none;stroke-width:0"
           id="rect7"
           width="6.8884706"
           height="4.3293271"
           x="38.399181"
           y="22.805113"
           inkscape:label="white" /><path
           id="rect9"
           style="fill:#ff0000;fill-opacity:1;stroke:none;stroke-width:0"
           d="M 38.3992,22.804987 V 23.1383 h 6.888505 v -0.333313 z m 0,0.666109 v 0.333313 h 6.888505 v -0.333313 z m 0,0.666109 v 0.332796 h 6.888505 v -0.332796 z m 0,0.666109 v 0.332796 h 6.888505 v -0.332796 z m 0,0.666109 v 0.332797 h 6.888505 v -0.332797 z m 0,0.66611 v 0.332796 h 6.888505 v -0.332796 z m 0,0.666109 v 0.332796 h 6.888505 v -0.332796 z"
           inkscape:label="red" /><rect
           style="fill:#003399;fill-opacity:1;stroke:none;stroke-width:0"
           id="rect21"
           width="3.444272"
           height="2.3311768"
           x="38.399181"
           y="22.804934"
           inkscape:label="blue" /></g><g
         id="g22"
         inkscape:label="door"
         style="stroke-width:2.77905"><rect
           style="fill:#b8b8b8;fill-opacity:1;stroke:none;stroke-width:0"
           id="rect4"
           width="11.004291"
           height="17.375195"
           x="36.8932"
           y="32.033695"
           ry="5.5021453" /><circle
           style="fill:#a3a3a3;fill-opacity:1;stroke:none;stroke-width:0"
           id="path21"
           cx="42.395344"
           cy="37.747612"
           r="1.2886603" /></g></g><path
       id="rect1"
       style="fill:#b0b0b0;fill-opacity:1;stroke-width:1.47058;stroke-linecap:round"
       d="M 12.979965 42.766987 C 11.087868 43.792292 9.808622 45.793783 9.808622 48.105227 L 9.8071614 52.057753 C 9.8071614 55.419853 12.514424 58.126861 15.876523 58.126861 L 63.458885 58.126254 C 66.820984 58.126254 69.528711 55.420235 69.528711 52.058136 L 69.528209 48.105084 C 69.528209 44.742984 66.820947 42.035975 63.458848 42.035975 L 15.876486 42.036583 C 14.82583 42.036583 13.840009 42.300939 12.979965 42.766987 z " /><path
       sodipodi:type="star"
       style="fill:#b0b0b0;fill-opacity:1;stroke-width:1.28552;stroke-linecap:round"
       id="path4"
       inkscape:flatsided="true"
       sodipodi:sides="3"
       sodipodi:cx="144.23413"
       sodipodi:cy="208.64056"
       sodipodi:r1="16.258949"
       sodipodi:r2="8.1294746"
       sodipodi:arg1="0.52359878"
       sodipodi:arg2="1.5707963"
       inkscape:rounded="0"
       inkscape:randomized="0"
       d="m 158.31479,216.77004 -28.16132,0 14.08066,-24.38843 z"
       transform="matrix(0.48120404,0,0,1.4703019,-29.737981,-156.74731)"
       inkscape:transform-center-y="-2.1505171" /><path
       sodipodi:type="star"
       style="fill:#b0b0b0;fill-opacity:1;stroke-width:1.28552;stroke-linecap:round"
       id="path5"
       inkscape:flatsided="true"
       sodipodi:sides="3"
       sodipodi:cx="144.23413"
       sodipodi:cy="208.64056"
       sodipodi:r1="16.258949"
       sodipodi:r2="8.1294746"
       sodipodi:arg1="0.52359878"
       sodipodi:arg2="1.5707963"
       inkscape:rounded="0"
       inkscape:randomized="0"
       d="m 158.31479,216.77004 -28.16132,0 14.08066,-24.38843 z"
       transform="matrix(0.48120404,0,0,1.4703019,-4.0356985,-156.74731)"
       inkscape:transform-center-y="-2.1505171" /><path
       sodipodi:type="star"
       style="fill:#b0b0b0;fill-opacity:1;stroke-width:1.28552;stroke-linecap:round"
       id="path6"
       inkscape:flatsided="true"
       sodipodi:sides="3"
       sodipodi:cx="144.23413"
       sodipodi:cy="208.64056"
       sodipodi:r1="16.258949"
       sodipodi:r2="8.1294746"
       sodipodi:arg1="0.52359878"
       sodipodi:arg2="1.5707963"
       inkscape:rounded="0"
       inkscape:randomized="0"
       d="m 158.31479,216.77004 -28.16132,0 14.08066,-24.38843 z"
       transform="matrix(0.48120404,0,0,1.4703019,-55.440257,-156.74731)"
       inkscape:transform-center-y="-2.1505171" /><path
       sodipodi:type="star"
       style="fill:#f9ff6d;fill-opacity:1;stroke-width:0.773026;stroke-linecap:round"
       id="path7"
       inkscape:flatsided="true"
       sodipodi:sides="3"
       sodipodi:cx="129.41048"
       sodipodi:cy="278.54523"
       sodipodi:r1="13.470481"
       sodipodi:r2="6.7352405"
       sodipodi:arg1="-0.52359878"
       sodipodi:arg2="0.52359878"
       inkscape:rounded="0"
       inkscape:randomized="0"
       d="M 141.07626,271.80999 129.41048,292.01571 117.7447,271.80999 Z"
       transform="matrix(0.73529006,0,0,2.6610148,-55.486169,-552.78922)"
       inkscape:transform-center-y="3.224592" /><path
       sodipodi:type="star"
       style="fill:#fcffb0;fill-opacity:1;stroke-width:1.32813;stroke-linecap:round"
       id="path8"
       inkscape:flatsided="true"
       sodipodi:sides="3"
       sodipodi:cx="129.41048"
       sodipodi:cy="278.54523"
       sodipodi:r1="13.470481"
       sodipodi:r2="6.7352405"
       sodipodi:arg1="-0.52359878"
       sodipodi:arg2="0.52359878"
       inkscape:rounded="0"
       inkscape:randomized="0"
       d="M 141.07626,271.80999 129.41048,292.01571 117.7447,271.80999 Z"
       transform="matrix(0.42796757,0,0,1.5488147,-15.715419,-248.99424)"
       inkscape:transform-center-y="1.8768407" /></g></svg>
