<?xml version="1.0" encoding="UTF-8" standalone="no"?>
<!-- Created with Inkscape (http://www.inkscape.org/) -->

<svg
   width="100"
   height="100"
   viewBox="0 0 26.458333 26.458333"
   version="1.1"
   id="svg1"
   inkscape:version="1.3.2 (091e20e, 2023-11-25, custom)"
   sodipodi:docname="outer_planets.svg"
   xml:space="preserve"
   xmlns:inkscape="http://www.inkscape.org/namespaces/inkscape"
   xmlns:sodipodi="http://sodipodi.sourceforge.net/DTD/sodipodi-0.dtd"
   xmlns:xlink="http://www.w3.org/1999/xlink"
   xmlns="http://www.w3.org/2000/svg"
   xmlns:svg="http://www.w3.org/2000/svg"><sodipodi:namedview
     id="namedview1"
     pagecolor="#000000"
     bordercolor="#000000"
     borderopacity="0.25"
     inkscape:showpageshadow="2"
     inkscape:pageopacity="0.0"
     inkscape:pagecheckerboard="0"
     inkscape:deskcolor="#d1d1d1"
     inkscape:document-units="mm"
     inkscape:zoom="16"
     inkscape:cx="29.5"
     inkscape:cy="72.156249"
     inkscape:window-width="2560"
     inkscape:window-height="1057"
     inkscape:window-x="-8"
     inkscape:window-y="-8"
     inkscape:window-maximized="1"
     inkscape:current-layer="layer1" /><defs
     id="defs1"><linearGradient
       id="linearGradient30"
       inkscape:collect="always"><stop
         style="stop-color:#5d72da;stop-opacity:1;"
         offset="0.89734513"
         id="stop29" /><stop
         style="stop-color:#5d72da;stop-opacity:0;"
         offset="1"
         id="stop30" /></linearGradient><linearGradient
       id="linearGradient21"
       inkscape:collect="always"><stop
         style="stop-color:#5dbfda;stop-opacity:1;"
         offset="0.89734513"
         id="stop22" /><stop
         style="stop-color:#5dbfda;stop-opacity:0;"
         offset="1"
         id="stop23" /></linearGradient><linearGradient
       id="linearGradient20"
       inkscape:collect="always"><stop
         style="stop-color:#dcab64;stop-opacity:1;"
         offset="0.81946903"
         id="stop20" /><stop
         style="stop-color:#dcab64;stop-opacity:0;"
         offset="1"
         id="stop21" /></linearGradient><linearGradient
       id="linearGradient35"
       inkscape:collect="always"><stop
         style="stop-color:#dab176;stop-opacity:1;"
         offset="0.76991153"
         id="stop35" /><stop
         style="stop-color:#dab176;stop-opacity:0;"
         offset="1"
         id="stop36" /></linearGradient><radialGradient
       inkscape:collect="always"
       xlink:href="#linearGradient35"
       id="radialGradient36"
       cx="26.458334"
       cy="26.458334"
       fx="26.458334"
       fy="26.458334"
       r="20.765768"
       gradientUnits="userSpaceOnUse"
       gradientTransform="matrix(1.2741323,0,0,1.2741323,-7.2530821,-7.2530824)" /><radialGradient
       inkscape:collect="always"
       xlink:href="#linearGradient20"
       id="radialGradient21"
       cx="13.30932"
       cy="21.905333"
       fx="13.30932"
       fy="21.905333"
       r="3.6918449"
       gradientTransform="matrix(1,0,0,1.0186057,0,-0.40756397)"
       gradientUnits="userSpaceOnUse" /><radialGradient
       inkscape:collect="always"
       xlink:href="#linearGradient21"
       id="radialGradient23"
       cx="8.0619564"
       cy="8.8661661"
       fx="8.0619564"
       fy="8.8661661"
       r="3.0789983"
       gradientUnits="userSpaceOnUse" /><radialGradient
       inkscape:collect="always"
       xlink:href="#linearGradient30"
       id="radialGradient29"
       gradientUnits="userSpaceOnUse"
       cx="8.0619564"
       cy="8.8661661"
       fx="8.0619564"
       fy="8.8661661"
       r="3.0789983" /></defs><g
     inkscape:label="Planetas Gasosos"
     inkscape:groupmode="layer"
     id="layer1"
     transform="matrix(1.2674914,0,0,1.2674914,-3.8519242,-3.5814091)"><g
       inkscape:label="jupiter"
       id="layer1-5"
       transform="matrix(0.24443207,0,0,0.24443207,7.1786377,6.4148834)"
       inkscape:highlight-color="#dab176"><circle
         style="fill:url(#radialGradient36);fill-opacity:1;stroke-width:0.110195"
         id="circle35"
         cx="26.458334"
         cy="26.458334"
         r="26.458332"
         inkscape:label="atm" /><circle
         style="fill:#dab176;fill-opacity:1;stroke-width:0.101135"
         id="path1"
         cx="37.058517"
         cy="5.1723614"
         r="24.282875"
         inkscape:label="planeta"
         transform="rotate(37.054394)" /><g
         id="g30"
         inkscape:label="listras"
         transform="matrix(1.2741323,0,0,1.2741323,-7.2530821,-7.2530819)"
         style="display:inline"><path
           d="m 45.329017,28.839489 h -0.175183 c -0.323162,-0.629117 -0.976762,-1.058333 -1.735295,-1.058333 h -8.658903 c -0.860636,0 -1.58623,0.552515 -1.846915,1.322917 h -1.335836 c -0.16966,-0.905802 -0.960176,-1.5875 -1.916679,-1.5875 h -8.658903 c -1.081029,0 -1.951302,0.870273 -1.951302,1.951302 0,0.09865 0.0093,0.194753 0.02325,0.289388 h -1.485697 c 1.04e-4,-0.0084 10e-4,-0.01643 10e-4,-0.02481 0,-1.081029 -0.870273,-1.951302 -1.951302,-1.951302 H 7.5039349 a 19.058363,19.058363 0 0 0 0.6697266,3.902604 h 3.9625495 c -1.08e-4,0.0085 -0.0015,0.01678 -0.0015,0.02532 0,1.081028 0.870273,1.951302 1.951302,1.951302 h 8.658903 c 1.081029,0 1.951302,-0.870274 1.951302,-1.951302 0,-0.09873 -0.0092,-0.195197 -0.02325,-0.289905 h 1.820044 c 0.169659,0.905801 0.960175,1.5875 1.916678,1.5875 h 8.658903 c 0.831544,0 1.536522,-0.515705 1.818494,-1.245402 0.335786,0.586559 0.966467,0.980818 1.693437,0.980818 h 3.840075 a 19.058363,19.058363 0 0 0 0.908472,-3.902604 z"
           style="fill:#da9a76;stroke-width:0.079375"
           id="path9" /><path
           d="m 42.094072,37.306156 h -4.953186 c -0.758531,0 -1.412133,0.429216 -1.735294,1.058333 H 32.036288 C 31.775604,37.594088 31.050009,37.041573 30.189373,37.041573 H 21.53047 c -0.860636,0 -1.58623,0.552515 -1.846916,1.322916 H 13.59297 c -0.563988,0 -1.066531,0.240536 -1.422136,0.620634 a 19.058363,19.058363 0 0 0 3.722254,3.28197 h 6.358785 c 0.860681,0 1.586266,-0.552452 1.846915,-1.322916 h 3.786849 c 0.260651,0.770464 0.986235,1.322916 1.846916,1.322916 h 7.291028 a 19.058363,19.058363 0 0 0 5.070491,-4.960937 z"
           style="fill:#da9a76;stroke-width:0.079375"
           id="path12" /><path
           d="m 43.901714,18.785323 h -1.715141 c 0.0046,-0.05465 0.0083,-0.109495 0.0083,-0.165365 0,-1.081029 -0.870273,-1.951302 -1.951302,-1.951302 h -8.658903 c -0.860681,0 -1.586265,0.552452 -1.846915,1.322917 h -3.157947 c -0.05168,-1.034235 -0.899139,-1.852084 -1.946651,-1.852084 h -8.658903 c -1.047512,0 -1.894975,0.817849 -1.946651,1.852084 H 9.4004602 a 19.058363,19.058363 0 0 0 -1.3859621,3.902604 h 7.0936249 c 1.047512,0 1.894973,-0.817849 1.946651,-1.852084 h 3.851961 c 0.05168,1.034235 0.899139,1.852084 1.946651,1.852084 h 8.658903 c 0.860682,0 1.586265,-0.552453 1.846916,-1.322917 h 4.219898 c -0.0046,0.05465 -0.0083,0.109495 -0.0083,0.165365 0,1.081028 0.870274,1.951302 1.951302,1.951302 h 5.613611 a 19.058363,19.058363 0 0 0 -1.234033,-3.902604 z"
           style="fill:#da9a76;stroke-width:0.079375"
           id="path6" /><path
           d="M 36.043796,9.9879259 A 19.058363,19.058363 0 0 0 26.458334,7.399971 19.058363,19.058363 0 0 0 17.404623,9.723343 h 3.524333 c 0.502034,0 0.957174,-0.189346 1.302246,-0.498678 0.06665,1.01978 0.90789,1.821595 1.945101,1.821595 h 8.658903 c 0.75857,0 1.41215,-0.429165 1.735295,-1.0583341 z"
           style="fill:#da9a76;stroke-width:0.079375"
           id="path4" /><path
           d="M 43.509459,34.917155 H 37.66072 c -0.900386,0 -1.628904,0.700072 -1.678967,1.5875 h -1.825212 c 0.0054,-0.05527 0.0083,-0.111201 0.0083,-0.167948 0,-0.933041 -0.751095,-1.684135 -1.684135,-1.684135 h -6.461621 c -0.515735,0 -0.97519,0.230386 -1.283643,0.593245 -0.14527,-0.0406 -0.298248,-0.06408 -0.45682,-0.06408 h -6.461621 c -0.435908,0 -0.830672,0.165261 -1.12913,0.435116 h -5.261176 c -0.514684,0 -0.9685,0.233235 -1.276925,0.594796 a 19.058363,19.058363 0 0 0 2.021064,2.773474 h 5.717481 c 0.435908,0 0.830672,-0.165261 1.12913,-0.435116 h 5.261177 c 0.515978,0 0.975705,-0.230092 1.28416,-0.593245 0.14527,0.0406 0.297731,0.06408 0.456303,0.06408 h 2.2934 c -0.0054,0.05527 -0.0088,0.1112 -0.0088,0.167948 0,0.93304 0.751094,1.684135 1.684135,1.684135 h 6.461621 c 0.90039,0 1.629426,-0.700067 1.679484,-1.5875 h 3.200838 a 19.058363,19.058363 0 0 0 2.179696,-3.36827 z"
           style="fill:#c8a988;stroke-width:0.079375"
           id="path24" /><path
           d="m 45.500035,26.079452 c -0.296374,-0.261965 -0.684512,-0.422714 -1.11311,-0.422714 h -6.461621 c -0.548707,0 -1.033371,0.260779 -1.340487,0.664559 -0.203729,-0.08712 -0.428246,-0.135392 -0.664559,-0.135392 H 31.39857 C 31.151005,25.564808 30.546298,25.127572 29.834841,25.127572 H 23.37322 c -0.911044,0 -1.646763,0.71666 -1.681034,1.619022 -0.104775,-0.02026 -0.213145,-0.03152 -0.324011,-0.03152 h -6.461621 c -0.121096,0 -0.23871,0.01315 -0.352434,0.03721 -0.150411,-0.776756 -0.830617,-1.360129 -1.652612,-1.360129 H 7.4765177 a 19.058363,19.058363 0 0 0 -0.083199,1.058333 19.058363,19.058363 0 0 0 0.181901,2.309937 h 5.3262893 c 0.120921,0 0.238862,-0.01321 0.352433,-0.03721 0.150234,0.776977 0.830455,1.360124 1.652613,1.360124 h 6.46162 c 0.911042,0 1.646758,-0.716666 1.681034,-1.619023 0.10493,0.02032 0.21297,0.03152 0.324011,0.03152 h 4.521688 c 0.247566,0.621097 0.852275,1.058333 1.563729,1.058333 h 6.461621 c 0.548794,0 1.033379,-0.260667 1.340487,-0.664559 0.203727,0.08712 0.428247,0.135392 0.664559,0.135392 h 3.992521 c 0.247566,0.621099 0.852272,1.058334 1.56373,1.058334 h 1.637109 a 19.058363,19.058363 0 0 0 0.391191,-3.632854 19.058363,19.058363 0 0 0 -0.0098,-0.371036 z"
           style="fill:#c8a988;stroke-width:0.079375"
           id="path21" /><path
           d="m 42.472313,16.131738 h -0.907438 c 0.0054,-0.05527 0.0083,-0.111201 0.0083,-0.167948 0,-0.93304 -0.751095,-1.684135 -1.684134,-1.684135 h -6.461622 c -0.714748,0 -1.321455,0.441436 -1.566828,1.067118 h -5.17e-4 c -0.05675,-0.0057 -0.114801,-0.0088 -0.173116,-0.0088 h -6.461621 c -0.14605,0 -0.286727,0.02015 -0.42168,0.05478 -0.233228,-0.649798 -0.85137,-1.113098 -1.583398,-1.113098 h -6.461621 c -0.711455,0 -1.316164,0.437236 -1.563729,1.058333 h -4.217313 a 19.058363,19.058363 0 0 0 -1.7663005,3.08715 c 0.2667813,0.177235 0.5870945,0.28112 0.9327605,0.28112 h 6.46162 c 0.711455,0 1.316164,-0.437236 1.563729,-1.058333 h 5.050854 c 0.145875,0 0.286872,-0.02023 0.42168,-0.05478 0.233194,0.64981 0.851337,1.11311 1.583366,1.11311 h 6.461621 c 0.714749,0 1.321455,-0.441436 1.566829,-1.067118 0.05709,0.0058 0.114966,0.0088 0.173633,0.0088 h 5.468401 c -0.0054,0.05527 -0.0088,0.1112 -0.0088,0.167948 0,0.93304 0.751095,1.684135 1.684134,1.684135 h 3.623036 a 19.058363,19.058363 0 0 0 -1.72186,-3.36827 z"
           style="fill:#c8a988;stroke-width:0.079375"
           id="path18" /><path
           d="M 32.50086,8.3890579 A 19.058363,19.058363 0 0 0 26.458334,7.399971 19.058363,19.058363 0 0 0 22.337139,7.9001989 c 0.201806,0.2952213 0.540428,0.488859 0.926558,0.488859 z"
           style="fill:#c8a988;stroke-width:0.079375"
           id="path31" /><rect
           style="display:none;fill:#da9a76;fill-opacity:1;stroke-width:0.079375"
           id="rect34"
           width="9.223032"
           height="3.1586487"
           x="22.848345"
           y="37.414932"
           ry="1.1224285" /></g><ellipse
         style="display:inline;fill:#cd7d47;fill-opacity:1;stroke-width:0.10705"
         id="path32"
         cx="38.038219"
         cy="32.75983"
         rx="2.743603"
         ry="1.0391541"
         inkscape:label="jovian tempest" /><path
         d="M 30.29547,2.5415068 A 24.282875,24.282875 0 0 0 14.778758,11.825244 24.282875,24.282875 0 0 0 19.52557,45.837353 24.282875,24.282875 0 0 0 30.320908,50.374276 24.282875,24.282875 0 0 0 45.83762,41.090539 24.282875,24.282875 0 0 0 41.090811,7.0784348 24.282875,24.282875 0 0 0 30.29547,2.5415068 Z"
         style="fill:#000000;fill-opacity:0.25;stroke-width:0.101135"
         id="path7"
         inkscape:label="sombra" /></g><g
       id="g11"
       inkscape:label="saturno"
       inkscape:highlight-color="#f3ea21"
       transform="translate(-9.6845708,0.86544314)"><ellipse
         style="fill:url(#radialGradient21);stroke-width:0.225457"
         id="ellipse20"
         cx="13.30932"
         cy="21.905333"
         rx="3.6918449"
         ry="3.7605343"
         transform="rotate(-15)"
         inkscape:label="atmosphere" /><ellipse
         style="fill:#dcab64;fill-opacity:1;stroke-width:0.208746"
         id="path2"
         cx="13.30932"
         cy="21.905333"
         rx="3.4182103"
         ry="3.4818084"
         transform="rotate(-15)"
         inkscape:label="planet it self" /><ellipse
         style="fill-opacity:0;stroke:#ae8727;stroke-width:0.626434;stroke-linecap:square;stroke-linejoin:bevel;stroke-dasharray:none;stroke-dashoffset:0;stroke-opacity:0.633947;paint-order:stroke fill markers"
         id="path13"
         cx="13.30932"
         cy="21.905333"
         rx="5.5709"
         ry="0.82845932"
         transform="rotate(-15)"
         inkscape:label="rings" /><path
         d="m 21.827072,16.829527 a 3.4818084,3.4182103 75 0 0 -4.202897,-2.478476 3.4818084,3.4182103 75 0 0 -2.400578,4.247871 z"
         style="fill:#dcab64;fill-opacity:1"
         id="path16"
         inkscape:label="rings oculter" /><path
         d="m 18.873924,14.250754 a 3.4182103,3.4818084 0 0 0 -3.166656,3.463466 3.4182103,3.4818084 0 0 0 3.118138,3.459796 3.4182103,3.4818084 0 0 0 3.118138,-3.459796 3.4182103,3.4818084 0 0 0 -3.06962,-3.463466 z"
         style="fill:#000000;fill-opacity:0.15;stroke-width:0.208746"
         id="path11"
         inkscape:label="shadow" /></g><g
       id="g21"
       inkscape:label="urano"
       inkscape:highlight-color="#5dbfda"
       transform="translate(12.537096,9.3379771)"><circle
         style="fill:url(#radialGradient23);fill-opacity:1;stroke-width:1.0583;paint-order:stroke fill markers"
         id="circle21"
         cx="8.0619564"
         cy="8.8661661"
         r="3.0789983"
         inkscape:label="atm" /><circle
         style="fill:#5dbfda;fill-opacity:1;paint-order:stroke fill markers"
         id="path20"
         cx="8.0619564"
         cy="8.8661661"
         r="2.9093926"
         inkscape:label="planet" /><path
         d="M 8.3775217,5.9747125 A 2.9093926,2.9093926 0 0 0 5.715199,8.8661661 2.9093926,2.9093926 0 0 0 8.3432744,11.755174 2.9093926,2.9093926 0 0 0 10.971349,8.8661661 2.9093926,2.9093926 0 0 0 8.3775217,5.9747125 Z"
         style="fill:#000000;fill-opacity:0.15;paint-order:stroke fill markers"
         id="path26"
         inkscape:label="shadow" /></g><g
       id="g29"
       inkscape:label="netuno"
       inkscape:highlight-color="#5d72da"
       transform="translate(7.4658241,11.581814)"><circle
         style="fill:url(#radialGradient29);fill-opacity:1;stroke-width:1.0583;paint-order:stroke fill markers"
         id="circle28"
         cx="8.0619564"
         cy="8.8661661"
         r="3.0789983"
         inkscape:label="atm" /><circle
         style="fill:#5d72da;fill-opacity:1;paint-order:stroke fill markers"
         id="circle29"
         cx="8.0619564"
         cy="8.8661661"
         r="2.9093926"
         inkscape:label="planet" /><path
         d="M 8.3775217,5.9747125 A 2.9093926,2.9093926 0 0 0 5.715199,8.8661661 2.9093926,2.9093926 0 0 0 8.3432744,11.755174 2.9093926,2.9093926 0 0 0 10.971349,8.8661661 2.9093926,2.9093926 0 0 0 8.3775217,5.9747125 Z"
         style="fill:#000000;fill-opacity:0.15;paint-order:stroke fill markers"
         id="path29"
         inkscape:label="shadow" /></g></g></svg>
