<?xml version="1.0" encoding="UTF-8" standalone="no"?>
<!-- Created with Inkscape (http://www.inkscape.org/) -->

<svg
   width="300"
   height="300"
   viewBox="0 0 79.374998 79.375"
   version="1.1"
   id="svg1"
   inkscape:version="1.3.2 (091e20e, 2023-11-25, custom)"
   sodipodi:docname="salyut.svg"
   xml:space="preserve"
   xmlns:inkscape="http://www.inkscape.org/namespaces/inkscape"
   xmlns:sodipodi="http://sodipodi.sourceforge.net/DTD/sodipodi-0.dtd"
   xmlns="http://www.w3.org/2000/svg"
   xmlns:svg="http://www.w3.org/2000/svg"><sodipodi:namedview
     id="namedview1"
     pagecolor="#000000"
     bordercolor="#000000"
     borderopacity="0.25"
     inkscape:showpageshadow="2"
     inkscape:pageopacity="0.0"
     inkscape:pagecheckerboard="0"
     inkscape:deskcolor="#d1d1d1"
     inkscape:document-units="mm"
     inkscape:zoom="2.0888418"
     inkscape:cx="99.576713"
     inkscape:cy="138.11482"
     inkscape:window-width="1920"
     inkscape:window-height="1046"
     inkscape:window-x="-11"
     inkscape:window-y="-11"
     inkscape:window-maximized="1"
     inkscape:current-layer="layer3" /><defs
     id="defs1" /><g
     inkscape:groupmode="layer"
     id="layer3"
     inkscape:label="Salyut"
     transform="matrix(0.55728801,0.55728801,-0.55728801,0.55728801,40.366694,-5.226474)"
     style="stroke-width:1.26884"><path
       id="rect87"
       style="fill:#a9a9a9;fill-opacity:1;stroke-width:1.67867"
       inkscape:label="docking port"
       d="m 36.569861,-0.17883187 c -1.47362,0 -2.659786,0.45199574 -2.659786,1.01337484 V 11.189466 c 0,0.56138 1.186166,1.013375 2.659786,1.013375 h 6.235278 c 1.47362,0 2.659786,-0.451995 2.659786,-1.013375 V 0.83454297 c 0,-0.5613791 -1.186166,-1.01337484 -2.659786,-1.01337484 z" /><path
       id="rect84"
       style="fill:#c5c5c5;fill-opacity:1;stroke-width:1.67867"
       inkscape:label="tube"
       d="m 35.821586,8.6444022 c -2.237289,0 -4.038513,1.8012238 -4.038513,4.0385128 v 53.609648 c 0,2.237289 1.801224,4.038513 4.038513,4.038513 h 7.731828 c 2.237289,0 4.038513,-1.801224 4.038513,-4.038513 V 12.682915 c 0,-2.237289 -1.801224,-4.0385128 -4.038513,-4.0385128 z" /><g
       id="g96"
       inkscape:label="details"
       style="stroke-width:1.26884"><path
         id="rect88"
         style="fill:#588500;fill-opacity:1;stroke-width:1.67867"
         d="m 31.783073,22.346408 v 2.597774 h 15.808854 v -2.597774 z" /><path
         id="rect89"
         style="fill:#588500;fill-opacity:1;stroke-width:1.67867"
         d="m 33.082218,8.6444022 c -0.71948,0 -1.299145,0.5791478 -1.299145,1.2986287 V 11.24166 h 1.299145 13.210564 1.299145 V 9.9430309 c 0,-0.7194809 -0.579665,-1.2986287 -1.299145,-1.2986287 z" /></g><g
       id="g94"
       inkscape:label="solar panels"
       style="fill:#0022f9;fill-opacity:1;stroke-width:1.26884"><rect
         style="fill:#0022f9;fill-opacity:1;stroke-width:1.67867"
         id="rect93"
         width="35.704231"
         height="8.5641918"
         x="48.074577"
         y="13.782216"
         ry="0.73891735"
         inkscape:label="painel" /><rect
         style="fill:#0022f9;fill-opacity:1;stroke-width:1.67867"
         id="rect97"
         width="35.704231"
         height="8.5641918"
         x="48.074577"
         y="59.466141"
         ry="0.73891735"
         inkscape:label="painel" /><rect
         style="fill:#0022f9;fill-opacity:1;stroke-width:1.67867"
         id="rect98"
         width="35.704231"
         height="8.5641918"
         x="-4.4038086"
         y="13.782216"
         ry="0.73891735"
         inkscape:label="painel" /><rect
         style="fill:#0022f9;fill-opacity:1;stroke-width:1.67867"
         id="rect99"
         width="35.704231"
         height="8.5641918"
         x="-4.4038086"
         y="59.466141"
         ry="0.73891735"
         inkscape:label="painel" /></g><g
       id="g95"
       inkscape:label="main habitation module"
       style="stroke-width:1.26884"><path
         id="rect82"
         style="fill:#669900;fill-opacity:1;stroke-width:1.67867"
         d="m 28.467103,26.066055 c -1.039338,1.039338 -1.680673,2.477036 -1.680673,4.069825 v 23.712215 c 0,3.185578 2.564337,5.749915 5.749915,5.749915 h 14.302311 c 3.185578,0 5.749915,-2.564337 5.749915,-5.749915 V 30.13588 c 0,-3.185579 -2.564919,-5.750498 -5.750498,-5.750498 H 32.536927 c -1.592789,0 -3.030486,0.641335 -4.069824,1.680673 z" /><circle
         style="fill:#081757;fill-opacity:1;stroke-width:1.67867"
         id="path93"
         cx="39.6875"
         cy="41.991791"
         r="2.8434403" /><path
         style="fill:none;fill-opacity:1;stroke:#263a00;stroke-width:0.671425;stroke-linecap:round;stroke-linejoin:miter;stroke-dasharray:none;stroke-opacity:1"
         id="path94"
         sodipodi:type="arc"
         sodipodi:cx="-50.833157"
         sodipodi:cy="27.467104"
         sodipodi:rx="2.8434403"
         sodipodi:ry="2.8434403"
         sodipodi:start="0"
         sodipodi:end="5.0497014"
         sodipodi:open="true"
         sodipodi:arc-type="arc"
         d="m -47.989716,27.467104 a 2.8434403,2.8434403 0 0 1 -1.980437,2.709313 2.8434403,2.8434403 0 0 1 -3.182589,-1.064723 2.8434403,2.8434403 0 0 1 0.04856,-3.355614 2.8434403,2.8434403 0 0 1 3.212066,-0.972181"
         transform="rotate(-105)" /><path
         style="fill:none;fill-opacity:1;stroke:#395700;stroke-width:0.671425;stroke-linecap:round;stroke-linejoin:miter;stroke-dasharray:none;stroke-opacity:1"
         id="circle93"
         sodipodi:type="arc"
         sodipodi:cx="39.6875"
         sodipodi:cy="41.991791"
         sodipodi:rx="2.8434403"
         sodipodi:ry="2.8434403"
         sodipodi:start="0"
         sodipodi:end="5.0497014"
         sodipodi:open="true"
         sodipodi:arc-type="arc"
         d="m 42.53094,41.991791 a 2.8434403,2.8434403 0 0 1 -1.980436,2.709313 2.8434403,2.8434403 0 0 1 -3.182589,-1.064723 2.8434403,2.8434403 0 0 1 0.04856,-3.355615 2.8434403,2.8434403 0 0 1 3.212067,-0.972181" /></g><path
       id="path176"
       style="fill:#000000;fill-opacity:0.15000001;stroke-width:0.671425;stroke-linecap:round"
       d="m 39.687661,-0.17890874 v 8.82316924 2.5974705 0.9616 10.142898 2.039283 0.559012 14.204174 0.04035 0.01894 5.577772 a 2.8434403,2.8434403 0 0 0 0.292267,-0.02882 2.8434403,2.8434403 0 0 0 0.88915,-0.23793 2.8434403,2.8434403 0 0 0 0.381182,-0.217347 2.8434403,2.8434403 0 0 1 -0.381182,0.217347 2.8434403,2.8434403 0 0 1 -0.88915,0.23793 2.8434403,2.8434403 0 0 1 -0.292267,0.02882 v 0.02964 0.01976 14.763188 10.733195 h 3.866157 c 2.237256,0 4.038225,-1.80178 4.038225,-4.039047 l -10e-7,-6.769068 c 2.823088,-0.3703 4.99653,-2.747583 4.99653,-5.674918 V 30.135358 c 0,-2.927335 -2.173442,-5.304618 -4.996529,-5.674919 v -2.114201 -9.662923 c -10e-7,-0.510191 -0.103833,-0.992932 -0.274979,-1.441575 h 0.274979 V 9.9434155 c 0,-0.719473 -0.579668,-1.299147 -1.299149,-1.299147 h -0.827403 l 10e-7,-7.80970274 c -10e-7,-0.5613756 -1.186436,-1.0134672 -2.660042,-1.0134672 z m 9.12614,13.96130374 c -0.409361,1e-6 -0.739312,0.329129 -0.739312,0.738489 v 7.086856 c -10e-7,0.409361 0.329951,0.73849 0.739312,0.738489 h 34.226521 c 0.409347,10e-7 0.738488,-0.329128 0.738487,-0.738489 v -7.086856 c 0,-0.40936 -0.32914,-0.738488 -0.738487,-0.738489 z m -8.648633,25.413231 a 2.8434403,2.8434403 0 0 1 0.104554,0.03869 2.8434403,2.8434403 0 0 1 0.103734,0.04199 2.8434403,2.8434403 0 0 1 0.344134,0.0955 2.8434403,2.8434403 0 0 1 0.02385,0.01155 2.8434403,2.8434403 0 0 0 -0.368009,-0.107027 2.8434403,2.8434403 0 0 0 -0.577948,-0.0741 2.8434403,2.8434403 0 0 1 0.577948,0.0741 2.8434403,2.8434403 0 0 0 -0.103735,-0.04199 2.8434403,2.8434403 0 0 0 -0.104561,-0.03869 z m 1.905087,1.249751 a 2.8434403,2.8434403 0 0 1 0.02963,0.04775 2.8434403,2.8434403 0 0 1 0.01483,0.02798 2.8434403,2.8434403 0 0 0 -0.04446,-0.07574 z m 0.460218,1.537076 a 2.8434403,2.8434403 0 0 1 8.48e-4,0.0099 2.8434403,2.8434403 0 0 1 -0.0025,0.01068 2.8434403,2.8434403 0 0 0 0.0016,-0.02058 z m -0.218172,1.033226 a 2.8434403,2.8434403 0 0 1 -7.78e-4,0.0033 2.8434403,2.8434403 0 0 1 -0.127608,0.270038 2.8434403,2.8434403 0 0 0 0.09385,-0.129259 2.8434403,2.8434403 0 0 1 -0.09385,0.129259 2.8434403,2.8434403 0 0 1 -0.247807,0.338373 2.8434403,2.8434403 0 0 1 -0.628169,0.628169 2.8434403,2.8434403 0 0 0 0.628169,-0.628169 2.8434403,2.8434403 0 0 0 0.247807,-0.338373 2.8434403,2.8434403 0 0 0 0.128432,-0.273331 z m -1.578216,1.579914 a 2.8434403,2.8434403 0 0 1 -0.108677,0.03705 2.8434403,2.8434403 0 0 0 0.108677,-0.03705 z m 8.079741,14.871037 c -0.40936,0 -0.739312,0.329129 -0.739312,0.738489 v 7.086857 c 0,0.409348 0.329952,0.738488 0.739312,0.738488 l 34.226496,-2.6e-5 c 0.409347,10e-7 0.738488,-0.32914 0.738487,-0.738487 v -7.086858 c 0,-0.40936 -0.32914,-0.738488 -0.738487,-0.738489 z"
       inkscape:label="shadow" /></g></svg>
