<?xml version="1.0" encoding="UTF-8" standalone="no"?>
<!-- Created with Inkscape (http://www.inkscape.org/) -->

<svg
   width="300"
   height="300"
   viewBox="0 0 79.374998 79.375"
   version="1.1"
   id="svg1"
   inkscape:version="1.3.2 (091e20e, 2023-11-25, custom)"
   sodipodi:docname="soyuz_landed.svg"
   xmlns:inkscape="http://www.inkscape.org/namespaces/inkscape"
   xmlns:sodipodi="http://sodipodi.sourceforge.net/DTD/sodipodi-0.dtd"
   xmlns="http://www.w3.org/2000/svg"
   xmlns:svg="http://www.w3.org/2000/svg">
  <sodipodi:namedview
     id="namedview1"
     pagecolor="#000000"
     bordercolor="#000000"
     borderopacity="0.25"
     inkscape:showpageshadow="2"
     inkscape:pageopacity="0.0"
     inkscape:pagecheckerboard="0"
     inkscape:deskcolor="#d1d1d1"
     inkscape:document-units="mm"
     inkscape:zoom="2"
     inkscape:cx="179.5"
     inkscape:cy="147.25"
     inkscape:window-width="1600"
     inkscape:window-height="837"
     inkscape:window-x="-8"
     inkscape:window-y="-8"
     inkscape:window-maximized="1"
     inkscape:current-layer="svg1" />
  <defs
     id="defs1" />
  <path
     id="circle84"
     style="fill:#877e0f;fill-opacity:1;stroke-width:0.444439;paint-order:stroke fill markers"
     d="m 18.441437,48.678018 a 5.6175128,5.6175128 0 0 0 -5.61713,5.617998 5.6175128,5.6175128 0 0 0 5.61713,5.61713 5.6175128,5.6175128 0 0 0 5.617999,-5.61713 5.6175128,5.6175128 0 0 0 -5.617999,-5.617998 z m 39.21748,7.385341 a 5.6175128,5.6175128 0 0 0 -5.61713,5.617999 5.6175128,5.6175128 0 0 0 5.61713,5.61713 5.6175128,5.6175128 0 0 0 5.61713,-5.61713 5.6175128,5.6175128 0 0 0 -5.61713,-5.617999 z"
     inkscape:label="dirt"
     inkscape:highlight-color="#877e0f" />
  <g
     id="g77"
     inkscape:label="soyuz capsule"
     inkscape:highlight-color="#07420a"
     transform="matrix(1.6797728,0,0,1.6797728,-25.267316,-47.113534)">
    <path
       d="M 50.498642,68.341343 48.236455,67.881817 26.418293,63.449812 24.156614,62.990389 a 13.440006,2.3327324 11.482471 0 0 12.706677,4.961343 13.440006,2.3327324 11.482471 0 0 13.635351,0.389611 z"
       style="fill:#4c3b08;stroke-width:0.390702;paint-order:stroke fill markers"
       id="path76" />
    <path
       id="path77"
       style="fill:#07420a;fill-opacity:1;stroke-width:0.2758;paint-order:stroke fill markers"
       d="m 42.252029,41.422398 a 13.440265,12.36927 11.482471 0 0 -15.633595,9.44618 l -2.462327,12.121708 13.171267,2.675528 13.171268,2.675529 2.462327,-12.121708 A 13.440265,12.36927 11.482471 0 0 42.252029,41.422398 Z" />
    <circle
       style="fill:#040d24;fill-opacity:1;stroke-width:0.200544;paint-order:stroke fill markers"
       id="path73"
       cx="49.65226"
       cy="43.158413"
       r="2.782944"
       transform="rotate(11.482471)" />
    <rect
       style="fill:#063508;fill-opacity:1;stroke-width:0.271585;paint-order:stroke fill markers"
       id="rect77"
       width="17.845837"
       height="3.0152457"
       x="40.72934"
       y="32.182323"
       transform="rotate(11.482471)" />
  </g>
  <path
     id="path78"
     style="fill:#877e0f;fill-opacity:1;stroke-width:0.444439;paint-order:stroke fill markers"
     d="m 17.145444,54.592021 a 5.6175128,5.6175128 0 0 0 -5.61713,5.617997 5.6175128,5.6175128 0 0 0 2.00866,4.250824 5.6175128,5.6175128 0 0 0 -0.04514,0.624127 5.6175128,5.6175128 0 0 0 5.617997,5.617996 5.6175128,5.6175128 0 0 0 2.096333,-0.419266 5.6175128,5.6175128 0 0 0 5.476506,4.434851 5.6175128,5.6175128 0 0 0 4.371484,-2.10675 5.6175128,5.6175128 0 0 0 1.702238,0.388018 5.6175128,5.6175128 0 0 0 5.12408,3.320277 5.6175128,5.6175128 0 0 0 5.289008,-3.764716 5.6175128,5.6175128 0 0 0 1.239572,-0.342012 5.6175128,5.6175128 0 0 0 5.562441,4.848909 5.6175128,5.6175128 0 0 0 5.536402,-4.703945 5.6175128,5.6175128 0 0 0 3.105872,0.943567 5.6175128,5.6175128 0 0 0 5.617998,-5.61713 5.6175128,5.6175128 0 0 0 -5.617998,-5.617998 5.6175128,5.6175128 0 0 0 -5.533798,4.698737 5.6175128,5.6175128 0 0 0 -3.108476,-0.938359 5.6175128,5.6175128 0 0 0 -2.135394,0.434023 5.6175128,5.6175128 0 0 0 -5.564178,-4.848908 5.6175128,5.6175128 0 0 0 -4.733459,2.594592 5.6175128,5.6175128 0 0 0 -4.452211,-2.19529 5.6175128,5.6175128 0 0 0 -3.477395,1.221341 5.6175128,5.6175128 0 0 0 -5.549422,-4.751687 5.6175128,5.6175128 0 0 0 -1.563353,0.223087 5.6175128,5.6175128 0 0 0 -5.350639,-3.912285 z"
     inkscape:label="dirt"
     inkscape:highlight-color="#877e0f" />
  <path
     id="path30"
     style="fill-opacity:0.15;stroke-width:0.264583"
     d="m 39.69394,21.245054 v 0.852144 a 22.576592,20.777563 11.482471 0 1 1.346688,-0.04237 22.576592,20.777563 11.482471 0 0 -1.346688,0.04237 v 4.316533 10.125997 7.984525 17.602543 1.521871 5.17e-4 3.943945 8.402588 a 5.6175128,5.6175128 0 0 0 3.475757,-3.440617 5.6175128,5.6175128 0 0 0 1.239718,-0.342098 5.6175128,5.6175128 0 0 0 5.562451,4.849317 5.6175128,5.6175128 0 0 0 5.536096,-4.704106 5.6175128,5.6175128 0 0 0 3.10627,0.943612 5.6175128,5.6175128 0 0 0 5.617745,-5.617229 5.6175128,5.6175128 0 0 0 -1.451591,-3.751708 5.6175128,5.6175128 0 0 0 0.496094,-2.251543 5.6175128,5.6175128 0 0 0 -1.684135,-4.005957 l 2.103231,-10.352856 a 22.576592,20.777563 11.482471 0 0 -4.527372,-16.952971 22.576592,20.777563 11.482471 0 0 -1.112594,-1.225764 22.576592,20.777563 11.482471 0 1 1.112594,1.225764 l 0.218591,0.04444 1.008207,-4.963521 -14.688509,-2.983797 a 22.576592,20.777563 11.482471 0 1 1.660364,0.401526 22.576592,20.777563 11.482471 0 0 -1.660364,-0.401526 22.576592,20.777563 11.482471 0 0 -1.327051,-0.206189 22.576592,20.777563 11.482471 0 1 1.327051,0.206189 z m 1.665015,0.809253 a 22.576592,20.777563 11.482471 0 1 1.348238,0.04082 22.576592,20.777563 11.482471 0 1 1.337386,0.124024 22.576592,20.777563 11.482471 0 0 -1.337386,-0.124024 22.576592,20.777563 11.482471 0 0 -1.348238,-0.04082 z m 6.517948,0.971 a 22.576592,20.777563 11.482471 0 1 1.11156,0.356051 22.576592,20.777563 11.482471 0 0 -1.11156,-0.356051 z m 1.723926,0.590145 a 22.576592,20.777563 11.482471 0 1 0.974101,0.392741 22.576592,20.777563 11.482471 0 0 -0.974101,-0.392741 z m 1.597835,0.679545 a 22.576592,20.777563 11.482471 0 1 0.909506,0.447001 22.576592,20.777563 11.482471 0 0 -0.909506,-0.447001 z m 1.53169,0.784965 a 22.576592,20.777563 11.482471 0 1 0.850594,0.499194 22.576592,20.777563 11.482471 0 0 -0.850594,-0.499194 z m 1.457275,0.883667 a 22.576592,20.777563 11.482471 0 1 0.81132,0.561723 22.576592,20.777563 11.482471 0 0 -0.81132,-0.561723 z m 1.370459,0.971 a 22.576592,20.777563 11.482471 0 1 0.803052,0.650606 22.576592,20.777563 11.482471 0 0 -0.803052,-0.650606 z m 1.292428,1.062467 a 22.576592,20.777563 11.482471 0 1 0.826306,0.780315 22.576592,20.777563 11.482471 0 0 -0.826306,-0.780315 z M 40.300105,44.838963 a 4.6747136,4.6747136 0 0 0 0.156063,0.06563 4.6747136,4.6747136 0 0 1 -0.156063,-0.06563 z M 58.62095,56.157651 a 5.6175128,5.6175128 0 0 1 0.239779,0.04754 5.6175128,5.6175128 0 0 0 -0.239779,-0.04754 z m -2.096513,0.03359 a 5.6175128,5.6175128 0 0 0 -0.181384,0.03617 5.6175128,5.6175128 0 0 1 0.181384,-0.03617 z m -1.209745,0.395842 a 5.6175128,5.6175128 0 0 0 -0.191719,0.09457 5.6175128,5.6175128 0 0 1 0.191719,-0.09457 z m 5.32474,0.347265 a 5.6175128,5.6175128 0 0 1 0.201538,0.133325 5.6175128,5.6175128 0 0 0 -0.201538,-0.133325 z m -6.450769,0.334347 a 5.6175128,5.6175128 0 0 0 -0.09663,0.08475 5.6175128,5.6175128 0 0 1 0.09663,-0.08475 z m -0.857312,0.845943 a 5.6175128,5.6175128 0 0 0 -0.08423,0.0956 5.6175128,5.6175128 0 0 1 0.08423,-0.0956 z M 52.659557,59.1461 a 5.6175128,5.6175128 0 0 0 -0.09405,0.190169 5.6175128,5.6175128 0 0 1 0.09405,-0.190169 z m -0.453719,1.21853 a 5.6175128,5.6175128 0 0 0 -0.03669,0.183968 5.6175128,5.6175128 0 0 1 0.03669,-0.183968 z m -8.62583,1.231449 a 5.6175128,5.6175128 0 0 1 0.117305,0.03256 5.6175128,5.6175128 0 0 0 -0.117305,-0.03256 z m -2.584855,0.0093 a 5.6175128,5.6175128 0 0 0 -0.10697,0.02946 5.6175128,5.6175128 0 0 1 0.10697,-0.02946 z m 3.870565,0.498161 a 5.6175128,5.6175128 0 0 1 0.07028,0.03617 5.6175128,5.6175128 0 0 0 -0.07028,-0.03617 z m 14.366048,0.0036 a 5.6175128,5.6175128 0 0 1 0.1757,0.02481 5.6175128,5.6175128 0 0 0 -0.1757,-0.02481 z m -1.274341,0.01189 a 5.6175128,5.6175128 0 0 0 -0.200505,0.03462 5.6175128,5.6175128 0 0 1 0.200505,-0.03462 z m 1.903243,0.0987 a 5.6175128,5.6175128 0 0 1 0.174149,0.04134 5.6175128,5.6175128 0 0 0 -0.174149,-0.04134 z m -2.553333,0.02945 a 5.6175128,5.6175128 0 0 0 -0.227376,0.0646 5.6175128,5.6175128 0 0 1 0.227376,-0.0646 z m -0.641821,0.20774 a 5.6175128,5.6175128 0 0 0 -0.21239,0.08475 5.6175128,5.6175128 0 0 1 0.21239,-0.08475 z m 4.401799,0.187068 a 5.6175128,5.6175128 0 0 1 0.152962,0.08062 5.6175128,5.6175128 0 0 0 -0.152962,-0.08062 z m -5.068942,0.123507 a 5.6175128,5.6175128 0 0 0 -0.133842,0.07028 5.6175128,5.6175128 0 0 1 0.133842,-0.07028 z m 5.503024,0.114205 a 5.6175128,5.6175128 0 0 1 0.153479,0.09715 5.6175128,5.6175128 0 0 0 -0.153479,-0.09715 z m -15.50448,0.03514 a 5.6175128,5.6175128 0 0 1 0.0615,0.0615 5.6175128,5.6175128 0 0 0 -0.0615,-0.0615 z m 15.919441,0.242362 a 5.6175128,5.6175128 0 0 1 0.146761,0.109554 5.6175128,5.6175128 0 0 0 -0.146761,-0.109554 z m -6.601147,0.04548 a 5.6175128,5.6175128 0 0 0 -0.113688,0.09405 5.6175128,5.6175128 0 0 1 0.113688,-0.09405 z m 7.001123,0.276468 a 5.6175128,5.6175128 0 0 1 0.120406,0.10542 5.6175128,5.6175128 0 0 0 -0.120406,-0.10542 z m -7.498767,0.150379 a 5.6175128,5.6175128 0 0 0 -0.164331,0.168465 5.6175128,5.6175128 0 0 1 0.164331,-0.168465 z m -7.954553,0.314709 a 5.6175128,5.6175128 0 0 1 0.06408,0.09767 5.6175128,5.6175128 0 0 0 -0.06408,-0.09767 z m 7.503418,0.1757 a 5.6175128,5.6175128 0 0 0 -0.149862,0.188619 5.6175128,5.6175128 0 0 1 0.149862,-0.188619 z m -0.407727,0.564307 a 5.6175128,5.6175128 0 0 0 -0.110588,0.174149 5.6175128,5.6175128 0 0 1 0.110588,-0.174149 z m 8.304402,0.170532 a 5.6175128,5.6175128 0 0 1 -0.04806,0.06563 5.6175128,5.6175128 0 0 0 0.04806,-0.06563 z m -14.762923,0.379822 3.115572,0.633036 0.0062,10e-4 a 5.6175128,5.6175128 0 0 0 -0.0052,-5.17e-4 l 0.04754,0.0098 a 5.6175128,5.6175128 0 0 0 -0.692464,-0.05116 5.6175128,5.6175128 0 0 0 -0.728638,0.05116 5.6175128,5.6175128 0 0 0 -0.715718,0.145728 5.6175128,5.6175128 0 0 0 -0.690914,0.237195 5.6175128,5.6175128 0 0 0 -0.129191,-0.468189 5.6175128,5.6175128 0 0 1 0.129191,0.468189 5.6175128,5.6175128 0 0 1 0.690914,-0.237195 5.6175128,5.6175128 0 0 1 0.715718,-0.145728 5.6175128,5.6175128 0 0 1 0.728638,-0.05116 5.6175128,5.6175128 0 0 1 0.641821,0.04082 z m 3.113505,0.633036 0.0031,5.17e-4 a 5.6175128,5.6175128 0 0 0 -0.001,-5.17e-4 z m -3.112988,-0.632501 a 5.6175128,5.6175128 0 0 1 0.173116,0.453719 5.6175128,5.6175128 0 0 0 -0.173116,-0.453719 z m 6.047176,0.208772 a 5.6175128,5.6175128 0 0 0 0.386023,0.390157 5.6175128,5.6175128 0 0 1 -0.386023,-0.390157 z m 8.027934,0.22686 a 5.6175128,5.6175128 0 0 1 -0.07596,0.07286 5.6175128,5.6175128 0 0 0 0.07596,-0.07286 z m -7.577832,0.223242 a 5.6175128,5.6175128 0 0 0 0.40721,0.331246 5.6175128,5.6175128 0 0 1 -0.40721,-0.331246 z m -2.399337,0.173633 a 5.6175128,5.6175128 0 0 1 0.764811,0.293522 5.6175128,5.6175128 0 0 1 0.716752,0.40411 5.6175128,5.6175128 0 0 1 0.131258,-0.37052 5.6175128,5.6175128 0 0 0 -0.131258,0.37052 5.6175128,5.6175128 0 0 0 -0.716752,-0.40411 5.6175128,5.6175128 0 0 0 -0.764811,-0.293522 z m 2.885612,0.214974 a 5.6175128,5.6175128 0 0 0 0.441833,0.286804 5.6175128,5.6175128 0 0 1 -0.441833,-0.286804 z m 6.245097,0.07338 a 5.6175128,5.6175128 0 0 1 -0.07028,0.04806 5.6175128,5.6175128 0 0 0 0.07028,-0.04806 z m -5.735051,0.251148 a 5.6175128,5.6175128 0 0 0 0.49506,0.250114 5.6175128,5.6175128 0 0 1 -0.49506,-0.250114 z m 4.726844,0.28112 a 5.6175128,5.6175128 0 0 1 -0.458887,0.16123 5.6175128,5.6175128 0 0 0 0.458887,-0.16123 z m -0.521416,0.180867 a 5.6175128,5.6175128 0 0 1 -0.446484,0.110588 5.6175128,5.6175128 0 0 0 0.446484,-0.110588 z m -3.031856,0.02274 a 5.6175128,5.6175128 0 0 0 0.04341,0.0124 5.6175128,5.6175128 0 0 1 -0.04341,-0.0124 z m 2.498039,0.10542 a 5.6175128,5.6175128 0 0 1 -0.452169,0.06821 5.6175128,5.6175128 0 0 0 0.452169,-0.06821 z m -1.770952,0.04599 a 5.6175128,5.6175128 0 0 0 0.05426,0.0067 5.6175128,5.6175128 0 0 1 -0.05426,-0.0067 z m 1.245919,0.02842 a 5.6175128,5.6175128 0 0 1 -0.480591,0.02687 5.6175128,5.6175128 0 0 0 0.480591,-0.02687 z M 41.67108,67.928509 a 22.576157,3.9184604 11.482471 0 0 0.592212,0.09147 22.576157,3.9184604 11.482471 0 1 -0.592212,-0.09147 z m 17.714681,0.0801 a 22.576157,3.9184604 11.482471 0 1 -0.10697,0.09457 22.576157,3.9184604 11.482471 0 0 0.10697,-0.09457 z m -15.762862,0.217556 a 22.576157,3.9184604 11.482471 0 0 0.676962,0.09354 22.576157,3.9184604 11.482471 0 1 -0.676962,-0.09354 z m 15.412496,0.0677 a 22.576157,3.9184604 11.482471 0 1 -0.192236,0.09819 22.576157,3.9184604 11.482471 0 0 0.192236,-0.09819 z m -13.542326,0.184998 a 22.576157,3.9184604 11.482471 0 0 0.787032,0.09509 22.576157,3.9184604 11.482471 0 1 -0.787032,-0.09509 z m 13.01471,0.05943 a 22.576157,3.9184604 11.482471 0 1 -0.264583,0.08578 22.576157,3.9184604 11.482471 0 0 0.264583,-0.08578 z m -11.212752,0.149862 a 22.576157,3.9184604 11.482471 0 0 0.785481,0.08061 22.576157,3.9184604 11.482471 0 1 -0.785481,-0.08061 z m 10.511503,0.05219 a 22.576157,3.9184604 11.482471 0 1 -0.336931,0.07028 22.576157,3.9184604 11.482471 0 0 0.336931,-0.07028 z m -8.719365,0.119889 a 22.576157,3.9184604 11.482471 0 0 0.683679,0.05633 22.576157,3.9184604 11.482471 0 1 -0.683679,-0.05633 z m 7.852751,0.03514 a 22.576157,3.9184604 11.482471 0 1 -0.400492,0.05323 22.576157,3.9184604 11.482471 0 0 0.400492,-0.05323 z m -6.139677,0.0894 a 22.576157,3.9184604 11.482471 0 0 0.582393,0.03514 22.576157,3.9184604 11.482471 0 1 -0.582393,-0.03514 z m 5.065324,0.02325 a 22.576157,3.9184604 11.482471 0 1 -0.395842,0.02997 22.576157,3.9184604 11.482471 0 0 0.395842,-0.02997 z m -3.424081,0.05219 a 22.576157,3.9184604 11.482471 0 0 0.443901,0.01499 22.576157,3.9184604 11.482471 0 1 -0.443901,-0.01499 z m 2.030884,0.01395 a 22.576157,3.9184604 11.482471 0 1 -0.221175,0.0072 22.576157,3.9184604 11.482471 0 0 0.221175,-0.0072 z" />
</svg>
