<?xml version="1.0" encoding="UTF-8" standalone="no"?>
<!-- Created with Inkscape (http://www.inkscape.org/) -->

<svg
   width="300"
   height="300"
   viewBox="0 0 79.374998 79.375"
   version="1.1"
   id="svg1"
   inkscape:version="1.3.2 (091e20e, 2023-11-25, custom)"
   sodipodi:docname="soyuz_crashed.svg"
   xmlns:inkscape="http://www.inkscape.org/namespaces/inkscape"
   xmlns:sodipodi="http://sodipodi.sourceforge.net/DTD/sodipodi-0.dtd"
   xmlns="http://www.w3.org/2000/svg"
   xmlns:svg="http://www.w3.org/2000/svg">
  <sodipodi:namedview
     id="namedview1"
     pagecolor="#000000"
     bordercolor="#000000"
     borderopacity="0.25"
     inkscape:showpageshadow="2"
     inkscape:pageopacity="0.0"
     inkscape:pagecheckerboard="0"
     inkscape:deskcolor="#d1d1d1"
     inkscape:document-units="mm"
     inkscape:zoom="256"
     inkscape:cx="155.41406"
     inkscape:cy="169.02148"
     inkscape:window-width="1600"
     inkscape:window-height="837"
     inkscape:window-x="-8"
     inkscape:window-y="-8"
     inkscape:window-maximized="1"
     inkscape:current-layer="svg1" />
  <defs
     id="defs1" />
  <path
     id="path69"
     style="fill:#877e0f;fill-opacity:1;stroke-width:0.264583"
     d="m 65.682812,54.305729 a 2.9765625,2.9765625 0 0 0 -2.976562,2.976563 2.9765625,2.9765625 0 0 0 0.796334,2.018481 3.175,3.175 0 0 0 -0.0026,0.03204 3.175,3.175 0 0 0 3.175,3.175 3.175,3.175 0 0 0 3.175,-3.175 3.175,3.175 0 0 0 -1.225765,-2.505273 2.9765625,2.9765625 0 0 0 -2.941423,-2.52181 z m -48.286458,2.38125 a 3.4395833,3.4395833 0 0 0 -3.439583,3.439583 3.4395833,3.4395833 0 0 0 3.439583,3.439584 3.4395833,3.4395833 0 0 0 3.439583,-3.439584 3.4395833,3.4395833 0 0 0 -3.439583,-3.439583 z"
     inkscape:label="dist"
     inkscape:highlight-color="#877e0f" />
  <g
     id="g69"
     inkscape:label="soyuz capsule"
     inkscape:highlight-color="#07420a">
    <path
       id="path50"
       style="fill:#07420a;fill-opacity:1;stroke-width:0.274708"
       d="M 37.786324,47.070512 C 16.750051,44.953769 15.715378,51.79741 15.71532,57.546875 c 5.8e-5,5.749465 11.155043,10.410293 24.915275,10.410217 13.76003,-4.3e-5 24.9147,-4.660836 24.914758,-10.410217 -1.71985,-9.784277 -8.376603,-6.706007 -27.759029,-10.476363 z"
       sodipodi:nodetypes="ccccc" />
    <ellipse
       style="fill:#040d24;fill-opacity:1;stroke-width:0.264583"
       id="path51"
       cx="40.159859"
       cy="65.933434"
       rx="4.036664"
       ry="1.3057919"
       transform="rotate(-10.089523)" />
    <path
       id="rect51"
       style="fill:#063508;fill-opacity:1;stroke-width:0.264583"
       d="M 31.948118,39.255902 29.866103,43.67581 67.687194,43.009105 68.05658,39.276734 Z"
       transform="rotate(7.3425686)"
       sodipodi:nodetypes="ccccc" />
  </g>
  <path
     id="path41"
     style="fill:#877e0f;fill-opacity:1;stroke-width:0.264583"
     d="m 63.433872,57.546875 a 5.4239583,5.4239583 0 0 0 -4.057633,1.830896 5.4239583,5.4239583 0 0 0 -2.55695,-0.640271 5.4239583,5.4239583 0 0 0 -4.802291,2.93057 6.0854177,6.0854177 0 0 0 -2.209168,-0.417028 6.0854177,6.0854177 0 0 0 -3.925858,1.441772 5.0932293,5.0932293 0 0 0 -3.548621,-1.441772 5.0932293,5.0932293 0 0 0 -3.621484,1.530139 6.8670373,6.8339653 0 0 0 -3.245797,-0.811837 6.8670373,6.8339653 0 0 0 -4.733044,1.904793 6.0854163,6.0854163 0 0 0 -1.084172,-1.192175 5.3578124,5.3578124 0 0 0 -5.042586,-3.547587 5.3578124,5.3578124 0 0 0 -1.192692,0.148311 5.4901042,5.4901042 0 0 0 -0.394808,-0.01602 5.4901042,5.4901042 0 0 0 -3.803902,1.549776 4.8947916,4.8947916 0 0 0 -3.802869,-1.81436 4.8947916,4.8947916 0 0 0 -4.894792,4.894792 4.8947916,4.8947916 0 0 0 4.894792,4.894792 4.8947916,4.8947916 0 0 0 3.004468,-1.045415 5.4901042,5.4901042 0 0 0 1.581299,1.589567 6.0854163,6.0854163 0 0 0 5.732983,4.086056 6.0854163,6.0854163 0 0 0 3.747575,-1.307931 6.8670373,6.8339653 0 0 0 5.987748,3.5233 6.8670373,6.8339653 0 0 0 6.337598,-4.237468 5.0932293,5.0932293 0 0 0 0.529683,0.03772 5.0932293,5.0932293 0 0 0 2.471684,-0.65474 6.0854177,6.0854177 0 0 0 5.002795,2.639115 6.0854177,6.0854177 0 0 0 5.703528,-4.008024 5.4239583,5.4239583 0 0 0 0.0072,0.0016 5.4239583,5.4239583 0 0 0 4.740279,2.815849 5.4239583,5.4239583 0 0 0 5.286499,-4.274158 5.4239583,5.4239583 0 0 0 3.312459,-4.986259 5.4239583,5.4239583 0 0 0 -5.423958,-5.423958 z"
     inkscape:label="dirt"
     inkscape:highlight-color="#877e0f" />
  <path
     id="path90"
     style="fill:#000000;fill-opacity:0.15;stroke-width:0.264583"
     d="m 40.630595,44.824137 v 2.761589 1.390096 12.614217 6.367053 5.295284 a 6.8670373,6.8339653 0 0 0 1.173055,-1.8526 5.0932293,5.0932293 0 0 0 0.529683,0.03772 5.0932293,5.0932293 0 0 0 2.471684,-0.65474 6.0854177,6.0854177 0 0 0 5.002795,2.639115 6.0854177,6.0854177 0 0 0 5.703528,-4.008024 5.4239583,5.4239583 0 0 0 0.0072,0.0016 5.4239583,5.4239583 0 0 0 4.740279,2.815849 5.4239583,5.4239583 0 0 0 5.286499,-4.274158 5.4239583,5.4239583 0 0 0 3.312459,-4.986259 A 5.4239583,5.4239583 0 0 0 68.664026,61.748686 3.175,3.175 0 0 0 69.85,59.332812 3.175,3.175 0 0 0 68.624235,56.827539 2.9765625,2.9765625 0 0 0 65.682812,54.305729 2.9765625,2.9765625 0 0 0 64.679256,54.5052 c -0.681271,-1.553985 -1.658234,-2.584677 -3.017903,-3.310909 l 0.817521,-3.541902 z m 23.42596,9.994222 a 2.9765625,2.9765625 0 0 0 -0.04754,0.03256 2.9765625,2.9765625 0 0 1 0.04754,-0.03256 z m -0.550871,0.464055 a 2.9765625,2.9765625 0 0 0 -0.03256,0.03359 2.9765625,2.9765625 0 0 1 0.03256,-0.03359 z m -0.432531,0.596863 a 2.9765625,2.9765625 0 0 0 -0.01705,0.03462 2.9765625,2.9765625 0 0 1 0.01705,-0.03462 z m -9.9658,0.536918 a 1.3057919,4.036664 79.910477 0 1 0.04444,0.0036 1.3057919,4.036664 79.910477 0 0 -0.120406,-0.0031 1.3057919,4.036664 79.910477 0 1 0.07597,-5.16e-4 z m 0.588594,0.04909 a 1.3057919,4.036664 79.910477 0 1 0.09612,0.01447 1.3057919,4.036664 79.910477 0 0 -0.09612,-0.01447 z m 9.11624,0.06976 a 2.9765625,2.9765625 0 0 0 -0.0155,0.05685 2.9765625,2.9765625 0 0 1 0.0155,-0.05685 z m -8.175729,0.183452 a 1.3057919,4.036664 79.910477 0 1 0.05374,0.02687 1.3057919,4.036664 79.910477 0 0 -0.05374,-0.02687 z m -4.601786,0.05271 a 1.3057919,4.036664 79.910477 0 0 -0.07545,0.01809 1.3057919,4.036664 79.910477 0 1 0.07545,-0.01809 z m 4.890141,0.149345 a 1.3057919,4.036664 79.910477 0 1 0.02997,0.03721 1.3057919,4.036664 79.910477 0 0 -0.02997,-0.03721 z m -5.69836,0.0863 a 1.3057919,4.036664 79.910477 0 0 -0.10542,0.03514 1.3057919,4.036664 79.910477 0 1 0.10542,-0.03514 z m 5.843054,0.252698 a 1.3057919,4.036664 79.910477 0 1 -5.17e-4,0.0155 1.3057919,4.036664 79.910477 0 0 5.17e-4,-0.0155 z m -6.57996,0.03204 a 1.3057919,4.036664 79.910477 0 0 -0.0956,0.04341 1.3057919,4.036664 79.910477 0 1 0.0956,-0.04341 z m 6.56549,0.0708 a 1.3057919,4.036664 79.910477 0 1 -0.0046,0.01654 1.3057919,4.036664 79.910477 0 0 0.0046,-0.01654 z m -0.03772,0.10697 a 1.3057919,4.036664 79.910477 0 1 -0.0088,0.01705 1.3057919,4.036664 79.910477 0 0 0.0088,-0.01705 z m -0.06098,0.109038 a 1.3057919,4.036664 79.910477 0 1 -0.01034,0.01499 1.3057919,4.036664 79.910477 0 0 0.01034,-0.01499 z m -7.081221,0.03307 a 1.3057919,4.036664 79.910477 0 0 -0.06563,0.04186 1.3057919,4.036664 79.910477 0 1 0.06563,-0.04186 z m 6.904488,0.176733 a 1.3057919,4.036664 79.910477 0 1 -0.02015,0.01964 1.3057919,4.036664 79.910477 0 0 0.02015,-0.01964 z m -0.125574,0.112655 a 1.3057919,4.036664 79.910477 0 1 -0.02429,0.02015 1.3057919,4.036664 79.910477 0 0 0.02429,-0.02015 z m -7.224365,0.04186 a 1.3057919,4.036664 79.910477 0 0 -0.03772,0.03928 1.3057919,4.036664 79.910477 0 1 0.03772,-0.03928 z m 18.567342,0.312126 a 5.4239583,5.4239583 0 0 1 0.154513,0.09302 5.4239583,5.4239583 0 0 0 -0.154513,-0.09302 z m -18.825724,0.01757 a 1.3057919,4.036664 79.910477 0 0 -0.01033,0.02894 1.3057919,4.036664 79.910477 0 1 0.01033,-0.02894 z m 19.28151,0.264067 a 5.4239583,5.4239583 0 0 1 0.1726,0.12764 5.4239583,5.4239583 0 0 0 -0.1726,-0.12764 z m -13.135115,0.08475 a 1.3057919,4.036664 79.910477 0 1 -0.06873,0.02635 1.3057919,4.036664 79.910477 0 0 0.06873,-0.02635 z m -0.54312,0.188619 a 1.3057919,4.036664 79.910477 0 1 -0.05168,0.01602 1.3057919,4.036664 79.910477 0 0 0.05168,-0.01602 z m -5.516975,0.02842 a 1.3057919,4.036664 79.910477 0 0 0.01757,0.02119 1.3057919,4.036664 79.910477 0 1 -0.01757,-0.02119 z m 19.622574,0.02481 a 5.4239583,5.4239583 0 0 1 0.161231,0.14366 5.4239583,5.4239583 0 0 0 -0.161231,-0.14366 z m -19.29908,0.192753 a 1.3057919,4.036664 79.910477 0 0 0.05374,0.02584 1.3057919,4.036664 79.910477 0 1 -0.05374,-0.02584 z m 0.505912,0.164848 a 1.3057919,4.036664 79.910477 0 0 0.08113,0.01757 1.3057919,4.036664 79.910477 0 1 -0.08113,-0.01757 z m 19.189527,0.0124 a 5.4239583,5.4239583 0 0 1 0.146761,0.15813 5.4239583,5.4239583 0 0 0 -0.146761,-0.15813 z m -16.796908,0.04858 a 1.3057919,4.036664 79.910477 0 1 -0.07338,0.0088 1.3057919,4.036664 79.910477 0 0 0.07338,-0.0088 z m -1.72806,0.03721 a 1.3057919,4.036664 79.910477 0 0 0.09302,0.0067 1.3057919,4.036664 79.910477 0 1 -0.09302,-0.0067 z m 0.877466,0.02067 a 1.3057919,4.036664 79.910477 0 1 -0.09095,0.0026 1.3057919,4.036664 79.910477 0 0 0.09095,-0.0026 z m 18.001485,0.29714 a 5.4239583,5.4239583 0 0 1 0.135392,0.176733 5.4239583,5.4239583 0 0 0 -0.135392,-0.176733 z m -2.761072,0.322461 c -0.07115,0.125284 -0.147555,0.249613 -0.229443,0.373104 0.08189,-0.123491 0.158295,-0.24782 0.229443,-0.373104 z m 3.073715,0.114205 a 5.4239583,5.4239583 0 0 1 0.119372,0.190686 5.4239583,5.4239583 0 0 0 -0.119372,-0.190686 z m -3.430282,0.443384 c -0.08718,0.122561 -0.179392,0.244199 -0.276986,0.364835 0.09759,-0.120636 0.189809,-0.242274 0.276986,-0.364835 z m 3.70365,0.03307 a 5.4239583,5.4239583 0 0 1 0.09508,0.189136 5.4239583,5.4239583 0 0 0 -0.09508,-0.189136 z m 0.226343,0.506946 a 5.4239583,5.4239583 0 0 1 0.0708,0.180868 5.4239583,5.4239583 0 0 0 -0.0708,-0.180868 z m -17.637167,0.287838 a 6.0854177,6.0854177 0 0 1 0.249081,0.04703 6.0854177,6.0854177 0 0 0 -0.249081,-0.04703 z m 12.375989,0.625802 c -0.341105,0.303103 -0.711851,0.598948 -1.118795,0.885217 0.406835,-0.286193 0.777763,-0.582199 1.118795,-0.885217 z"
     inkscape:label="shadow" />
  <g
     id="g68"
     inkscape:label="fire"
     inkscape:highlight-color="#ff5555">
    <circle
       style="fill:#f2ef90;fill-opacity:1;stroke-width:0.264583"
       id="path52"
       cx="29.045517"
       cy="53.179951"
       r="5.9400649" />
    <circle
       style="fill:#f2ef90;fill-opacity:1;stroke-width:0.264583"
       id="path53"
       cx="26.192413"
       cy="48.455963"
       r="4.4901276" />
    <circle
       style="fill:#f2ef90;fill-opacity:1;stroke-width:0.264583"
       id="path54"
       cx="31.571213"
       cy="39.148304"
       r="4.0691786" />
    <circle
       style="fill:#f2ef90;fill-opacity:1;stroke-width:0.264583"
       id="path55"
       cx="28.016527"
       cy="23.339312"
       r="2.1047475" />
    <circle
       style="fill:#f2ef90;fill-opacity:1;stroke-width:0.264583"
       id="path56"
       cx="30.588997"
       cy="30.401907"
       r="2.3386083" />
    <circle
       style="fill:#f2ef90;fill-opacity:1;stroke-width:0.264583"
       id="path57"
       cx="30.963175"
       cy="44.901279"
       r="5.238483" />
    <circle
       style="fill:#f2ef90;fill-opacity:1;stroke-width:0.264583"
       id="path58"
       cx="29.466467"
       cy="33.488873"
       r="1.8708867" />
    <circle
       style="fill:#f2ef90;fill-opacity:1;stroke-width:0.264583"
       id="path59"
       cx="31.571213"
       cy="10.430193"
       r="1.7305702" />
    <circle
       style="fill:#f2ef90;fill-opacity:1;stroke-width:0.264583"
       id="path60"
       cx="52.057419"
       cy="48.970459"
       r="4.723989" />
    <circle
       style="fill:#f2ef90;fill-opacity:1;stroke-width:0.264583"
       id="path61"
       cx="55.518562"
       cy="41.954632"
       r="3.9756341" />
    <circle
       style="fill:#f2ef90;fill-opacity:1;stroke-width:0.264583"
       id="path62"
       cx="51.215523"
       cy="36.154888"
       r="3.7885458" />
    <circle
       style="fill:#f2ef90;fill-opacity:1;stroke-width:0.264583"
       id="path63"
       cx="55.050842"
       cy="28.858427"
       r="2.4789248" />
    <circle
       style="fill:#f2ef90;fill-opacity:1;stroke-width:0.264583"
       id="path64"
       cx="51.262295"
       cy="41.440144"
       r="4.583672" />
    <circle
       style="fill:#f2ef90;fill-opacity:1;stroke-width:0.264583"
       id="path65"
       cx="50.326855"
       cy="12.160764"
       r="1.2160764" />
    <circle
       style="fill:#f8f6c1;fill-opacity:1;stroke-width:0.264583"
       id="path66"
       cx="51.730019"
       cy="19.457222"
       r="0.93544334" />
    <circle
       style="fill:#f8f6c1;fill-opacity:1;stroke-width:0.264583"
       id="path67"
       cx="28.718111"
       cy="53.507359"
       r="2.80633" />
    <circle
       style="fill:#f8f6c1;fill-opacity:1;stroke-width:0.264583"
       id="path68"
       cx="52.150963"
       cy="49.438183"
       r="1.9176589" />
  </g>
</svg>
