<?xml version="1.0" encoding="UTF-8" standalone="no"?>
<!-- Created with Inkscape (http://www.inkscape.org/) -->

<svg
   width="300"
   height="300"
   viewBox="0 0 79.374999 79.375"
   version="1.1"
   id="svg1"
   inkscape:version="1.3.2 (091e20e, 2023-11-25, custom)"
   sodipodi:docname="star-ship.svg"
   xmlns:inkscape="http://www.inkscape.org/namespaces/inkscape"
   xmlns:sodipodi="http://sodipodi.sourceforge.net/DTD/sodipodi-0.dtd"
   xmlns="http://www.w3.org/2000/svg"
   xmlns:svg="http://www.w3.org/2000/svg">
  <sodipodi:namedview
     id="namedview1"
     pagecolor="#000000"
     bordercolor="#000000"
     borderopacity="0.25"
     inkscape:showpageshadow="2"
     inkscape:pageopacity="0.0"
     inkscape:pagecheckerboard="0"
     inkscape:deskcolor="#d1d1d1"
     inkscape:document-units="mm"
     inkscape:zoom="2.1694726"
     inkscape:cx="47.937918"
     inkscape:cy="130.21598"
     inkscape:window-width="1920"
     inkscape:window-height="1046"
     inkscape:window-x="-11"
     inkscape:window-y="-11"
     inkscape:window-maximized="1"
     inkscape:current-layer="layer1" />
  <defs
     id="defs1" />
  <g
     inkscape:label="Camada 1"
     inkscape:groupmode="layer"
     id="layer1">
    <g
       id="g15"
       inkscape:label="propulsores"
       transform="matrix(1.1859356,0,0,1.1859356,-7.3793165,-5.1111616)">
      <path
         sodipodi:type="star"
         style="fill:#182138;fill-opacity:1;stroke-width:0.079375"
         id="path14"
         inkscape:flatsided="true"
         sodipodi:sides="3"
         sodipodi:cx="33.244335"
         sodipodi:cy="66.143723"
         sodipodi:r1="5.6173701"
         sodipodi:r2="2.8086851"
         sodipodi:arg1="-1.5707963"
         sodipodi:arg2="-0.52359878"
         inkscape:rounded="0"
         inkscape:randomized="0"
         d="m 33.244335,60.526352 4.864785,8.426056 -9.72957,-1e-6 z"
         inkscape:transform-center-y="-2.2235933"
         transform="matrix(0.83602737,0,0,1.5833697,7.8272325,-38.564682)" />
      <path
         sodipodi:type="star"
         style="fill:#182138;fill-opacity:1;stroke-width:0.079375"
         id="path15"
         inkscape:flatsided="true"
         sodipodi:sides="3"
         sodipodi:cx="33.244335"
         sodipodi:cy="66.143723"
         sodipodi:r1="5.6173701"
         sodipodi:r2="2.8086851"
         sodipodi:arg1="-1.5707963"
         sodipodi:arg2="-0.52359878"
         inkscape:rounded="0"
         inkscape:randomized="0"
         d="m 33.244335,60.526352 4.864785,8.426056 -9.72957,-1e-6 z"
         inkscape:transform-center-y="-2.2235933"
         transform="matrix(0.83602737,0,0,1.5833697,15.96142,-38.564682)"
         inkscape:label="path15" />
      <path
         sodipodi:type="star"
         style="fill:#1c2640;fill-opacity:1;stroke-width:0.079375"
         id="path13"
         inkscape:flatsided="true"
         sodipodi:sides="3"
         sodipodi:cx="33.244335"
         sodipodi:cy="66.143723"
         sodipodi:r1="5.6173701"
         sodipodi:r2="2.8086851"
         sodipodi:arg1="-1.5707963"
         sodipodi:arg2="-0.52359878"
         inkscape:rounded="0"
         inkscape:randomized="0"
         d="m 33.244335,60.526352 4.864785,8.426056 -9.72957,-1e-6 z"
         inkscape:transform-center-y="-2.2235933"
         transform="matrix(0.83602737,0,0,1.5833697,11.894326,-37.937189)" />
    </g>
    <path
       id="rect12"
       style="fill:#2b3c66;fill-opacity:1;stroke-width:0.0941334"
       d="M 29.357927,47.060398 22.729963,58.512964 V 71.463725 H 56.645036 V 58.512964 L 50.017073,47.060398 43.389109,58.512964 H 35.98589 Z"
       inkscape:label="assas-baixo" />
    <path
       id="rect13"
       style="fill:#2b3c66;fill-opacity:1;stroke-width:0.0941335"
       d="m 29.357927,14.295932 -6.627964,8.798901 v 3.331808 h 33.915073 v -3.331808 l -6.627963,-8.798901 -6.627964,8.798901 H 35.98589 Z"
       inkscape:label="assas-cima" />
    <path
       id="rect1"
       style="fill:#324677;fill-opacity:1;stroke-width:0.100509"
       d="M 39.6875,5.9296776e-7 A 4.5923479,4.5923479 0 0 0 35.903156,1.9991145 4.5923479,4.5923479 0 0 0 35.426972,2.8932614 L 29.357927,14.295932 v 1.841 0.356678 53.790999 c 0,1.01985 0.821151,1.840999 1.840998,1.840999 h 16.977149 c 1.01985,0 1.840999,-0.821149 1.840999,-1.840999 v -53.790999 -0.356678 -1.841 L 43.962735,2.9208397 A 4.5923479,4.5923479 0 0 0 43.46449,1.9850191 4.5923479,4.5923479 0 0 0 39.6875,5.9296776e-7 Z M 35.207572,3.6360348 a 4.5923479,4.5923479 0 0 0 -0.03615,0.1863059 4.5923479,4.5923479 0 0 1 0.03615,-0.1863059 z m 8.964757,0.012258 a 4.5923479,4.5923479 0 0 1 0.03615,0.1912089 4.5923479,4.5923479 0 0 0 -0.03615,-0.1912089 z m -8.997851,1.7460071 a 4.5923479,4.5923479 0 0 0 0.04964,0.2267542 4.5923479,4.5923479 0 0 1 -0.04964,-0.2267542 z m 9.026043,0 a 4.5923479,4.5923479 0 0 1 -0.04964,0.2267542 4.5923479,4.5923479 0 0 0 0.04964,-0.2267542 z m -8.797449,0.8187667 a 4.5923479,4.5923479 0 0 0 0.07293,0.194886 4.5923479,4.5923479 0 0 1 -0.07293,-0.194886 z m 8.568855,0 a 4.5923479,4.5923479 0 0 1 -0.07293,0.194886 4.5923479,4.5923479 0 0 0 0.07293,-0.194886 z M 35.852903,7.113342 a 4.5923479,4.5923479 0 0 0 0.09008,0.1201188 4.5923479,4.5923479 0 0 1 -0.09008,-0.1201188 z m 7.669195,0 a 4.5923479,4.5923479 0 0 1 -0.09009,0.1201188 4.5923479,4.5923479 0 0 0 0.09009,-0.1201188 z m -7.154402,0.6373631 a 4.5923479,4.5923479 0 0 0 0.161792,0.1617924 4.5923479,4.5923479 0 0 1 -0.161792,-0.1617924 z m 6.639608,0 a 4.5923479,4.5923479 0 0 1 -0.161792,0.1617921 4.5923479,4.5923479 0 0 0 0.161792,-0.1617921 z m -5.96057,0.5864958 a 4.5923479,4.5923479 0 0 0 0.120118,0.09009 4.5923479,4.5923479 0 0 1 -0.120118,-0.09009 z m 5.281532,0 a 4.5923479,4.5923479 0 0 1 -0.120117,0.09009 4.5923479,4.5923479 0 0 0 0.120117,-0.09009 z M 37.87224,8.8041927 a 4.5923479,4.5923479 0 0 0 0.194886,0.07293 4.5923479,4.5923479 0 0 1 -0.194886,-0.07293 z m 3.63052,0 a 4.5923479,4.5923479 0 0 1 -0.194887,0.07293 4.5923479,4.5923479 0 0 0 0.194887,-0.07293 z m -2.843622,0.2518808 a 4.5923479,4.5923479 0 0 0 0.226754,0.04964 4.5923479,4.5923479 0 0 1 -0.226754,-0.04964 z m 2.056723,0 a 4.5923479,4.5923479 0 0 1 -0.226754,0.04964 4.5923479,4.5923479 0 0 0 0.226754,-0.04964 z"
       inkscape:label="corpo" />
    <g
       id="g6"
       inkscape:label="reignition gases">
      <rect
         style="fill:#26355b;fill-opacity:1;stroke-width:1.32292"
         id="rect2"
         width="0.68565756"
         height="4.753468"
         x="39.344673"
         y="69.086998"
         ry="0"
         rx="0.34282878" />
      <rect
         style="fill:#26355b;fill-opacity:1;stroke-width:1.32292"
         id="rect5"
         width="0.68565756"
         height="4.753468"
         x="32.48814"
         y="68.226028"
         ry="0"
         rx="0.34282878" />
      <rect
         style="fill:#26355b;fill-opacity:1;stroke-width:1.32292"
         id="rect6"
         width="0.68565756"
         height="4.753468"
         x="46.201206"
         y="68.226028"
         ry="0"
         rx="0.34282878" />
    </g>
    <path
       id="path62"
       style="fill:#000000;stroke-width:1.32292;fill-opacity:0.15000001"
       inkscape:label="shadow"
       d="M 39.6875 0 L 39.6875 23.094714 L 39.6875 26.426811 L 39.6875 61.263444 L 39.6875 63.55271 L 39.6875 69.087256 L 39.6875 71.463855 L 39.6875 72.12583 L 39.6875 73.840454 L 39.6875 78.630859 L 39.6875 79.375 L 44.510978 79.375 L 44.284119 78.630859 L 49.33394 78.630859 L 47.351115 72.12583 L 48.175871 72.12583 C 48.743694 72.12583 49.243754 71.865528 49.580953 71.463855 L 56.645121 71.463855 L 56.645121 62.306274 L 56.645121 61.263444 L 56.645121 58.512708 L 50.017102 47.060177 L 50.017102 26.426811 L 56.645121 26.426811 L 56.645121 23.094714 L 50.017102 14.295768 L 43.962691 2.920752 A 4.5923479 4.5923479 0 0 0 43.46453 1.9848918 A 4.5923479 4.5923479 0 0 0 39.6875 0 z " />
  </g>
</svg>
