<?xml version="1.0" encoding="UTF-8" standalone="no"?>
<!-- Created with Inkscape (http://www.inkscape.org/) -->

<svg
   width="300"
   height="300"
   viewBox="0 0 79.374998 79.375"
   version="1.1"
   id="svg1"
   inkscape:version="1.3.2 (091e20e, 2023-11-25, custom)"
   sodipodi:docname="survive.svg"
   xmlns:inkscape="http://www.inkscape.org/namespaces/inkscape"
   xmlns:sodipodi="http://sodipodi.sourceforge.net/DTD/sodipodi-0.dtd"
   xmlns="http://www.w3.org/2000/svg"
   xmlns:svg="http://www.w3.org/2000/svg">
  <sodipodi:namedview
     id="namedview1"
     pagecolor="#000000"
     bordercolor="#000000"
     borderopacity="0.25"
     inkscape:showpageshadow="2"
     inkscape:pageopacity="0.0"
     inkscape:pagecheckerboard="0"
     inkscape:deskcolor="#d1d1d1"
     inkscape:document-units="mm"
     inkscape:zoom="2"
     inkscape:cx="42"
     inkscape:cy="165.75"
     inkscape:window-width="1920"
     inkscape:window-height="1046"
     inkscape:window-x="-11"
     inkscape:window-y="-11"
     inkscape:window-maximized="1"
     inkscape:current-layer="layer1" />
  <defs
     id="defs1" />
  <g
     inkscape:label="landing"
     inkscape:groupmode="layer"
     id="layer1">
    <g
       id="g1260"
       inkscape:label="apollo landing module"
       transform="matrix(1.5476979,0.41470441,-0.41470441,1.5476979,-24.373917,-70.251178)"
       style="stroke-width:0.624105">
      <path
         sodipodi:type="star"
         style="fill:#313131;fill-opacity:0.992157;stroke-width:0.430123"
         id="path1260"
         inkscape:flatsided="true"
         sodipodi:sides="3"
         sodipodi:cx="53.677341"
         sodipodi:cy="58.869789"
         sodipodi:r1="4.025023"
         sodipodi:r2="2.0125115"
         sodipodi:arg1="-1.5707963"
         sodipodi:arg2="-0.52359878"
         inkscape:rounded="0"
         inkscape:randomized="0"
         d="m 53.677342,54.844766 3.485772,6.037535 -6.971545,0 z"
         inkscape:transform-center-y="-3.2295496"
         transform="matrix(1.1480477,0,0,3.2094741,-4.1222323,-136.88025)"
         inkscape:transform-center-x="2.4625409e-06"
         inkscape:label="engine" />
      <g
         id="g1259"
         transform="matrix(-1.4860224,0,0,1.4860224,131.39536,-31.728722)"
         style="stroke-width:0.419983"
         inkscape:label="landing leg">
        <rect
           style="fill:#e09d00;fill-opacity:1;stroke-width:0.555605"
           id="rect1257"
           width="11.848005"
           height="0.49088344"
           x="38.645332"
           y="-52.311577"
           ry="0.2454417"
           transform="rotate(105)" />
        <rect
           style="fill:#e09d00;fill-opacity:1;stroke-width:0.555605"
           id="rect1258"
           width="3.8681049"
           height="0.49088344"
           x="64.085602"
           y="-9.5872746"
           ry="0.2454417"
           transform="rotate(60)" />
        <rect
           style="fill:#e09d00;fill-opacity:1;stroke-width:0.555605"
           id="rect1259"
           width="5.7001052"
           height="0.49088344"
           x="21.493938"
           y="-66.903679"
           ry="0.2454417"
           transform="matrix(0.96592583,-0.25881905,-0.25881905,-0.96592583,0,0)" />
        <path
           id="path1259"
           style="fill:#ffb300;fill-opacity:1;stroke-width:0.555605"
           d="m 35.366834,61.777314 a 1.9992828,0.95086753 0 0 0 1.999361,0.950638 1.9992828,0.95086753 0 0 0 1.999361,-0.950638 z" />
      </g>
      <g
         id="g1256"
         transform="matrix(1.4860224,0,0,1.4860224,-16.391523,-31.728722)"
         style="stroke-width:0.419983"
         inkscape:label="landing leg">
        <rect
           style="fill:#e09d00;fill-opacity:1;stroke-width:0.555605"
           id="rect1254"
           width="11.848005"
           height="0.49088344"
           x="38.645332"
           y="-52.311577"
           ry="0.2454417"
           transform="rotate(105)" />
        <rect
           style="fill:#e09d00;fill-opacity:1;stroke-width:0.555605"
           id="rect1255"
           width="3.8681049"
           height="0.49088344"
           x="64.085602"
           y="-9.5872746"
           ry="0.2454417"
           transform="rotate(60)" />
        <rect
           style="fill:#e09d00;fill-opacity:1;stroke-width:0.555605"
           id="rect1256"
           width="5.7001052"
           height="0.49088344"
           x="21.493938"
           y="-66.903679"
           ry="0.2454417"
           transform="matrix(0.96592583,-0.25881905,-0.25881905,-0.96592583,0,0)" />
        <path
           id="path1253"
           style="fill:#ffb300;fill-opacity:1;stroke-width:0.555605"
           d="m 35.366834,61.777314 a 1.9992828,0.95086753 0 0 0 1.999361,0.950638 1.9992828,0.95086753 0 0 0 1.999361,-0.950638 z" />
      </g>
      <g
         id="g1262"
         inkscape:label="ascend stage"
         style="stroke-width:0.624105">
        <circle
           style="fill:#727272;fill-opacity:1;stroke-width:0.825641"
           id="path1234"
           cx="68.232162"
           cy="44.25827"
           r="2.7093635" />
        <path
           id="rect1231"
           style="fill:#626262;fill-opacity:1;stroke-width:0.825641"
           d="m 56.363046,36.667788 v 0.0016 c -0.09077,1.65e-4 -0.182902,0.011 -0.274919,0.03566 l -8.533846,2.286166 c -0.47878,0.128289 -0.790376,0.560727 -0.785481,1.033528 -4.2e-5,0.0035 -10e-4,0.0068 -10e-4,0.01034 v 7.170105 c 0,0.48545 0.390466,0.875915 0.875916,0.875915 h 19.694922 c 0.48545,0 0.876432,-0.390465 0.876432,-0.875915 v -7.00164 c 0.09761,-0.538699 -0.230299,-1.067999 -0.768945,-1.212329 l -8.53333,-2.286166 c -0.09212,-0.02468 -0.18457,-0.03552 -0.275435,-0.03566 v -0.0016 z m 0,2.464966 v 0.02584 h -0.09663 z m 2.27428,0 0.09663,0.02584 h -0.09663 z" />
        <path
           id="path1239"
           style="fill:#717171;fill-opacity:1;stroke-width:0.825641"
           d="m 57.241975,36.667788 v 0.0016 c -0.0206,1.65e-4 -0.04151,0.011 -0.0624,0.03566 l -1.936728,2.286166 c -0.10866,0.128289 -0.179374,0.560727 -0.178263,1.033528 -1e-5,0.0035 -2.27e-4,0.0068 -2.27e-4,0.01034 v 7.170105 c 0,0.48545 0.08862,0.875915 0.198786,0.875915 h 4.469697 c 0.110173,0 0.198904,-0.390465 0.198904,-0.875915 v -7.00164 c 0.02216,-0.538699 -0.05227,-1.067999 -0.174509,-1.212329 l -1.936611,-2.286166 c -0.02091,-0.02468 -0.04189,-0.03552 -0.06251,-0.03566 v -0.0016 z m 0,2.464966 v 0.02584 h -0.02193 z m 0.51614,0 0.02193,0.02584 h -0.02193 z" />
        <path
           id="path1237"
           style="fill:#0a1550;fill-opacity:1;stroke-width:0.825641"
           d="m 54.269296,40.453663 -3.150163,0.485643 a 1.9436426,0.331285 45 0 0 -0.09934,0.01539 1.9436426,0.331285 45 0 0 1.140012,1.608465 1.9436426,0.331285 45 0 0 1.608757,1.140304 1.9436426,0.331285 45 0 0 0.01532,-0.0987 1.9436426,0.331285 45 0 0 -1.99e-4,-9.29e-4 z" />
        <path
           id="path1238"
           style="fill:#0a1550;fill-opacity:1;stroke-width:0.825641"
           d="m 60.731,40.453663 3.150163,0.485643 a 0.331285,1.9436426 45 0 1 0.09934,0.01539 0.331285,1.9436426 45 0 1 -1.140012,1.608465 0.331285,1.9436426 45 0 1 -1.608757,1.140304 0.331285,1.9436426 45 0 1 -0.01532,-0.0987 0.331285,1.9436426 45 0 1 1.99e-4,-9.29e-4 z" />
        <rect
           style="fill:#545454;fill-opacity:1;stroke-width:0.825641"
           id="rect1239"
           width="3.9899502"
           height="3.3308401"
           x="55.505024"
           y="42.374447"
           ry="0.32780945" />
        <ellipse
           style="fill:#202020;fill-opacity:1;stroke-width:0.825641"
           id="path1240"
           cx="57.5"
           cy="40.652832"
           rx="0.5699929"
           ry="0.59573567" />
        <g
           id="g1263"
           inkscape:label="engine exaust"
           style="stroke-width:0.624105">
          <path
             sodipodi:type="star"
             style="fill:#ffe37c;fill-opacity:0.992157;stroke-width:0.74208"
             id="path1262"
             inkscape:flatsided="true"
             sodipodi:sides="3"
             sodipodi:cx="204.22916"
             sodipodi:cy="224.71317"
             sodipodi:r1="22.714176"
             sodipodi:r2="11.357088"
             sodipodi:arg1="-2.6179939"
             sodipodi:arg2="-1.5707963"
             inkscape:rounded="0"
             inkscape:randomized="0"
             d="m 184.5581,213.35608 39.34211,0 -19.67105,34.07126 z"
             transform="matrix(0.18746531,0,0,0.46226287,19.216036,-40.106676)"
             inkscape:transform-center-y="2.6249781" />
          <path
             sodipodi:type="star"
             style="fill:#fff0b8;fill-opacity:0.992157;stroke-width:1.11062"
             id="path1263"
             inkscape:flatsided="true"
             sodipodi:sides="3"
             sodipodi:cx="204.22916"
             sodipodi:cy="224.71317"
             sodipodi:r1="22.714176"
             sodipodi:r2="11.357088"
             sodipodi:arg1="-2.6179939"
             sodipodi:arg2="-1.5707963"
             inkscape:rounded="0"
             inkscape:randomized="0"
             d="m 184.5581,213.35608 39.34211,0 -19.67105,34.07126 z"
             transform="matrix(0.12525726,0,0,0.30886664,31.920734,-6.8932931)"
             inkscape:transform-center-y="1.7539122" />
        </g>
      </g>
      <rect
         style="fill:#ffb300;fill-opacity:1;stroke-width:0.825641"
         id="rect1230"
         width="25"
         height="8.3915615"
         x="45"
         y="46.110706"
         ry="1.0609808"
         inkscape:label="body" />
      <path
         id="rect1240"
         style="fill:#cccccc;fill-opacity:1;stroke-width:0.825641"
         d="m 55.619861,46.654 c -0.01645,0 -0.03229,0.0033 -0.04651,0.0093 -0.01422,0.006 -0.02699,0.01459 -0.03772,0.02532 -0.01073,0.01073 -0.01933,0.02402 -0.02532,0.03824 -0.006,0.01422 -0.0093,0.02954 -0.0093,0.04599 v 0.91829 0.91829 0.91829 0.91829 0.918291 0.918807 0.91829 0.91829 0.646989 0.91829 0.91829 0.626319 c 0,0.0658 0.05305,0.118855 0.118856,0.118855 0.0658,0 0.118856,-0.05305 0.118856,-0.118855 v -0.507463 h 3.526399 v 0.507463 c 0,0.0658 0.05305,0.118855 0.118856,0.118855 0.0658,0 0.118856,-0.05305 0.118856,-0.118855 v -10.45672 c 0,-0.04239 -0.02309,-0.07769 -0.05633,-0.0987 -3.19e-4,-2.15e-4 -7.13e-4,-3.05e-4 -10e-4,-5.17e-4 -0.0086,-0.0053 -0.01745,-0.0099 -0.02739,-0.01292 -0.0096,-0.0032 -0.01946,-0.005 -0.02997,-0.0057 -0.0015,-5.3e-5 -0.0027,-0.001 -0.0041,-0.001 -3.55e-4,0 -6.79e-4,-3e-6 -0.001,0 -8.79e-4,-1.9e-5 -0.0017,0 -0.0026,0 z m 0.118856,0.237711 h 3.526399 v 0.680579 h -3.526399 z m 0,0.918291 h 3.526399 v 0.680578 h -3.526399 z m 0,0.91829 h 3.526399 v 0.680578 h -3.526399 z m 0,0.91829 h 3.526399 v 0.681095 h -3.526399 z m 0,0.91829 h 3.526399 v 0.681096 h -3.526399 z m 0,0.91829 h 3.526399 v 0.681096 h -3.526399 z m 0,0.918291 h 3.526399 v 0.681095 h -3.526399 z m 0,0.91829 h 3.526399 v 0.681095 h -3.526399 z m 0,0.918807 h 3.526399 v 0.409277 h -3.526399 z m 0,0.646989 h 3.526399 v 0.680578 h -3.526399 z m 0,0.91829 h 3.526399 v 0.680579 h -3.526399 z"
         inkscape:label="stair" />
      <path
         id="path1472"
         style="fill:#000000;fill-opacity:0.15;stroke-width:1.32292"
         d="m 57.500153,36.667912 v 2.484334 0.904977 a 0.5699929,0.59573567 0 0 1 0.06095,0.0052 0.5699929,0.59573567 0 0 0 -0.06095,-0.0052 v 1.191371 1.1259 3.330937 0.405401 0.543438 0.237694 0.680507 0.237693 0.271236 0.409271 0.237694 0.680507 0.237694 0.681152 0.237371 0.681152 0.237048 0.681152 0.237049 0.681152 0.237371 0.680829 0.237694 0.263818 0.145454 0.238016 0.680507 0.237694 0.680507 0.237693 1.7977 h 4.003703 l -0.829832,-4.017571 h 8.265096 c 0.03601,0 0.07007,-0.0069 0.10514,-0.01032 l 5.360201,1.436482 1.110742,4.145287 h -2.617855 a 2.970979,1.4130104 0 0 0 2.971009,1.412617 2.970979,1.4130104 0 0 0 2.971332,-1.412617 H 76.270534 L 71.97044,44.025449 c -0.04281,-0.159748 -0.184662,-0.259901 -0.341544,-0.264462 -0.144179,-0.02212 -0.292702,0.04243 -0.370247,0.176738 l -0.386374,0.668897 a 2.7093635,2.7093635 0 0 0 0.06934,-0.348317 2.7093635,2.7093635 0 0 0 -2.709449,-2.709127 2.7093635,2.7093635 0 0 0 -0.01709,0.0035 V 40.203597 C 68.312686,39.6649 67.984846,39.135593 67.4462,38.991263 l -8.533428,-2.285988 c -0.09212,-0.02468 -0.184563,-0.03566 -0.275428,-0.0358 v -0.0016 h -0.879176 z m 0.07902,3.397374 a 0.5699929,0.59573567 0 0 1 0.04644,0.01032 0.5699929,0.59573567 0 0 0 -0.04644,-0.01032 z m 0.06128,0.01419 a 0.5699929,0.59573567 0 0 1 0.05934,0.02064 0.5699929,0.59573567 0 0 0 -0.05934,-0.02064 z m 0.20512,0.105462 a 0.5699929,0.59573567 0 0 1 0.0055,0.0045 0.5699929,0.59573567 0 0 0 -0.0055,-0.0045 z m 0.11804,0.128039 a 0.5699929,0.59573567 0 0 1 0.0052,0.0077 0.5699929,0.59573567 0 0 0 -0.0052,-0.0077 z m 0.07805,0.160612 a 0.5699929,0.59573567 0 0 1 0.0019,0.0081 0.5699929,0.59573567 0 0 0 -0.0019,-0.0081 z m 0.009,0.330256 a 0.5699929,0.59573567 0 0 1 -0.0026,0.009 0.5699929,0.59573567 0 0 0 0.0026,-0.009 z m -0.05513,0.140295 a 0.5699929,0.59573567 0 0 1 -0.0065,0.01193 0.5699929,0.59573567 0 0 0 0.0065,-0.01193 z m -0.147067,0.178996 a 0.5699929,0.59573567 0 0 1 -0.01677,0.01225 0.5699929,0.59573567 0 0 0 0.01677,-0.01225 z m -0.05709,0.04031 a 0.5699929,0.59573567 0 0 1 -0.02354,0.01355 0.5699929,0.59573567 0 0 0 0.02354,-0.01355 z m -0.06224,0.03354 a 0.5699929,0.59573567 0 0 1 -0.02483,0.01064 0.5699929,0.59573567 0 0 0 0.02483,-0.01064 z m -0.06386,0.02451 a 0.5699929,0.59573567 0 0 1 -0.02967,0.009 0.5699929,0.59573567 0 0 0 0.02967,-0.009 z m -0.07063,0.01774 a 0.5699929,0.59573567 0 0 1 -0.0258,0.0045 0.5699929,0.59573567 0 0 0 0.0258,-0.0045 z m 10.151812,0.362507 a 2.7093635,2.7093635 0 0 0 -0.09772,0.01838 2.7093635,2.7093635 0 0 1 0.09772,-0.01838 z m -0.533763,0.153195 a 2.7093635,2.7093635 0 0 0 -0.0774,0.03515 2.7093635,2.7093635 0 0 1 0.0774,-0.03515 z m -0.457971,0.240596 a 2.7093635,2.7093635 0 0 0 -0.04676,0.02838 2.7093635,2.7093635 0 0 1 0.04676,-0.02838 z m -0.405079,0.324128 a 2.7093635,2.7093635 0 0 0 -0.06902,0.06934 2.7093635,2.7093635 0 0 1 0.06902,-0.06934 z m -7.121457,0.06063 c 0.0036,6.72e-4 0.0071,0.0015 0.01064,0.0023 -0.0035,-7.82e-4 -0.0071,-0.0016 -0.01064,-0.0023 z m 6.758305,0.368957 a 2.7093635,2.7093635 0 0 0 -0.02709,0.04451 2.7093635,2.7093635 0 0 1 0.02709,-0.04451 z m -0.232534,0.430235 a 2.7093635,2.7093635 0 0 0 -0.03354,0.0745 2.7093635,2.7093635 0 0 1 0.03354,-0.0745 z m -0.167063,0.514412 a 2.7093635,2.7093635 0 0 0 -0.01709,0.09321 2.7093635,2.7093635 0 0 1 0.01709,-0.09321 z m 6.103599,0.08127 c 0.0022,6.87e-4 0.0043,0.0015 0.0065,0.0023 -0.0022,-7.26e-4 -0.0043,-0.0016 -0.0065,-0.0023 z m -6.119724,0.949484 a 2.7093635,2.7093635 0 0 0 0.01096,0.0645 2.7093635,2.7093635 0 0 1 -0.01096,-0.0645 z m 5.251191,0.139972 a 2.7093635,2.7093635 0 0 1 -0.01903,0.07386 2.7093635,2.7093635 0 0 0 0.01903,-0.07386 z m -0.08514,0.284458 a 2.7093635,2.7093635 0 0 1 -0.01613,0.04644 2.7093635,2.7093635 0 0 0 0.01613,-0.04644 z m -5.027366,0.06773 a 2.7093635,2.7093635 0 0 0 0.03096,0.07611 2.7093635,2.7093635 0 0 1 -0.03096,-0.07611 z m 4.905455,0.220278 a 2.7093635,2.7093635 0 0 1 -0.02935,0.05547 2.7093635,2.7093635 0 0 0 0.02935,-0.05547 z m -0.135133,0.239306 a 2.7093635,2.7093635 0 0 1 -0.03741,0.05902 2.7093635,2.7093635 0 0 0 0.03741,-0.05902 z m -4.533596,0.01226 a 2.7093635,2.7093635 0 0 0 0.03709,0.05418 2.7093635,2.7093635 0 0 1 -0.03709,-0.05418 z m 4.340732,0.258335 a 2.7093635,2.7093635 0 0 1 -0.0287,0.0329 2.7093635,2.7093635 0 0 0 0.0287,-0.0329 z m -0.183189,0.200604 a 2.7093635,2.7093635 0 0 1 -0.04805,0.04741 2.7093635,2.7093635 0 0 0 0.04805,-0.04741 z m -3.581531,0.194154 a 2.7093635,2.7093635 0 0 0 0.02677,0.02258 2.7093635,2.7093635 0 0 1 -0.02677,-0.02258 z m 3.331582,0.02935 a 2.7093635,2.7093635 0 0 1 -0.132232,0.08805 2.7093635,2.7093635 0 0 0 0.132232,-0.08805 z m -0.126104,0.09514 c 0.01445,0.01647 0.02802,0.03373 0.04161,0.05096 -0.01359,-0.01723 -0.02716,-0.03448 -0.04161,-0.05096 z m -2.915859,0.08418 a 2.7093635,2.7093635 0 0 0 0.04322,0.02709 2.7093635,2.7093635 0 0 1 -0.04322,-0.02709 z m 2.454018,0.173191 a 2.7093635,2.7093635 0 0 1 -0.0081,0.0035 2.7093635,2.7093635 0 0 0 0.0081,-0.0035 z m -2.129568,6.45e-4 a 2.7093635,2.7093635 0 0 0 0.04354,0.01903 2.7093635,2.7093635 0 0 1 -0.04354,-0.01903 z m 0.343801,0.127716 a 2.7093635,2.7093635 0 0 0 0.04644,0.0129 2.7093635,2.7093635 0 0 1 -0.04644,-0.0129 z m 0.363797,0.0816 a 2.7093635,2.7093635 0 0 0 0.03032,0.0035 2.7093635,2.7093635 0 0 1 -0.03032,-0.0035 z"
         inkscape:label="shadow" />
    </g>
  </g>
</svg>
