<?xml version="1.0" encoding="UTF-8" standalone="no"?>
<!-- Created with Inkscape (http://www.inkscape.org/) -->

<svg
   width="300"
   height="300"
   viewBox="0 0 79.375 79.375"
   version="1.1"
   id="svg1"
   inkscape:version="1.3.2 (091e20e, 2023-11-25, custom)"
   sodipodi:docname="tourism.svg"
   xmlns:inkscape="http://www.inkscape.org/namespaces/inkscape"
   xmlns:sodipodi="http://sodipodi.sourceforge.net/DTD/sodipodi-0.dtd"
   xmlns="http://www.w3.org/2000/svg"
   xmlns:svg="http://www.w3.org/2000/svg">
  <sodipodi:namedview
     id="namedview1"
     pagecolor="#000000"
     bordercolor="#000000"
     borderopacity="0.25"
     inkscape:showpageshadow="2"
     inkscape:pageopacity="0.0"
     inkscape:pagecheckerboard="0"
     inkscape:deskcolor="#d1d1d1"
     inkscape:document-units="mm"
     inkscape:zoom="2.284147"
     inkscape:cx="101.13184"
     inkscape:cy="148.63317"
     inkscape:window-width="1600"
     inkscape:window-height="837"
     inkscape:window-x="-8"
     inkscape:window-y="-8"
     inkscape:window-maximized="1"
     inkscape:current-layer="layer1" />
  <defs
     id="defs1" />
  <g
     inkscape:label="shepard capsule"
     inkscape:groupmode="layer"
     id="layer1"
     transform="rotate(15,25.391649,34.179765)">
    <ellipse
       style="fill:#959595;fill-opacity:1;stroke:none;stroke-width:0"
       id="path2"
       cx="42.382397"
       cy="47.085159"
       rx="25.70228"
       ry="14.075527"
       inkscape:label="capsule heatshield" />
    <path
       id="path1"
       style="fill:#cccccc;fill-opacity:1;stroke:none;stroke-width:0"
       d="M 42.395345,8.8758488 C 16.644484,8.8758751 16.680443,40.59499 16.680119,46.593056 16.679718,52.591338 28.192924,57.454001 42.395345,57.454015 56.597766,57.454001 68.110972,52.591338 68.110571,46.593056 68.110247,40.59499 68.146204,8.8758751 42.395345,8.8758488 Z"
       sodipodi:nodetypes="ccccc"
       inkscape:label="capsule body" />
    <g
       id="g23"
       inkscape:label="window">
      <rect
         style="fill:#979fed;fill-opacity:1;stroke:none;stroke-width:0"
         id="rect3"
         width="7.1817479"
         height="17.375195"
         x="46.615742"
         y="39.10009"
         ry="5.5021453"
         transform="rotate(-15)" />
      <rect
         style="fill:#979fed;fill-opacity:1;stroke:none;stroke-width:0"
         id="rect6"
         width="7.1817479"
         height="17.375195"
         x="-35.285774"
         y="17.154644"
         ry="5.5021453"
         transform="matrix(-0.96592583,-0.25881905,-0.25881905,0.96592583,0,0)" />
    </g>
    <g
       id="g21"
       inkscape:label="the flag"
       inkscape:highlight-color="#003399"
       transform="translate(0.55190098,3.5710882)">
      <rect
         style="fill:#f4f4f4;fill-opacity:1;stroke:none;stroke-width:0"
         id="rect7"
         width="6.8884706"
         height="4.3293271"
         x="38.399181"
         y="22.805113"
         inkscape:label="white" />
      <path
         id="rect9"
         style="fill:#ff0000;fill-opacity:1;stroke:none;stroke-width:0"
         d="M 38.3992,22.804987 V 23.1383 h 6.888505 v -0.333313 z m 0,0.666109 v 0.333313 h 6.888505 v -0.333313 z m 0,0.666109 v 0.332796 h 6.888505 v -0.332796 z m 0,0.666109 v 0.332796 h 6.888505 v -0.332796 z m 0,0.666109 v 0.332797 h 6.888505 v -0.332797 z m 0,0.66611 v 0.332796 h 6.888505 v -0.332796 z m 0,0.666109 v 0.332796 h 6.888505 v -0.332796 z"
         inkscape:label="red" />
      <rect
         style="fill:#003399;fill-opacity:1;stroke:none;stroke-width:0"
         id="rect21"
         width="3.444272"
         height="2.3311768"
         x="38.399181"
         y="22.804934"
         inkscape:label="blue" />
    </g>
    <g
       id="g22"
       inkscape:label="door">
      <rect
         style="fill:#b8b8b8;fill-opacity:1;stroke:none;stroke-width:0"
         id="rect4"
         width="11.004291"
         height="17.375195"
         x="36.8932"
         y="32.033695"
         ry="5.5021453" />
      <circle
         style="fill:#a3a3a3;fill-opacity:1;stroke:none;stroke-width:0"
         id="path21"
         cx="42.395344"
         cy="37.747612"
         r="1.2886603" />
    </g>
    <path
       id="path71"
       style="fill:#000000;fill-opacity:0.15;stroke-width:0"
       d="m 42.395345,8.8758488 v 17.5002242 0.333313 0.332796 0.333313 0.332796 0.332796 0.333313 0.332797 0.333313 0.332796 0.333313 0.332796 0.333313 0.332796 1.328601 0.975651 a 25.70228,14.075527 0 0 1 1.65778,0.03152 25.70228,14.075527 0 0 1 1.650545,0.08992 25.70228,14.075527 0 0 0 -1.650545,-0.08992 25.70228,14.075527 0 0 0 -1.65778,-0.03152 v 3.452503 2.570386 10.375594 8.044987 3.707267 A 25.70228,14.075527 0 0 0 68.080599,47.20426 c -0.02345,0.178556 -0.05714,0.356113 -0.100769,0.532266 -0.04363,0.176154 -0.09739,0.350971 -0.160714,0.524516 0.06332,-0.173545 0.117087,-0.348362 0.160714,-0.524516 0.04363,-0.176153 0.07732,-0.35371 0.100769,-0.532266 a 25.70228,14.075527 0 0 0 0.01085,-0.07493 c 5.53e-4,-0.0048 6.99e-4,-0.0096 0.001,-0.01447 -1.12e-4,0.0016 1.34e-4,0.003 0,0.0047 a 25.70228,14.075527 0 0 0 0.0052,-0.03462 25.70228,14.075527 0 0 0 -0.0015,-0.03411 c 0.01492,-0.151939 0.0274,-0.304367 0.02739,-0.457853 -3.24e-4,-5.998055 0.03558,-37.7170529 -25.715226,-37.7170792 -0.0044,0 -0.0085,-1.8e-6 -0.01292,0 z M 59.101819,36.395616 a 25.70228,14.075527 0 0 1 0.377754,0.182935 25.70228,14.075527 0 0 0 -0.377754,-0.182935 z m -16.436206,0.0894 a 1.2886603,1.2886603 0 0 1 0.01705,0.0031 1.2886603,1.2886603 0 0 0 -0.01705,-0.0031 z m 17.651635,0.520899 a 25.70228,14.075527 0 0 1 0.342615,0.183968 25.70228,14.075527 0 0 0 -0.342615,-0.183968 z m -16.649629,0.467156 a 1.2886603,1.2886603 0 0 1 0.0031,0.01705 1.2886603,1.2886603 0 0 0 -0.0031,-0.01705 z m 0.0031,0.53175 a 1.2886603,1.2886603 0 0 1 -0.0031,0.01705 1.2886603,1.2886603 0 0 0 0.0031,-0.01705 z m 19.070154,0.490409 a 25.70228,14.075527 0 0 1 0.293005,0.215491 25.70228,14.075527 0 0 0 -0.293005,-0.215491 z m -19.466512,0.20619 a 1.2886603,1.2886603 0 0 1 -0.01085,0.0098 1.2886603,1.2886603 0 0 0 0.01085,-0.0098 z m -0.591695,0.305407 a 1.2886603,1.2886603 0 0 1 -0.01705,0.0031 1.2886603,1.2886603 0 0 0 0.01705,-0.0031 z m 21.018355,0.221692 a 25.70228,14.075527 0 0 1 0.264067,0.216008 25.70228,14.075527 0 0 0 -0.264067,-0.216008 z m 4.392497,7.871354 c -1.39e-4,0.0033 -3.28e-4,0.0065 -5.17e-4,0.0098 1.89e-4,-0.0033 3.78e-4,-0.0065 5.17e-4,-0.0098 z"
       inkscape:label="shadow" />
  </g>
</svg>
