<?xml version="1.0" encoding="UTF-8" standalone="no"?>
<!-- Created with Inkscape (http://www.inkscape.org/) -->

<svg
   width="300"
   height="300"
   viewBox="0 0 79.374998 79.375"
   version="1.1"
   id="svg1"
   inkscape:version="1.3.2 (091e20e, 2023-11-25, custom)"
   sodipodi:docname="uses.svg"
   xmlns:inkscape="http://www.inkscape.org/namespaces/inkscape"
   xmlns:sodipodi="http://sodipodi.sourceforge.net/DTD/sodipodi-0.dtd"
   xmlns="http://www.w3.org/2000/svg"
   xmlns:svg="http://www.w3.org/2000/svg">
  <sodipodi:namedview
     id="namedview1"
     pagecolor="#000000"
     bordercolor="#000000"
     borderopacity="0.25"
     inkscape:showpageshadow="2"
     inkscape:pageopacity="0.0"
     inkscape:pagecheckerboard="0"
     inkscape:deskcolor="#d1d1d1"
     inkscape:document-units="mm"
     inkscape:zoom="2.9540685"
     inkscape:cx="113.06441"
     inkscape:cy="134.56019"
     inkscape:window-width="1920"
     inkscape:window-height="1046"
     inkscape:window-x="-11"
     inkscape:window-y="-11"
     inkscape:window-maximized="1"
     inkscape:current-layer="g67" />
  <defs
     id="defs1" />
  <g
     inkscape:label="uses"
     inkscape:groupmode="layer"
     id="layer1">
    <g
       id="g67"
       inkscape:label="glonass-m"
       transform="rotate(15,105.42687,53.140701)"
       style="display:inline">
      <path
         id="rect6"
         style="fill:#7e7e7e;fill-opacity:1;stroke-width:1.32292"
         d="m 35.168913,19.595703 c -0.137607,0 -0.274898,0.05269 -0.380339,0.15813 l -3.386873,3.386357 c -0.210882,0.210882 -0.210882,0.550311 0,0.761193 0.210882,0.210883 0.550828,0.210883 0.76171,0 l 2.744536,-2.744535 2.484603,9.271269 c 0.07719,0.28807 0.37132,0.458043 0.659391,0.380855 0.288071,-0.07719 0.457527,-0.37132 0.380338,-0.659391 L 35.711515,19.994645 c -0.06134,-0.228939 -0.260262,-0.38092 -0.483691,-0.395841 -0.01954,-0.0021 -0.03928,-0.0031 -0.05891,-0.0031 z m -8.747787,14.297319 c -0.172248,0.01204 -0.335716,0.106777 -0.428914,0.2682 -0.149116,0.258277 -0.06087,0.58624 0.197404,0.735356 l 7.364925,4.252454 H 17.362764 c -0.298231,0 -0.538468,0.240235 -0.538468,0.538468 0,0.298233 0.240237,0.538468 0.538468,0.538468 h 16.191777 l -7.364925,4.252454 c -0.258277,0.149116 -0.34652,0.477079 -0.197404,0.735356 0.149116,0.258276 0.477078,0.346003 0.735356,0.196887 l 8.98033,-5.184697 h 8.457882 l 8.979813,5.184697 c 0.258277,0.149116 0.58624,0.06139 0.735356,-0.196887 0.149116,-0.258277 0.06139,-0.58624 -0.196887,-0.735356 L 46.31862,40.225968 h 15.693616 c 0.298231,0 0.538468,-0.240235 0.538468,-0.538468 0,-0.298233 -0.240237,-0.538468 -0.538468,-0.538468 H 46.31862 l 7.365442,-4.252454 c 0.258276,-0.149116 0.346003,-0.477079 0.196887,-0.735356 -0.149116,-0.258276 -0.477079,-0.346003 -0.735356,-0.196887 l -8.979813,5.184697 h -8.457882 l -8.98033,-5.184697 c -0.09685,-0.05592 -0.203093,-0.07854 -0.306442,-0.07131 z"
         inkscape:label="structs" />
      <path
         id="rect1"
         style="fill:#ffcc00;stroke-width:1.32292"
         inkscape:label="body"
         d="M 27.281106 -33.907238 C 27.529211 -33.106207 28.273707 -32.527611 29.158388 -32.527611 L 50.216812 -32.527619 C 51.30565 -32.527619 52.182097 -33.404511 52.182097 -34.493349 L 52.182078 -44.881854 C 52.182078 -45.970692 51.305187 -46.847139 50.216348 -46.847139 L 29.158424 -46.847265 C 28.069585 -46.847265 27.193005 -45.970873 27.193005 -44.882034 L 27.193157 -34.49303 C 27.193157 -34.288873 27.223851 -34.092092 27.281106 -33.907238 z "
         transform="rotate(90)" />
      <g
         id="g15"
         inkscape:label="solar panels">
        <path
           id="rect2"
           style="fill:#003399;stroke-width:1.32292"
           d="M 51.660096 32.181415 C 50.980399 32.391939 50.489409 33.023593 50.489409 33.77427 L 50.489551 45.600804 C 50.489551 46.524714 51.233289 47.268255 52.157199 47.268255 L 58.143234 47.268213 C 59.067144 47.268213 59.811183 46.524342 59.811183 45.600432 L 59.811175 33.774396 C 59.811175 32.850486 59.067303 32.106446 58.143393 32.106446 L 52.15686 32.106622 C 51.983626 32.106622 51.81695 32.132832 51.660096 32.181415 z " />
        <path
           id="rect3"
           style="fill:#003399;stroke-width:1.32292"
           d="M 20.734754 32.181316 C 20.055056 32.391841 19.564066 33.023494 19.564066 33.774171 L 19.564209 45.600706 C 19.564209 46.524616 20.307946 47.268157 21.231857 47.268157 L 27.218025 47.268614 C 28.141935 47.268614 28.885475 46.524876 28.885475 45.600966 L 28.885832 33.774298 C 28.885832 32.850388 28.141961 32.106348 27.218051 32.106348 L 21.231517 32.106523 C 21.058284 32.106523 20.891607 32.132734 20.734754 32.181316 z " />
        <path
           id="rect4"
           style="fill:#003399;stroke-width:1.32292"
           d="M 10.099554 32.181098 C 9.4198559 32.391622 8.929 33.023775 8.929 33.774452 L 8.9290084 45.600487 C 8.9290084 46.524398 9.6728798 47.268437 10.59679 47.268437 L 16.582824 47.268395 C 17.506735 47.268395 18.250275 46.524658 18.250275 45.600748 L 18.250632 33.774079 C 18.250632 32.850169 17.506894 32.106628 16.582984 32.106628 L 10.596451 32.106804 C 10.423217 32.106804 10.256407 32.132515 10.099554 32.181098 z " />
        <path
           id="rect5"
           style="fill:#003399;stroke-width:1.32292"
           d="M 62.295163 32.181134 C 61.615465 32.391659 61.124609 33.023811 61.124609 33.774488 L 61.124618 45.600524 C 61.124618 46.524434 61.868489 47.268474 62.792399 47.268474 L 68.778434 47.268432 C 69.702344 47.268432 70.446383 46.52456 70.446383 45.60065 L 70.446241 33.774115 C 70.446241 32.850205 69.702504 32.106665 68.778593 32.106665 L 62.79206 32.10684 C 62.618827 32.10684 62.452016 32.132552 62.295163 32.181134 z " />
      </g>
      <ellipse
         style="fill:#c0c0c0;fill-opacity:1;stroke-width:1.32292"
         id="path11"
         cx="39.6875"
         cy="39.6875"
         rx="4.6866083"
         ry="4.565208"
         inkscape:label="think that i dont know" />
      <g
         id="g14"
         inkscape:label="antena">
        <circle
           style="fill:#e2e2e2;fill-opacity:1;stroke-width:1.32292"
           id="path10"
           cx="31.191942"
           cy="23.690138"
           r="2.9780607"
           inkscape:label="antena dish" />
        <g
           id="g13"
           inkscape:label="antena receptor">
          <rect
             style="fill:#7d7d7d;fill-opacity:1;stroke-width:1.32292"
             id="rect12"
             width="0.41166154"
             height="1.4683313"
             x="30.986111"
             y="23.464706"
             rx="0.20583077" />
          <ellipse
             style="fill:#a3a3a3;fill-opacity:1;stroke-width:1.32292"
             id="path12"
             cx="31.191942"
             cy="24.735125"
             rx="0.63846296"
             ry="0.60199666" />
          <circle
             style="fill:#7d7d7d;fill-opacity:0;stroke-width:1.32292"
             id="path13"
             cx="31.191942"
             cy="23.690138"
             r="2.0572131" />
        </g>
      </g>
      <path
         id="path41"
         style="fill:#000000;fill-opacity:0.15;stroke-width:1.32292"
         d="m 31.191895,20.711914 a 2.9780607,2.9780607 0 0 0 -2.978113,2.978113 2.9780607,2.9780607 0 0 0 2.978113,2.978113 2.9780607,2.9780607 0 0 0 0.455786,-0.03721 2.9780607,2.9780607 0 0 1 -2.513025,-2.940906 2.9780607,2.9780607 0 0 1 2.517676,-2.939872 2.9780607,2.9780607 0 0 0 -0.460437,-0.03824 z m 8.495605,6.481258 v 7.929232 4.026628 1.076936 4.026628 7.929232 h 5.194515 c 1.088837,0 1.965255,-0.876418 1.965255,-1.965255 v -8.442379 l 3.642155,2.102714 v 1.723926 c 0,0.923908 0.74369,1.667599 1.667598,1.667599 h 5.986198 c 0.923908,0 1.667598,-0.743691 1.667598,-1.667599 v -5.374866 h 1.313615 v 5.374866 c 0,0.923908 0.743691,1.667599 1.667599,1.667599 h 5.986198 c 0.923908,0 1.668115,-0.743691 1.668115,-1.667599 V 33.774166 c 0,-0.923908 -0.744207,-1.667599 -1.668115,-1.667599 h -5.986198 c -0.923908,0 -1.667599,0.743691 -1.667599,1.667599 v 5.374866 h -1.313615 v -5.374866 c 0,-0.923908 -0.74369,-1.667599 -1.667598,-1.667599 h -5.986198 c -0.923908,0 -1.667598,0.743691 -1.667598,1.667599 v 1.723926 l -3.642155,2.102714 v -8.442379 c 0,-1.088837 -0.876418,-1.965255 -1.965255,-1.965255 z"
         inkscape:label="shadow" />
    </g>
    <g
       id="g73"
       inkscape:label="planet"
       transform="translate(-12.021551)">
      <ellipse
         style="fill:#008703;fill-opacity:1;stroke-width:1.32292"
         id="path67"
         cx="39.6875"
         cy="57.555866"
         rx="17.743597"
         ry="17.868366" />
      <path
         id="path67-9"
         style="fill:#000000;fill-opacity:0.15;stroke-width:1.32292"
         d="m 39.687477,39.687706 a 17.743597,17.868366 0 0 1 17.74362,17.86816 17.743597,17.868366 0 0 1 -17.74362,17.868677 z" />
      <g
         id="g69"
         transform="translate(3.0000001e-7,2.1943607)"
         inkscape:label="location symbol">
        <path
           id="path68"
           style="fill:#db0000;fill-opacity:1;stroke-width:1.32292"
           inkscape:transform-center-y="1.5924696"
           d="m 36.8563,45.230476 c -3.046773,7e-6 -5.516619,1.512686 -5.516459,3.378605 0.100548,3.538601 3.363153,7.696335 5.516459,11.052555 2.153307,-3.575146 5.516459,-7.184174 5.516459,-11.052555 1.6e-4,-1.865919 -2.469686,-3.378598 -5.516459,-3.378605 z"
           sodipodi:nodetypes="ccccc"
           transform="translate(2.8311997,2.1495778)" />
        <circle
           style="fill:#940000;fill-opacity:1;stroke-width:1.32292"
           id="path69"
           cx="39.6875"
           cy="51.64769"
           r="2.1533065" />
      </g>
    </g>
    <g
       id="g75"
       inkscape:label="wifi"
       transform="rotate(75,53.45201,33.272256)">
      <ellipse
         style="fill:#1155c2;fill-opacity:1;stroke-width:1.32292"
         id="path73"
         cx="53.420891"
         cy="46.103966"
         rx="0.8342585"
         ry="0.78370202" />
      <path
         style="fill:#1154c0;fill-opacity:0;stroke:#1154c0;stroke-width:1.323;stroke-dasharray:none;stroke-opacity:1"
         id="ellipse73"
         sodipodi:type="arc"
         sodipodi:cx="52.586636"
         sodipodi:cy="45.320267"
         sodipodi:rx="3.6837423"
         sodipodi:ry="3.4605057"
         sodipodi:start="0"
         sodipodi:end="1.5707963"
         sodipodi:open="true"
         sodipodi:arc-type="arc"
         d="m 56.270378,45.320267 a 3.6837423,3.4605057 0 0 1 -3.683742,3.460505" />
      <path
         style="fill:#1154c0;fill-opacity:0;stroke:#1154c0;stroke-width:1.323;stroke-dasharray:none;stroke-opacity:1"
         id="ellipse74"
         sodipodi:type="arc"
         sodipodi:cx="52.586632"
         sodipodi:cy="45.320263"
         sodipodi:rx="6.4574518"
         sodipodi:ry="6.0917153"
         sodipodi:start="0"
         sodipodi:end="1.5707963"
         sodipodi:open="true"
         sodipodi:arc-type="arc"
         d="m 59.044084,45.320263 a 6.4574518,6.0917153 0 0 1 -6.457452,6.091715" />
      <path
         style="fill:#1154c0;fill-opacity:0;stroke:#1154c0;stroke-width:1.323;stroke-dasharray:none;stroke-opacity:1"
         id="ellipse75"
         sodipodi:type="arc"
         sodipodi:cx="52.586632"
         sodipodi:cy="45.320263"
         sodipodi:rx="9.1483192"
         sodipodi:ry="8.6443386"
         sodipodi:start="0"
         sodipodi:end="1.5707963"
         sodipodi:open="true"
         sodipodi:arc-type="arc"
         d="m 61.734951,45.320263 a 9.1483192,8.6443386 0 0 1 -9.148319,8.644339" />
    </g>
  </g>
</svg>
