<?xml version="1.0" encoding="UTF-8" standalone="no"?>
<!-- Created with Inkscape (http://www.inkscape.org/) -->

<svg
   width="300"
   height="300"
   viewBox="0 0 79.374998 79.375"
   version="1.1"
   id="svg1"
   inkscape:version="1.3.2 (091e20e, 2023-11-25, custom)"
   sodipodi:docname="venera_9_orbiter.svg"
   xmlns:inkscape="http://www.inkscape.org/namespaces/inkscape"
   xmlns:sodipodi="http://sodipodi.sourceforge.net/DTD/sodipodi-0.dtd"
   xmlns="http://www.w3.org/2000/svg"
   xmlns:svg="http://www.w3.org/2000/svg">
  <sodipodi:namedview
     id="namedview1"
     pagecolor="#000000"
     bordercolor="#000000"
     borderopacity="0.25"
     inkscape:showpageshadow="2"
     inkscape:pageopacity="0.0"
     inkscape:pagecheckerboard="0"
     inkscape:deskcolor="#d1d1d1"
     inkscape:document-units="mm"
     inkscape:zoom="2.9540685"
     inkscape:cx="121.86583"
     inkscape:cy="144.37715"
     inkscape:window-width="2560"
     inkscape:window-height="1057"
     inkscape:window-x="-8"
     inkscape:window-y="-8"
     inkscape:window-maximized="1"
     inkscape:current-layer="layer1" />
  <defs
     id="defs1" />
  <g
     inkscape:label="venera 9 orbiter"
     inkscape:groupmode="layer"
     id="layer1"
     transform="matrix(0.79330491,1.3740444,-1.3740444,0.79330491,77.238872,-49.01363)"
     style="stroke-width:0.630275"
     inkscape:highlight-color="#f8ebcc">
    <path
       sodipodi:type="star"
       style="fill:#262626;fill-opacity:1;stroke-width:0.33352;stroke-linecap:round"
       id="path2"
       inkscape:flatsided="true"
       sodipodi:sides="3"
       sodipodi:cx="139.07228"
       sodipodi:cy="286.5224"
       sodipodi:r1="22.53273"
       sodipodi:r2="11.266365"
       sodipodi:arg1="-1.5707963"
       sodipodi:arg2="-0.52359878"
       inkscape:rounded="0"
       inkscape:randomized="0"
       d="m 139.07228,263.98967 19.51392,33.7991 -39.02784,-10e-6 z"
       transform="matrix(0.14441855,-0.08338009,0.08338009,0.14441855,0.38119912,32.739737)"
       inkscape:transform-center-x="-1.1028067e-06"
       inkscape:transform-center-y="-1.4904469"
       inkscape:label="thruster" />
    <path
       id="rect10"
       style="fill:#939393;fill-opacity:1;stroke-width:0.33352;stroke-linecap:round"
       d="m 2.5217777,47.487967 c -3.22863565,0 -5.828138,2.599177 -5.828138,5.827813 v 14.569693 c 0,0.08032 0.00886,0.158251 0.012051,0.237764 l -2.9697642,5.590048 v 1.377075 c 0,0.762931 0.6141431,1.377074 1.3770742,1.377074 H 19.190956 c 0.762931,0 1.377074,-0.614143 1.377074,-1.377074 v -1.377075 l -2.969764,-5.590048 c 0.0032,-0.07951 0.01205,-0.157442 0.01205,-0.237764 V 53.31578 c 0,-3.228636 -2.599503,-5.827813 -5.828138,-5.827813 z"
       transform="rotate(-30)"
       inkscape:label="body" />
    <g
       id="g3"
       inkscape:label="solar panels"
       style="fill:#00078f;fill-opacity:1">
      <rect
         style="fill:#00078f;fill-opacity:1;stroke-width:0.33352;stroke-linecap:round"
         id="rect12"
         width="12.645029"
         height="20.460085"
         x="-16.911516"
         y="49.493103"
         transform="rotate(-30)"
         ry="3.8386693" />
      <rect
         style="fill:#00078f;fill-opacity:1;stroke-width:0.33352;stroke-linecap:round"
         id="rect13"
         width="12.645029"
         height="20.460085"
         x="18.570442"
         y="49.493103"
         transform="rotate(-30)"
         ry="3.8386693" />
    </g>
    <path
       id="path11"
       style="fill:#000000;fill-opacity:0.149083;stroke-width:0.33352;stroke-linecap:round"
       d="m 29.937773,37.549705 12.539583,21.719196 1.95015,3.377758 0.867999,1.50342 2.818137,-1.627052 -1.735922,-1.002325 8.475846,-4.893532 c 0.660716,-0.381464 0.885509,-1.220402 0.504044,-1.881118 l -0.688537,-1.192581 -5.366916,-3.356242 c -0.037,-0.07045 -0.06828,-0.142374 -0.108445,-0.211935 L 41.908865,37.367569 C 40.294551,34.571494 36.743718,33.62029 33.947644,35.234605 Z m 14.215684,-5.892219 c -1.841706,1.063309 -2.468386,3.402111 -1.405077,5.243818 l 6.391442,11.070302 c 1.06331,1.841706 3.40195,2.468104 5.243655,1.404795 l 4.302093,-2.483815 c 1.841707,-1.063309 2.468549,-3.40183 1.40524,-5.243536 L 53.699368,30.578748 C 52.636059,28.737042 50.297256,28.110362 48.45555,29.173671 Z"
       inkscape:label="shadow" />
    <g
       id="g1"
       inkscape:label="antenna"
       transform="rotate(30,25.461764,43.843903)">
      <rect
         style="fill:#8b8b8b;fill-opacity:1;stroke-width:0.33352;stroke-linecap:round"
         id="rect1"
         width="0.23202892"
         height="7.4938731"
         x="7.0359635"
         y="37.02581"
         transform="rotate(-30)"
         ry="0.13689706" />
      <path
         sodipodi:type="star"
         style="fill:#b0b0b0;fill-opacity:1;stroke-width:0.251899;stroke-linecap:round"
         id="path1"
         inkscape:flatsided="true"
         sodipodi:sides="3"
         sodipodi:cx="182.46022"
         sodipodi:cy="147.59306"
         sodipodi:r1="25.518148"
         sodipodi:r2="12.759074"
         sodipodi:arg1="-0.52359878"
         sodipodi:arg2="0.52359878"
         inkscape:rounded="0"
         inkscape:randomized="0"
         d="m 204.55959,134.83399 -22.09937,38.27722 -22.09936,-38.27722 z"
         transform="matrix(0.25317107,-0.14616839,0.08338009,0.14441855,-31.15492,38.413804)"
         inkscape:transform-center-y="1.687918"
         inkscape:transform-center-x="-1.5649345e-06" />
      <path
         id="path1-0"
         style="fill:#000000;fill-opacity:0.15;stroke-width:0.0556179;stroke-linecap:round"
         inkscape:transform-center-y="0.47411058"
         d="m 31.876121,27.986189 -2.403366,8.758167 -3.191569,-5.527839 z"
         inkscape:transform-center-x="0.19583799" />
    </g>
  </g>
</svg>
