<?xml version="1.0" encoding="UTF-8" standalone="no"?>
<!-- Created with Inkscape (http://www.inkscape.org/) -->

<svg
   width="300"
   height="300"
   viewBox="0 0 79.374998 79.375"
   version="1.1"
   id="svg1"
   inkscape:version="1.3.2 (091e20e, 2023-11-25, custom)"
   sodipodi:docname="venera_7.svg"
   xmlns:inkscape="http://www.inkscape.org/namespaces/inkscape"
   xmlns:sodipodi="http://sodipodi.sourceforge.net/DTD/sodipodi-0.dtd"
   xmlns="http://www.w3.org/2000/svg"
   xmlns:svg="http://www.w3.org/2000/svg">
  <sodipodi:namedview
     id="namedview1"
     pagecolor="#000000"
     bordercolor="#000000"
     borderopacity="0.25"
     inkscape:showpageshadow="2"
     inkscape:pageopacity="0.0"
     inkscape:pagecheckerboard="0"
     inkscape:deskcolor="#d1d1d1"
     inkscape:document-units="mm"
     inkscape:zoom="4.1776837"
     inkscape:cx="127.10392"
     inkscape:cy="215.07133"
     inkscape:window-width="2560"
     inkscape:window-height="1057"
     inkscape:window-x="-8"
     inkscape:window-y="-8"
     inkscape:window-maximized="1"
     inkscape:current-layer="layer1" />
  <defs
     id="defs1" />
  <g
     inkscape:label="venera 7 lander"
     inkscape:groupmode="layer"
     id="layer1"
     transform="matrix(-0.79834077,2.9794484,-2.9794484,-0.79834077,244.48439,-44.246965)"
     style="stroke-width:0.324196"
     inkscape:highlight-color="#f8ebcc">
    <path
       id="path22"
       style="fill:#af9d5b;fill-opacity:1;stroke-width:0.171554;stroke-linecap:round"
       d="m -70.29436,33.4883 a 1.3671538,1.3671538 0 0 0 -1.366978,1.367304 1.3671538,1.3671538 0 0 0 1.366978,1.366977 1.3671538,1.3671538 0 0 0 1.367303,-1.366977 1.3671538,1.3671538 0 0 0 -1.367303,-1.367304 z m 8.242903,0.997956 a 1.0278602,1.0278602 0 0 0 -1.02792,1.02792 1.0278602,1.0278602 0 0 0 1.02792,1.02792 1.0278602,1.0278602 0 0 0 1.02792,-1.02792 1.0278602,1.0278602 0 0 0 -1.02792,-1.02792 z"
       transform="rotate(-105)" />
    <path
       id="rect12"
       style="fill:#646464;fill-opacity:1;stroke-width:0.171554;stroke-linecap:round"
       d="m -25.340167,65.895729 c -0.715389,0 -1.291089,0.576025 -1.291089,1.291414 v 2.455478 c 0,0.715389 0.5757,1.291415 1.291088,1.291415 h 3.344975 c 0.715389,0 1.291089,-0.576026 1.291089,-1.291415 v -2.455478 c 0,-0.715389 -0.5757,-1.291414 -1.291089,-1.291414 z"
       transform="rotate(-60,-1.0582771e-6,-2.835645e-7)" />
    <path
       id="path11"
       style="fill:#bfbfbf;fill-opacity:1;stroke-width:0.171554;stroke-linecap:round"
       d="m -28.229482,67.049044 a 5.2690306,5.2690306 0 0 0 -0.707102,2.611816 5.2690306,5.2690306 0 0 0 5.268905,5.268905 5.2690306,5.2690306 0 0 0 5.268905,-5.268905 5.2690306,5.2690306 0 0 0 -0.6944,-2.611816 z"
       transform="rotate(-60)" />
    <path
       id="text11"
       style="font-style:normal;font-variant:normal;font-weight:normal;font-stretch:normal;font-size:2.00112px;font-family:'Segoe Print';-inkscape-font-specification:'Segoe Print, Normal';font-variant-ligatures:normal;font-variant-caps:normal;font-variant-numeric:normal;font-variant-east-asian:normal;fill:#970000;fill-opacity:1;stroke-width:0.171554;stroke-linecap:round"
       d="M -25.966194 67.899775 C -25.994347 67.927134 -26.022596 67.956408 -26.051014 67.987675 C -26.277703 68.237163 -26.391123 68.493752 -26.391123 68.757571 C -26.391123 68.902183 -26.343894 69.012581 -26.249441 69.088796 C -26.154335 69.16501 -26.049152 69.203232 -25.933853 69.203232 C -25.855033 69.203232 -25.768398 69.185276 -25.673944 69.149449 C -25.578839 69.113622 -25.495225 69.065385 -25.422919 69.004805 C -25.350613 68.944224 -25.314288 68.897706 -25.314288 68.865136 C -25.314288 68.833869 -25.327028 68.818224 -25.352433 68.818224 C -25.36481 68.818224 -25.404809 68.841987 -25.472555 68.88954 C -25.540302 68.937092 -25.614908 68.975195 -25.696333 69.003857 C -25.777108 69.031867 -25.845907 69.045912 -25.902579 69.045912 C -26.000941 69.045912 -26.076732 69.01652 -26.130148 68.957893 C -26.182912 68.898615 -26.2094 68.824305 -26.2094 68.735063 C -26.2094 68.601525 -26.163178 68.455631 -26.070679 68.297339 C -25.978179 68.138396 -25.865766 68.007436 -25.733531 67.904514 C -25.600644 67.80094 -25.489239 67.749208 -25.399345 67.749208 C -25.34137 67.749208 -25.312392 67.782511 -25.312392 67.848954 C -25.312392 67.871753 -25.317904 67.906538 -25.328977 67.953439 C -25.340051 68.000992 -25.345562 68.03228 -25.345562 68.047262 C -25.345562 68.06941 -25.340051 68.087069 -25.328977 68.100097 C -25.317904 68.113125 -25.304867 68.119525 -25.289884 68.119525 C -25.269039 68.119525 -25.241366 68.107792 -25.206841 68.084342 C -25.172317 68.06024 -25.151754 68.030966 -25.14524 67.996441 C -25.138075 67.961917 -25.134578 67.914688 -25.134578 67.854759 C -25.134578 67.79027 -25.158341 67.734034 -25.205894 67.685829 C -25.252795 67.636974 -25.315668 67.612382 -25.394488 67.612382 C -25.578591 67.612382 -25.769123 67.708262 -25.966194 67.899775 z M -24.567019 67.899657 C -24.595172 67.927016 -24.62354 67.956408 -24.651957 67.987675 C -24.878646 68.237163 -24.99183 68.493752 -24.99183 68.757571 C -24.99183 68.902183 -24.944719 69.0127 -24.850265 69.088914 C -24.75516 69.165128 -24.649977 69.203113 -24.534678 69.203113 C -24.455858 69.203113 -24.369104 69.185276 -24.27465 69.149449 C -24.179545 69.113622 -24.095931 69.065385 -24.023625 69.004805 C -23.951319 68.944224 -23.915113 68.897588 -23.915113 68.865018 C -23.915113 68.83375 -23.927853 68.818106 -23.953258 68.818106 C -23.965635 68.818106 -24.005753 68.841987 -24.073499 68.88954 C -24.141245 68.937092 -24.215851 68.975195 -24.297277 69.003857 C -24.378051 69.031868 -24.446731 69.045793 -24.503404 69.045793 C -24.601766 69.045793 -24.677676 69.01652 -24.731091 68.957893 C -24.783855 68.898615 -24.810225 68.824424 -24.810225 68.735181 C -24.810225 68.601643 -24.763885 68.455631 -24.671385 68.297339 C -24.578886 68.138396 -24.466591 68.007554 -24.334356 67.904632 C -24.201469 67.801059 -24.089945 67.749208 -24.000051 67.749208 C -23.942076 67.749208 -23.913217 67.782392 -23.913217 67.848836 C -23.913217 67.871635 -23.91861 67.906538 -23.929684 67.953439 C -23.940758 68.000992 -23.946387 68.032162 -23.946387 68.047144 C -23.946387 68.069292 -23.940876 68.086951 -23.929802 68.099979 C -23.918728 68.113007 -23.905691 68.119644 -23.890709 68.119644 C -23.869864 68.119644 -23.842191 68.107911 -23.807666 68.08446 C -23.773142 68.060358 -23.752697 68.030966 -23.746183 67.996441 C -23.739018 67.961917 -23.735285 67.914688 -23.735285 67.854759 C -23.735285 67.79027 -23.759166 67.733915 -23.806718 67.685711 C -23.85362 67.636856 -23.916374 67.612382 -23.995194 67.612382 C -24.179298 67.612382 -24.369948 67.708143 -24.567019 67.899657 z M -23.167725 67.899657 C -23.195878 67.927016 -23.224246 67.956408 -23.252663 67.987675 C -23.479353 68.237163 -23.592654 68.49387 -23.592654 68.757689 C -23.592654 68.902301 -23.545426 69.0127 -23.450972 69.088914 C -23.355867 69.165128 -23.250683 69.203113 -23.135384 69.203113 C -23.056564 69.203113 -22.969929 69.185158 -22.875475 69.149331 C -22.78037 69.113503 -22.696638 69.065386 -22.624332 69.004805 C -22.552026 68.944224 -22.515937 68.897706 -22.515937 68.865136 C -22.515937 68.833869 -22.528678 68.818224 -22.554083 68.818224 C -22.566459 68.818224 -22.606459 68.841987 -22.674205 68.88954 C -22.741951 68.937092 -22.816557 68.975195 -22.897983 69.003857 C -22.978757 69.031868 -23.047438 69.045793 -23.10411 69.045793 C -23.202472 69.045793 -23.278382 69.01652 -23.331797 68.957893 C -23.384561 68.898615 -23.410931 68.824424 -23.410931 68.735181 C -23.410931 68.601643 -23.36471 68.455749 -23.27221 68.297458 C -23.17971 68.138515 -23.067298 68.007554 -22.935062 67.904632 C -22.802175 67.801059 -22.690888 67.749208 -22.600994 67.749208 C -22.543019 67.749208 -22.513924 67.782392 -22.513924 67.848836 C -22.513924 67.871635 -22.519553 67.906538 -22.530627 67.953439 C -22.541701 68.000992 -22.547212 68.03228 -22.547212 68.047262 C -22.547212 68.06941 -22.541582 68.086951 -22.530508 68.099979 C -22.519435 68.113007 -22.506516 68.119525 -22.491534 68.119525 C -22.470689 68.119525 -22.443015 68.107792 -22.408491 68.084342 C -22.373966 68.06024 -22.353404 68.030966 -22.34689 67.996441 C -22.339724 67.961917 -22.336228 67.914688 -22.336228 67.854759 C -22.336228 67.79027 -22.359872 67.733915 -22.407425 67.685711 C -22.454326 67.636856 -22.517199 67.6125 -22.596019 67.6125 C -22.780122 67.6125 -22.970654 67.708143 -23.167725 67.899657 z M -22.058194 67.821234 C -22.068942 67.831656 -22.074305 67.84216 -22.074305 67.852745 C -22.074305 67.906812 -22.055757 67.940411 -22.018627 67.953439 C -22.008204 67.965816 -22.002575 67.995208 -22.001923 68.041458 C -22.00062 68.087707 -22.001035 68.115677 -22.002989 68.125448 L -22.072291 68.704855 C -22.095741 68.898322 -22.107474 69.016127 -22.107474 69.058469 C -22.107474 69.135986 -22.078794 69.1748 -22.02147 69.1748 C -21.996716 69.1748 -21.975265 69.163186 -21.957026 69.139735 C -21.938135 69.116284 -21.928713 69.089796 -21.928713 69.060483 C -21.928713 69.018793 -21.926402 68.944898 -21.921842 68.838719 C -21.916631 68.731888 -21.909697 68.673934 -21.901229 68.664814 C -21.892109 68.655043 -21.85211 68.642895 -21.781107 68.628564 C -21.512076 68.575149 -21.298391 68.491535 -21.1401 68.377539 C -20.981157 68.263543 -20.901751 68.134597 -20.901751 67.990637 C -20.901751 67.893577 -20.943468 67.815653 -21.026848 67.757026 C -21.110228 67.6984 -21.222937 67.669126 -21.364944 67.669126 C -21.493271 67.669126 -21.643668 67.689392 -21.816291 67.72978 C -21.945269 67.759581 -22.025949 67.789966 -22.058194 67.821234 z M -21.815343 67.897761 C -21.655097 67.840437 -21.507603 67.811756 -21.372762 67.811756 C -21.166918 67.811756 -21.063927 67.878244 -21.063927 68.011131 C -21.063927 68.119264 -21.146948 68.218522 -21.313057 68.309067 C -21.479165 68.399613 -21.669503 68.459582 -21.883815 68.488895 C -21.877301 68.4218 -21.870368 68.35952 -21.863202 68.302196 C -21.849523 68.19276 -21.838086 68.09291 -21.828966 68.002365 C -21.824406 67.951555 -21.819903 67.916652 -21.815343 67.897761 z "
       transform="rotate(-60)" />
    <g
       id="g17"
       transform="rotate(30,42.01373,50.174845)"
       style="stroke-width:0.324196">
      <rect
         style="fill:#9f9f9f;fill-opacity:1;stroke-width:0.171554;stroke-linecap:round"
         id="rect13"
         width="0.22952217"
         height="2.0856578"
         x="-25.110779"
         y="62.855507"
         transform="rotate(-60)"
         rx="0.11476108" />
      <rect
         style="fill:#9f9f9f;fill-opacity:1;stroke-width:0.171554;stroke-linecap:round"
         id="rect14"
         width="0.22952217"
         height="2.7792139"
         x="-24.681673"
         y="62.855503"
         transform="rotate(-60)"
         rx="0.11476108" />
      <rect
         style="fill:#9f9f9f;fill-opacity:1;stroke-width:0.171554;stroke-linecap:round"
         id="rect15"
         width="0.22952217"
         height="2.0856578"
         x="-24.252567"
         y="62.855507"
         transform="rotate(-60)"
         rx="0.11476108" />
      <rect
         style="fill:#9f9f9f;fill-opacity:1;stroke-width:0.171554;stroke-linecap:round"
         id="rect16"
         width="0.22952217"
         height="1.0877347"
         x="63.783573"
         y="24.023045"
         transform="rotate(30)"
         rx="0.11476108" />
    </g>
    <rect
       style="fill:#9f9f9f;fill-opacity:1;stroke-width:0.171554;stroke-linecap:round"
       id="rect17"
       width="0.22952217"
       height="2.7792139"
       x="-42.115425"
       y="54.930588"
       transform="rotate(-75)"
       rx="0.11476108" />
    <path
       d="m 53.657239,54.360386 a 5.2690306,5.2690306 0 0 0 -2.52848,-3.59608 5.2690306,5.2690306 0 0 0 -2.609171,-0.70461 l -3.877681,6.716341 z"
       style="fill:#000000;fill-opacity:0.15;stroke-width:0.171553;stroke-linecap:round"
       id="path25" />
    <path
       id="path17"
       style="fill:#c0b27e;fill-opacity:1;stroke-width:0.171554;stroke-linecap:round"
       d="m 51.685396,59.493172 a 1.5168421,1.5168421 0 0 0 1.857694,1.072541 1.5168421,1.5168421 0 0 0 1.07254,-1.857695 1.5168421,1.5168421 0 0 0 -0.02516,-0.0725 1.1276524,1.1276524 0 0 0 0.62387,-1.317331 1.1276524,1.1276524 0 0 0 -0.177135,-0.36661 1.2773408,1.2773408 0 0 0 0.101726,-0.917784 1.2773408,1.2773408 0 0 0 -0.458859,-0.68058 1.7900587,1.740604 75 0 0 0.356817,-1.628151 1.7900587,1.740604 75 0 0 -1.211789,-1.263145 1.3580908,1.3420978 75 0 0 0.274691,-1.231187 1.3580908,1.3420978 75 0 0 -1.29102,-1.008913 1.3970915,1.3970915 0 0 0 -0.04496,-0.352795 1.3970915,1.3970915 0 0 0 -1.711297,-0.988018 1.3970915,1.3970915 0 0 0 -0.987703,1.711212 1.3970915,1.3970915 0 0 0 1.400104,1.030939 1.3580908,1.3420978 75 0 0 0.04222,0.302277 1.3580908,1.3420978 75 0 0 0.718723,0.87396 1.7900587,1.740604 75 0 0 -0.551781,1.826734 1.7900587,1.740604 75 0 0 1.068427,1.20883 1.2773408,1.2773408 0 0 0 -0.07133,0.860072 1.2773408,1.2773408 0 0 0 0.368683,0.608307 1.1276524,1.1276524 0 0 0 -0.04205,0.289789 1.5168421,1.5168421 0 0 0 -0.23986,0.04235 1.5168421,1.5168421 0 0 0 -1.07254,1.857694 z" />
  </g>
</svg>
