<?xml version="1.0" encoding="UTF-8" standalone="no"?>
<!-- Created with Inkscape (http://www.inkscape.org/) -->

<svg
   width="680"
   height="150"
   viewBox="0 0 179.91667 39.687499"
   version="1.1"
   id="svg1"
   inkscape:version="1.3.2 (091e20e, 2023-11-25, custom)"
   sodipodi:docname="venus_do_espaco.svg"
   xml:space="preserve"
   xmlns:inkscape="http://www.inkscape.org/namespaces/inkscape"
   xmlns:sodipodi="http://sodipodi.sourceforge.net/DTD/sodipodi-0.dtd"
   xmlns:xlink="http://www.w3.org/1999/xlink"
   xmlns="http://www.w3.org/2000/svg"
   xmlns:svg="http://www.w3.org/2000/svg"><sodipodi:namedview
     id="namedview1"
     pagecolor="#000000"
     bordercolor="#000000"
     borderopacity="0.25"
     inkscape:showpageshadow="2"
     inkscape:pageopacity="0.0"
     inkscape:pagecheckerboard="0"
     inkscape:deskcolor="#d1d1d1"
     inkscape:document-units="mm"
     inkscape:zoom="4"
     inkscape:cx="336.75"
     inkscape:cy="34.125"
     inkscape:window-width="1920"
     inkscape:window-height="1046"
     inkscape:window-x="-11"
     inkscape:window-y="-11"
     inkscape:window-maximized="1"
     inkscape:current-layer="layer1" /><defs
     id="defs1"><linearGradient
       id="linearGradient10"
       inkscape:collect="always"><stop
         style="stop-color:#000000;stop-opacity:0;"
         offset="0"
         id="stop37" /><stop
         style="stop-color:#000000;stop-opacity:1;"
         offset="0.14159292"
         id="stop9" /><stop
         style="stop-color:#000000;stop-opacity:0;"
         offset="0.72035396"
         id="stop10" /></linearGradient><linearGradient
       id="linearGradient28"
       inkscape:collect="always"><stop
         style="stop-color:#e2cc8f;stop-opacity:1;"
         offset="0.3984375"
         id="stop28" /><stop
         style="stop-color:#e2cc8f;stop-opacity:0;"
         offset="1"
         id="stop29" /></linearGradient><linearGradient
       inkscape:collect="always"
       xlink:href="#linearGradient28"
       id="linearGradient29"
       x1="3.0390141"
       y1="28.614182"
       x2="38.525776"
       y2="28.614182"
       gradientUnits="userSpaceOnUse"
       gradientTransform="matrix(0.74775463,0,0,7.382801,-35.338649,-137.24028)" /><linearGradient
       inkscape:collect="always"
       xlink:href="#linearGradient10"
       id="linearGradient31"
       x1="3.1363266"
       y1="37.765007"
       x2="38.462578"
       y2="37.765007"
       gradientUnits="userSpaceOnUse"
       gradientTransform="matrix(0.18069989,0,0,129.66907,-34.704167,-4822.9401)" /></defs><g
     inkscape:label="Terra"
     inkscape:groupmode="layer"
     id="layer1"
     transform="matrix(1.2674914,0,0,1.2674914,-3.8519242,-3.5814091)"><rect
       style="opacity:1;fill:#000000;fill-opacity:0;stroke-width:0.0546197"
       id="rect37"
       width="141.94704"
       height="23.819298"
       x="3.0390141"
       y="10.318142"
       inkscape:label="fundo" /><rect
       style="opacity:1;fill:url(#linearGradient29);stroke-width:0.406054"
       id="rect28"
       width="26.535389"
       height="141.94705"
       x="-33.066216"
       y="3.0390141"
       transform="rotate(-90)"
       inkscape:label="atm" /><rect
       style="opacity:1;fill:#dabd6e;fill-opacity:1;stroke-width:0.124905"
       id="rect10"
       width="141.94704"
       height="9.3569546"
       x="3.0390141"
       y="23.934361"
       inkscape:label="planeta" /><g
       id="g1"
       inkscape:label="crateras"><g
         id="g8-9-2"
         inkscape:label="cratera"
         transform="matrix(0.67973346,0,0,0.59143757,115.78852,10.533039)"><ellipse
           style="fill:#cfa941;fill-opacity:1;stroke-width:0.437417"
           id="ellipse6-6-0"
           cx="16.816227"
           cy="28.070869"
           rx="8.1174784"
           ry="2.5083773"
           inkscape:label="elevação" /><ellipse
           style="fill:#b49338;fill-opacity:1;stroke-width:0.29829"
           id="path1-1-0"
           cx="16.816227"
           cy="27.057825"
           rx="6.8074803"
           ry="1.3909588"
           inkscape:label="buraco" /><path
           d="m 16.816302,25.56263 v 0.104372 a 6.8074803,1.3909588 0 0 1 0.209561,8.16e-4 6.8074803,1.3909588 0 0 1 0.0077,0 6.8074803,1.3909588 0 0 1 1.958622,0.07257 6.8074803,1.3909588 0 0 1 0.009,4.07e-4 6.8074803,1.3909588 0 0 1 0.322497,0.02405 6.8074803,1.3909588 0 0 1 0.120681,0.01019 6.8074803,1.3909588 0 0 1 0.282133,0.02568 6.8074803,1.3909588 0 0 1 0.12435,0.01223 6.8074803,1.3909588 0 0 1 0.186322,0.01957 6.8074803,1.3909588 0 0 1 0.454593,0.05504 6.8074803,1.3909588 0 0 1 0.0848,0.01101 6.8074803,1.3909588 0 0 1 0.107227,0.01508 6.8074803,1.3909588 0 0 1 0.280502,0.04159 6.8074803,1.3909588 0 0 1 0.01875,0.0029 6.8074803,1.3909588 0 0 1 0.115381,0.01875 6.8074803,1.3909588 0 0 1 0.135766,0.02283 6.8074803,1.3909588 0 0 1 0.139436,0.02528 6.8074803,1.3909588 0 0 1 0.02895,0.0053 6.8074803,1.3909588 0 0 1 0.739579,0.161451 6.8074803,1.3909588 0 0 1 0.08154,0.02161 6.8074803,1.3909588 0 0 1 0.708185,0.234023 6.8074803,1.3909588 0 0 1 0.591175,0.373052 6.8074803,1.3909588 0 0 1 0.03343,0.04322 6.8074803,1.3909588 0 0 1 0.06116,0.139027 6.8074803,1.3909588 0 0 1 0.0061,0.05545 6.8074803,1.3909588 0 0 1 -0.05178,0.161451 6.8074803,1.3909588 0 0 1 -0.522271,0.393845 6.8074803,1.3909588 0 0 1 -0.283764,0.117419 6.8074803,1.3909588 0 0 1 -0.09703,0.03547 6.8074803,1.3909588 0 0 1 -2.38386,0.487209 6.8074803,1.3909588 0 0 1 -0.197738,0.02242 6.8074803,1.3909588 0 0 1 -0.570789,0.05749 6.8074803,1.3909588 0 0 1 -1.917851,0.104781 6.8074803,1.3909588 0 0 1 -0.782388,0.0106 v 2.130673 a 8.1174784,2.5083773 0 0 0 8.117434,-2.508617 8.1174784,2.5083773 0 0 0 -8.117434,-2.508209 z"
           style="fill:#000000;fill-opacity:0.06;stroke-width:0.208746"
           id="path17-9-2"
           inkscape:label="sombra" /></g><g
         id="g8-9-2-6"
         inkscape:label="cratera"
         transform="matrix(0.67973346,0,0,0.59143757,79.580717,9.41652)"><ellipse
           style="fill:#cfa941;fill-opacity:1;stroke-width:0.437417"
           id="ellipse6-6-0-3"
           cx="16.816227"
           cy="28.070869"
           rx="8.1174784"
           ry="2.5083773"
           inkscape:label="elevação" /><ellipse
           style="fill:#b49338;fill-opacity:1;stroke-width:0.29829"
           id="path1-1-0-2"
           cx="16.816227"
           cy="27.057825"
           rx="6.8074803"
           ry="1.3909588"
           inkscape:label="buraco" /><path
           d="m 16.816302,25.56263 v 0.104372 a 6.8074803,1.3909588 0 0 1 0.209561,8.16e-4 6.8074803,1.3909588 0 0 1 0.0077,0 6.8074803,1.3909588 0 0 1 1.958622,0.07257 6.8074803,1.3909588 0 0 1 0.009,4.07e-4 6.8074803,1.3909588 0 0 1 0.322497,0.02405 6.8074803,1.3909588 0 0 1 0.120681,0.01019 6.8074803,1.3909588 0 0 1 0.282133,0.02568 6.8074803,1.3909588 0 0 1 0.12435,0.01223 6.8074803,1.3909588 0 0 1 0.186322,0.01957 6.8074803,1.3909588 0 0 1 0.454593,0.05504 6.8074803,1.3909588 0 0 1 0.0848,0.01101 6.8074803,1.3909588 0 0 1 0.107227,0.01508 6.8074803,1.3909588 0 0 1 0.280502,0.04159 6.8074803,1.3909588 0 0 1 0.01875,0.0029 6.8074803,1.3909588 0 0 1 0.115381,0.01875 6.8074803,1.3909588 0 0 1 0.135766,0.02283 6.8074803,1.3909588 0 0 1 0.139436,0.02528 6.8074803,1.3909588 0 0 1 0.02895,0.0053 6.8074803,1.3909588 0 0 1 0.739579,0.161451 6.8074803,1.3909588 0 0 1 0.08154,0.02161 6.8074803,1.3909588 0 0 1 0.708185,0.234023 6.8074803,1.3909588 0 0 1 0.591175,0.373052 6.8074803,1.3909588 0 0 1 0.03343,0.04322 6.8074803,1.3909588 0 0 1 0.06116,0.139027 6.8074803,1.3909588 0 0 1 0.0061,0.05545 6.8074803,1.3909588 0 0 1 -0.05178,0.161451 6.8074803,1.3909588 0 0 1 -0.522271,0.393845 6.8074803,1.3909588 0 0 1 -0.283764,0.117419 6.8074803,1.3909588 0 0 1 -0.09703,0.03547 6.8074803,1.3909588 0 0 1 -2.38386,0.487209 6.8074803,1.3909588 0 0 1 -0.197738,0.02242 6.8074803,1.3909588 0 0 1 -0.570789,0.05749 6.8074803,1.3909588 0 0 1 -1.917851,0.104781 6.8074803,1.3909588 0 0 1 -0.782388,0.0106 v 2.130673 a 8.1174784,2.5083773 0 0 0 8.117434,-2.508617 8.1174784,2.5083773 0 0 0 -8.117434,-2.508209 z"
           style="fill:#000000;fill-opacity:0.06;stroke-width:0.208746"
           id="path17-9-2-0"
           inkscape:label="sombra" /></g><g
         id="g8-9-52"
         inkscape:label="cratera"
         transform="matrix(0.40225819,0,0,0.35000573,59.709627,18.980236)"><ellipse
           style="fill:#cfa941;fill-opacity:1;stroke-width:0.437417"
           id="ellipse6-6-2"
           cx="16.816227"
           cy="28.070869"
           rx="8.1174784"
           ry="2.5083773"
           inkscape:label="elevação" /><ellipse
           style="fill:#b49338;fill-opacity:1;stroke-width:0.29829"
           id="path1-1-07"
           cx="16.816227"
           cy="27.057825"
           rx="6.8074803"
           ry="1.3909588"
           inkscape:label="buraco" /><path
           d="m 16.816302,25.56263 v 0.104372 a 6.8074803,1.3909588 0 0 1 0.209561,8.16e-4 6.8074803,1.3909588 0 0 1 0.0077,0 6.8074803,1.3909588 0 0 1 1.958622,0.07257 6.8074803,1.3909588 0 0 1 0.009,4.07e-4 6.8074803,1.3909588 0 0 1 0.322497,0.02405 6.8074803,1.3909588 0 0 1 0.120681,0.01019 6.8074803,1.3909588 0 0 1 0.282133,0.02568 6.8074803,1.3909588 0 0 1 0.12435,0.01223 6.8074803,1.3909588 0 0 1 0.186322,0.01957 6.8074803,1.3909588 0 0 1 0.454593,0.05504 6.8074803,1.3909588 0 0 1 0.0848,0.01101 6.8074803,1.3909588 0 0 1 0.107227,0.01508 6.8074803,1.3909588 0 0 1 0.280502,0.04159 6.8074803,1.3909588 0 0 1 0.01875,0.0029 6.8074803,1.3909588 0 0 1 0.115381,0.01875 6.8074803,1.3909588 0 0 1 0.135766,0.02283 6.8074803,1.3909588 0 0 1 0.139436,0.02528 6.8074803,1.3909588 0 0 1 0.02895,0.0053 6.8074803,1.3909588 0 0 1 0.739579,0.161451 6.8074803,1.3909588 0 0 1 0.08154,0.02161 6.8074803,1.3909588 0 0 1 0.708185,0.234023 6.8074803,1.3909588 0 0 1 0.591175,0.373052 6.8074803,1.3909588 0 0 1 0.03343,0.04322 6.8074803,1.3909588 0 0 1 0.06116,0.139027 6.8074803,1.3909588 0 0 1 0.0061,0.05545 6.8074803,1.3909588 0 0 1 -0.05178,0.161451 6.8074803,1.3909588 0 0 1 -0.522271,0.393845 6.8074803,1.3909588 0 0 1 -0.283764,0.117419 6.8074803,1.3909588 0 0 1 -0.09703,0.03547 6.8074803,1.3909588 0 0 1 -2.38386,0.487209 6.8074803,1.3909588 0 0 1 -0.197738,0.02242 6.8074803,1.3909588 0 0 1 -0.570789,0.05749 6.8074803,1.3909588 0 0 1 -1.917851,0.104781 6.8074803,1.3909588 0 0 1 -0.782388,0.0106 v 2.130673 a 8.1174784,2.5083773 0 0 0 8.117434,-2.508617 8.1174784,2.5083773 0 0 0 -8.117434,-2.508209 z"
           style="fill:#000000;fill-opacity:0.06;stroke-width:0.208746"
           id="path17-9-3"
           inkscape:label="sombra" /></g><g
         id="g8-9-52-6"
         inkscape:label="cratera"
         transform="matrix(0.40225819,0,0,0.35000573,14.987051,18.928049)"><ellipse
           style="fill:#cfa941;fill-opacity:1;stroke-width:0.437417"
           id="ellipse6-6-2-1"
           cx="16.816227"
           cy="28.070869"
           rx="8.1174784"
           ry="2.5083773"
           inkscape:label="elevação" /><ellipse
           style="fill:#b49338;fill-opacity:1;stroke-width:0.29829"
           id="path1-1-07-9"
           cx="16.816227"
           cy="27.057825"
           rx="6.8074803"
           ry="1.3909588"
           inkscape:label="buraco" /><path
           d="m 16.816302,25.56263 v 0.104372 a 6.8074803,1.3909588 0 0 1 0.209561,8.16e-4 6.8074803,1.3909588 0 0 1 0.0077,0 6.8074803,1.3909588 0 0 1 1.958622,0.07257 6.8074803,1.3909588 0 0 1 0.009,4.07e-4 6.8074803,1.3909588 0 0 1 0.322497,0.02405 6.8074803,1.3909588 0 0 1 0.120681,0.01019 6.8074803,1.3909588 0 0 1 0.282133,0.02568 6.8074803,1.3909588 0 0 1 0.12435,0.01223 6.8074803,1.3909588 0 0 1 0.186322,0.01957 6.8074803,1.3909588 0 0 1 0.454593,0.05504 6.8074803,1.3909588 0 0 1 0.0848,0.01101 6.8074803,1.3909588 0 0 1 0.107227,0.01508 6.8074803,1.3909588 0 0 1 0.280502,0.04159 6.8074803,1.3909588 0 0 1 0.01875,0.0029 6.8074803,1.3909588 0 0 1 0.115381,0.01875 6.8074803,1.3909588 0 0 1 0.135766,0.02283 6.8074803,1.3909588 0 0 1 0.139436,0.02528 6.8074803,1.3909588 0 0 1 0.02895,0.0053 6.8074803,1.3909588 0 0 1 0.739579,0.161451 6.8074803,1.3909588 0 0 1 0.08154,0.02161 6.8074803,1.3909588 0 0 1 0.708185,0.234023 6.8074803,1.3909588 0 0 1 0.591175,0.373052 6.8074803,1.3909588 0 0 1 0.03343,0.04322 6.8074803,1.3909588 0 0 1 0.06116,0.139027 6.8074803,1.3909588 0 0 1 0.0061,0.05545 6.8074803,1.3909588 0 0 1 -0.05178,0.161451 6.8074803,1.3909588 0 0 1 -0.522271,0.393845 6.8074803,1.3909588 0 0 1 -0.283764,0.117419 6.8074803,1.3909588 0 0 1 -0.09703,0.03547 6.8074803,1.3909588 0 0 1 -2.38386,0.487209 6.8074803,1.3909588 0 0 1 -0.197738,0.02242 6.8074803,1.3909588 0 0 1 -0.570789,0.05749 6.8074803,1.3909588 0 0 1 -1.917851,0.104781 6.8074803,1.3909588 0 0 1 -0.782388,0.0106 v 2.130673 a 8.1174784,2.5083773 0 0 0 8.117434,-2.508617 8.1174784,2.5083773 0 0 0 -8.117434,-2.508209 z"
           style="fill:#000000;fill-opacity:0.06;stroke-width:0.208746"
           id="path17-9-3-0"
           inkscape:label="sombra" /></g></g><rect
       style="opacity:1;fill:url(#linearGradient31);stroke-width:0.303136"
       id="rect29"
       width="6.3834496"
       height="141.94704"
       x="-34.13744"
       y="3.0390141"
       transform="rotate(-90)"
       inkscape:label="sombra" /><g
       id="g40"
       inkscape:label="fumaça"
       style="display:inline"><circle
         style="fill:#3f3f3f;fill-opacity:1;stroke-width:0.208746"
         id="path40"
         cx="9.8673277"
         cy="18.168394"
         r="2.0809333" /><circle
         style="fill:#3f3f3f;fill-opacity:1;stroke-width:0.208746"
         id="path40-5"
         cx="10.416406"
         cy="17.033997"
         r="1.9961305" /><circle
         style="fill:#3f3f3f;fill-opacity:1;stroke-width:0.208746"
         id="path40-1"
         cx="10.756081"
         cy="14.091331"
         r="1.6895353" /><circle
         style="fill:#3f3f3f;fill-opacity:1;stroke-width:0.208746"
         id="path40-0"
         cx="12.843537"
         cy="13.047603"
         r="1.5394993" /><circle
         style="fill:#3f3f3f;fill-opacity:1;stroke-width:0.208746"
         id="path40-6"
         cx="12.895723"
         cy="10.399142"
         r="1.1611477" /><circle
         style="fill:#3f3f3f;fill-opacity:1;stroke-width:0.208746"
         id="path40-3"
         cx="30.130287"
         cy="18.383665"
         r="1.5851624" /><circle
         style="fill:#3f3f3f;fill-opacity:1;stroke-width:0.208746"
         id="path40-4"
         cx="32.367783"
         cy="17.672625"
         r="1.6503954" /><circle
         style="fill:#3f3f3f;fill-opacity:1;stroke-width:0.208746"
         id="path40-50"
         cx="32.002476"
         cy="14.971978"
         r="1.6960585" /><circle
         style="fill:#3f3f3f;fill-opacity:1;stroke-width:0.208746"
         id="path40-55"
         cx="34.089931"
         cy="13.360721"
         r="1.4742663" /><circle
         style="fill:#3f3f3f;fill-opacity:1;stroke-width:0.208746"
         id="path40-9"
         cx="34.644409"
         cy="10.960145"
         r="1.1807177" /><circle
         style="fill:#3f3f3f;fill-opacity:1;stroke-width:0.208746"
         id="path40-04"
         cx="49.165283"
         cy="19.584381"
         r="2.2469895" /><circle
         style="fill:#3f3f3f;fill-opacity:1;stroke-width:0.208746"
         id="path40-2"
         cx="50.579288"
         cy="17.533827"
         r="1.6657929" /><circle
         style="fill:#3f3f3f;fill-opacity:1;stroke-width:0.208746"
         id="path40-7"
         cx="50.799435"
         cy="15.319388"
         r="1.2691032" /><circle
         style="fill:#3f3f3f;fill-opacity:1;stroke-width:0.208746"
         id="path40-38"
         cx="52.897381"
         cy="12.994424"
         r="1.0845964" /><circle
         style="fill:#3f3f3f;fill-opacity:1;stroke-width:0.208746"
         id="path40-53"
         cx="54.71965"
         cy="12.37271"
         r="0.90931487" /><circle
         style="fill:#3f3f3f;fill-opacity:1;stroke-width:0.208746"
         id="path40-27"
         cx="52.787762"
         cy="14.530533"
         r="1.5089622" /><circle
         style="fill:#3f3f3f;fill-opacity:1;stroke-width:0.208746"
         id="path40-36"
         cx="72.75354"
         cy="18.057499"
         r="2.0809333" /><circle
         style="fill:#3f3f3f;fill-opacity:1;stroke-width:0.208746"
         id="path40-74"
         cx="74.440872"
         cy="15.716256"
         r="1.4351594" /><circle
         style="fill:#3f3f3f;fill-opacity:1;stroke-width:0.208746"
         id="path40-26"
         cx="73.972549"
         cy="13.51683"
         r="1.1768498" /><circle
         style="fill:#3f3f3f;fill-opacity:1;stroke-width:0.208746"
         id="path40-61"
         cx="75.511192"
         cy="12.549077"
         r="0.73403341" /><circle
         style="fill:#3f3f3f;fill-opacity:1;stroke-width:0.208746"
         id="path40-745"
         cx="71.552986"
         cy="18.049358"
         r="1.6657929" /><circle
         style="fill:#3f3f3f;fill-opacity:1;stroke-width:0.208746"
         id="path40-45"
         cx="84.195412"
         cy="17.848751"
         r="2.2635858" /><circle
         style="fill:#3f3f3f;fill-opacity:1;stroke-width:0.208746"
         id="path40-71"
         cx="85.701561"
         cy="16.333267"
         r="1.6750183" /><circle
         style="fill:#3f3f3f;fill-opacity:1;stroke-width:0.208746"
         id="path40-457"
         cx="85.103004"
         cy="14.169658"
         r="1.2598779" /><circle
         style="fill:#3f3f3f;fill-opacity:1;stroke-width:0.208746"
         id="path40-67"
         cx="86.459305"
         cy="12.798341"
         r="1.4074833" /><circle
         style="fill:#3f3f3f;fill-opacity:1;stroke-width:0.208746"
         id="path40-56"
         cx="88.009338"
         cy="10.692433"
         r="0.96466696" /><circle
         style="fill:#3f3f3f;fill-opacity:1;stroke-width:0.208746"
         id="path40-557"
         cx="105.63731"
         cy="17.916767"
         r="2.0809333" /><circle
         style="fill:#3f3f3f;fill-opacity:1;stroke-width:0.208746"
         id="path40-49"
         cx="107.35576"
         cy="16.043846"
         r="1.6750183" /><circle
         style="fill:#3f3f3f;fill-opacity:1;stroke-width:0.208746"
         id="path40-35"
         cx="107.56668"
         cy="12.419015"
         r="1.2045258" /><circle
         style="fill:#3f3f3f;fill-opacity:1;stroke-width:0.208746"
         id="path40-75"
         cx="109.35439"
         cy="11.739777"
         r="1.047695" /><circle
         style="fill:#3f3f3f;fill-opacity:1;stroke-width:0.208746"
         id="path40-09"
         cx="110.38977"
         cy="9.8091974"
         r="0.72480804" /><circle
         style="fill:#3f3f3f;fill-opacity:1;stroke-width:0.208746"
         id="path40-95"
         cx="107.10903"
         cy="14.136193"
         r="1.4905115" /><circle
         style="fill:#3f3f3f;fill-opacity:1;stroke-width:0.208746"
         id="path40-32"
         cx="123.61023"
         cy="17.435785"
         r="2.0809333" /><circle
         style="fill:#3f3f3f;fill-opacity:1;stroke-width:0.208745"
         id="path40-65"
         cx="125.48552"
         cy="15.132709"
         r="1.5550889" /><circle
         style="fill:#3f3f3f;fill-opacity:1;stroke-width:0.208746"
         id="path40-28"
         cx="125.69661"
         cy="12.826016"
         r="1.5458635" /><circle
         style="fill:#3f3f3f;fill-opacity:1;stroke-width:0.208746"
         id="path40-10"
         cx="127.79673"
         cy="11.59543"
         r="1.3060046" /><circle
         style="fill:#3f3f3f;fill-opacity:1;stroke-width:0.208746"
         id="path40-64"
         cx="125.56275"
         cy="17.43705"
         r="1.5274128" /><circle
         style="fill:#3f3f3f;fill-opacity:1;stroke-width:0.208746"
         id="path40-79"
         cx="128.78023"
         cy="8.8748627"
         r="1.0015683" /><circle
         style="fill:#3f3f3f;fill-opacity:1;stroke-width:0.208746"
         id="path40-12"
         cx="137.96048"
         cy="19.257788"
         r="1.6373488" /><circle
         style="fill:#3f3f3f;fill-opacity:1;stroke-width:0.208746"
         id="path40-22"
         cx="139.31732"
         cy="18.74897"
         r="2.0809333" /><circle
         style="fill:#3f3f3f;fill-opacity:1;stroke-width:0.208746"
         id="path40-69"
         cx="140.80463"
         cy="14.326169"
         r="1.2329041" /><circle
         style="fill:#3f3f3f;fill-opacity:1;stroke-width:0.208746"
         id="path40-94"
         cx="139.01726"
         cy="16.009182"
         r="1.4677429" /><circle
         style="fill:#3f3f3f;fill-opacity:1;stroke-width:0.208746"
         id="path40-90"
         cx="140.79158"
         cy="15.461226"
         r="1.4286032" /><circle
         style="fill:#3f3f3f;fill-opacity:1;stroke-width:0.208746"
         id="path40-8"
         cx="141.90053"
         cy="11.873408"
         r="0.85455257" /></g><g
       id="g5"
       inkscape:label="montanhas"><path
         d="m 51.278673,20.192647 h -4.301021 l -2.801722,4.259717 h 9.904463 z"
         style="fill:#b49338;stroke-width:0.207555"
         id="path4" /><path
         d="m 74.750615,19.003377 h -4.618289 l -3.008393,7.182156 h 10.635073 z"
         style="fill:#b49338;stroke-width:0.279271"
         id="path4-9" /><path
         d="M 86.590068,18.324953 H 81.881131 L 78.81369,24.672126 H 89.657509 Z"
         style="fill:#b49338;stroke-width:0.2651"
         id="path4-8" /><path
         d="m 107.61601,18.585885 h -3.91577 l -2.55076,5.929682 h 9.01729 z"
         style="fill:#b49338;stroke-width:0.233659"
         id="path4-93" /><path
         d="m 126.77726,18.276476 h -5.09419 l -3.3184,5.981868 h 11.73098 z"
         style="fill:#b49338;stroke-width:0.267679"
         id="path4-7" /><path
         d="m 140.72007,20.255851 h -4.36901 l -2.84601,5.094699 h 10.06102 z"
         style="fill:#b49338;stroke-width:0.228774"
         id="path4-3" /><path
         d="M 12.110078,18.168395 H 7.7863948 l -2.8164837,6.764664 h 9.9566499 z"
         style="fill:#b49338;stroke-width:0.262245"
         id="path4-85" /><path
         d="m 33.369899,19.003377 h -5.094191 l -3.318399,5.720936 h 11.730988 z"
         style="fill:#b49338;stroke-width:0.261775"
         id="path4-0" /></g><path
       id="path6"
       style="fill:#000000;fill-opacity:0.1;stroke-width:0.132825"
       inkscape:label="sombra"
       d="M 9.948414 18.168395 L 9.948414 24.933059 L 14.926509 24.933059 L 12.110073 18.168395 L 9.948414 18.168395 z M 121.6832 18.276437 L 118.54427 23.934178 L 109.91679 23.934178 L 107.61611 18.585886 L 103.70009 18.585886 L 101.3994 23.934178 L 89.300713 23.934178 L 86.589874 18.324954 L 81.881273 18.324954 L 79.170433 23.934178 L 76.815929 23.934178 L 74.750488 19.003377 L 74.401899 19.003377 L 72.441647 19.003377 L 72.441647 26.185533 L 74.401899 26.185533 L 74.401899 33.291447 L 144.98607 33.291447 L 144.98607 23.934178 L 142.77467 23.934178 L 140.72023 20.255851 L 136.35125 20.255851 L 134.29641 23.934178 L 129.91601 23.934178 L 126.77708 18.276437 L 121.6832 18.276437 z M 30.82298 19.003377 L 30.82298 24.724313 L 36.688244 24.724313 L 33.369922 19.003377 L 30.82298 19.003377 z M 49.128181 20.192657 L 49.128181 24.452373 L 54.08059 24.452373 L 51.278832 20.192657 L 49.128181 20.192657 z " /></g></svg>
