<?xml version="1.0" encoding="UTF-8" standalone="no"?>
<!-- Created with Inkscape (http://www.inkscape.org/) -->

<svg
   width="300"
   height="300"
   viewBox="0 0 79.374998 79.375"
   version="1.1"
   id="svg1"
   xml:space="preserve"
   inkscape:version="1.3.2 (091e20e, 2023-11-25, custom)"
   sodipodi:docname="viking.svg"
   xmlns:inkscape="http://www.inkscape.org/namespaces/inkscape"
   xmlns:sodipodi="http://sodipodi.sourceforge.net/DTD/sodipodi-0.dtd"
   xmlns="http://www.w3.org/2000/svg"
   xmlns:svg="http://www.w3.org/2000/svg"><sodipodi:namedview
     id="namedview1"
     pagecolor="#000000"
     bordercolor="#000000"
     borderopacity="0.25"
     inkscape:showpageshadow="2"
     inkscape:pageopacity="0.0"
     inkscape:pagecheckerboard="0"
     inkscape:deskcolor="#d1d1d1"
     inkscape:document-units="mm"
     inkscape:zoom="4.0000001"
     inkscape:cx="91.499998"
     inkscape:cy="177.625"
     inkscape:window-width="1920"
     inkscape:window-height="1046"
     inkscape:window-x="-11"
     inkscape:window-y="-11"
     inkscape:window-maximized="1"
     inkscape:current-layer="layer1" /><defs
     id="defs1" /><g
     inkscape:label="viking"
     inkscape:groupmode="layer"
     id="layer1"
     inkscape:highlight-color="#e53e3e"
     transform="matrix(1.0658963,0,0,1.0658963,-2.6152611,0.17784071)"
     style="stroke-width:0.938178"><rect
       style="fill:#777777;fill-opacity:1;stroke-width:0.496453;stroke-linecap:round"
       id="rect9"
       width="1.1643547"
       height="26.197979"
       x="6.4014544"
       y="12.601748"
       rx="0.80609167"
       transform="rotate(-30)"
       inkscape:label="other science antenna" /><rect
       style="fill:#777777;fill-opacity:1;stroke-width:0.496453;stroke-linecap:round"
       id="rect8"
       width="8.0432329"
       height="11.273192"
       x="28.309643"
       y="19.823086"
       rx="0.80609167"
       inkscape:label="RTG" /><g
       id="g10"
       inkscape:label="legs"
       style="stroke-width:0.938178"><g
         id="g4"
         inkscape:label="landing leg"
         transform="translate(-0.33640772)"
         style="stroke-width:0.938178"><rect
           style="fill:#686868;fill-opacity:1;stroke-width:0.496453;stroke-linecap:round"
           id="rect3"
           width="1.6121833"
           height="30.54192"
           x="23.858149"
           y="31.760126"
           ry="0"
           rx="0.80609167"
           transform="rotate(15)" /><rect
           style="fill:#686868;fill-opacity:1;stroke-width:0.496453;stroke-linecap:round"
           id="rect4"
           width="1.6121833"
           height="22.346653"
           x="39.740208"
           y="30.72595"
           ry="0"
           rx="0.80609167"
           transform="rotate(30)" /><path
           id="path2"
           style="fill:#888888;fill-opacity:1;stroke-width:0.496453;stroke-linecap:round"
           d="m 2.7899869,63.949828 a 5.6874242,2.821321 0 0 0 5.6875082,2.821533 5.6874242,2.821321 0 0 0 5.6869909,-2.821533 z" /></g><g
         id="g6"
         inkscape:label="landing leg"
         transform="matrix(-1,0,0,1,79.711408,0)"
         style="stroke-width:0.938178"><rect
           style="fill:#686868;fill-opacity:1;stroke-width:0.496453;stroke-linecap:round"
           id="rect5"
           width="1.6121833"
           height="30.54192"
           x="23.858149"
           y="31.760126"
           ry="0"
           rx="0.80609167"
           transform="rotate(15)" /><rect
           style="fill:#686868;fill-opacity:1;stroke-width:0.496453;stroke-linecap:round"
           id="rect6"
           width="1.6121833"
           height="22.346653"
           x="39.740208"
           y="30.72595"
           ry="0"
           rx="0.80609167"
           transform="rotate(30)" /><path
           id="path4"
           style="fill:#888888;fill-opacity:1;stroke-width:0.496453;stroke-linecap:round"
           d="m 2.7899869,63.949828 a 5.6874242,2.821321 0 0 0 5.6875082,2.821533 5.6874242,2.821321 0 0 0 5.6869909,-2.821533 z" /></g></g><g
       id="g1"
       inkscape:label="retorrockets"
       style="stroke-width:0.938178;fill:#262626;fill-opacity:1"
       transform="translate(-0.33640764)"><path
         sodipodi:type="star"
         style="fill:#262626;fill-opacity:1;stroke-width:0.496453;stroke-linecap:round"
         id="path10"
         inkscape:flatsided="true"
         sodipodi:sides="3"
         sodipodi:cx="99.185242"
         sodipodi:cy="232.22211"
         sodipodi:r1="14.560132"
         sodipodi:r2="7.280066"
         sodipodi:arg1="-1.5707963"
         sodipodi:arg2="-0.52359878"
         inkscape:rounded="0"
         inkscape:randomized="0"
         d="m 99.185242,217.66197 12.609448,21.8402 -25.218893,0 z"
         transform="matrix(0.26458333,0,0,0.26458333,-0.45659966,-8.4418723)"
         inkscape:transform-center-y="-0.96309282" /><path
         sodipodi:type="star"
         style="fill:#262626;fill-opacity:1;stroke-width:0.496453;stroke-linecap:round"
         id="path11"
         inkscape:flatsided="true"
         sodipodi:sides="3"
         sodipodi:cx="99.185242"
         sodipodi:cy="232.22211"
         sodipodi:r1="14.560132"
         sodipodi:r2="7.280066"
         sodipodi:arg1="-1.5707963"
         sodipodi:arg2="-0.52359878"
         inkscape:rounded="0"
         inkscape:randomized="0"
         d="m 99.185242,217.66197 12.609448,21.8402 -25.218893,0 z"
         transform="matrix(0.26458333,0,0,0.26458333,31.352951,-8.4418723)"
         inkscape:transform-center-y="-0.96309282" /></g><path
       id="rect1"
       style="fill:#9b9b9b;fill-opacity:1;stroke-width:0.496453;stroke-linecap:round"
       d="m 26.514144,27.337866 c -6.841808,0 -12.349634,5.507826 -12.349634,12.349634 V 52.037134 H 26.514144 52.860856 65.21049 V 39.6875 c 0,-6.841808 -5.507826,-12.349634 -12.349634,-12.349634 z"
       inkscape:label="body" /><g
       id="g21"
       inkscape:label="the flag"
       inkscape:highlight-color="#003399"
       transform="translate(-18.235169,8.2913446)"
       style="stroke-width:0.938178"><rect
         style="fill:#f4f4f4;fill-opacity:1;stroke:none;stroke-width:0"
         id="rect7-7"
         width="6.8884706"
         height="4.3293271"
         x="38.399181"
         y="22.805113"
         inkscape:label="white" /><path
         id="rect9-6"
         style="fill:#ff0000;fill-opacity:1;stroke:none;stroke-width:0"
         d="M 38.3992,22.804987 V 23.1383 h 6.888505 v -0.333313 z m 0,0.666109 v 0.333313 h 6.888505 v -0.333313 z m 0,0.666109 v 0.332796 h 6.888505 v -0.332796 z m 0,0.666109 v 0.332796 h 6.888505 v -0.332796 z m 0,0.666109 v 0.332797 h 6.888505 v -0.332797 z m 0,0.66611 v 0.332796 h 6.888505 v -0.332796 z m 0,0.666109 v 0.332796 h 6.888505 v -0.332796 z"
         inkscape:label="red" /><rect
         style="fill:#003399;fill-opacity:1;stroke:none;stroke-width:0"
         id="rect21"
         width="3.444272"
         height="2.3311768"
         x="38.399181"
         y="22.804934"
         inkscape:label="blue" /></g><circle
       style="fill:#777777;fill-opacity:1;stroke-width:0.496453;stroke-linecap:round"
       id="path7"
       cx="41.044895"
       cy="43.103474"
       r="9.9638786"
       inkscape:label="just another thing" /><path
       id="path39"
       style="fill:#000000;fill-opacity:0.15;stroke-width:0.496453;stroke-linecap:round"
       d="m 41.045058,27.338109 v 5.801713 18.897555 1.030428 a 9.9638786,9.9638786 0 0 0 4.245736,-1.030428 h 7.57008 2.730583 l -1.668632,2.889229 h 6.672978 l -1.668116,-2.889229 h 3.077849 l 6.877616,11.912451 h -3.336231 a 5.6874242,2.821321 0 0 0 5.686992,2.821533 5.6874242,2.821321 0 0 0 5.687508,-2.821533 h -4.774386 l -7.052282,-26.31829 c -0.01985,-0.0741 -0.06034,-0.134738 -0.09767,-0.197404 -1.054708,-5.756645 -6.06566,-10.096025 -12.136209,-10.096025 h -4.651396 -2.17196 z m 1.441256,5.914885 a 9.9638786,9.9638786 0 0 1 0.457853,0.09095 9.9638786,9.9638786 0 0 0 -0.457853,-0.09095 z m 1.420585,0.322461 a 9.9638786,9.9638786 0 0 1 0.505912,0.172082 9.9638786,9.9638786 0 0 0 -0.505912,-0.172082 z m 1.373559,0.531233 a 9.9638786,9.9638786 0 0 1 0.476974,0.235128 9.9638786,9.9638786 0 0 0 -0.476974,-0.235128 z m 1.323434,0.753443 a 9.9638786,9.9638786 0 0 1 0.387056,0.258382 9.9638786,9.9638786 0 0 0 -0.387056,-0.258382 z m 2.426208,2.297534 a 9.9638786,9.9638786 0 0 1 0.258382,0.387056 9.9638786,9.9638786 0 0 0 -0.258382,-0.387056 z m 0.776697,1.233516 a 9.9638786,9.9638786 0 0 1 0.235128,0.476974 9.9638786,9.9638786 0 0 0 -0.235128,-0.476974 z m 0.594279,1.344621 a 9.9638786,9.9638786 0 0 1 0.172082,0.505912 9.9638786,9.9638786 0 0 0 -0.172082,-0.505912 z m 0.403593,1.468644 a 9.9638786,9.9638786 0 0 1 0.09095,0.457853 9.9638786,9.9638786 0 0 0 -0.09095,-0.457853 z m 14.405839,3.087667 5.035868,18.794202 -6.379455,-11.048938 h 1.343587 z M 50.88115,44.545328 a 9.9638786,9.9638786 0 0 1 -0.0863,0.436665 9.9638786,9.9638786 0 0 0 0.0863,-0.436665 z m -0.339514,1.435571 a 9.9638786,9.9638786 0 0 1 -0.151412,0.45682 9.9638786,9.9638786 0 0 0 0.151412,-0.45682 z m -0.594279,1.478463 a 9.9638786,9.9638786 0 0 1 -0.148311,0.310575 9.9638786,9.9638786 0 0 0 0.148311,-0.310575 z m -0.928109,1.528589 a 9.9638786,9.9638786 0 0 1 -0.211356,0.253731 9.9638786,9.9638786 0 0 0 0.211356,-0.253731 z m -0.962215,1.093473 a 9.9638786,9.9638786 0 0 1 -0.346232,0.323494 9.9638786,9.9638786 0 0 0 0.346232,-0.323494 z m -1.151868,0.976684 a 9.9638786,9.9638786 0 0 1 -0.358634,0.259416 9.9638786,9.9638786 0 0 0 0.358634,-0.259416 z"
       inkscape:label="shadow" /><g
       id="g7"
       transform="rotate(30,25.342215,27.879302)"
       inkscape:label="antenna"
       style="stroke-width:0.938178"><rect
         style="fill:#c6c6c6;fill-opacity:1;stroke-width:0.496453;stroke-linecap:round"
         id="rect7"
         width="0.80609167"
         height="11.374848"
         x="43.036335"
         y="2.9556694"
         rx="0.80609167" /><path
         sodipodi:type="star"
         style="fill:#909090;fill-opacity:1;stroke-width:0.632983;stroke-linecap:round"
         id="path6"
         inkscape:flatsided="true"
         sodipodi:sides="3"
         sodipodi:cx="35.378468"
         sodipodi:cy="13.479644"
         sodipodi:r1="10.771468"
         sodipodi:r2="5.3857341"
         sodipodi:arg1="-0.52359878"
         sodipodi:arg2="0.52359878"
         inkscape:rounded="0"
         inkscape:randomized="0"
         d="M 44.706833,8.0939097 35.378468,24.251112 26.050102,8.0939098 Z"
         inkscape:transform-center-y="1.3568446"
         transform="matrix(1.220833,0,0,0.50386622,0.24818173,4.015662)"
         inkscape:transform-center-x="1.9285477e-06" /><rect
         style="fill:#909090;fill-opacity:1;stroke-width:0.496453;stroke-linecap:round"
         id="rect10"
         width="2.1717446"
         height="5.4817824"
         x="46.037632"
         y="23.969131"
         rx="0.80609167"
         inkscape:label="antenna support"
         transform="rotate(-30,25.342215,27.879301)" /><path
         id="path81"
         style="fill:#000000;fill-opacity:0.15;stroke-width:0.496453;stroke-linecap:round"
         d="m 53.476322,15.34325 -2.568835,4.449857 -3.118673,5.401221 -0.95188,1.649512 v 2.606559 c 0.0023,1.9e-5 0.0044,5.17e-4 0.0067,5.17e-4 h 0.559656 c 0.446574,0 0.806152,-0.359578 0.806152,-0.806153 V 26.84384 26.709998 l 12.560474,-1.222665 -9.513631,-5.492688 2.166276,-3.751709 c 0.223285,-0.386741 0.247114,-0.788045 0.05374,-0.899686 z"
         inkscape:label="shadow"
         transform="rotate(-30,25.342215,27.879301)" /></g></g></svg>
