<?xml version="1.0" encoding="UTF-8" standalone="no"?>
<!-- Created with Inkscape (http://www.inkscape.org/) -->

<svg
   width="65"
   height="65"
   viewBox="0 0 17.197916 17.197916"
   version="1.1"
   id="svg1"
   inkscape:version="1.3.2 (091e20e, 2023-11-25, custom)"
   sodipodi:docname="voskrod.svg"
   xmlns:inkscape="http://www.inkscape.org/namespaces/inkscape"
   xmlns:sodipodi="http://sodipodi.sourceforge.net/DTD/sodipodi-0.dtd"
   xmlns="http://www.w3.org/2000/svg"
   xmlns:svg="http://www.w3.org/2000/svg">
  <sodipodi:namedview
     id="namedview1"
     pagecolor="#000000"
     bordercolor="#000000"
     borderopacity="0.25"
     inkscape:showpageshadow="2"
     inkscape:pageopacity="0.0"
     inkscape:pagecheckerboard="0"
     inkscape:deskcolor="#d1d1d1"
     inkscape:document-units="mm"
     inkscape:zoom="11.313709"
     inkscape:cx="23.864854"
     inkscape:cy="31.068504"
     inkscape:window-width="1920"
     inkscape:window-height="1046"
     inkscape:window-x="-11"
     inkscape:window-y="-11"
     inkscape:window-maximized="1"
     inkscape:current-layer="layer1" />
  <defs
     id="defs1" />
  <g
     inkscape:label="voskhod 1 capsule"
     inkscape:groupmode="layer"
     id="layer1"
     transform="rotate(30,8.3030172,11.792118)">
    <rect
       style="fill:#496c00;fill-opacity:1;stroke-width:1.323"
       id="rect4"
       width="3.0096354"
       height="3.5470703"
       x="7.0941405"
       y="1.1823567"
       ry="0.41551396"
       rx="1.0004557"
       inkscape:label="retro rocket" />
    <g
       id="g3"
       inkscape:label="airlock"
       transform="rotate(15,8.9538524,5.4049096)">
      <rect
         style="fill:#ad8800;fill-opacity:1;stroke-width:1.323"
         id="rect2"
         width="9.7248249"
         height="3.1571214"
         x="-0.41637403"
         y="6.5209332"
         ry="0" />
      <path
         id="rect3"
         style="fill:#8f7100;fill-opacity:1;stroke-width:1.323"
         d="m -0.09876825,6.0553685 c -0.35242974,0.109159 -0.60684542,0.4367628 -0.60684542,0.8259961 l -3.7905e-4,2.4364633 c 0,0.4790562 0.38599501,0.8644121 0.86505128,0.8644121 0.47905628,0 0.86454624,-0.3854955 0.86454624,-0.8645518 L 1.0234847,6.8813587 c 0,-0.4790563 -0.38549586,-0.8645463 -0.86455213,-0.8645463 -0.08982305,0 -0.17637088,0.013366 -0.25770082,0.038556 z" />
    </g>
    <path
       id="path1"
       style="opacity:1;fill:#568000;fill-opacity:1;stroke-width:0.079375"
       d="M 8.5989583,3.3739543 A 4.4412022,4.4412022 0 0 0 4.1578857,7.8155436 4.4412022,4.4412022 0 0 0 5.2539429,10.735262 L 4.3754435,12.256616 H 8.5989583 12.822473 L 11.943974,10.735262 A 4.4412022,4.4412022 0 0 0 13.040031,7.8155436 4.4412022,4.4412022 0 0 0 8.5989583,3.3739543 Z"
       inkscape:label="base" />
    <path
       id="rect1"
       style="fill:#696969;fill-opacity:1;stroke-width:1.32292"
       inkscape:label="deorbity engine plate"
       d="m 6.5153646,14.033252 c -0.1371284,0 -0.2475301,0.110402 -0.2475301,0.24753 v 1.463477 c 0,0.137128 0.1104017,0.24753 0.2475301,0.24753 h 4.1671874 c 0.137128,0 0.24753,-0.110402 0.24753,-0.24753 v -1.463477 c 0,-0.137128 -0.110402,-0.24753 -0.24753,-0.24753 z" />
    <path
       id="path11"
       style="opacity:1;fill:#919191;fill-opacity:1;stroke-width:0.0941492"
       d="m 4.3754433,12.256297 1.8923911,3.24187 v 7.26e-4 h 4.6622476 v -7.26e-4 l 1.89239,-3.24187 h -1.89239 -4.6622476 z"
       inkscape:label="basis" />
    <circle
       style="opacity:1;fill:#003c7d;fill-opacity:1;stroke-width:0.0812509"
       id="path12"
       cx="8.598958"
       cy="8.099494"
       r="1.4200511"
       inkscape:label="window" />
    <g
       id="g4"
       inkscape:label="oxigen/nitrogen storages">
      <circle
         style="opacity:1;fill:#496c00;fill-opacity:1;stroke-width:0.139076"
         id="path13"
         cx="8.5989571"
         cy="11.786183"
         r="1.5625796" />
      <circle
         style="opacity:1;fill:#496c00;fill-opacity:1;stroke-width:0.139076"
         id="circle13"
         cx="11.581589"
         cy="11.430456"
         r="1.5625796" />
      <circle
         style="opacity:1;fill:#496c00;fill-opacity:1;stroke-width:0.139076"
         id="circle14"
         cx="5.6454206"
         cy="11.430456"
         r="1.5625796" />
    </g>
    <path
       id="path43"
       style="fill:#000000;fill-opacity:0.15;stroke-width:1.323"
       d="m 8.5989577,1.1823564 v 2.1915975 1.3554728 1.735811 0.214458 1.420068 1.419552 0.7043493 2.032434 5.17e-4 1.091923 a 1.5625796,1.5625796 0 0 0 0.3482992,-0.04496 1.5625796,1.5625796 0 0 1 -0.3482992,0.04496 v 0.684713 1.465544 0.492993 h 2.0835943 c 0.137128,0 0.24753,-0.110406 0.24753,-0.24753 v -0.245463 -5.17e-4 l 1.72961,-2.963127 a 1.5625796,1.5625796 0 0 1 -0.28422,0.219625 1.5625796,1.5625796 0 0 0 0.28422,-0.219625 1.5625796,1.5625796 0 0 0 0.484725,-1.104842 1.5625796,1.5625796 0 0 0 -0.740523,-1.328084 4.4412022,4.4412022 0 0 0 0.636137,-2.2866823 4.4412022,4.4412022 0 0 0 -2.936256,-4.1785568 v -2.039152 c 0,-0.2301941 -0.4462043,-0.4154785 -1.0004553,-0.4154785 z m 0.3291789,9.0810996 a 1.5625796,1.5625796 0 0 1 0.093018,0.02481 1.5625796,1.5625796 0 0 0 -0.093018,-0.02481 z m 0.342098,0.119373 a 1.5625796,1.5625796 0 0 1 0.065629,0.02946 1.5625796,1.5625796 0 0 0 -0.065629,-0.02946 z m 0.3395142,0.217041 a 1.5625796,1.5625796 0 0 1 0.053227,0.05168 1.5625796,1.5625796 0 0 0 -0.053227,-0.05168 z m 0.2315104,0.25063 a 1.5625796,1.5625796 0 0 1 0.053744,0.0739 1.5625796,1.5625796 0 0 0 -0.053744,-0.0739 z m 0.2459798,1.406116 A 1.5625796,1.5625796 0 0 1 9.9399612,12.57546 1.5625796,1.5625796 0 0 0 10.087239,12.256616 Z m 0.182935,0 a 1.5625796,1.5625796 0 0 0 0.218591,0.269234 1.5625796,1.5625796 0 0 1 -0.218591,-0.269234 z m 0.283704,0.331246 a 1.5625796,1.5625796 0 0 0 0.277502,0.205156 1.5625796,1.5625796 0 0 0 0.323495,0.131258 1.5625796,1.5625796 0 0 1 -0.323495,-0.131258 1.5625796,1.5625796 0 0 1 -0.277502,-0.205156 z m -0.6676603,0.0708 A 1.5625796,1.5625796 0 0 1 9.7069005,12.877767 1.5625796,1.5625796 0 0 0 9.8862177,12.658659 Z M 12.319145,12.7894 a 1.5625796,1.5625796 0 0 1 -0.316777,0.134876 1.5625796,1.5625796 0 0 0 0.316777,-0.134876 z m -2.6634042,0.14211 a 1.5625796,1.5625796 0 0 1 -0.2826701,0.20774 1.5625796,1.5625796 0 0 0 0.2826701,-0.20774 z m 2.2794482,0.0098 a 1.5625796,1.5625796 0 0 1 -0.353467,0.05168 1.5625796,1.5625796 0 0 1 -0.345199,-0.04702 1.5625796,1.5625796 0 0 0 0.345199,0.04702 1.5625796,1.5625796 0 0 0 0.353467,-0.05168 z m -2.6298144,0.230994 a 1.5625796,1.5625796 0 0 1 -0.2635498,0.10542 1.5625796,1.5625796 0 0 0 0.2635498,-0.10542 z" />
  </g>
</svg>
