<?xml version="1.0" encoding="UTF-8" standalone="no"?>
<!-- Created with Inkscape (http://www.inkscape.org/) -->

<svg
   width="65"
   height="65"
   viewBox="0 0 17.197916 17.197916"
   version="1.1"
   id="svg1"
   inkscape:version="1.3.2 (091e20e, 2023-11-25, custom)"
   sodipodi:docname="vostok.svg"
   xmlns:inkscape="http://www.inkscape.org/namespaces/inkscape"
   xmlns:sodipodi="http://sodipodi.sourceforge.net/DTD/sodipodi-0.dtd"
   xmlns="http://www.w3.org/2000/svg"
   xmlns:svg="http://www.w3.org/2000/svg">
  <sodipodi:namedview
     id="namedview1"
     pagecolor="#000000"
     bordercolor="#000000"
     borderopacity="0.25"
     inkscape:showpageshadow="2"
     inkscape:pageopacity="0.0"
     inkscape:pagecheckerboard="0"
     inkscape:deskcolor="#d1d1d1"
     inkscape:document-units="mm"
     inkscape:zoom="22.627417"
     inkscape:cx="24.837126"
     inkscape:cy="25.433747"
     inkscape:window-width="1920"
     inkscape:window-height="1046"
     inkscape:window-x="-11"
     inkscape:window-y="-11"
     inkscape:window-maximized="1"
     inkscape:current-layer="layer1" />
  <defs
     id="defs1" />
  <g
     inkscape:label="vostok 1 capsule"
     inkscape:groupmode="layer"
     id="layer1">
    <path
       id="path1"
       style="opacity:1;fill:#669900;fill-opacity:1;stroke-width:0.079375"
       d="M 8.5989583 3.3739543 A 4.4412022 4.4412022 0 0 0 4.1578857 7.8155436 A 4.4412022 4.4412022 0 0 0 5.2539429 10.735262 L 4.3754435 12.256616 L 8.5989583 12.256616 L 12.822473 12.256616 L 11.943974 10.735262 A 4.4412022 4.4412022 0 0 0 13.040031 7.8155436 A 4.4412022 4.4412022 0 0 0 8.5989583 3.3739543 z "
       inkscape:label="base" />
    <path
       id="rect1"
       style="fill:#acacac;fill-opacity:1;stroke-width:1.32292"
       inkscape:label="deorbity engine plate"
       d="M 6.5153646 14.033252 C 6.3782362 14.033252 6.2678345 14.143654 6.2678345 14.280782 L 6.2678345 15.744259 C 6.2678345 15.881387 6.3782362 15.991789 6.5153646 15.991789 L 10.682552 15.991789 C 10.81968 15.991789 10.930082 15.881387 10.930082 15.744259 L 10.930082 14.280782 C 10.930082 14.143654 10.81968 14.033252 10.682552 14.033252 L 6.5153646 14.033252 z " />
    <path
       id="path11"
       style="opacity:1;fill:#bfbfbf;stroke-width:0.0941492"
       d="m 4.3754433,12.256297 1.8923911,3.24187 v 7.26e-4 h 4.6622476 v -7.26e-4 l 1.89239,-3.24187 h -1.89239 -4.6622476 z"
       inkscape:label="basis" />
    <circle
       style="opacity:1;fill:#003c7d;fill-opacity:1;stroke-width:0.0812509"
       id="path12"
       cx="8.598958"
       cy="8.099494"
       r="1.4200511"
       inkscape:label="window" />
    <path
       id="path68"
       style="fill:#5f8d00;fill-opacity:1;stroke-width:1.32292"
       d="M 8.5989583 3.3708537 A 3.0547304 4.3993711 0 0 1 11.653552 7.7700684 A 3.0547304 4.3993711 0 0 1 8.5989583 12.1698 A 3.2418191 4.3993711 0 0 0 11.840621 7.7700684 A 3.2418191 4.3993711 0 0 0 8.5989583 3.3708537 z M 8.5989583 3.3708537 A 3.2418191 4.3993711 0 0 0 5.3572957 7.7700684 A 3.2418191 4.3993711 0 0 0 8.5989583 12.1698 A 3.0547304 4.3993711 0 0 1 5.5443644 7.7700684 A 3.0547304 4.3993711 0 0 1 8.5989583 3.3708537 z "
       inkscape:label="hold strips" />
    <g
       id="g4"
       inkscape:label="oxigen/nitrogen storages">
      <circle
         style="opacity:1;fill:#568000;fill-opacity:1;stroke-width:0.139076"
         id="path13"
         cx="8.5989571"
         cy="11.786183"
         r="1.5625796" />
      <circle
         style="opacity:1;fill:#568000;fill-opacity:1;stroke-width:0.139076"
         id="circle13"
         cx="11.581589"
         cy="11.430456"
         r="1.5625796" />
      <circle
         style="opacity:1;fill:#568000;fill-opacity:1;stroke-width:0.139076"
         id="circle14"
         cx="5.6454206"
         cy="11.430456"
         r="1.5625796" />
    </g>
    <path
       d="M 10.62855,3.8649022 A 4.4412022,4.4412022 0 0 0 8.5945655,3.3703588 4.4412022,4.4412022 0 0 0 6.5693662,3.8700699 2.4013362,0.78983456 0 0 0 8.5945655,4.2385228 2.4013362,0.78983456 0 0 0 10.62855,3.8649022 Z"
       style="display:inline;fill:#acacac;stroke-width:1.32292;fill-opacity:1"
       id="path18"
       inkscape:label="holder" />
    <g
       id="g5"
       inkscape:label="antenas">
      <rect
         style="opacity:1;fill:#808080;fill-opacity:1;stroke-width:0.0820618"
         id="rect14"
         width="0.13474521"
         height="2.5965414"
         x="8.5315857"
         y="0.96268177"
         ry="0.037330467" />
      <rect
         style="opacity:1;fill:#808080;fill-opacity:1;stroke-width:0.0820618"
         id="rect15"
         width="0.13474521"
         height="2.5965414"
         x="8.0513783"
         y="1.2904425"
         ry="0.037330467" />
      <rect
         style="opacity:1;fill:#808080;fill-opacity:1;stroke-width:0.0820618"
         id="rect16"
         width="0.13474521"
         height="2.5965414"
         x="9.0117931"
         y="1.2904425"
         ry="0.037330467" />
    </g>
    <path
       id="path61"
       style="fill:#000000;fill-opacity:0.15000001;stroke-width:1.32292"
       d="m 8.5989583,0.96268177 v 2.40812183 0.0031 0.1855184 0.6790283 2.4411946 2.8396203 0.7043498 2.032434 5.17e-4 1.091923 0.684713 1.465544 0.492993 h 2.0835937 c 0.137128,0 0.24753,-0.110411 0.24753,-0.24753 v -0.245463 -5.17e-4 l 1.72961,-2.963127 A 1.5625796,1.5625796 0 0 0 13.144417,11.430261 1.5625796,1.5625796 0 0 0 12.402861,10.10321 4.4412022,4.4412022 0 0 0 13.040031,7.8154935 4.4412022,4.4412022 0 0 0 10.625708,3.8658638 4.4412022,4.4412022 0 0 0 10.602454,3.8539782 4.4412022,4.4412022 0 0 0 10.012309,3.6059313 4.4412022,4.4412022 0 0 0 9.9513306,3.5857775 4.4412022,4.4412022 0 0 0 9.3498169,3.4395332 4.4412022,4.4412022 0 0 0 9.2366455,3.4219632 4.4412022,4.4412022 0 0 0 9.1467285,3.4080106 V 1.3275174 c 0,-0.02068 -0.017043,-0.037207 -0.037724,-0.037207 h -0.059945 c -0.020681,0 -0.037207,0.016527 -0.037207,0.037207 V 3.3956083 A 4.4412022,4.4412022 0 0 0 8.6661377,3.3759712 V 0.9998889 c 0,-0.020681 -0.016527,-0.037207 -0.037207,-0.037207 z"
       inkscape:label="shadow" />
  </g>
</svg>
