<?xml version="1.0" encoding="UTF-8" standalone="no"?>
<!-- Created with Inkscape (http://www.inkscape.org/) -->

<svg
   width="65"
   height="65"
   viewBox="0 0 17.197916 17.197916"
   version="1.1"
   id="svg1"
   inkscape:version="1.3.2 (091e20e, 2023-11-25, custom)"
   sodipodi:docname="vostok.svg"
   xmlns:inkscape="http://www.inkscape.org/namespaces/inkscape"
   xmlns:sodipodi="http://sodipodi.sourceforge.net/DTD/sodipodi-0.dtd"
   xmlns="http://www.w3.org/2000/svg"
   xmlns:svg="http://www.w3.org/2000/svg">
  <sodipodi:namedview
     id="namedview1"
     pagecolor="#000000"
     bordercolor="#000000"
     borderopacity="0.25"
     inkscape:showpageshadow="2"
     inkscape:pageopacity="0.0"
     inkscape:pagecheckerboard="0"
     inkscape:deskcolor="#d1d1d1"
     inkscape:document-units="mm"
     inkscape:zoom="12.272391"
     inkscape:cx="34.508354"
     inkscape:cy="25.137727"
     inkscape:window-width="2560"
     inkscape:window-height="1057"
     inkscape:window-x="-8"
     inkscape:window-y="-8"
     inkscape:window-maximized="1"
     inkscape:current-layer="layer1" />
  <defs
     id="defs1" />
  <g
     inkscape:label="Camada 1"
     inkscape:groupmode="layer"
     id="layer1">
    <circle
       style="opacity:1;fill:#669900;fill-opacity:1;stroke-width:0.079375"
       id="path1"
       cx="8.598958"
       cy="7.81531"
       r="4.4412022" />
    <path
       sodipodi:type="star"
       style="opacity:1;fill:#669900;fill-opacity:1;stroke-width:0.079375"
       id="path7"
       inkscape:flatsided="false"
       sodipodi:sides="3"
       sodipodi:cx="12.957099"
       sodipodi:cy="7.384037"
       sodipodi:r1="4.8767371"
       sodipodi:r2="2.438369"
       sodipodi:arg1="0.52359878"
       sodipodi:arg2="1.5707963"
       inkscape:rounded="0"
       inkscape:randomized="0"
       d="m 17.180477,9.8224056 -4.223378,5e-7 -4.2233783,-5e-7 2.1116883,-3.657553 2.11169,-3.6575527 2.111689,3.6575525 z"
       inkscape:transform-center-y="-1.2191841"
       transform="translate(-4.3581406,2.4341054)" />
    <path
       id="path11"
       style="opacity:1;fill:#bfbfbf;stroke-width:0.0941492"
       d="m 4.3754433,12.256297 1.8923911,3.24187 v 7.26e-4 h 4.6622476 v -7.26e-4 l 1.89239,-3.24187 h -1.89239 -4.6622476 z" />
    <circle
       style="opacity:1;fill:#003c7d;fill-opacity:1;stroke-width:0.0812509"
       id="path12"
       cx="8.598958"
       cy="8.099494"
       r="1.4200511" />
    <circle
       style="opacity:1;fill:#568000;fill-opacity:1;stroke-width:0.139076"
       id="path13"
       cx="8.5989571"
       cy="11.786183"
       r="1.5625796" />
    <circle
       style="opacity:1;fill:#568000;fill-opacity:1;stroke-width:0.139076"
       id="circle13"
       cx="11.581589"
       cy="11.430456"
       r="1.5625796" />
    <circle
       style="opacity:1;fill:#568000;fill-opacity:1;stroke-width:0.139076"
       id="circle14"
       cx="5.6454206"
       cy="11.430456"
       r="1.5625796" />
    <rect
       style="opacity:1;fill:#808080;fill-opacity:1;stroke-width:0.0820618"
       id="rect14"
       width="0.13474521"
       height="2.5965414"
       x="8.5315857"
       y="0.96268177"
       ry="0.037330467" />
    <rect
       style="opacity:1;fill:#808080;fill-opacity:1;stroke-width:0.0820618"
       id="rect15"
       width="0.13474521"
       height="2.5965414"
       x="8.0513783"
       y="1.2904425"
       ry="0.037330467" />
    <rect
       style="opacity:1;fill:#808080;fill-opacity:1;stroke-width:0.0820618"
       id="rect16"
       width="0.13474521"
       height="2.5965414"
       x="9.0117931"
       y="1.2904425"
       ry="0.037330467" />
    <path
       id="path80"
       style="fill-opacity:0.3;stroke-width:0.0801559"
       d="m 8.5989584,0.9624434 v 2.4117391 0.1850016 1.3823446 1.7378789 2.840137 0.7038334 2.03295 a 4.4412022,4.4412022 0 0 0 0.244429,-0.0072 4.4412022,4.4412022 0 0 1 -0.244429,0.0072 v 1.09244 2.150256 h 2.3311236 v -0.001 l 1.707389,-2.924886 A 1.5625796,1.5625796 0 0 0 13.144417,11.430572 1.5625796,1.5625796 0 0 0 12.399242,10.100937 4.4412022,4.4412022 0 0 0 13.04003,7.8152886 4.4412022,4.4412022 0 0 0 9.1467284,3.4088387 V 1.3277958 c 0,-0.020681 -0.01704,-0.037207 -0.03772,-0.037207 h -0.05994 c -0.02068,0 -0.03721,0.016526 -0.03721,0.037207 V 3.3948531 A 4.4412022,4.4412022 0 0 0 8.6661374,3.3762495 V 1.0001672 c 0,-0.020681 -0.01653,-0.037724 -0.03721,-0.037724 z m 3.2597486,8.9312382 a 1.5625796,1.5625796 0 0 1 0.01912,0.0041 1.5625796,1.5625796 0 0 0 -0.01912,-0.0041 z m -0.633036,0.03101 a 1.5625796,1.5625796 0 0 0 -0.05529,0.01447 1.5625796,1.5625796 0 0 1 0.05529,-0.01447 z m 0.90227,0.04444 a 1.5625796,1.5625796 0 0 1 0.02481,0.0093 1.5625796,1.5625796 0 0 0 -0.02481,-0.0093 z m -1.37511,0.1570974 a 1.5625796,1.5625796 0 0 0 -0.05168,0.03462 1.5625796,1.5625796 0 0 1 0.05168,-0.03462 z m -1.9187456,0.117305 a 1.5625796,1.5625796 0 0 1 0.05271,0.0088 1.5625796,1.5625796 0 0 0 -0.05271,-0.0088 z m 3.4390666,0.05374 a 4.4412022,4.4412022 0 0 1 -0.04082,0.05891 4.4412022,4.4412022 0 0 0 0.04082,-0.05891 z m -3.1641476,0.01292 a 1.5625796,1.5625796 0 0 1 0.03772,0.01499 1.5625796,1.5625796 0 0 0 -0.03772,-0.01499 z m 0.223759,0.09922 a 1.5625796,1.5625796 0 0 1 0.04289,0.02274 1.5625796,1.5625796 0 0 0 -0.04289,-0.02274 z m 1.0355956,0.0646 a 1.5625796,1.5625796 0 0 0 -0.03514,0.04651 1.5625796,1.5625796 0 0 1 0.03514,-0.04651 z m 1.76475,0.0186 a 4.4412022,4.4412022 0 0 1 -0.04444,0.05788 4.4412022,4.4412022 0 0 0 0.04444,-0.05788 z m -2.5667686,0.06873 a 1.5625796,1.5625796 0 0 1 0.03617,0.03049 1.5625796,1.5625796 0 0 0 -0.03617,-0.03049 z m 0.187069,0.175183 a 1.5625796,1.5625796 0 0 1 0.02429,0.02584 1.5625796,1.5625796 0 0 0 -0.02429,-0.02584 z m 0.3669026,0.189653 a 1.5625796,1.5625796 0 0 0 -0.01809,0.05374 1.5625796,1.5625796 0 0 1 0.01809,-0.05374 z m -0.2051556,0.02325 a 1.5625796,1.5625796 0 0 1 0.02635,0.04341 1.5625796,1.5625796 0 0 0 -0.02635,-0.04341 z m 1.8215946,0 a 4.4412022,4.4412022 0 0 1 -0.07235,0.06873 4.4412022,4.4412022 0 0 0 0.07235,-0.06873 z m -0.213941,0.199988 a 4.4412022,4.4412022 0 0 1 -0.09302,0.07855 4.4412022,4.4412022 0 0 0 0.09302,-0.07855 z m -1.43092,0.179317 a 1.5625796,1.5625796 0 0 1 0.0093,0.03204 1.5625796,1.5625796 0 0 0 -0.0093,-0.03204 z m 1.192692,0.01602 a 4.4412022,4.4412022 0 0 1 -0.09353,0.06873 4.4412022,4.4412022 0 0 0 0.09353,-0.06873 z m -0.241846,0.171566 a 4.4412022,4.4412022 0 0 1 -0.104386,0.0677 4.4412022,4.4412022 0 0 0 0.104386,-0.0677 z m -1.014925,0.04186 a 1.5625796,1.5625796 0 0 0 0.0026,0.0248 1.5625796,1.5625796 0 0 1 -0.0026,-0.0248 z m 0.124023,0.06253 a 1.5625796,1.5625796 0 0 1 0.0031,0.03204 1.5625796,1.5625796 0 0 0 -0.0031,-0.03204 z m 0.629936,0.05581 a 4.4412022,4.4412022 0 0 1 -0.101286,0.05684 4.4412022,4.4412022 0 0 0 0.101286,-0.05684 z m -0.271301,0.141593 a 4.4412022,4.4412022 0 0 1 -0.101803,0.04909 4.4412022,4.4412022 0 0 0 0.101803,-0.04909 z m -0.428914,0.01137 a 1.5625796,1.5625796 0 0 0 0.01085,0.03566 1.5625796,1.5625796 0 0 1 -0.01085,-0.03566 z m 0.05478,0.150378 a 1.5625796,1.5625796 0 0 1 -0.001,0.0072 1.5625796,1.5625796 0 0 0 0.05736,0.137459 1.5625796,1.5625796 0 0 0 0.06976,0.131775 1.5625796,1.5625796 0 0 1 -0.06976,-0.131775 1.5625796,1.5625796 0 0 1 -0.05736,-0.137459 1.5625796,1.5625796 0 0 1 -0.02015,0.130225 1.5625796,1.5625796 0 0 0 0.02015,-0.130225 1.5625796,1.5625796 0 0 1 -0.0021,-0.0057 4.4412022,4.4412022 0 0 1 -0.2346106,0.07906 4.4412022,4.4412022 0 0 0 0.2346106,-0.07906 4.4412022,4.4412022 0 0 0 0.0031,-0.0016 z m -0.3007566,0.0987 a 4.4412022,4.4412022 0 0 1 -0.167949,0.04548 4.4412022,4.4412022 0 0 0 0.167949,-0.04548 z m 0.2769846,0.05013 a 1.5625796,1.5625796 0 0 1 -0.03152,0.12764 1.5625796,1.5625796 0 0 0 0.03152,-0.12764 z m -0.5451856,0.0186 a 4.4412022,4.4412022 0 0 1 -0.141077,0.02946 4.4412022,4.4412022 0 0 0 0.141077,-0.02946 z m -0.233061,0.04599 a 4.4412022,4.4412022 0 0 1 -0.159163,0.02377 4.4412022,4.4412022 0 0 0 0.159163,-0.02377 z m -0.245463,0.03462 a 4.4412022,4.4412022 0 0 1 -0.169498,0.0155 4.4412022,4.4412022 0 0 0 0.169498,-0.0155 z m 1.2929446,0.192753 a 1.5625796,1.5625796 0 0 0 0.04393,0.04909 1.5625796,1.5625796 0 0 1 -0.04393,-0.04909 z m -0.3818886,0.03669 a 1.5625796,1.5625796 0 0 1 -0.0217,0.04496 1.5625796,1.5625796 0 0 0 0.0217,-0.04496 z m 0.5250316,0.114205 a 1.5625796,1.5625796 0 0 0 0.05064,0.04599 1.5625796,1.5625796 0 0 1 -0.05064,-0.04599 z m -0.6562896,0.112654 a 1.5625796,1.5625796 0 0 1 -0.02222,0.02894 1.5625796,1.5625796 0 0 0 0.02222,-0.02894 z m 2.6081086,0.01809 a 1.5625796,1.5625796 0 0 1 -0.05013,0.03359 1.5625796,1.5625796 0 0 0 0.05013,-0.03359 z m -1.778703,0.0093 a 1.5625796,1.5625796 0 0 0 0.04341,0.03101 1.5625796,1.5625796 0 0 1 -0.04341,-0.03101 z m 1.588017,0.105936 a 1.5625796,1.5625796 0 0 1 -0.04444,0.02377 1.5625796,1.5625796 0 0 0 0.04444,-0.02377 z m -1.367875,0.02377 a 1.5625796,1.5625796 0 0 0 0.04289,0.01809 1.5625796,1.5625796 0 0 1 -0.04289,-0.01809 z m -1.2019936,0.02687 a 1.5625796,1.5625796 0 0 1 -0.01757,0.01964 1.5625796,1.5625796 0 0 0 0.01757,-0.01964 z m 2.3357746,0.04806 a 1.5625796,1.5625796 0 0 1 -0.04393,0.0124 1.5625796,1.5625796 0 0 0 0.04393,-0.0124 z m -0.939994,5.17e-4 a 1.5625796,1.5625796 0 0 0 0.0615,0.01757 1.5625796,1.5625796 0 0 1 -0.0615,-0.01757 z m 0.199471,0.04909 a 1.5625796,1.5625796 0 0 0 0.0708,0.0124 1.5625796,1.5625796 0 0 1 -0.0708,-0.0124 z m 0.533817,10e-4 a 1.5625796,1.5625796 0 0 1 -0.05736,0.0098 1.5625796,1.5625796 0 0 0 0.05736,-0.0098 z m -2.3120026,0.06356 a 1.5625796,1.5625796 0 0 1 -0.03411,0.02532 1.5625796,1.5625796 0 0 0 0.03411,-0.02532 z m -0.219625,0.14056 a 1.5625796,1.5625796 0 0 1 -0.01912,0.0093 1.5625796,1.5625796 0 0 0 0.01912,-0.0093 z m -0.213424,0.09095 a 1.5625796,1.5625796 0 0 1 -0.02739,0.0098 1.5625796,1.5625796 0 0 0 0.02739,-0.0098 z m -0.236678,0.0615 a 1.5625796,1.5625796 0 0 1 -0.04651,0.0067 1.5625796,1.5625796 0 0 0 0.04651,-0.0067 z" />
  </g>
</svg>
