<?xml version="1.0" encoding="UTF-8" standalone="no"?>
<!-- Created with Inkscape (http://www.inkscape.org/) -->

<svg
   width="200"
   height="200"
   viewBox="0 0 52.916665 52.916666"
   version="1.1"
   id="svg1"
   inkscape:version="1.3.2 (091e20e, 2023-11-25, custom)"
   sodipodi:docname="voyager.svg"
   xmlns:inkscape="http://www.inkscape.org/namespaces/inkscape"
   xmlns:sodipodi="http://sodipodi.sourceforge.net/DTD/sodipodi-0.dtd"
   xmlns="http://www.w3.org/2000/svg"
   xmlns:svg="http://www.w3.org/2000/svg">
  <sodipodi:namedview
     id="namedview1"
     pagecolor="#000000"
     bordercolor="#000000"
     borderopacity="0.25"
     inkscape:showpageshadow="2"
     inkscape:pageopacity="0.0"
     inkscape:pagecheckerboard="0"
     inkscape:deskcolor="#d1d1d1"
     inkscape:document-units="mm"
     inkscape:zoom="11.313709"
     inkscape:cx="100.23239"
     inkscape:cy="107.17087"
     inkscape:window-width="2560"
     inkscape:window-height="1057"
     inkscape:window-x="-8"
     inkscape:window-y="-8"
     inkscape:window-maximized="1"
     inkscape:current-layer="g11" />
  <defs
     id="defs1" />
  <g
     inkscape:label="Camada 1"
     inkscape:groupmode="layer"
     id="layer1"
     style="display:inline">
    <g
       id="g11"
       inkscape:label="antena"
       transform="matrix(0.68296213,0,0,0.68296213,6.4942644,8.2997967)"
       style="display:inline">
      <path
         id="rect7"
         style="fill:#83d0ff;fill-opacity:1;stroke-width:0.0751958"
         d="M 32.844601 26.458524 C 32.772814 26.458524 32.715213 26.516124 32.715213 26.587911 C 32.715213 26.659699 32.772814 26.717299 32.844601 26.717299 L 38.05793 26.717299 C 38.129717 26.717299 38.188074 26.659699 38.188074 26.587911 C 38.188074 26.516124 38.129717 26.458524 38.05793 26.458524 L 32.844601 26.458524 z " />
      <rect
         style="fill:#83d0ff;fill-opacity:1;stroke-width:0.070724"
         id="rect9"
         width="4.8410974"
         height="0.25915956"
         x="38.314243"
         y="15.839706"
         ry="0.12957978"
         transform="rotate(15)" />
      <rect
         style="fill:#83d0ff;fill-opacity:1;stroke-width:0.070724"
         id="rect10"
         width="4.8410974"
         height="0.25915956"
         x="24.551325"
         y="35.265034"
         ry="0.12957978"
         transform="rotate(-15)" />
      <path
         id="path21"
         style="fill:#a8deff;stroke-width:0.079375"
         d="m 30.581864,19.798664 -2.124418,1.848982 -3.970817,3.455087 v 2.970361 l 3.970817,3.455086 2.124418,1.848983 z"
         transform="translate(2.7595819)" />
      <path
         id="rect12"
         style="fill:#60c3ff;fill-opacity:1;stroke-width:0.0295287"
         d="M 26.1657 -37.423856 C 26.1657 -37.352069 26.224057 -37.294468 26.295844 -37.294468 L 26.879979 -37.294468 C 26.951766 -37.294468 27.010123 -37.352069 27.010123 -37.423856 C 27.010123 -37.495643 26.951766 -37.553243 26.879979 -37.553243 L 26.295844 -37.553243 C 26.224057 -37.553243 26.1657 -37.495643 26.1657 -37.423856 z "
         transform="rotate(90)" />
    </g>
    <g
       id="g15"
       inkscape:label="arm-01"
       transform="matrix(0.68296213,0,0,0.68296213,8.3882937,8.3882947)"
       style="display:inline">
      <rect
         style="fill:#a8deff;fill-opacity:1;stroke-width:0.0461627"
         id="rect11"
         width="0.9451701"
         height="8.6215544"
         x="25.985746"
         y="30.368826"
         ry="0"
         rx="0.47258505" />
      <path
         id="rect15"
         style="fill:#404040;fill-opacity:1;stroke-width:0.162906"
         d="M 28.206198 38.198537 C 27.89031 38.198537 27.635683 38.453163 27.635683 38.769052 C 27.635683 39.08494 27.89031 39.33881 28.206198 39.33881 L 28.244031 39.33881 C 28.559919 39.33881 28.814546 39.08494 28.814546 38.769052 C 28.814546 38.453163 28.559919 38.198537 28.244031 38.198537 L 28.206198 38.198537 z " />
      <path
         id="rect14"
         style="fill:#60c3ff;fill-opacity:1;stroke-width:0.088806"
         d="M 25.94154 37.792971 C 25.613818 37.792971 25.349839 38.05695 25.349839 38.384673 L 25.349839 39.152674 C 25.349839 39.480396 25.613818 39.744376 25.94154 39.744376 L 27.920184 39.744376 C 28.247906 39.744376 28.511885 39.480396 28.511885 39.152674 L 28.511885 38.384673 C 28.511885 38.05695 28.247906 37.792971 27.920184 37.792971 L 25.94154 37.792971 z " />
    </g>
    <path
       id="rect12-8"
       style="display:inline;fill:#60c3ff;fill-opacity:1;stroke-width:0.0952261"
       inkscape:label="little-antena-01"
       d="M 1.8325924 -32.312473 C 1.8459915 -32.280688 1.8772083 -32.258311 1.9139792 -32.258311 L 14.587886 -32.258669 C 14.636914 -32.258669 14.676026 -32.297992 14.676026 -32.34702 C 14.676026 -32.396048 14.636569 -32.435659 14.587541 -32.435659 L 1.9141333 -32.435435 C 1.8651054 -32.435435 1.8254941 -32.395978 1.8254941 -32.34695 C 1.8254941 -32.334693 1.828126 -32.323067 1.8325924 -32.312473 z "
       transform="rotate(105)" />
    <path
       id="rect16"
       style="display:inline;fill:#60c3ff;fill-opacity:1;stroke-width:0.0952261"
       inkscape:label="little-antena-02"
       d="M 19.514206 -11.117777 C 19.50974 -11.107182 19.506809 -11.095518 19.506809 -11.083261 C 19.506809 -11.034233 19.546484 -10.995053 19.595512 -10.995053 L 32.269353 -10.994641 C 32.318381 -10.994641 32.357561 -11.034316 32.357561 -11.083344 C 32.357561 -11.132372 32.318145 -11.172 32.269117 -11.172 L 19.595465 -11.171705 C 19.558694 -11.171705 19.527605 -11.149561 19.514206 -11.117777 z "
       transform="rotate(60)" />
    <g
       id="g20"
       inkscape:label="radio-isotope-generator"
       transform="matrix(0.68296213,0,0,0.68296213,9.0233975,8.3882947)"
       style="display:inline">
      <rect
         style="fill:#404040;fill-opacity:1;stroke-width:0.079375"
         id="rect17"
         width="1.3281987"
         height="3.7405269"
         x="25.794233"
         y="14.752831"
         ry="0" />
      <rect
         style="display:inline;fill:#404040;fill-opacity:1;stroke-width:0.0295287"
         id="rect20"
         width="0.84391713"
         height="0.25915956"
         x="18.5473"
         y="-27.122433"
         ry="0.12957978"
         transform="rotate(90)" />
      <rect
         style="fill:#404040;fill-opacity:1;stroke-width:0.0295287"
         id="rect12-5"
         width="0.84391713"
         height="0.25915956"
         x="18.5473"
         y="-26.053392"
         ry="0.12957978"
         transform="rotate(90)" />
      <rect
         style="fill:#494949;fill-opacity:1;stroke-width:0.079375"
         id="rect18"
         width="1.8598509"
         height="0.2322724"
         x="25.528408"
         y="14.520557" />
      <rect
         style="fill:#494949;fill-opacity:1;stroke-width:0.079375"
         id="rect19"
         width="1.8598509"
         height="0.2322724"
         x="25.528408"
         y="18.493357" />
    </g>
    <path
       id="rect6"
       style="display:inline;fill:#ffcc00;fill-opacity:1;stroke-width:0.0472027"
       inkscape:label="body"
       d="M 25.372611 21.489128 C 25.222888 21.489128 25.102344 21.609672 25.102344 21.759395 L 25.102344 31.157271 C 25.102344 31.306995 25.222888 31.427539 25.372611 31.427539 L 27.544055 31.427539 C 27.693779 31.427539 27.814323 31.306995 27.814323 31.157271 L 27.814323 21.759395 C 27.814323 21.609672 27.693779 21.489128 27.544055 21.489128 L 25.372611 21.489128 z " />
    <path
       id="rect11-8"
       style="display:inline;fill:#a8deff;fill-opacity:1;stroke-width:0.053695"
       inkscape:label="arm-02"
       d="M 24.786228 6.8657248 C 24.607421 6.8657248 24.463487 7.0097455 24.463487 7.1885531 L 24.463522 23.622232 C 24.463522 23.801039 24.607542 23.944973 24.78635 23.944973 C 24.965158 23.944973 25.10906 23.801468 25.10906 23.622661 L 25.109057 7.1884662 C 25.109057 7.0096586 24.965036 6.8657248 24.786228 6.8657248 z "
       transform="rotate(-3.4341571)" />
    <circle
       style="opacity:0;fill:#494949;fill-opacity:1;stroke-width:0.102299"
       id="path24"
       cx="26.458334"
       cy="26.458334"
       r="21.769403"
       inkscape:label="sphere-of-influence" />
    <path
       id="path58"
       style="display:inline;fill:#000000;stroke-width:0.0295287;fill-opacity:0.2;opacity:1"
       inkscape:label="sombra"
       d="M 25.102344 26.458333 L 25.102344 27.472742 L 25.102344 31.157271 C 25.102344 31.306995 25.22289 31.427539 25.372611 31.427539 L 27.544055 31.427539 C 27.693779 31.427539 27.814323 31.306995 27.814323 31.157271 L 27.814323 29.832288 L 29.265397 31.09526 L 29.265397 27.315645 L 31.964974 26.592692 L 31.964974 26.657804 C 31.964974 26.706834 32.004311 26.746688 32.053341 26.746688 C 32.102371 26.746688 32.141707 26.706824 32.141707 26.657804 L 32.141707 26.5467 L 32.486389 26.5467 C 32.535419 26.5467 32.575273 26.507363 32.575273 26.458333 L 32.141707 26.458333 L 32.141707 26.459884 C 32.141637 26.459344 32.141305 26.458933 32.141191 26.458333 L 31.964974 26.458333 L 31.781523 26.458333 L 29.265397 26.458333 L 28.837516 26.458333 L 27.814323 26.458333 L 25.102344 26.458333 z M 29.265397 26.5467 L 31.45131 26.5467 L 29.265397 27.132194 L 29.265397 26.5467 z M 25.701274 34.866089 L 25.701274 35.128088 C 25.701274 35.35191 25.881563 35.532198 26.105383 35.532198 L 27.456722 35.532198 C 27.651426 35.532198 27.812756 35.395655 27.85153 35.212838 C 27.979185 35.149058 28.067537 35.019013 28.067537 34.866089 L 27.860832 34.866089 L 27.262419 34.866089 L 26.731185 34.866089 L 26.185482 34.866089 L 25.701274 34.866089 z " />
  </g>
</svg>
