<?xml version="1.0" encoding="UTF-8" standalone="no"?>
<!-- Created with Inkscape (http://www.inkscape.org/) -->

<svg
   width="200"
   height="200"
   viewBox="0 0 52.916665 52.916666"
   version="1.1"
   id="svg1"
   inkscape:version="1.3.2 (091e20e, 2023-11-25, custom)"
   sodipodi:docname="voyager_better.svg"
   xmlns:inkscape="http://www.inkscape.org/namespaces/inkscape"
   xmlns:sodipodi="http://sodipodi.sourceforge.net/DTD/sodipodi-0.dtd"
   xmlns="http://www.w3.org/2000/svg"
   xmlns:svg="http://www.w3.org/2000/svg">
  <sodipodi:namedview
     id="namedview1"
     pagecolor="#000000"
     bordercolor="#000000"
     borderopacity="0.25"
     inkscape:showpageshadow="2"
     inkscape:pageopacity="0.0"
     inkscape:pagecheckerboard="0"
     inkscape:deskcolor="#d1d1d1"
     inkscape:document-units="mm"
     inkscape:zoom="4.0000001"
     inkscape:cx="19.25"
     inkscape:cy="124.875"
     inkscape:window-width="2560"
     inkscape:window-height="1057"
     inkscape:window-x="-8"
     inkscape:window-y="-8"
     inkscape:window-maximized="1"
     inkscape:current-layer="layer1" />
  <defs
     id="defs1" />
  <g
     inkscape:label="Camada 1"
     inkscape:groupmode="layer"
     id="layer1"
     style="display:inline;stroke-width:0.496646"
     transform="matrix(1.6840068,-1.103781,1.103781,1.6840068,-41.703943,20.420492)">
    <g
       id="g11"
       inkscape:label="antena"
       transform="matrix(0.68296213,0,0,0.68296213,6.4942644,8.2997967)"
       style="display:inline;stroke-width:0.496646">
      <path
         id="rect7"
         style="fill:#83d0ff;fill-opacity:1;stroke-width:0.0373456"
         d="M 38.130696 26.480583 C 38.110021 26.466639 38.085107 26.458219 38.058187 26.458219 L 32.844602 26.458477 C 32.772815 26.458477 32.715224 26.516213 32.715224 26.588 C 32.715224 26.659788 32.77296 26.717378 32.844747 26.717378 L 38.058126 26.717434 C 38.129913 26.717434 38.187818 26.659904 38.187818 26.588117 C 38.187818 26.54325 38.165153 26.503824 38.130696 26.480583 z " />
      <rect
         style="fill:#83d0ff;fill-opacity:1;stroke-width:0.0351248"
         id="rect9"
         width="4.8410974"
         height="0.25915956"
         x="38.314243"
         y="15.839706"
         ry="0.12957978"
         transform="rotate(15)" />
      <rect
         style="fill:#83d0ff;fill-opacity:1;stroke-width:0.0351248"
         id="rect10"
         width="4.8410974"
         height="0.25915956"
         x="24.551325"
         y="35.265034"
         ry="0.12957978"
         transform="rotate(-15)" />
      <path
         id="path21"
         style="fill:#a8deff;stroke-width:0.0394213"
         d="m 30.581864,19.798664 -2.124418,1.848982 -3.970817,3.455087 v 2.970361 l 3.970817,3.455086 2.124418,1.848983 z"
         transform="translate(2.7595819)" />
      <path
         id="rect12"
         style="fill:#60c3ff;fill-opacity:1;stroke-width:0.0146653"
         d="M 26.18786 -37.496268 C 26.173916 -37.475593 26.166017 -37.450788 26.166017 -37.423868 C 26.166017 -37.35208 26.223547 -37.294175 26.295334 -37.294175 L 26.880262 -37.294051 C 26.952049 -37.294051 27.009846 -37.352101 27.009846 -37.423888 C 27.009846 -37.495675 26.95211 -37.553266 26.880323 -37.553266 L 26.295395 -37.553391 C 26.250528 -37.553391 26.211101 -37.530726 26.18786 -37.496268 z "
         transform="rotate(90)" />
    </g>
    <g
       id="g15"
       inkscape:label="arm-01"
       transform="matrix(0.68296213,0,0,0.68296213,8.3882937,8.3882947)"
       style="display:inline;stroke-width:0.496646">
      <rect
         style="fill:#a8deff;fill-opacity:1;stroke-width:0.0229265"
         id="rect11"
         width="0.9451701"
         height="8.6215544"
         x="25.985746"
         y="30.368826"
         ry="0"
         rx="0.47258505" />
      <path
         id="rect15"
         style="fill:#404040;fill-opacity:1;stroke-width:0.0809066"
         d="M 28.563508 38.29572 C 28.472533 38.23436 28.362689 38.198779 28.24423 38.198779 L 28.205979 38.198869 C 27.890091 38.198869 27.636029 38.452971 27.636029 38.768859 C 27.636029 39.084748 27.889924 39.339124 28.205813 39.339124 L 28.244378 39.33924 C 28.560267 39.33924 28.814535 39.084824 28.814535 38.768936 C 28.814535 38.571506 28.715133 38.397988 28.563508 38.29572 z " />
      <path
         id="rect14"
         style="fill:#60c3ff;fill-opacity:1;stroke-width:0.0441051"
         d="M 28.251649 37.894063 C 28.157266 37.830403 28.043356 37.793358 27.92046 37.793358 L 25.941275 37.793278 C 25.613552 37.793278 25.349815 38.057394 25.349815 38.385116 L 25.349764 39.152964 C 25.349764 39.480686 25.613565 39.744217 25.941287 39.744217 L 27.920473 39.744297 C 28.248195 39.744297 28.512041 39.480702 28.512041 39.15298 L 28.512298 38.384818 C 28.512298 38.179991 28.408955 38.000162 28.251649 37.894063 z " />
    </g>
    <path
       id="rect12-8"
       style="display:inline;fill:#60c3ff;fill-opacity:1;stroke-width:0.0472937"
       inkscape:label="little-antena-01"
       d="M 1.8324186 -32.381517 C 1.8279522 -32.370922 1.8256357 -32.359258 1.8256357 -32.347001 C 1.8256357 -32.297973 1.8650438 -32.258671 1.9140716 -32.258671 L 14.587604 -32.258563 C 14.636632 -32.258563 14.676258 -32.298134 14.676258 -32.347162 C 14.676258 -32.39619 14.63685 -32.435492 14.587822 -32.435492 L 1.9140462 -32.435681 C 1.8772752 -32.435681 1.8458177 -32.413302 1.8324186 -32.381517 z "
       transform="rotate(105)" />
    <path
       id="rect16"
       style="display:inline;fill:#60c3ff;fill-opacity:1;stroke-width:0.0472937"
       inkscape:label="little-antena-02"
       d="M 19.561052 -11.164718 C 19.529268 -11.151319 19.507265 -11.120046 19.507265 -11.083276 C 19.507265 -11.034248 19.546569 -10.994734 19.595597 -10.994734 L 32.269328 -10.994768 C 32.318356 -10.994768 32.357754 -11.0343 32.357754 -11.083328 C 32.357754 -11.132356 32.318222 -11.171754 32.269194 -11.171754 L 19.595691 -11.171836 C 19.583434 -11.171836 19.571647 -11.169185 19.561052 -11.164718 z "
       transform="rotate(60)" />
    <g
       id="g20"
       inkscape:label="radio-isotope-generator"
       transform="matrix(0.68296213,0,0,0.68296213,9.0233975,8.3882947)"
       style="display:inline;stroke-width:0.496646">
      <rect
         style="fill:#404040;fill-opacity:1;stroke-width:0.0394213"
         id="rect17"
         width="1.3281987"
         height="3.7405269"
         x="25.794233"
         y="14.752831"
         ry="0" />
      <rect
         style="display:inline;fill:#404040;fill-opacity:1;stroke-width:0.0146653"
         id="rect20"
         width="0.84391713"
         height="0.25915956"
         x="18.5473"
         y="-27.122433"
         ry="0.12957978"
         transform="rotate(90)" />
      <rect
         style="fill:#404040;fill-opacity:1;stroke-width:0.0146653"
         id="rect12-5"
         width="0.84391713"
         height="0.25915956"
         x="18.5473"
         y="-26.053392"
         ry="0.12957978"
         transform="rotate(90)" />
      <rect
         style="fill:#494949;fill-opacity:1;stroke-width:0.0394213"
         id="rect18"
         width="1.8598509"
         height="0.2322724"
         x="25.528408"
         y="14.520557" />
      <rect
         style="fill:#494949;fill-opacity:1;stroke-width:0.0394213"
         id="rect19"
         width="1.8598509"
         height="0.2322724"
         x="25.528408"
         y="18.493357" />
    </g>
    <path
       id="rect6"
       style="display:inline;fill:#ffcc00;fill-opacity:1;stroke-width:0.023443"
       inkscape:label="body"
       d="M 27.695456 21.534916 C 27.652336 21.505832 27.60005 21.488975 27.543903 21.488975 L 25.372514 21.488984 C 25.22279 21.488984 25.102347 21.60959 25.102347 21.759314 L 25.102392 31.157419 C 25.102392 31.307143 25.222857 31.427802 25.372581 31.427802 L 27.54397 31.427793 C 27.693693 31.427793 27.814352 31.307328 27.814352 31.157604 L 27.814233 21.759143 C 27.814233 21.665566 27.767323 21.583388 27.695456 21.534916 z " />
    <path
       id="rect11-8"
       style="display:inline;fill:#a8deff;fill-opacity:1;stroke-width:0.0266674"
       inkscape:label="arm-02"
       d="M 24.966912 6.9206805 C 24.915416 6.8859475 24.853509 6.8656464 24.786456 6.8656464 C 24.607648 6.8656464 24.463547 7.0095603 24.463547 7.1883679 L 24.46345 23.622457 C 24.46345 23.801265 24.607517 23.94516 24.786324 23.94516 C 24.965132 23.94516 25.109027 23.801093 25.109027 23.622285 L 25.108971 7.1884017 C 25.108971 7.076647 25.052739 6.9785688 24.966912 6.9206805 z "
       transform="rotate(-3.4341571)" />
    <circle
       style="opacity:0;fill:#494949;fill-opacity:1;stroke-width:0.0508064"
       id="path24"
       cx="26.458334"
       cy="26.458334"
       r="21.769403"
       inkscape:label="sphere-of-influence" />
    <path
       id="path58"
       style="display:inline;opacity:1;fill:#000000;fill-opacity:0.2;stroke-width:0.0146653"
       inkscape:label="sombra"
       d="m 25.102344,26.458333 v 1.014409 3.684529 c 0,0.149724 0.120546,0.270268 0.270267,0.270268 h 2.171444 c 0.149724,0 0.270268,-0.120544 0.270268,-0.270268 v -1.324983 l 1.451074,1.262972 v -3.779615 l 2.699577,-0.722953 v 0.06511 c 0,0.04903 0.03934,0.08888 0.08837,0.08888 0.04903,0 0.08837,-0.03986 0.08837,-0.08888 V 26.5467 h 0.344682 c 0.04903,0 0.08888,-0.03934 0.08888,-0.08837 H 32.14171 v 0.0016 c -7e-5,-5.4e-4 -4.02e-4,-9.51e-4 -5.16e-4,-0.0016 H 31.964977 31.781526 29.2654 28.837519 27.814326 Z m 4.163053,0.08837 h 2.185913 l -2.185913,0.585494 z m -3.564123,8.319389 v 0.261999 c 0,0.223822 0.180289,0.40411 0.404109,0.40411 h 1.351339 c 0.194704,0 0.356034,-0.136543 0.394808,-0.31936 0.127655,-0.06378 0.216007,-0.193825 0.216007,-0.346749 h -0.206705 -0.598413 -0.531234 -0.545703 z" />
  </g>
</svg>
